<?xml version="1.0" encoding="utf-8"?>
<!-- Generator: Adobe Illustrator 28.3.0, SVG Export Plug-In . SVG Version: 6.00 Build 0)  -->
<svg version="1.1" xmlns="http://www.w3.org/2000/svg" xmlns:xlink="http://www.w3.org/1999/xlink" x="0px" y="0px"
	 viewBox="0 0 595.3 413.4" style="enable-background:new 0 0 595.3 413.4;" xml:space="preserve">
<style type="text/css">
	.st0{fill:#E6E7E8;stroke:#FFFFFF;stroke-width:2;}
	.st1{fill:none;stroke:#808285;}
	.st2{font-family:'DINCondensed-Bold';}
	.st3{font-size:5.6px;}
	.st4{font-size:0.1px;}
	.st5{fill:none;}
	.st6{fill:#6D6E71;}
	.st7{font-size:8px;}
</style>
<g id="Layer_1">
	<g>
		<polygon class="st0" points="231,221.2 224.4,225 217.7,221.2 217.7,213.5 224.4,209.6 231,213.5 		"/>
		<polygon class="st0" points="217.7,221.2 211,225 204.4,221.2 204.4,213.5 211,209.6 217.7,213.5 		"/>
	</g>
	<g>
		<polygon class="st0" points="244.3,152 237.7,155.8 231,152 231,144.3 237.7,140.4 244.3,144.3 		"/>
		<polygon class="st0" points="237.7,163.5 231,167.4 224.4,163.5 224.4,155.8 231,152 237.7,155.8 		"/>
		<polygon class="st0" points="251,163.5 244.3,167.4 237.7,163.5 237.7,155.8 244.3,152 251,155.8 		"/>
	</g>
	<g>
		<polygon class="st0" points="377.4,313.4 370.8,317.3 364.1,313.4 364.1,305.7 370.8,301.9 377.4,305.7 		"/>
		<polygon class="st0" points="370.8,301.9 364.2,305.7 357.5,301.9 357.5,294.2 364.2,290.4 370.8,294.2 		"/>
		<polygon class="st0" points="384.1,301.9 377.5,305.7 370.8,301.9 370.8,294.2 377.5,290.4 384.1,294.2 		"/>
	</g>
	<g>
		<polygon class="st0" points="217.7,105.8 211,109.7 204.4,105.8 204.4,98.2 211,94.3 217.7,98.2 		"/>
		<polygon class="st0" points="217.7,128.9 211,132.8 204.4,128.9 204.4,121.2 211,117.4 217.7,121.2 		"/>
		<polygon class="st0" points="211,117.4 204.4,121.2 197.7,117.4 197.7,109.7 204.4,105.9 211,109.7 		"/>
		<polygon class="st0" points="224.4,117.4 217.7,121.2 211,117.4 211,109.7 217.7,105.9 224.4,109.7 		"/>
	</g>
	<g>
		<polygon class="st0" points="237.7,117.4 231,121.2 224.4,117.4 224.4,109.7 231,105.8 237.7,109.7 		"/>
		<polygon class="st0" points="237.7,140.4 231,144.3 224.4,140.4 224.4,132.8 231,128.9 237.7,132.8 		"/>
		<polygon class="st0" points="231,128.9 224.4,132.8 217.7,128.9 217.7,121.2 224.4,117.4 231,121.2 		"/>
		<polygon class="st0" points="244.3,128.9 237.7,132.8 231,128.9 231,121.2 237.7,117.4 244.3,121.2 		"/>
	</g>
	<g>
		<polygon class="st0" points="224.4,140.4 217.7,144.3 211,140.4 211,132.8 217.7,128.9 224.4,132.8 		"/>
		<polygon class="st0" points="217.7,152 211,155.8 204.4,152 204.4,144.3 211,140.4 217.7,144.3 		"/>
		<polygon class="st0" points="231,152 224.4,155.8 217.7,152 217.7,144.3 224.4,140.4 231,144.3 		"/>
	</g>
	<g>
		<polygon class="st0" points="191.1,82.8 184.4,86.6 177.8,82.8 177.8,75.1 184.4,71.3 191.1,75.1 		"/>
		<polygon class="st0" points="177.8,82.8 171.1,86.6 164.4,82.8 164.4,75.1 171.1,71.3 177.8,75.1 		"/>
		<polygon class="st0" points="204.4,105.9 197.7,109.7 191.1,105.9 191.1,98.2 197.7,94.3 204.4,98.2 		"/>
		<polygon class="st0" points="184.4,71.3 177.8,75.1 171.1,71.3 171.1,63.6 177.8,59.7 184.4,63.6 		"/>
		<polygon class="st0" points="171.1,71.3 164.4,75.1 157.8,71.3 157.8,63.6 164.4,59.7 171.1,63.6 		"/>
		<polygon class="st0" points="197.7,94.3 191.1,98.2 184.4,94.3 184.4,86.6 191.1,82.8 197.7,86.6 		"/>
		<polygon class="st0" points="197.7,71.3 191.1,75.1 184.4,71.3 184.4,63.6 191.1,59.7 197.7,63.6 		"/>
		<polygon class="st0" points="204.4,82.8 197.7,86.6 191.1,82.8 191.1,75.1 197.7,71.3 204.4,75.1 		"/>
		<polygon class="st0" points="211,94.3 204.4,98.2 197.7,94.3 197.7,86.6 204.4,82.8 211,86.6 		"/>
	</g>
	<g>
		<polygon class="st0" points="290.9,209.6 284.3,213.5 277.6,209.6 277.6,202 284.3,198.1 290.9,202 		"/>
		<polygon class="st0" points="277.6,209.6 271,213.5 264.3,209.6 264.3,202 271,198.1 277.6,202 		"/>
		<polygon class="st0" points="264.3,209.6 257.6,213.5 251,209.6 251,202 257.6,198.1 264.3,202 		"/>
		<polygon class="st0" points="284.3,221.2 277.6,225 271,221.2 271,213.5 277.6,209.6 284.3,213.5 		"/>
		<polygon class="st0" points="277.6,232.7 271,236.6 264.3,232.7 264.3,225 271,221.2 277.6,225 		"/>
		<polygon class="st0" points="271,221.2 264.3,225 257.6,221.2 257.6,213.5 264.3,209.6 271,213.5 		"/>
		<polygon class="st0" points="264.3,232.7 257.6,236.6 251,232.7 251,225 257.6,221.2 264.3,225 		"/>
		<polygon class="st0" points="284.3,198.1 277.6,202 271,198.1 271,190.4 277.6,186.6 284.3,190.4 		"/>
		<polygon class="st0" points="271,198.1 264.3,202 257.6,198.1 257.6,190.4 264.3,186.6 271,190.4 		"/>
		<polygon class="st0" points="297.6,221.2 290.9,225 284.3,221.2 284.3,213.5 290.9,209.6 297.6,213.5 		"/>
		<polygon class="st0" points="297.6,198.1 290.9,202 284.3,198.1 284.3,190.4 290.9,186.6 297.6,190.4 		"/>
		<polygon class="st0" points="310.9,198.1 304.2,202 297.6,198.1 297.6,190.4 304.2,186.6 310.9,190.4 		"/>
		<polygon class="st0" points="304.2,209.6 297.6,213.5 290.9,209.6 290.9,202 297.6,198.1 304.2,202 		"/>
		<polygon class="st0" points="277.6,186.6 271,190.4 264.3,186.6 264.3,178.9 271,175 277.6,178.9 		"/>
		<polygon class="st0" points="310.9,221.2 304.2,225 297.6,221.2 297.6,213.5 304.2,209.6 310.9,213.5 		"/>
	</g>
	<g>
		<polygon class="st0" points="344.2,325 337.5,328.8 330.9,325 330.9,317.3 337.5,313.4 344.2,317.3 		"/>
		<polygon class="st0" points="337.5,313.4 330.9,317.3 324.2,313.4 324.2,305.7 330.9,301.9 337.5,305.7 		"/>
		<polygon class="st0" points="317.6,325 310.9,328.8 304.2,325 304.2,317.3 310.9,313.4 317.6,317.3 		"/>
		<polygon class="st0" points="324.2,313.5 317.7,317.2 311,313.5 311,305.8 317.7,301.8 324.2,305.8 		"/>
		<polygon class="st0" points="330.9,325 324.2,328.8 317.6,325 317.6,317.3 324.2,313.4 330.9,317.3 		"/>
	</g>
	<g>
		<polygon class="st0" points="264.3,255.8 257.7,259.6 251,255.8 251,248.1 257.7,244.2 264.3,248.1 		"/>
		<polygon class="st0" points="251,255.8 244.3,259.6 237.7,255.8 237.7,248.1 244.3,244.2 251,248.1 		"/>
		<polygon class="st0" points="244.3,267.3 237.7,271.1 231,267.3 231,259.6 237.7,255.8 244.3,259.6 		"/>
		<polygon class="st0" points="257.7,267.3 251,271.2 244.3,267.3 244.3,259.6 251,255.8 257.7,259.6 		"/>
		<polygon class="st0" points="251,232.7 244.3,236.6 237.7,232.7 237.7,225 244.3,221.2 251,225 		"/>
		<polygon class="st0" points="237.7,232.7 231,236.6 224.4,232.7 224.4,225 231,221.2 237.7,225 		"/>
		<polygon class="st0" points="244.3,244.2 237.7,248.1 231,244.2 231,236.6 237.7,232.7 244.3,236.6 		"/>
		<polygon class="st0" points="237.7,255.8 231,259.6 224.3,255.8 224.3,248.1 231,244.2 237.7,248.1 		"/>
		<polygon class="st0" points="231,244.2 224.4,248.1 217.7,244.2 217.7,236.6 224.4,232.7 231,236.6 		"/>
		<polygon class="st0" points="257.7,244.2 251,248.1 244.3,244.2 244.3,236.6 251,232.7 257.7,236.6 		"/>
		<polygon class="st0" points="271,244.2 264.3,248.1 257.7,244.2 257.7,236.6 264.3,232.7 271,236.6 		"/>
	</g>
	<g>
		<polygon class="st0" points="397.4,371.1 390.8,374.9 384.1,371.1 384.1,363.4 390.8,359.6 397.4,363.4 		"/>
		<polygon class="st0" points="384.1,371.1 377.5,374.9 370.8,371.1 370.8,363.4 377.5,359.6 384.1,363.4 		"/>
		<polygon class="st0" points="410.8,348 404.1,351.9 397.4,348 397.4,340.3 404.1,336.5 410.8,340.3 		"/>
		<polygon class="st0" points="377.5,359.6 370.8,363.4 364.1,359.6 364.1,351.9 370.8,348 377.5,351.9 		"/>
		<polygon class="st0" points="397.4,348 390.8,351.9 384.1,348 384.1,340.3 390.8,336.5 397.4,340.3 		"/>
		<polygon class="st0" points="384.1,348 377.5,351.9 370.8,348 370.8,340.3 377.5,336.5 384.1,340.3 		"/>
		<polygon class="st0" points="404.1,359.6 397.4,363.4 390.8,359.6 390.8,351.9 397.4,348 404.1,351.9 		"/>
		<polygon class="st0" points="390.8,359.6 384.1,363.4 377.5,359.6 377.5,351.9 384.1,348 390.8,351.9 		"/>
		<polygon class="st0" points="417.4,359.6 410.8,363.4 404.1,359.6 404.1,351.9 410.8,348 417.4,351.9 		"/>
		<polygon class="st0" points="424,348.1 417.5,351.9 410.8,348.1 410.8,340.4 417.5,336.5 424,340.4 		"/>
	</g>
	<g>
		<polygon class="st0" points="350.8,359.6 344.2,363.4 337.5,359.6 337.5,351.9 344.2,348 350.8,351.9 		"/>
		<polygon class="st0" points="337.5,359.6 330.9,363.4 324.2,359.6 324.2,351.9 330.9,348 337.5,351.9 		"/>
		<polygon class="st0" points="344.2,348 337.5,351.9 330.9,348 330.9,340.3 337.5,336.5 344.2,340.3 		"/>
		<polygon class="st0" points="330.9,348 324.2,351.9 317.5,348 317.5,340.3 324.2,336.5 330.9,340.3 		"/>
		<polygon class="st0" points="337.5,336.5 330.9,340.3 324.2,336.5 324.2,328.8 330.9,325 337.5,328.8 		"/>
		<polygon class="st0" points="357.5,348 350.8,351.9 344.2,348 344.2,340.3 350.8,336.5 357.5,340.3 		"/>
		<polygon class="st0" points="370.8,348 364.1,351.9 357.5,348 357.5,340.3 364.1,336.5 370.8,340.3 		"/>
		<polygon class="st0" points="364.1,359.6 357.5,363.4 350.8,359.6 350.8,351.9 357.5,348 364.1,351.9 		"/>
	</g>
	<g>
		<polygon class="st0" points="324.2,198.1 317.6,202 310.9,198.1 310.9,190.4 317.6,186.6 324.2,190.4 		"/>
		<polygon class="st0" points="317.6,186.6 310.9,190.4 304.2,186.6 304.2,178.9 310.9,175 317.6,178.9 		"/>
		<polygon class="st0" points="330.9,209.6 324.2,213.5 317.6,209.6 317.6,202 324.2,198.1 330.9,202 		"/>
		<polygon class="st0" points="330.9,186.6 324.2,190.4 317.6,186.6 317.6,178.9 324.2,175 330.9,178.9 		"/>
		<polygon class="st0" points="324.2,175 317.6,178.9 310.9,175 310.9,167.4 317.6,163.5 324.2,167.4 		"/>
		<polygon class="st0" points="337.5,198.1 330.9,202 324.2,198.1 324.2,190.4 330.9,186.6 337.5,190.4 		"/>
		<polygon class="st0" points="344.2,209.6 337.5,213.5 330.9,209.6 330.9,202 337.5,198.1 344.2,202 		"/>
	</g>
	<g>
		<polygon class="st0" points="277.6,178.9 284.3,175 290.9,178.9 290.9,186.6 284.3,190.4 277.6,186.6 		"/>
		<polygon class="st0" points="290.9,178.9 297.6,175 304.2,178.9 304.2,186.6 297.6,190.4 290.9,186.6 		"/>
		<polygon class="st0" points="271,167.4 277.6,163.5 284.3,167.4 284.3,175 277.6,178.9 271,175 		"/>
		<polygon class="st0" points="264.3,155.8 271,152 277.6,155.8 277.6,163.5 271,167.4 264.3,163.5 		"/>
		<polygon class="st0" points="251,155.8 257.6,152 264.3,155.8 264.3,163.5 257.6,167.4 251,163.5 		"/>
		<polygon class="st0" points="257.6,144.3 264.3,140.4 271,144.3 271,152 264.3,155.8 257.6,152 		"/>
		<polygon class="st0" points="257.6,167.4 264.3,163.5 271,167.4 271,175 264.3,178.9 257.6,175 		"/>
	</g>
	<g>
		<polygon class="st0" points="304.2,163.5 297.6,167.4 290.9,163.5 290.9,155.8 297.6,152 304.2,155.8 		"/>
		<polygon class="st0" points="297.6,175 290.9,178.9 284.3,175 284.3,167.4 290.9,163.5 297.6,167.4 		"/>
		<polygon class="st0" points="310.9,175 304.2,178.9 297.6,175 297.6,167.4 304.2,163.5 310.9,167.4 		"/>
		<polygon class="st0" points="317.6,163.5 310.9,167.4 304.2,163.5 304.2,155.8 310.9,152 317.6,155.8 		"/>
		<polygon class="st0" points="311,151.9 304.3,155.8 297.6,151.9 297.6,144.2 304.3,140.4 311,144.2 		"/>
		<polygon class="st0" points="290.9,163.5 284.3,167.4 277.6,163.5 277.6,155.8 284.3,152 290.9,155.8 		"/>
	</g>
	<g>
		<polygon class="st0" points="497.6,313.5 491,317.3 484.3,313.5 484.3,305.8 491,301.9 497.6,305.8 		"/>
		<polygon class="st0" points="491,325 484.3,328.8 477.7,325 477.7,317.3 484.3,313.5 491,317.3 		"/>
	</g>
	<g>
		<polygon class="st0" points="517.6,301.9 511,305.8 504.3,301.9 504.3,294.3 511,290.4 517.6,294.3 		"/>
		<polygon class="st0" points="537.6,290.4 530.9,294.3 524.3,290.4 524.3,282.7 530.9,278.9 537.6,282.7 		"/>
		<polygon class="st0" points="530.9,301.9 524.3,305.8 517.6,301.9 517.6,294.3 524.3,290.4 530.9,294.3 		"/>
		<polygon class="st0" points="511,313.5 504.3,317.3 497.6,313.5 497.6,305.8 504.3,301.9 511,305.8 		"/>
	</g>
	<g>
		<polygon class="st0" points="504.3,301.9 497.6,305.8 491,301.9 491,294.2 497.6,290.4 504.3,294.2 		"/>
		<polygon class="st0" points="491,301.9 484.3,305.8 477.7,301.9 477.7,294.2 484.3,290.4 491,294.2 		"/>
		<polygon class="st0" points="497.6,290.4 491,294.2 484.3,290.4 484.3,282.7 491,278.9 497.6,282.7 		"/>
		<polygon class="st0" points="484.3,290.4 477.7,294.2 471,290.4 471,282.7 477.7,278.9 484.3,282.7 		"/>
		<polygon class="st0" points="510.9,290.4 504.3,294.2 497.6,290.4 497.6,282.7 504.3,278.9 510.9,282.7 		"/>
		<polygon class="st0" points="524.3,290.4 517.7,294.2 511,290.4 511,282.7 517.7,278.9 524.3,282.7 		"/>
	</g>
	<g>
		<polygon class="st0" points="464.3,325 457.7,328.8 451,325 451,317.3 457.7,313.5 464.3,317.3 		"/>
		<polygon class="st0" points="451,325 444.4,328.8 437.7,325 437.7,317.3 444.4,313.5 451,317.3 		"/>
		<polygon class="st0" points="477.7,325 471,328.8 464.3,325 464.3,317.3 471,313.5 477.7,317.3 		"/>
		<polygon class="st0" points="484.3,336.5 477.7,340.4 471,336.5 471,328.8 477.7,325 484.3,328.8 		"/>
		<polygon class="st0" points="437.7,325 431,328.8 424.4,325 424.4,317.3 431,313.5 437.7,317.3 		"/>
		<polygon class="st0" points="457.7,336.5 451,340.4 444.4,336.5 444.4,328.8 451,325 457.7,328.8 		"/>
	</g>
	<g>
		<polygon class="st0" points="464.3,348.1 457.7,351.9 451,348.1 451,340.4 457.7,336.5 464.3,340.4 		"/>
		<polygon class="st0" points="451,348.1 444.4,351.9 437.7,348.1 437.7,340.4 444.4,336.5 451,340.4 		"/>
		<polygon class="st0" points="444.4,336.5 437.7,340.4 431,336.5 431,328.8 437.7,325 444.4,328.8 		"/>
		<polygon class="st0" points="437.7,348.1 431,351.9 424.4,348.1 424.4,340.4 431,336.5 437.7,340.4 		"/>
		<polygon class="st0" points="464.3,371.1 457.7,375 451,371.1 451,363.4 457.7,359.6 464.3,363.4 		"/>
		<polygon class="st0" points="451,371.1 444.4,375 437.7,371.1 437.7,363.4 444.4,359.6 451,363.4 		"/>
		<polygon class="st0" points="457.7,359.6 451,363.4 444.4,359.6 444.4,351.9 451,348.1 457.7,351.9 		"/>
		<polygon class="st0" points="471,359.6 464.3,363.4 457.7,359.6 457.7,351.9 464.3,348.1 471,351.9 		"/>
		<polygon class="st0" points="471,336.5 464.3,340.4 457.7,336.5 457.7,328.8 464.3,325 471,328.8 		"/>
		<polygon class="st0" points="484.3,359.6 477.7,363.4 471,359.6 471,351.9 477.7,348.1 484.3,351.9 		"/>
		<polygon class="st0" points="457.7,382.7 451,386.5 444.4,382.7 444.4,375 451,371.1 457.7,375 		"/>
		<polygon class="st0" points="477.7,348.1 471,351.9 464.3,348.1 464.3,340.4 471,336.5 477.7,340.4 		"/>
		<polygon class="st0" points="444.4,359.6 437.7,363.4 431,359.6 431,351.9 437.7,348.1 444.4,351.9 		"/>
	</g>
	<g>
		<polygon class="st0" points="390.8,336.5 384.1,340.3 377.5,336.5 377.5,328.8 384.1,325 390.8,328.8 		"/>
		<polygon class="st0" points="377.5,336.5 370.8,340.3 364.1,336.5 364.1,328.8 370.8,325 377.5,328.8 		"/>
		<polygon class="st0" points="364.1,336.5 357.5,340.3 350.8,336.5 350.8,328.8 357.5,325 364.1,328.8 		"/>
		<polygon class="st0" points="364.1,313.4 357.5,317.3 350.8,313.4 350.8,305.7 357.5,301.9 364.1,305.7 		"/>
		<polygon class="st0" points="397.4,301.9 390.8,305.7 384.1,301.9 384.1,294.2 390.8,290.4 397.4,294.2 		"/>
		<polygon class="st0" points="350.8,336.5 344.2,340.3 337.5,336.5 337.5,328.8 344.2,325 350.8,328.8 		"/>
		<polygon class="st0" points="404.1,313.4 397.4,317.3 390.8,313.4 390.8,305.7 397.4,301.9 404.1,305.7 		"/>
		<polygon class="st0" points="410.8,325 404.1,328.8 397.4,325 397.4,317.3 404.1,313.4 410.8,317.3 		"/>
		<polygon class="st0" points="397.4,325 390.8,328.8 384.1,325 384.1,317.3 390.8,313.4 397.4,317.3 		"/>
		<polygon class="st0" points="384.1,325 377.5,328.8 370.8,325 370.8,317.3 377.5,313.4 384.1,317.3 		"/>
		<polygon class="st0" points="390.8,313.4 384.1,317.3 377.5,313.4 377.5,305.7 384.1,301.9 390.8,305.7 		"/>
		<polygon class="st0" points="390.8,290.4 384.1,294.2 377.5,290.4 377.5,282.7 384.1,278.8 390.8,282.7 		"/>
		<polygon class="st0" points="404.1,336.5 397.4,340.3 390.8,336.5 390.8,328.8 397.4,325 404.1,328.8 		"/>
		<polygon class="st0" points="357.5,325 350.8,328.8 344.2,325 344.2,317.3 350.8,313.4 357.5,317.3 		"/>
		<polygon class="st0" points="370.8,325 364.1,328.8 357.5,325 357.5,317.3 364.1,313.4 370.8,317.3 		"/>
	</g>
	<g>
		<polygon class="st0" points="237.7,186.6 231,190.4 224.4,186.6 224.4,178.9 231,175 237.7,178.9 		"/>
		<polygon class="st0" points="224.4,186.6 217.7,190.4 211,186.6 211,178.9 217.7,175 224.4,178.9 		"/>
		<polygon class="st0" points="224.4,163.5 217.7,167.4 211,163.5 211,155.8 217.7,152 224.4,155.8 		"/>
		<polygon class="st0" points="211,186.6 204.4,190.4 197.7,186.6 197.7,178.9 204.4,175 211,178.9 		"/>
		<polygon class="st0" points="237.7,209.6 231,213.5 224.4,209.6 224.4,202 231,198.1 237.7,202 		"/>
		<polygon class="st0" points="251,209.6 244.3,213.5 237.7,209.6 237.7,202 244.3,198.1 251,202 		"/>
		<polygon class="st0" points="224.4,209.6 217.7,213.5 211,209.6 211,202 217.7,198.1 224.4,202 		"/>
		<polygon class="st0" points="211,209.6 204.4,213.5 197.7,209.6 197.7,202 204.4,198.1 211,202 		"/>
		<polygon class="st0" points="231,198.1 224.4,202 217.7,198.1 217.7,190.4 224.4,186.6 231,190.4 		"/>
		<polygon class="st0" points="244.3,198.1 237.7,202 231,198.1 231,190.4 237.7,186.6 244.3,190.4 		"/>
		<polygon class="st0" points="257.7,175 251,178.9 244.3,175 244.3,167.4 251,163.5 257.7,167.4 		"/>
		<polygon class="st0" points="257.7,198.1 251,202 244.3,198.1 244.3,190.4 251,186.6 257.7,190.4 		"/>
		<polygon class="st0" points="244.3,221.2 237.7,225 231,221.2 231,213.5 237.7,209.6 244.3,213.5 		"/>
		<polygon class="st0" points="257.6,221.2 251,225 244.3,221.2 244.3,213.5 251,209.6 257.6,213.5 		"/>
		<polygon class="st0" points="244.3,175 237.7,178.9 231,175 231,167.4 237.7,163.5 244.3,167.4 		"/>
		<polygon class="st0" points="231,175 224.4,178.9 217.7,175 217.7,167.4 224.4,163.5 231,167.4 		"/>
		<polygon class="st0" points="251,186.6 244.3,190.4 237.7,186.6 237.7,178.9 244.3,175 251,178.9 		"/>
		<polygon class="st0" points="264.3,186.6 257.7,190.4 251,186.6 251,178.9 257.7,175 264.3,178.9 		"/>
		<polygon class="st0" points="217.7,198.1 211,202 204.4,198.1 204.4,190.4 211,186.6 217.7,190.4 		"/>
		<polygon class="st0" points="204.4,198.1 197.7,202 191.1,198.1 191.1,190.4 197.7,186.6 204.4,190.4 		"/>
	</g>
	<g>
		<polygon class="st0" points="191.1,105.8 184.4,109.7 177.8,105.8 177.8,98.2 184.4,94.3 191.1,98.2 		"/>
		<polygon class="st0" points="177.8,105.8 171.1,109.7 164.4,105.8 164.4,98.2 171.1,94.3 177.8,98.2 		"/>
		<polygon class="st0" points="204.4,128.9 197.7,132.8 191.1,128.9 191.1,121.2 197.7,117.4 204.4,121.2 		"/>
		<polygon class="st0" points="197.7,117.4 191.1,121.2 184.4,117.4 184.4,109.7 191.1,105.9 197.7,109.7 		"/>
		<polygon class="st0" points="211,140.4 204.4,144.3 197.7,140.4 197.7,132.8 204.4,128.9 211,132.8 		"/>
		<polygon class="st0" points="171.1,94.3 164.4,98.2 157.8,94.3 157.8,86.6 164.4,82.8 171.1,86.6 		"/>
		<polygon class="st0" points="184.4,94.3 177.8,98.2 171.1,94.3 171.1,86.6 177.8,82.8 184.4,86.6 		"/>
	</g>
	<g>
		<polygon class="st0" points="364.1,236.5 370.8,232.7 377.5,236.5 377.5,244.2 370.8,248.1 364.1,244.2 		"/>
		<polygon class="st0" points="404.1,328.8 410.8,325 417.4,328.8 417.4,336.5 410.8,340.3 404.1,336.5 		"/>
		<polygon class="st0" points="370.8,225 377.5,221.2 384.1,225 384.1,232.7 377.5,236.5 370.8,232.7 		"/>
		<polygon class="st0" points="410.8,317.3 417.4,313.4 424.1,317.3 424.1,325 417.4,328.8 410.8,325 		"/>
		<polygon class="st0" points="357.5,225 364.1,221.2 370.8,225 370.8,232.7 364.1,236.5 357.5,232.7 		"/>
		<polygon class="st0" points="350.9,213.5 357.5,209.6 364.2,213.5 364.2,221.2 357.5,225 350.9,221.2 		"/>
		<polygon class="st0" points="417.5,305.7 424.1,301.9 430.8,305.7 430.8,313.4 424.1,317.3 417.5,313.4 		"/>
		<polygon class="st0" points="417.4,328.8 424,325 430.7,328.8 430.7,336.5 424,340.3 417.4,336.5 		"/>
		<polygon class="st0" points="390.8,282.7 397.4,278.8 404.1,282.7 404.1,290.4 397.4,294.2 390.8,290.4 		"/>
		<polygon class="st0" points="390.8,259.6 397.4,255.8 404.1,259.6 404.1,267.3 397.4,271.1 390.8,267.3 		"/>
		<polygon class="st0" points="404.1,282.7 410.8,278.8 417.4,282.7 417.4,290.4 410.8,294.2 404.1,290.4 		"/>
		<polygon class="st0" points="404.1,305.7 410.8,301.9 417.4,305.7 417.4,313.4 410.8,317.3 404.1,313.4 		"/>
		<polygon class="st0" points="377.5,259.6 384.1,255.8 390.8,259.6 390.8,267.3 384.1,271.1 377.5,267.3 		"/>
		<polygon class="st0" points="377.5,236.5 384.1,232.7 390.8,236.5 390.8,244.2 384.1,248.1 377.5,244.2 		"/>
		<polygon class="st0" points="397.4,271.1 404.1,267.3 410.8,271.1 410.8,278.8 404.1,282.7 397.4,278.8 		"/>
		<polygon class="st0" points="384.1,271.1 390.8,267.3 397.4,271.1 397.4,278.8 390.8,282.7 384.1,278.8 		"/>
		<polygon class="st0" points="384.1,248.1 390.8,244.2 397.4,248.1 397.4,255.8 390.8,259.6 384.1,255.8 		"/>
		<polygon class="st0" points="370.8,248.1 377.5,244.2 384.1,248.1 384.1,255.8 377.5,259.6 370.8,255.8 		"/>
		<polygon class="st0" points="410.8,294.2 417.4,290.4 424.1,294.2 424.1,301.9 417.4,305.7 410.8,301.9 		"/>
		<polygon class="st0" points="397.4,294.2 404.1,290.4 410.8,294.2 410.8,301.9 404.1,305.7 397.4,301.9 		"/>
	</g>
	<g>
		<polygon class="st0" points="151.1,59.7 144.5,63.6 137.8,59.7 137.8,52 144.5,48.2 151.1,52 		"/>
		<polygon class="st0" points="137.8,59.7 131.1,63.6 124.5,59.7 124.5,52 131.1,48.2 137.8,52 		"/>
		<polygon class="st0" points="164.4,82.8 157.8,86.6 151.1,82.8 151.1,75.1 157.8,71.3 164.4,75.1 		"/>
		<polygon class="st0" points="144.5,71.3 137.8,75.1 131.1,71.3 131.1,63.6 137.8,59.7 144.5,63.6 		"/>
		<polygon class="st0" points="157.8,71.3 151.1,75.1 144.5,71.3 144.5,63.6 151.1,59.7 157.8,63.6 		"/>
		<polygon class="st0" points="144.5,48.2 137.8,52 131.1,48.2 131.1,40.5 137.8,36.7 144.5,40.5 		"/>
		<polygon class="st0" points="131.1,48.2 124.5,52 117.8,48.2 117.8,40.5 124.5,36.7 131.1,40.5 		"/>
	</g>
	<g>
		<polygon class="st0" points="111.2,82.8 104.5,86.6 97.9,82.8 97.9,75.1 104.5,71.2 111.2,75.1 		"/>
		<polygon class="st0" points="117.8,94.3 111.2,98.2 104.5,94.3 104.5,86.6 111.2,82.8 117.8,86.6 		"/>
	</g>
	<g>
		<polygon class="st0" points="284.3,267.3 277.6,271.1 271,267.3 271,259.6 277.6,255.8 284.3,259.6 		"/>
		<polygon class="st0" points="271,267.3 264.3,271.1 257.6,267.3 257.6,259.6 264.3,255.8 271,259.6 		"/>
		<polygon class="st0" points="284.3,244.2 277.6,248.1 271,244.2 271,236.6 277.6,232.7 284.3,236.6 		"/>
		<polygon class="st0" points="297.6,244.2 290.9,248.1 284.3,244.2 284.3,236.6 290.9,232.7 297.6,236.6 		"/>
		<polygon class="st0" points="310.9,244.2 304.2,248.1 297.6,244.2 297.6,236.6 304.2,232.7 310.9,236.6 		"/>
		<polygon class="st0" points="337.5,244.2 330.9,248.1 324.2,244.2 324.2,236.6 330.9,232.7 337.5,236.6 		"/>
		<polygon class="st0" points="350.9,244.2 344.2,248.1 337.5,244.2 337.5,236.6 344.2,232.7 350.9,236.6 		"/>
		<polygon class="st0" points="364.2,244.2 357.5,248.1 350.9,244.2 350.9,236.6 357.5,232.7 364.2,236.6 		"/>
		<polygon class="st0" points="324.2,221.2 317.6,225 310.9,221.2 310.9,213.5 317.6,209.6 324.2,213.5 		"/>
		<polygon class="st0" points="337.5,221.2 330.9,225 324.2,221.2 324.2,213.5 330.9,209.6 337.5,213.5 		"/>
		<polygon class="st0" points="350.9,221.2 344.2,225 337.5,221.2 337.5,213.5 344.2,209.6 350.9,213.5 		"/>
		<polygon class="st0" points="377.5,290.4 370.8,294.2 364.2,290.4 364.2,282.7 370.8,278.8 377.5,282.7 		"/>
		<polygon class="st0" points="344.2,255.8 337.5,259.6 330.9,255.8 330.9,248.1 337.5,244.2 344.2,248.1 		"/>
		<polygon class="st0" points="364.2,267.3 357.5,271.1 350.9,267.3 350.9,259.6 357.5,255.8 364.2,259.6 		"/>
		<polygon class="st0" points="377.5,267.3 370.8,271.1 364.2,267.3 364.2,259.6 370.8,255.8 377.5,259.6 		"/>
		<polygon class="st0" points="364.2,290.4 357.5,294.2 350.9,290.4 350.9,282.7 357.5,278.8 364.2,282.7 		"/>
		<polygon class="st0" points="350.9,313.4 344.2,317.3 337.5,313.4 337.5,305.7 344.2,301.9 350.9,305.7 		"/>
		<polygon class="st0" points="357.5,301.9 350.9,305.7 344.2,301.9 344.2,294.2 350.9,290.4 357.5,294.2 		"/>
		<polygon class="st0" points="370.8,278.8 364.2,282.7 357.5,278.8 357.5,271.1 364.2,267.3 370.8,271.1 		"/>
		<polygon class="st0" points="357.5,255.8 350.9,259.6 344.2,255.8 344.2,248.1 350.9,244.2 357.5,248.1 		"/>
		<polygon class="st0" points="370.8,255.8 364.2,259.6 357.5,255.8 357.5,248.1 364.2,244.2 370.8,248.1 		"/>
		<polygon class="st0" points="284.3,290.4 277.6,294.2 271,290.4 271,282.7 277.6,278.8 284.3,282.7 		"/>
		<polygon class="st0" points="271,290.4 264.3,294.2 257.6,290.4 257.6,282.7 264.3,278.8 271,282.7 		"/>
		<polygon class="st0" points="257.6,290.4 251,294.2 244.3,290.4 244.3,282.7 251,278.8 257.6,282.7 		"/>
		<polygon class="st0" points="277.6,278.8 271,282.7 264.3,278.8 264.3,271.1 271,267.3 277.6,271.1 		"/>
		<polygon class="st0" points="304.2,255.8 297.6,259.6 290.9,255.8 290.9,248.1 297.6,244.2 304.2,248.1 		"/>
		<polygon class="st0" points="290.9,255.8 284.3,259.6 277.6,255.8 277.6,248.1 284.3,244.2 290.9,248.1 		"/>
		<polygon class="st0" points="277.6,255.8 271,259.6 264.3,255.8 264.3,248.1 271,244.2 277.6,248.1 		"/>
		<polygon class="st0" points="290.9,232.7 284.3,236.6 277.6,232.7 277.6,225 284.3,221.2 290.9,225 		"/>
		<polygon class="st0" points="304.2,232.7 297.6,236.6 290.9,232.7 290.9,225 297.6,221.2 304.2,225 		"/>
		<polygon class="st0" points="317.6,232.7 310.9,236.6 304.2,232.7 304.2,225 310.9,221.2 317.6,225 		"/>
		<polygon class="st0" points="330.9,232.7 324.2,236.6 317.6,232.7 317.6,225 324.2,221.2 330.9,225 		"/>
		<polygon class="st0" points="317.6,209.6 310.9,213.5 304.2,209.6 304.2,201.9 310.9,198.1 317.6,201.9 		"/>
		<polygon class="st0" points="344.2,232.7 337.5,236.6 330.9,232.7 330.9,225 337.5,221.2 344.2,225 		"/>
		<polygon class="st0" points="357.5,232.7 350.9,236.6 344.2,232.7 344.2,225 350.9,221.2 357.5,225 		"/>
		<polygon class="st0" points="277.6,301.9 271,305.7 264.3,301.9 264.3,294.2 271,290.4 277.6,294.2 		"/>
		<polygon class="st0" points="264.3,278.8 257.6,282.7 251,278.8 251,271.1 257.6,267.3 264.3,271.1 		"/>
		<polygon class="st0" points="384.1,278.8 377.5,282.7 370.8,278.8 370.8,271.1 377.5,267.3 384.1,271.1 		"/>
		<polygon class="st0" points="290.9,301.9 284.3,305.7 277.6,301.9 277.6,294.2 284.3,290.4 290.9,294.2 		"/>
		<polygon class="st0" points="297.6,267.3 290.9,271.1 284.3,267.3 284.3,259.6 290.9,255.8 297.6,259.6 		"/>
	</g>
	<g>
		<polygon class="st0" points="330.9,278.8 324.2,282.7 317.6,278.8 317.6,271.1 324.2,267.3 330.9,271.1 		"/>
		<polygon class="st0" points="317.6,278.8 310.9,282.7 304.2,278.8 304.2,271.1 310.9,267.3 317.6,271.1 		"/>
		<polygon class="st0" points="317.6,255.8 310.9,259.6 304.2,255.8 304.2,248.1 310.9,244.2 317.6,248.1 		"/>
		<polygon class="st0" points="330.9,255.8 324.2,259.6 317.6,255.8 317.6,248.1 324.2,244.2 330.9,248.1 		"/>
		<polygon class="st0" points="304.2,278.8 297.6,282.7 290.9,278.8 290.9,271.1 297.6,267.3 304.2,271.1 		"/>
		<polygon class="st0" points="290.9,278.8 284.3,282.7 277.6,278.8 277.6,271.1 284.3,267.3 290.9,271.1 		"/>
		<polygon class="st0" points="330.9,301.9 324.2,305.7 317.6,301.9 317.6,294.2 324.2,290.4 330.9,294.2 		"/>
		<polygon class="st0" points="344.2,301.9 337.5,305.7 330.9,301.9 330.9,294.2 337.5,290.4 344.2,294.2 		"/>
		<polygon class="st0" points="317.6,301.9 310.9,305.7 304.2,301.9 304.2,294.2 310.9,290.4 317.6,294.2 		"/>
		<polygon class="st0" points="324.2,290.4 317.6,294.2 310.9,290.4 310.9,282.7 317.6,278.8 324.2,282.7 		"/>
		<polygon class="st0" points="337.5,290.4 330.9,294.2 324.2,290.4 324.2,282.7 330.9,278.8 337.5,282.7 		"/>
		<polygon class="st0" points="350.9,290.4 344.2,294.2 337.5,290.4 337.5,282.7 344.2,278.8 350.9,282.7 		"/>
		<polygon class="st0" points="350.9,267.3 344.2,271.1 337.5,267.3 337.5,259.6 344.2,255.8 350.9,259.6 		"/>
		<polygon class="st0" points="337.5,267.3 330.9,271.1 324.2,267.3 324.2,259.6 330.9,255.8 337.5,259.6 		"/>
		<polygon class="st0" points="324.2,267.3 317.6,271.1 310.9,267.3 310.9,259.6 317.6,255.8 324.2,259.6 		"/>
		<polygon class="st0" points="324.2,244.2 317.6,248.1 310.9,244.2 310.9,236.6 317.6,232.7 324.2,236.6 		"/>
		<polygon class="st0" points="310.9,267.3 304.2,271.1 297.6,267.3 297.6,259.6 304.2,255.8 310.9,259.6 		"/>
		<polygon class="st0" points="344.2,278.8 337.5,282.7 330.9,278.8 330.9,271.1 337.5,267.3 344.2,271.1 		"/>
		<polygon class="st0" points="357.5,278.8 350.9,282.7 344.2,278.8 344.2,271.1 350.9,267.3 357.5,271.1 		"/>
		<polygon class="st0" points="310.9,290.4 304.2,294.2 297.6,290.4 297.6,282.7 304.2,278.8 310.9,282.7 		"/>
		<polygon class="st0" points="297.6,290.4 290.9,294.2 284.3,290.4 284.3,282.7 290.9,278.8 297.6,282.7 		"/>
		<polygon class="st0" points="304.2,301.9 297.6,305.7 290.9,301.9 290.9,294.2 297.6,290.4 304.2,294.2 		"/>
	</g>
	<g id="Capa_2">
		<g id="Capa_3">
			<g id="Capa_4">
			</g>
		</g>
	</g>
	<g id="Capa_9">
	</g>
	<g>
		<polygon class="st0" points="104.5,48.2 97.9,52 91.2,48.2 91.2,40.5 97.9,36.7 104.5,40.5 		"/>
		<polygon class="st0" points="117.8,48.2 111.2,52 104.5,48.2 104.5,40.5 111.2,36.7 117.8,40.5 		"/>
		<polygon class="st0" points="91.2,48.2 84.5,52 77.9,48.2 77.9,40.5 84.5,36.7 91.2,40.5 		"/>
		<polygon class="st0" points="77.9,48.2 71.2,52 64.6,48.2 64.6,40.5 71.2,36.7 77.9,40.5 		"/>
		<polygon class="st0" points="97.9,59.7 91.2,63.6 84.5,59.7 84.5,52 91.2,48.2 97.9,52 		"/>
		<polygon class="st0" points="84.5,59.7 77.9,63.6 71.2,59.7 71.2,52 77.9,48.2 84.5,52 		"/>
		<polygon class="st0" points="104.5,71.2 97.9,75.1 91.2,71.2 91.2,63.6 97.9,59.7 104.5,63.6 		"/>
		<polygon class="st0" points="111.2,59.7 104.5,63.6 97.9,59.7 97.9,52 104.5,48.2 111.2,52 		"/>
		<polygon class="st0" points="64.6,48.2 58,52 51.3,48.2 51.3,40.5 58,36.7 64.6,40.5 		"/>
	</g>
	<g>
		<polygon class="st0" points="264.3,117.4 257.6,121.2 251,117.4 251,109.7 257.6,105.8 264.3,109.7 		"/>
		<polygon class="st0" points="251,117.4 244.3,121.2 237.7,117.4 237.7,109.7 244.3,105.8 251,109.7 		"/>
		<polygon class="st0" points="264.3,94.3 257.6,98.2 251,94.3 251,86.6 257.6,82.8 264.3,86.6 		"/>
		<polygon class="st0" points="264.3,140.4 257.6,144.3 251,140.4 251,132.8 257.6,128.9 264.3,132.8 		"/>
		<polygon class="st0" points="251,140.4 244.3,144.3 237.7,140.4 237.7,132.8 244.3,128.9 251,132.8 		"/>
		<polygon class="st0" points="257.6,128.9 251,132.8 244.3,128.9 244.3,121.2 251,117.4 257.6,121.2 		"/>
		<polygon class="st0" points="271,128.9 264.3,132.8 257.6,128.9 257.6,121.2 264.3,117.4 271,121.2 		"/>
		<polygon class="st0" points="271,105.8 264.3,109.7 257.6,105.8 257.6,98.2 264.3,94.3 271,98.2 		"/>
		<polygon class="st0" points="257.6,105.8 251,109.7 244.3,105.8 244.3,98.2 251,94.3 257.6,98.2 		"/>
		<polygon class="st0" points="257.6,152 251,155.8 244.3,152 244.3,144.3 251,140.4 257.6,144.3 		"/>
		<polygon class="st0" points="277.6,117.4 271,121.2 264.3,117.4 264.3,109.7 271,105.8 277.6,109.7 		"/>
		<polygon class="st0" points="244.3,105.8 237.7,109.7 231,105.8 231,98.2 237.7,94.3 244.3,98.2 		"/>
		<polygon class="st0" points="284.3,128.9 277.6,132.8 271,128.9 271,121.2 277.6,117.4 284.3,121.2 		"/>
		<polygon class="st0" points="277.6,140.4 271,144.3 264.3,140.4 264.3,132.8 271,128.9 277.6,132.8 		"/>
	</g>
	<g>
		<polygon class="st0" points="277.6,94.3 271,98.2 264.3,94.3 264.3,86.6 271,82.8 277.6,86.6 		"/>
		<polygon class="st0" points="284.3,152 277.6,155.8 271,152 271,144.3 277.6,140.4 284.3,144.3 		"/>
		<polygon class="st0" points="297.6,152 290.9,155.8 284.3,152 284.3,144.3 290.9,140.4 297.6,144.3 		"/>
		<polygon class="st0" points="290.9,140.4 284.3,144.3 277.6,140.4 277.6,132.8 284.3,128.9 290.9,132.8 		"/>
		<polygon class="st0" points="290.9,117.4 284.3,121.2 277.6,117.4 277.6,109.7 284.3,105.8 290.9,109.7 		"/>
		<polygon class="st0" points="284.3,105.8 277.6,109.7 271,105.8 271,98.2 277.6,94.3 284.3,98.2 		"/>
		<polygon class="st0" points="297.6,128.9 290.9,132.8 284.3,128.9 284.3,121.2 290.9,117.4 297.6,121.2 		"/>
		<polygon class="st0" points="304.3,140.4 297.7,144.3 291,140.4 291,132.7 297.7,128.9 304.3,132.7 		"/>
	</g>
	<g>
		<polygon class="st0" points="224.3,94.3 217.7,98.2 211,94.3 211,86.6 217.7,82.8 224.3,86.6 		"/>
		<polygon class="st0" points="244.3,82.8 237.7,86.6 231,82.8 231,75.1 237.7,71.3 244.3,75.1 		"/>
		<polygon class="st0" points="237.7,71.2 231,75.1 224.4,71.2 224.4,63.6 231,59.7 237.7,63.6 		"/>
		<polygon class="st0" points="231,105.8 224.3,109.7 217.7,105.8 217.7,98.2 224.3,94.3 231,98.2 		"/>
		<polygon class="st0" points="231,82.8 224.3,86.6 217.7,82.8 217.7,75.1 224.3,71.3 231,75.1 		"/>
		<polygon class="st0" points="237.7,94.3 231,98.2 224.3,94.3 224.3,86.6 231,82.8 237.7,86.6 		"/>
		<polygon class="st0" points="251,94.3 244.3,98.2 237.7,94.3 237.7,86.6 244.3,82.8 251,86.6 		"/>
		<polygon class="st0" points="217.7,82.8 211.1,86.7 204.4,82.8 204.4,75.1 211.1,71.3 217.7,75.1 		"/>
	</g>
</g>
<g id="Layer_4">
	<polygon class="st1" points="224.4,209.6 217.7,213.5 217.7,213.5 211,209.6 204.4,213.5 204.4,221.2 211,225 217.7,221.2 
		217.7,221.2 224.4,225 231,221.2 231,213.5 	"/>
	<polygon class="st1" points="244.3,152 244.3,144.3 237.7,140.4 231,144.3 231,152 224.4,155.8 224.4,163.5 231,167.4 237.7,163.5 
		244.3,167.4 251,163.5 251,155.8 	"/>
	<polygon class="st1" points="377.5,290.4 370.8,294.2 364.2,290.4 357.5,294.2 357.5,301.9 364.2,305.7 364.1,313.4 370.8,317.3 
		377.4,313.4 377.5,305.7 384.1,301.9 384.1,294.2 	"/>
	<polygon class="st1" points="224.4,109.7 217.7,105.9 217.7,98.2 211,94.3 204.4,98.2 204.4,105.9 197.7,109.7 197.7,117.4 
		204.4,121.2 204.4,128.9 211,132.8 217.7,128.9 217.7,121.2 224.4,117.4 	"/>
	<polygon class="st1" points="244.3,121.2 237.7,117.4 237.7,109.7 231,105.9 224.4,109.7 224.4,117.4 217.7,121.2 217.7,128.9 
		224.4,132.8 224.4,140.4 231,144.3 237.7,140.4 237.7,132.8 244.3,128.9 	"/>
	<polygon class="st1" points="224.4,140.4 224.4,132.8 217.7,128.9 211,132.8 211,140.4 204.4,144.3 204.4,152 211,155.8 217.7,152 
		224.4,155.8 231,152 231,144.3 	"/>
	<polygon class="st1" points="204.4,82.8 204.4,75.1 197.7,71.3 197.7,63.6 191.1,59.7 184.4,63.6 177.8,59.7 171.1,63.6 
		164.4,59.7 157.8,63.6 157.8,71.3 164.4,75.1 164.4,82.8 171.1,86.6 177.8,82.8 184.4,86.6 184.4,94.3 191.1,98.2 191.1,98.1 
		191.1,98.2 191.1,105.9 197.7,109.7 204.4,105.9 204.4,98.2 204.4,98.2 204.4,98.2 211,94.3 211,86.6 	"/>
	<polygon class="st1" points="337.5,313.4 337.5,305.7 330.9,301.9 324.2,305.7 317.6,301.9 310.9,305.7 310.9,313.4 304.2,317.3 
		304.2,325 310.9,328.8 317.6,325 324.2,328.8 330.9,325 337.5,328.8 344.2,325 344.2,317.3 	"/>
	<path class="st1" d="M424.1,348l-0.1-7.7l-6.6-3.8l-6.7,3.8l-6.7-3.8l-6.7,3.8l-6.7-3.8l-6.7,3.8l-6.7-3.8l-6.7,3.8v7.7l0,0
		l-6.7,3.8v7.7l6.7,3.8v7.7l6.7,3.8l6.7-3.8l6.7,3.8l6.7-3.8v-7.7l6.7-3.8l6.7,3.8l6.7-3.8v-7.6L424.1,348z"/>
	<polygon class="st1" points="364.1,336.5 357.5,340.3 350.8,336.5 344.2,340.3 337.5,336.5 337.5,328.8 330.9,325 324.2,328.8 
		324.2,336.5 317.6,340.3 317.5,348 324.2,351.9 324.2,359.6 330.9,363.4 337.5,359.6 344.2,363.4 350.8,359.6 357.5,363.4 
		364.1,359.6 364.1,351.9 370.8,348 370.8,340.3 	"/>
	<polygon class="st1" points="337.5,198.1 337.5,190.4 330.9,186.6 330.9,178.9 324.2,175 324.2,167.4 317.6,163.5 310.9,167.4 
		310.9,175 304.2,178.9 304.2,186.6 310.9,190.4 310.9,198.1 317.6,202 317.6,209.6 324.2,213.5 330.9,209.6 337.5,213.5 
		344.2,209.6 344.2,202 	"/>
	<polygon class="st1" points="297.6,175 290.9,178.9 284.3,175 284.3,167.4 277.6,163.5 277.6,155.8 271,152 271,144.3 264.3,140.4 
		257.6,144.3 257.6,152 251,155.8 251,163.5 257.6,167.4 257.6,175 264.3,178.9 271,175 277.6,178.9 277.6,186.6 284.3,190.4 
		290.9,186.6 297.6,190.4 304.2,186.6 304.2,178.9 	"/>
	<polygon class="st1" points="310.9,152 311,144.2 304.3,140.4 297.6,144.2 297.6,152 290.9,155.8 284.3,152 277.6,155.8 
		277.6,163.5 284.3,167.4 284.3,175 290.9,178.9 297.6,175 304.2,178.9 310.9,175 310.9,167.4 317.6,163.5 317.6,155.8 	"/>
	<polygon class="st1" points="491,301.9 484.3,305.8 484.3,313.5 477.7,317.3 477.7,325 484.3,328.8 491,325 491,317.3 497.6,313.5 
		497.6,305.8 	"/>
	<polygon class="st1" points="530.9,278.9 524.3,282.7 524.3,290.4 517.6,294.3 511,290.4 504.3,294.3 504.3,301.9 497.6,305.8 
		497.6,313.5 504.3,317.3 511,313.5 511,305.8 517.6,301.9 524.3,305.8 530.9,301.9 530.9,294.3 537.6,290.4 537.6,282.7 	"/>
	<polygon class="st1" points="504.3,278.9 497.6,282.7 491,278.9 484.3,282.7 477.7,278.9 471,282.7 471,290.4 477.7,294.2 
		477.7,301.9 484.3,305.8 491,301.9 497.6,305.8 504.3,301.9 504.3,294.2 510.9,290.4 517.6,294.3 524.3,290.4 524.3,282.7 
		517.7,278.9 510.9,282.7 	"/>
	<polygon class="st1" points="404.1,313.4 404.1,305.7 397.4,301.9 397.4,294.2 390.8,290.4 390.8,282.7 384.1,278.8 377.5,282.7 
		377.5,290.4 384.1,294.2 384.1,301.9 377.5,305.7 377.4,313.4 370.8,317.3 364.1,313.4 364.1,305.7 357.5,301.9 350.8,305.7 
		350.8,313.4 350.8,313.4 344.2,317.3 344.2,325 337.5,328.8 337.5,336.5 344.2,340.3 350.8,336.5 357.5,340.3 364.1,336.5 
		370.8,340.3 377.5,336.5 384.1,340.3 390.8,336.5 397.4,340.3 404.1,336.5 410.8,340.3 417.4,336.5 417.4,328.8 410.8,325 
		410.8,317.3 	"/>
	<polygon class="st1" points="271,105.8 271,98.2 264.3,94.3 264.3,86.6 257.6,82.8 251,86.6 251,94.3 244.3,98.2 237.7,94.3 
		231,98.2 231,105.8 237.7,109.7 237.7,117.4 244.3,121.2 244.3,128.9 237.7,132.8 237.7,140.4 244.3,144.3 244.3,152 251,155.8 
		257.6,152 257.6,144.3 264.3,140.4 271,144.3 277.6,140.4 277.6,132.8 284.3,128.9 284.3,121.2 277.6,117.4 277.6,109.7 	"/>
	<polygon class="st1" points="290.9,117.4 290.9,109.7 284.3,105.8 284.3,98.2 277.6,94.3 277.6,86.6 271,82.8 264.3,86.6 
		264.3,94.3 271,98.2 271,105.8 277.6,109.7 277.6,117.4 284.3,121.2 284.3,128.9 277.6,132.8 277.6,140.4 271,144.3 264.3,140.4 
		271,144.3 271,152 277.6,155.8 284.3,152 290.9,155.8 297.6,152 297.6,144.3 304.3,140.4 304.3,132.7 297.6,128.9 297.6,121.2 	"/>
	<polygon class="st1" points="257.7,175 257.7,167.4 251,163.5 244.3,167.4 237.7,163.5 231,167.4 224.4,163.5 224.4,155.8 
		217.7,152 211,155.8 211,163.5 217.7,167.4 217.7,175 211,178.9 204.4,175 197.7,178.9 197.7,186.6 191.1,190.4 191.1,198.1 
		197.7,202 197.7,209.6 204.4,213.5 211,209.6 217.7,213.5 224.4,209.6 231,213.5 231,221.2 237.7,225 244.3,221.2 251,225 
		257.6,221.2 257.6,213.5 251,209.6 251,202 257.7,198.1 257.7,190.4 264.3,186.6 264.3,178.9 	"/>
	<polygon class="st1" points="204.4,128.9 204.4,121.2 197.7,117.4 197.7,109.7 191.1,105.9 191.1,98.2 184.4,94.3 184.4,86.6 
		177.8,82.8 171.1,86.6 164.4,82.8 157.8,86.6 157.8,94.3 164.4,98.2 164.4,105.9 171.1,109.7 177.8,105.8 184.4,109.7 184.4,117.4 
		191.1,121.2 191.1,128.9 197.7,132.8 197.7,140.5 204.4,144.3 211,140.5 211,132.8 	"/>
	<polygon class="st1" points="430.7,336.5 430.8,328.8 424.1,325 424.1,317.3 430.8,313.4 430.8,305.7 424.1,301.9 424.1,294.2 
		417.4,290.4 417.4,282.7 410.8,278.8 410.8,271.2 404.1,267.3 404.1,259.6 397.4,255.8 397.4,248.1 390.8,244.2 390.8,236.6 
		384.1,232.7 384.1,225 377.5,221.2 370.8,225 364.1,221.2 364.2,213.5 357.5,209.6 350.9,213.5 350.9,221.2 357.5,225 357.5,232.7 
		364.2,236.6 364.2,244.2 370.8,248.1 370.8,255.8 377.5,259.6 377.5,267.3 384.1,271.2 384.1,278.8 390.8,282.7 390.8,290.4 
		397.4,294.2 397.4,301.9 404.1,305.8 404.1,313.4 410.8,317.3 410.8,325 417.4,328.8 417.4,336.5 424,340.3 	"/>
	<polygon class="st1" points="151.1,59.7 151.1,52 144.5,48.2 144.5,40.5 137.8,36.7 131.2,40.5 124.5,36.7 117.8,40.5 117.8,48.2 
		124.5,52 124.5,59.7 131.2,63.6 131.2,71.3 137.8,75.1 144.5,71.3 151.1,75.1 151.1,82.8 157.8,86.6 164.4,82.8 164.4,75.1 
		157.8,71.3 157.8,63.6 	"/>
	<polygon class="st1" points="64.6,48.2 71.2,52 71.2,59.7 77.9,63.6 84.5,59.7 91.2,63.6 91.2,71.3 97.9,75.1 104.5,71.3 
		104.5,63.6 111.2,59.7 111.2,52 117.8,48.2 117.8,40.5 111.2,36.7 104.5,40.5 104.5,40.5 97.9,36.7 91.2,40.5 84.5,36.7 77.9,40.5 
		71.2,36.7 64.6,40.5 58,36.7 51.3,40.5 51.3,48.2 58,52 	"/>
	<polygon class="st1" points="111.2,82.8 111.2,75.1 104.5,71.2 97.9,75.1 97.9,82.8 104.5,86.6 104.5,94.3 111.2,98.2 117.8,94.3 
		117.8,86.6 	"/>
	<polygon class="st1" points="377.5,267.3 377.5,259.6 370.8,255.8 370.8,248.1 364.2,244.2 364.2,236.6 357.5,232.7 357.5,225 
		350.9,221.2 350.9,213.5 344.2,209.6 337.5,213.5 337.5,213.5 330.9,209.6 324.2,213.5 317.6,209.6 317.6,209.6 317.6,209.6 
		317.6,202 317.6,201.9 310.9,198.1 304.2,201.9 304.2,202 304.2,209.6 304.2,209.6 310.9,213.5 310.9,221.2 304.2,225 297.6,221.2 
		290.9,225 284.3,221.2 277.6,225 277.6,232.7 271,236.6 271,244.2 264.3,248.1 264.3,255.8 257.6,259.6 257.6,267.3 251,271.2 
		251,278.8 244.3,282.7 244.3,290.4 251,294.2 257.6,290.4 264.3,294.2 264.3,301.9 271,305.7 277.6,301.9 284.3,305.7 290.9,301.9 
		290.9,294.2 284.3,290.4 284.3,282.7 277.6,278.8 277.6,271.2 284.3,267.3 290.9,271.1 297.6,267.3 297.6,259.6 304.2,255.8 
		304.2,248.1 310.9,244.2 310.9,236.6 317.6,232.7 324.2,236.6 324.2,244.2 330.9,248.1 330.9,255.8 337.5,259.6 344.2,255.8 
		350.8,259.6 350.8,267.3 357.5,271.2 357.5,278.8 350.8,282.7 350.8,290.4 344.2,294.2 344.2,301.9 337.5,305.7 337.5,313.4 
		344.2,317.3 350.9,313.4 350.9,305.7 357.5,301.9 357.5,294.2 364.2,290.4 370.8,294.2 377.5,290.4 377.5,282.7 384.1,278.8 
		384.1,271.2 	"/>
	<g id="Capa_2_copia">
		<g id="Capa_3_copia">
			<g id="Capa_4_copia">
			</g>
		</g>
	</g>
	<path class="st1" d="M477.7,325v-7.7l-6.7-3.8l-6.7,3.8l-6.7-3.8l-6.7,3.8l-6.7-3.8l-6.7,3.8l-6.7-3.8l-6.7,3.8v7.7l6.7,3.8
		l6.7-3.8l6.7,3.8v7.7l6.7,3.8l6.7-3.8v-7.7l6.7-3.8l6.7,3.8v7.7l6.7,3.8l6.7-3.8v-7.7L477.7,325z"/>
	<path class="st1" d="M477.7,348.1v-7.7l-6.7-3.8v-7.7l-6.7-3.8l-6.7,3.8v7.7l-6.7,3.8l-6.7-3.8v-7.7l-6.7-3.8l-6.7,3.8v7.7
		l-6.7,3.8v7.7l6.7,3.8v7.7l6.7,3.8v7.7l6.7,3.8v7.7l6.7,3.8l6.7-3.8v-7.7l6.7-3.8v-7.7l6.7-3.8l6.7,3.8l6.7-3.8v-7.7L477.7,348.1z"
		/>
	<polygon class="st1" points="350.9,267.3 350.9,259.6 344.2,255.8 337.5,259.6 330.9,255.8 330.9,248.1 324.2,244.2 324.2,236.6 
		317.6,232.7 310.9,236.6 310.9,244.2 304.2,248.1 304.2,255.8 297.6,259.6 297.6,267.3 290.9,271.1 284.3,267.3 277.6,271.1 
		277.6,278.8 284.3,282.7 284.3,290.4 290.9,294.2 290.9,301.9 297.6,305.7 304.2,301.9 310.9,305.7 317.6,301.9 324.2,305.7 
		330.9,301.9 337.5,305.7 337.5,313.4 337.5,305.7 344.2,301.9 344.2,294.2 350.9,290.4 350.9,282.7 357.5,278.8 357.5,271.1 	"/>
	<polygon class="st1" points="244.3,82.8 244.3,75.1 237.7,71.3 237.7,63.6 231,59.7 224.4,63.6 224.4,71.2 217.7,75.1 211.1,71.3 
		204.4,75.1 204.4,82.8 211,86.6 211,94.3 217.7,98.2 217.7,105.8 224.3,109.7 231,105.8 231,98.2 237.7,94.3 244.3,98.2 251,94.3 
		251,86.6 	"/>
	<polygon class="st1" points="310.9,198.1 310.9,190.4 304.2,186.6 297.6,190.4 290.9,186.6 284.3,190.4 277.6,186.6 277.6,186.6 
		277.6,178.9 271,175 264.3,178.9 264.3,186.6 257.6,190.4 257.6,198.1 251,202 251,209.6 257.6,213.5 257.6,221.2 251,225 
		251,232.7 257.6,236.6 264.3,232.7 271,236.6 277.6,232.7 277.6,225 284.3,221.2 290.9,225 297.6,221.2 304.2,225 310.9,221.2 
		310.9,213.5 304.2,209.6 304.2,202 	"/>
	<polygon class="st1" points="264.3,232.7 257.6,236.6 251,232.7 251,225 244.3,221.2 237.7,225 231,221.2 224.4,225 224.4,232.7 
		217.7,236.6 217.7,244.2 224.4,248.1 224.3,255.8 231,259.6 231,267.3 237.7,271.1 244.3,267.3 251,271.1 257.7,267.3 257.7,259.6 
		264.3,255.8 264.3,248.1 271,244.2 271,236.6 	"/>
</g>
<g id="Layer_3">
	<g id="numeros">
		<text transform="matrix(1 0 0 1 235.8662 149.4272)" class="st2 st3">01</text>
		<text transform="matrix(1 0 0 1 242.5278 138.7007)" class="st2 st3">01</text>
		<text transform="matrix(1 0 0 1 216.2061 161.8813)" class="st2 st3">01</text>
		<text transform="matrix(1 0 0 1 230.3719 161.8808)" class="st2 st3">02</text>
		<text transform="matrix(1 0 0 1 262.4044 104.4847)" class="st2 st3">02</text>
		<text transform="matrix(1 0 0 1 249.102 173.1641)" class="st2 st3">02</text>
		<text transform="matrix(1 0 0 1 242.3372 161.8808)" class="st2 st3">03</text>
		<text transform="matrix(1 0 0 1 255.9138 184.5478)" class="st2 st3">03</text>
		<text transform="matrix(1 0 0 1 109.0785 46.1903)" class="st2 st3">01</text>
		<text transform="matrix(1 0 0 1 122 46.1902)" class="st2 st3">01</text>
		<text transform="matrix(1 0 0 1 229.1432 69.4508)" class="st2 st3">01</text>
		<text transform="matrix(1 0 0 1 202.4806 115.7556)" class="st2 st3">01</text>
		<text transform="matrix(1 0 0 1 221.3762 126.7249)" class="st2 st3">01</text>
		<text transform="matrix(1 0 0 1 215.8392 138.6676)" class="st2 st3">01</text>
		<text transform="matrix(1 0 0 1 202.4806 138.6673)" class="st2 st3">01</text>
		<text transform="matrix(1 0 0 1 102.5383 81.2788)" class="st2 st3">01</text>
		<text transform="matrix(1 0 0 1 189.1028 69.5182)" class="st2 st3">01</text>
		<text transform="matrix(1 0 0 1 222.5165 219.0255)" class="st2 st3">01</text>
		<text transform="matrix(1 0 0 1 95.1401 69.4508)" class="st2 st3">03</text>
		<text transform="matrix(1 0 0 1 161.8063 69.4513)" class="st2 st3">03</text>
		<text transform="matrix(1 0 0 1 129.2481 57.997)" class="st2 st3">03</text>
		<text transform="matrix(1 0 0 1 235.8662 81.2781)" class="st2 st3">03</text>
		<text transform="matrix(1 0 0 1 215.8391 115.7554)" class="st2 st3">03</text>
		<text transform="matrix(1 0 0 1 229.1433 115.7548)" class="st2 st3">03</text>
		<text transform="matrix(1 0 0 1 170.4843 104.485)" class="st2 st3">03</text>
		<text transform="matrix(1 0 0 1 222.2868 149.4267)" class="st2 st3">03</text>
		<text transform="matrix(1 0 0 1 249.1019 104.485)" class="st2 st3">03</text>
		<text transform="matrix(1 0 0 1 96.1202 46.1901)" class="st2 st3">02</text>
		<text transform="matrix(1 0 0 1 182.1232 81.2775)" class="st2 st3">02</text>
		<text transform="matrix(1 0 0 1 134.9663 46.1899)" class="st2 st3">02</text>
		<text transform="matrix(1 0 0 1 222.5164 81.2784)" class="st2 st3">02</text>
		<text transform="matrix(1 0 0 1 208.78 104.4851)" class="st2 st3">02</text>
		<text transform="matrix(1 0 0 1 228.4004 137.6639)" class="st2 st3">02</text>
		<text transform="matrix(1 0 0 1 209.6161 149.4269)" class="st2 st3">02</text>
		<text transform="matrix(1 0 0 1 161.6161 92.1322)" class="st2 st3">02</text>
		<text transform="matrix(1 0 0 1 109.0786 92.1313)" class="st2 st3">02</text>
		<text transform="matrix(1 0 0 1 208.7801 219.026)" class="st2 st3">02</text>
		<text transform="matrix(1 0 0 1 55.7007 46.1899)" class="st2 st3">06</text>
		<text transform="matrix(1 0 0 1 195.6997 81.2776)" class="st2 st3">06</text>
		<text transform="matrix(1 0 0 1 149.7654 69.4518)" class="st2 st3">06</text>
		<text transform="matrix(1 0 0 1 222.5164 103.5034)" class="st2 st3">07</text>
		<text transform="matrix(1 0 0 1 195.6996 127.4838)" class="st2 st3">06</text>
		<text transform="matrix(1 0 0 1 75.5141 57.9965)" class="st2 st3">08</text>
		<text transform="matrix(1 0 0 1 189.6882 92.1318)" class="st2 st3">08</text>
		<text transform="matrix(1 0 0 1 82.5768 46.2233)" class="st2 st3">04</text>
		<text transform="matrix(1 0 0 1 176.1048 69.4848)" class="st2 st3">04</text>
		<text transform="matrix(1 0 0 1 142.6883 57.9964)" class="st2 st3">04</text>
		<text transform="matrix(1 0 0 1 175.9146 92.132)" class="st2 st3">04</text>
		<text transform="matrix(1 0 0 1 242.3371 92.1312)" class="st2 st3">04</text>
		<text transform="matrix(1 0 0 1 208.7746 127.4834)" class="st2 st3">04</text>
		<text transform="matrix(1 0 0 1 235.799 127.4833)" class="st2 st3">04</text>
		<text transform="matrix(1 0 0 1 102.5384 57.9968)" class="st2 st3">07</text>
		<text transform="matrix(1 0 0 1 89.8756 57.9968)" class="st2 st3">09</text>
		<text transform="matrix(1 0 0 1 168.4715 81.2788)" class="st2 st3">07</text>
		<text transform="matrix(1 0 0 1 156 81.2781)" class="st2 st3">07</text>
		<text transform="matrix(1 0 0 1 195.6996 103.5037)" class="st2 st3">09</text>
		<text transform="matrix(1 0 0 1 249.1019 149.427)" class="st2 st3">09</text>
		<text transform="matrix(1 0 0 1 202.4806 92.1312)" class="st2 st3">05</text>
		<text transform="matrix(1 0 0 1 136.4806 69.4516)" class="st2 st3">05</text>
		<text transform="matrix(1 0 0 1 183.1885 103.5041)" class="st2 st3">05</text>
		<text transform="matrix(1 0 0 1 229.1433 92.1311)" class="st2 st3">08</text>
		<text transform="matrix(1 0 0 1 236.1627 104.5189)" class="st2 st3">07</text>
		<text transform="matrix(1 0 0 1 189.688 115.756)" class="st2 st3">07</text>
		<text transform="matrix(1 0 0 1 69.3507 46.1899)" class="st2 st3">05</text>
		<text transform="matrix(1 0 0 1 249.1019 265.2547)" class="st2 st3">01</text>
		<text transform="matrix(1 0 0 1 322.5706 300.1482)" class="st2 st3">21</text>
		<text transform="matrix(1 0 0 1 342.7685 311.2949)" class="st2 st3">21</text>
		<text transform="matrix(1 0 0 1 328.9012 265.2545)" class="st2 st3">11</text>
		<text transform="matrix(1 0 0 1 342.4393 242.2227)" class="st2 st3">11</text>
		<text transform="matrix(1 0 0 1 422.2228 312.3873)" class="st2 st3">11</text>
		<text transform="matrix(1 0 0 1 354.3851 335.3699)" class="st2 st3">11</text>
		<text transform="matrix(1 0 0 1 255.6485 253.8049)" class="st2 st3">11</text>
		<text transform="matrix(1 0 0 1 222.5168 196.4728)" class="st2 st3">11</text>
		<text transform="matrix(1 0 0 1 262.4044 126.7251)" class="st2 st3">11</text>
		<text transform="matrix(1 0 0 1 268.5678 207.4571)" class="st2 st3">11</text>
		<text transform="matrix(1 0 0 1 302.2551 265.2545)" class="st2 st3">10</text>
		<text transform="matrix(1 0 0 1 349.2352 230.5878)" class="st2 st3">10</text>
		<text transform="matrix(1 0 0 1 388.3374 253.9384)" class="st2 st3">10</text>
		<text transform="matrix(1 0 0 1 362.0805 323.3368)" class="st2 st3">10</text>
		<text transform="matrix(1 0 0 1 388.8779 369.3137)" class="st2 st3">10</text>
		<text transform="matrix(1 0 0 1 215.8389 184.5475)" class="st2 st3">10</text>
		<text transform="matrix(1 0 0 1 255.4144 138.6673)" class="st2 st3">10</text>
		<text transform="matrix(1 0 0 1 269.2471 230.5878)" class="st2 st3">10</text>
		<text transform="matrix(1 0 0 1 315.4663 265.254)" class="st2 st3">12</text>
		<text transform="matrix(1 0 0 1 368.9012 288.2148)" class="st2 st3">12</text>
		<text transform="matrix(1 0 0 1 388.634 277.3167)" class="st2 st3">12</text>
		<text transform="matrix(1 0 0 1 368.5216 335.4036)" class="st2 st3">12</text>
		<text transform="matrix(1 0 0 1 201.8766 207.4582)" class="st2 st3">12</text>
		<text transform="matrix(1 0 0 1 268.7584 138.6674)" class="st2 st3">12</text>
		<text transform="matrix(1 0 0 1 255.6043 92.1653)" class="st2 st3">13</text>
		<text transform="matrix(1 0 0 1 275.1757 127.4834)" class="st2 st3">14</text>
		<text transform="matrix(1 0 0 1 288.137 219.9687)" class="st2 st3">12</text>
		<text transform="matrix(1 0 0 1 462.3999 358.2602)" class="st2 st3">11</text>
		<text transform="matrix(1 0 0 1 435.0487 358.2601)" class="st2 st3">10</text>
		<text transform="matrix(1 0 0 1 475.8623 335.1693)" class="st2 st3">01</text>
		<text transform="matrix(1 0 0 1 382.6244 288.2143)" class="st2 st3">01</text>
		<text transform="matrix(1 0 0 1 402.7217 346.2239)" class="st2 st3">01</text>
		<text transform="matrix(1 0 0 1 261.7114 242.2901)" class="st2 st3">03</text>
		<text transform="matrix(1 0 0 1 309.4004 253.8055)" class="st2 st3">03</text>
		<text transform="matrix(1 0 0 1 282.0805 231.0212)" class="st2 st3">03</text>
		<text transform="matrix(1 0 0 1 414.7271 323.0347)" class="st2 st3">03</text>
		<text transform="matrix(1 0 0 1 255.6488 277.3167)" class="st2 st3">36</text>
		<text transform="matrix(1 0 0 1 268.9149 300.1479)" class="st2 st3">35</text>
		<text transform="matrix(1 0 0 1 368.5217 311.2953)" class="st2 st3">03</text>
		<text transform="matrix(1 0 0 1 322.38 184.5478)" class="st2 st3">03</text>
		<text transform="matrix(1 0 0 1 282.0808 161.8807)" class="st2 st3">06</text>
		<text transform="matrix(1 0 0 1 295.4889 161.9473)" class="st2 st3">03</text>
		<text transform="matrix(1 0 0 1 295.4895 138.6674)" class="st2 st3">03</text>
		<text transform="matrix(1 0 0 1 322.3806 345.4722)" class="st2 st3">03</text>
		<text transform="matrix(1 0 0 1 335.524 323.0007)" class="st2 st3">03</text>
		<text transform="matrix(1 0 0 1 262.214 196.4736)" class="st2 st3">03</text>
		<text transform="matrix(1 0 0 1 275.5274 173.1641)" class="st2 st3">03</text>
		<text transform="matrix(1 0 0 1 475.862 358.2599)" class="st2 st3">03</text>
		<text transform="matrix(1 0 0 1 449.0489 381.6455)" class="st2 st3">12</text>
		<text transform="matrix(1 0 0 1 454.9385 370.1913)" class="st2 st3">13</text>
		<text transform="matrix(1 0 0 1 442.1739 323.2893)" class="st2 st3">03</text>
		<text transform="matrix(1 0 0 1 389.0673 300.2488)" class="st2 st3">03</text>
		<text transform="matrix(1 0 0 1 376.2471 346.224)" class="st2 st3">03</text>
		<text transform="matrix(1 0 0 1 495.6262 301.3333)" class="st2 st3">03</text>
		<text transform="matrix(1 0 0 1 528.6779 289.0941)" class="st2 st3">03</text>
		<text transform="matrix(1 0 0 1 234.3315 265.2877)" class="st2 st3">02</text>
		<text transform="matrix(1 0 0 1 342.7689 288.2144)" class="st2 st3">22</text>
		<text transform="matrix(1 0 0 1 275.8246 265.2542)" class="st2 st3">22</text>
		<text transform="matrix(1 0 0 1 288.4341 266.1605)" class="st2 st3">24</text>
		<text transform="matrix(1 0 0 1 349.2359 277.2824)" class="st2 st3">20</text>
		<text transform="matrix(1 0 0 1 315.4655 219.059)" class="st2 st3">20</text>
		<text transform="matrix(1 0 0 1 375.2871 277.2823)" class="st2 st3">30</text>
		<text transform="matrix(1 0 0 1 408.8699 335.3709)" class="st2 st3">16</text>
		<text transform="matrix(1 0 0 1 242.339 207.4579)" class="st2 st3">20</text>
		<text transform="matrix(1 0 0 1 322.3805 253.8054)" class="st2 st3">02</text>
		<text transform="matrix(1 0 0 1 322.7608 230.5867)" class="st2 st3">02</text>
		<text transform="matrix(1 0 0 1 362.0804 230.5872)" class="st2 st3">02</text>
		<text transform="matrix(1 0 0 1 309.399 207.4578)" class="st2 st3">28</text>
		<text transform="matrix(1 0 0 1 309.3997 184.5479)" class="st2 st3">02</text>
		<text transform="matrix(1 0 0 1 308.8209 161.9142)" class="st2 st3">02</text>
		<text transform="matrix(1 0 0 1 282.2714 115.7892)" class="st2 st3">02</text>
		<text transform="matrix(1 0 0 1 341.6431 357.5742)" class="st2 st3">02</text>
		<text transform="matrix(1 0 0 1 321.9014 323.3712)" class="st2 st3">02</text>
		<text transform="matrix(1 0 0 1 362.2701 300.2818)" class="st2 st3">02</text>
		<text transform="matrix(1 0 0 1 295.2987 207.4572)" class="st2 st3">02</text>
		<text transform="matrix(1 0 0 1 261.5208 173.1643)" class="st2 st3">02</text>
		<text transform="matrix(1 0 0 1 456.0603 347.3849)" class="st2 st3">02</text>
		<text transform="matrix(1 0 0 1 429.9679 323.2894)" class="st2 st3">02</text>
		<text transform="matrix(1 0 0 1 382.1905 311.3289)" class="st2 st3">02</text>
		<text transform="matrix(1 0 0 1 388.8781 346.224)" class="st2 st3">02</text>
		<text transform="matrix(1 0 0 1 248.6689 242.2571)" class="st2 st3">06</text>
		<text transform="matrix(1 0 0 1 289.194 288.2145)" class="st2 st3">06</text>
		<text transform="matrix(1 0 0 1 369.0914 242.2224)" class="st2 st3">06</text>
		<text transform="matrix(1 0 0 1 335.334 230.587)" class="st2 st3">06</text>
		<text transform="matrix(1 0 0 1 388.8773 322.3433)" class="st2 st3">06</text>
		<text transform="matrix(1 0 0 1 349.2356 346.2226)" class="st2 st3">06</text>
		<text transform="matrix(1 0 0 1 368.9007 357.5741)" class="st2 st3">06</text>
		<text transform="matrix(1 0 0 1 275.5273 196.4732)" class="st2 st3">06</text>
		<text transform="matrix(1 0 0 1 222.2866 173.1638)" class="st2 st3">06</text>
		<text transform="matrix(1 0 0 1 276.0148 150.548)" class="st2 st3">06</text>
		<text transform="matrix(1 0 0 1 322.3806 207.457)" class="st2 st3">06</text>
		<text transform="matrix(1 0 0 1 268.5681 161.2132)" class="st2 st3">06</text>
		<text transform="matrix(1 0 0 1 249.1017 126.7255)" class="st2 st3">06</text>
		<text transform="matrix(1 0 0 1 442.3642 347.3846)" class="st2 st3">06</text>
		<text transform="matrix(1 0 0 1 428.8448 347.3843)" class="st2 st3">09</text>
		<text transform="matrix(1 0 0 1 375.2867 369.3151)" class="st2 st3">09</text>
		<text transform="matrix(1 0 0 1 449.7175 335.1689)" class="st2 st3">06</text>
		<text transform="matrix(1 0 0 1 235.7988 242.2234)" class="st2 st3">08</text>
		<text transform="matrix(1 0 0 1 302.2889 288.3141)" class="st2 st3">08</text>
		<text transform="matrix(1 0 0 1 302.0989 242.2234)" class="st2 st3">08</text>
		<text transform="matrix(1 0 0 1 395.6409 265.3205)" class="st2 st3">08</text>
		<text transform="matrix(1 0 0 1 382.6253 358.4387)" class="st2 st3">08</text>
		<text transform="matrix(1 0 0 1 228.4004 184.548)" class="st2 st3">08</text>
		<text transform="matrix(1 0 0 1 288.137 150.5479)" class="st2 st3">08</text>
		<text transform="matrix(1 0 0 1 269.2473 115.7558)" class="st2 st3">08</text>
		<text transform="matrix(1 0 0 1 355.6314 357.5747)" class="st2 st3">08</text>
		<text transform="matrix(1 0 0 1 282.0807 207.4573)" class="st2 st3">08</text>
		<text transform="matrix(1 0 0 1 449.7171 358.2596)" class="st2 st3">08</text>
		<text transform="matrix(1 0 0 1 402.7213 323.0013)" class="st2 st3">08</text>
		<text transform="matrix(1 0 0 1 228.6971 231.0214)" class="st2 st3">04</text>
		<text transform="matrix(1 0 0 1 328.4344 288.2477)" class="st2 st3">04</text>
		<text transform="matrix(1 0 0 1 268.8645 277.2821)" class="st2 st3">40</text>
		<text transform="matrix(1 0 0 1 276.1933 242.2244)" class="st2 st3">04</text>
		<text transform="matrix(1 0 0 1 400.9911 277.282)" class="st2 st3">04</text>
		<text transform="matrix(1 0 0 1 394.8563 357.5738)" class="st2 st3">04</text>
		<text transform="matrix(1 0 0 1 235.8663 173.1639)" class="st2 st3">04</text>
		<text transform="matrix(1 0 0 1 255.4144 115.7553)" class="st2 st3">04</text>
		<text transform="matrix(1 0 0 1 328.901 357.5742)" class="st2 st3">04</text>
		<text transform="matrix(1 0 0 1 308.4819 323.3376)" class="st2 st3">04</text>
		<text transform="matrix(1 0 0 1 269.2473 184.5479)" class="st2 st3">04</text>
		<text transform="matrix(1 0 0 1 328.9015 195.714)" class="st2 st3">04</text>
		<text transform="matrix(1 0 0 1 289.3849 173.1641)" class="st2 st3">04</text>
		<text transform="matrix(1 0 0 1 289.1936 126.7257)" class="st2 st3">04</text>
		<text transform="matrix(1 0 0 1 282.081 184.5479)" class="st2 st3">04</text>
		<text transform="matrix(1 0 0 1 295.4896 300.2486)" class="st2 st3">14</text>
		<text transform="matrix(1 0 0 1 342.1429 219.0249)" class="st2 st3">14</text>
		<text transform="matrix(1 0 0 1 421.9258 335.3698)" class="st2 st3">14</text>
		<text transform="matrix(1 0 0 1 341.3458 335.3706)" class="st2 st3">14</text>
		<text transform="matrix(1 0 0 1 208.78 196.4727)" class="st2 st3">14</text>
		<text transform="matrix(1 0 0 1 302.0984 219.0251)" class="st2 st3">14</text>
		<text transform="matrix(1 0 0 1 436.4351 335.1688)" class="st2 st3">04</text>
		<text transform="matrix(1 0 0 1 395.1536 311.3882)" class="st2 st3">04</text>
		<text transform="matrix(1 0 0 1 456.0601 324.3166)" class="st2 st3">04</text>
		<text transform="matrix(1 0 0 1 476.0526 289.0943)" class="st2 st3">04</text>
		<text transform="matrix(1 0 0 1 522.5295 301.3335)" class="st2 st3">04</text>
		<text transform="matrix(1 0 0 1 242.2276 253.8721)" class="st2 st3">10</text>
		<text transform="matrix(1 0 0 1 222.5164 242.2238)" class="st2 st3">07</text>
		<text transform="matrix(1 0 0 1 342.7688 265.2546)" class="st2 st3">07</text>
		<text transform="matrix(1 0 0 1 289.1938 242.223)" class="st2 st3">07</text>
		<text transform="matrix(1 0 0 1 382.1912 242.3229)" class="st2 st3">07</text>
		<text transform="matrix(1 0 0 1 382.1912 335.4044)" class="st2 st3">07</text>
		<text transform="matrix(1 0 0 1 235.799 195.7138)" class="st2 st3">07</text>
		<text transform="matrix(1 0 0 1 335.8463 346.223)" class="st2 st3">07</text>
		<text transform="matrix(1 0 0 1 415.1085 346.2568)" class="st2 st3">07</text>
		<text transform="matrix(1 0 0 1 262.4044 220.0019)" class="st2 st3">07</text>
		<text transform="matrix(1 0 0 1 335.8461 207.457)" class="st2 st3">07</text>
		<text transform="matrix(1 0 0 1 295.2991 184.5478)" class="st2 st3">07</text>
		<text transform="matrix(1 0 0 1 275.718 104.4847)" class="st2 st3">07</text>
		<text transform="matrix(1 0 0 1 282.8409 277.2831)" class="st2 st3">17</text>
		<text transform="matrix(1 0 0 1 335.0367 253.8046)" class="st2 st3">17</text>
		<text transform="matrix(1 0 0 1 415.8401 300.3486)" class="st2 st3">17</text>
		<text transform="matrix(1 0 0 1 249.1019 219.0264)" class="st2 st3">17</text>
		<text transform="matrix(1 0 0 1 322.3806 277.2831)" class="st2 st3">13</text>
		<text transform="matrix(1 0 0 1 355.6314 242.2237)" class="st2 st3">13</text>
		<text transform="matrix(1 0 0 1 408.7627 288.3807)" class="st2 st3">13</text>
		<text transform="matrix(1 0 0 1 347.6687 323.3381)" class="st2 st3">13</text>
		<text transform="matrix(1 0 0 1 215.0167 207.4576)" class="st2 st3">13</text>
		<text transform="matrix(1 0 0 1 255.3518 230.6214)" class="st2 st3">13</text>
		<text transform="matrix(1 0 0 1 282.2707 300.1481)" class="st2 st3">23</text>
		<text transform="matrix(1 0 0 1 349.2358 299.2151)" class="st2 st3">33</text>
		<text transform="matrix(1 0 0 1 355.6308 288.2148)" class="st2 st3">32</text>
		<text transform="matrix(1 0 0 1 362.0807 277.282)" class="st2 st3">39</text>
		<text transform="matrix(1 0 0 1 362.0801 253.8057)" class="st2 st3">38</text>
		<text transform="matrix(1 0 0 1 275.5283 288.2133)" class="st2 st3">27</text>
		<text transform="matrix(1 0 0 1 309.399 230.5883)" class="st2 st3">37</text>
		<text transform="matrix(1 0 0 1 355.1316 266.1599)" class="st2 st3">31</text>
		<text transform="matrix(1 0 0 1 249.2923 288.2811)" class="st2 st3">34</text>
		<text transform="matrix(1 0 0 1 334.1964 277.2831)" class="st2 st3">18</text>
		<text transform="matrix(1 0 0 1 268.7586 253.8044)" class="st2 st3">18</text>
		<text transform="matrix(1 0 0 1 400.6945 300.3152)" class="st2 st3">18</text>
		<text transform="matrix(1 0 0 1 195.6998 196.4732)" class="st2 st3">18</text>
		<text transform="matrix(1 0 0 1 315.1689 288.2124)" class="st2 st3">19</text>
		<text transform="matrix(1 0 0 1 295.299 253.8054)" class="st2 st3">19</text>
		<text transform="matrix(1 0 0 1 349.2354 253.8046)" class="st2 st3">29</text>
		<text transform="matrix(1 0 0 1 408.5727 311.2951)" class="st2 st3">19</text>
		<text transform="matrix(1 0 0 1 235.866 219.968)" class="st2 st3">19</text>
		<text transform="matrix(1 0 0 1 336.0371 299.2484)" class="st2 st3">09</text>
		<text transform="matrix(1 0 0 1 261.7111 265.2543)" class="st2 st3">09</text>
		<text transform="matrix(1 0 0 1 375.4775 253.8042)" class="st2 st3">09</text>
		<text transform="matrix(1 0 0 1 375.287 323.0015)" class="st2 st3">09</text>
		<text transform="matrix(1 0 0 1 229.5718 253.9053)" class="st2 st3">09</text>
		<text transform="matrix(1 0 0 1 242.3394 184.548)" class="st2 st3">09</text>
		<text transform="matrix(1 0 0 1 289.1944 195.714)" class="st2 st3">09</text>
		<text transform="matrix(1 0 0 1 295.2991 277.2831)" class="st2 st3">16</text>
		<text transform="matrix(1 0 0 1 262.2142 288.2147)" class="st2 st3">26</text>
		<text transform="matrix(1 0 0 1 328.901 242.2236)" class="st2 st3">16</text>
		<text transform="matrix(1 0 0 1 395.0464 288.3471)" class="st2 st3">16</text>
		<text transform="matrix(1 0 0 1 228.4002 207.4567)" class="st2 st3">16</text>
		<text transform="matrix(1 0 0 1 309.4006 277.283)" class="st2 st3">15</text>
		<text transform="matrix(1 0 0 1 282.2706 253.8389)" class="st2 st3">15</text>
		<text transform="matrix(1 0 0 1 368.3315 265.2538)" class="st2 st3">25</text>
		<text transform="matrix(1 0 0 1 382.8149 266.1602)" class="st2 st3">15</text>
		<text transform="matrix(1 0 0 1 395.3437 335.3705)" class="st2 st3">15</text>
		<text transform="matrix(1 0 0 1 275.5276 219.9684)" class="st2 st3">15</text>
		<text transform="matrix(1 0 0 1 249.1018 195.7136)" class="st2 st3">15</text>
		<text transform="matrix(1 0 0 1 442.1735 370.1915)" class="st2 st3">07</text>
		<text transform="matrix(1 0 0 1 242.5296 231.0212)" class="st2 st3">05</text>
		<text transform="matrix(1 0 0 1 308.863 300.182)" class="st2 st3">05</text>
		<text transform="matrix(1 0 0 1 328.6244 219.025)" class="st2 st3">05</text>
		<text transform="matrix(1 0 0 1 375.4773 231.0211)" class="st2 st3">05</text>
		<text transform="matrix(1 0 0 1 408.5722 358.4386)" class="st2 st3">05</text>
		<text transform="matrix(1 0 0 1 362.0807 346.2223)" class="st2 st3">05</text>
		<text transform="matrix(1 0 0 1 326.7365 311.2952)" class="st2 st3">05</text>
		<text transform="matrix(1 0 0 1 255.9141 207.4572)" class="st2 st3">05</text>
		<text transform="matrix(1 0 0 1 315.7473 195.7141)" class="st2 st3">05</text>
		<text transform="matrix(1 0 0 1 301.3742 173.8168)" class="st2 st3">05</text>
		<text transform="matrix(1 0 0 1 282.462 138.734)" class="st2 st3">05</text>
		<text transform="matrix(1 0 0 1 255.4141 161.2137)" class="st2 st3">05</text>
		<text transform="matrix(1 0 0 1 202.4807 184.5473)" class="st2 st3">05</text>
		<text transform="matrix(1 0 0 1 242.5982 115.7557)" class="st2 st3">05</text>
		<text transform="matrix(1 0 0 1 468.4387 346.52)" class="st2 st3">05</text>
		<text transform="matrix(1 0 0 1 468.4388 324.3163)" class="st2 st3">05</text>
		<text transform="matrix(1 0 0 1 355.6311 312.3874)" class="st2 st3">05</text>
		<text transform="matrix(1 0 0 1 482.5679 301.3332)" class="st2 st3">05</text>
		<text transform="matrix(1 0 0 1 488.8591 289.2938)" class="st2 st3">06</text>
		<text transform="matrix(1 0 0 1 215.0169 92.1309)" class="st2 st3">06</text>
		<text transform="matrix(1 0 0 1 208.9702 81.2789)" class="st2 st3">05</text>
		<text transform="matrix(1 0 0 1 96.1204 69.4509)" class="st2 st4">03</text>
		<text transform="matrix(1 0 0 1 488.6687 312.2836)" class="st2 st3">01</text>
		<text transform="matrix(1 0 0 1 509.0322 301.3335)" class="st2 st3">01</text>
		<text transform="matrix(1 0 0 1 515.9648 289.0944)" class="st2 st3">01</text>
		<text transform="matrix(1 0 0 1 462.4 335.1692)" class="st2 st3">01</text>
		<text transform="matrix(1 0 0 1 315.7473 242.2237)" class="st2 st3">01</text>
		<text transform="matrix(1 0 0 1 355.6317 219.0252)" class="st2 st3">01</text>
		<text transform="matrix(1 0 0 1 376.2473 300.1486)" class="st2 st3">01</text>
		<text transform="matrix(1 0 0 1 329.0914 334.3773)" class="st2 st3">01</text>
		<text transform="matrix(1 0 0 1 315.9377 311.2949)" class="st2 st3">01</text>
		<text transform="matrix(1 0 0 1 302.0984 196.4737)" class="st2 st3">01</text>
		<text transform="matrix(1 0 0 1 316.4138 173.1642)" class="st2 st3">01</text>
		<text transform="matrix(1 0 0 1 302.3953 150.5478)" class="st2 st3">01</text>
		<text transform="matrix(1 0 0 1 295.2989 231.0211)" class="st2 st3">01</text>
		<text transform="matrix(1 0 0 1 269.2473 92.1322)" class="st2 st3">01</text>
		<text transform="matrix(1 0 0 1 262.4043 150.5477)" class="st2 st3">01</text>
		<text transform="matrix(1 0 0 1 481.8708 323.2895)" class="st2 st3">02</text>
		<text transform="matrix(1 0 0 1 502.0421 312.2839)" class="st2 st3">02</text>
		<text transform="matrix(1 0 0 1 502.2325 289.0945)" class="st2 st3">02</text>
	</g>
</g>
<g id="Layer_2">
	<g id="nombres">
		<rect x="63" y="25.7" class="st5" width="49.1" height="8.9"/>
		<text transform="matrix(1 0 0 1 63.2612 32.3477)" class="st6 st2 st7">02 Baja California</text>
		<rect x="41.4" y="87.9" class="st5" width="61.1" height="8.5"/>
		<text transform="matrix(1 0 0 1 41.3979 93.5796)" class="st6 st2 st7">03 Baja California Sur</text>
		<g>
			<rect x="185.1" y="251.3" class="st5" width="34.8" height="7.2"/>
			<text transform="matrix(1 0 0 1 185.0953 257.0344)" class="st6 st2 st7">12 Michoacn</text>
		</g>
		<g>
			<rect x="164.4" y="191.8" class="st5" width="26.7" height="6.3"/>
			<text transform="matrix(1 0 0 1 164.4091 197.5009)" class="st6 st2 st7">14 Jalisco</text>
		</g>
		<rect x="176.9" y="215" class="st5" width="25.6" height="8.1"/>
		<text transform="matrix(1 0 0 1 176.8958 220.6597)" class="st6 st2 st7">02 Colima</text>
		<g>
			<rect x="377.1" y="377.8" class="st5" width="27.3" height="6.9"/>
			<text transform="matrix(1 0 0 1 377.1234 383.476)" class="st6 st2 st7">20 Oaxaca</text>
		</g>
		<rect x="307.2" y="363.4" class="st5" width="30.4" height="7.7"/>
		<text transform="matrix(1 0 0 1 307.1837 369.1072)" class="st6 st2 st7">12 Guerrero</text>
		<g>
			<rect x="360.1" y="323.7" class="st5" width="25.7" height="6.4"/>
			<text transform="matrix(1 0 0 1 360.0884 329.3693)" class="st6 st2 st7">21 Puebla</text>
		</g>
		<g>
			<rect x="274" y="329.8" class="st5" width="30.4" height="6.7"/>
			<text transform="matrix(1 0 0 1 273.9986 335.5117)" class="st6 st2 st7">17 Morelos</text>
		</g>
		<g>
			<rect x="360.5" y="300.1" class="st5" width="20.5" height="4.5"/>
			<text transform="matrix(1 0 0 1 360.4865 304.1362)" class="st6 st2 st3">29 Tlaxcala</text>
		</g>
		<g>
			<rect x="125.5" y="28.1" class="st5" width="26.6" height="6.5"/>
			<text transform="matrix(1 0 0 1 125.7766 32.3478)" class="st6 st2 st7">26 Sonora</text>
		</g>
		<g>
			<rect x="149.8" y="112.2" class="st5" width="29.3" height="7.1"/>
			<text transform="matrix(1 0 0 1 149.7654 117.8977)" class="st6 st2 st7">25 Sinaloa</text>
		</g>
		<rect x="168.5" y="50.1" class="st5" width="36.5" height="7.1"/>
		<text transform="matrix(1 0 0 1 166.7756 57.1998)" class="st6 st2 st7">08 Chihuahua</text>
		<rect x="223.9" y="151.3" class="st5" width="32.3" height="5.2"/>
		<text transform="matrix(1 0 0 1 223.9465 155.2721)" class="st6 st2 st3">01 Aguascalientes</text>
		<g>
			<rect x="219.4" y="126.7" class="st5" width="23.2" height="4.4"/>
			<text transform="matrix(1 0 0 1 219.4141 130.7133)" class="st6 st2 st3">32 Zacatecas</text>
		</g>
		<rect x="338.3" y="180.2" class="st5" width="34.6" height="8.8"/>
		<text transform="matrix(1 0 0 1 338.344 185.8685)" class="st6 st2 st7">13 Hidalgo</text>
		<g>
			<rect x="200.6" y="116.6" class="st5" width="20" height="4.7"/>
			<text transform="matrix(1 0 0 1 200.5781 120.5453)" class="st6 st2 st3">10 Durango</text>
		</g>
		<g>
			<rect x="176.5" y="147.6" class="st5" width="26.8" height="7"/>
			<text transform="matrix(1 0 0 1 176.4658 153.3)" class="st6 st2 st7">18 Nayarit</text>
		</g>
		<g>
			<rect x="261.5" y="207.5" class="st5" width="36.9" height="8.2"/>
			<text transform="matrix(1 0 0 1 261.521 213.1534)" class="st6 st2 st7">11 Guanajuato</text>
		</g>
		<g>
			<rect x="320.4" y="147.4" class="st5" width="34.2" height="7.7"/>
			<text transform="matrix(1 0 0 1 320.4147 153.1309)" class="st6 st2 st7">22 Quertaro</text>
		</g>
		<g>
			<rect x="484.1" y="280.8" class="st5" width="30.6" height="6.7"/>
			<text transform="matrix(1 0 0 1 485.8466 273.2966)" class="st6 st2 st7">31 Yucatn</text>
		</g>
		<g>
			<rect x="498.8" y="333.3" class="st5" width="34.9" height="7.1"/>
			<text transform="matrix(1 0 0 1 495.5813 330.1)" class="st6 st2 st7">04 Campeche</text>
		</g>
		<g>
			<rect x="447" y="314.2" class="st5" width="34.2" height="8.8"/>
			<text transform="matrix(1 0 0 1 440.5508 309.5997)" class="st6 st2 st7">27 Tabasco</text>
		</g>
		<g>
			<rect x="410.8" y="260.9" class="st5" width="34.2" height="8.8"/>
			<text transform="matrix(1 0 0 1 410.7548 267.9845)" class="st6 st2 st7">30 Veracruz</text>
		</g>
		<g>
			<rect x="474.8" y="382.1" class="st5" width="29.3" height="7.4"/>
			<text transform="matrix(1 0 0 1 468.6294 381.2495)" class="st6 st2 st7">07 Chiapas</text>
		</g>
		<g>
			<rect x="534.8" y="294.6" class="st5" width="41.4" height="7"/>
			<text transform="matrix(1 0 0 1 535.0688 304.6)" class="st6 st2 st7">23 Quintana Roo</text>
		</g>
		<g>
			<rect x="251.3" y="163.6" class="st5" width="35.9" height="4.5"/>
			<text transform="matrix(1 0 0 1 251.3167 167.5408)" class="st6 st2 st3">24 San Luis Potos</text>
		</g>
		<g>
			<rect x="302.1" y="119.3" class="st5" width="36.6" height="6.8"/>
			<text transform="matrix(1 0 0 1 301.5646 121.2999)" class="st6 st2 st7">28 Tamaulipas</text>
		</g>
		<g>
			<rect x="254.3" y="72" class="st5" width="37.4" height="6.9"/>
			<text transform="matrix(1 0 0 1 250.9998 78.9)" class="st6 st2 st7">19 Nuevo Len</text>
		</g>
		<g>
			<rect x="217.7" y="51.6" class="st5" width="30.4" height="8.5"/>
			<text transform="matrix(1 0 0 1 217.6898 57.3333)" class="st6 st2 st7">05 Coahuila</text>
		</g>
		<g>
			<rect x="315.3" y="220.5" class="st5" width="35.8" height="5"/>
			<text transform="matrix(1 0 0 1 315.3204 224.4791)" class="st6 st2 st3">15 Estado de Mxico</text>
		</g>
		<g>
			<rect x="299.2" y="267" class="st5" width="36.6" height="4.5"/>
			<text transform="matrix(1 0 0 1 299.2366 270.9816)" class="st6 st2 st3">09 Ciudad de Mxico</text>
		</g>
	</g>
</g>
</svg>
