<svg xmlns="http://www.w3.org/2000/svg" width="1800" height="1400"><g id="Veracruz"><path id="3006" d="m1109.845 771.538 22.65-13.076 22.65 13.076v26.154l-22.65 13.077-22.65-13.077v-26.154z"/><path id="3007" d="m1155.145 771.538 22.65-13.076 22.649 13.076v26.154l-22.649 13.077-22.65-13.077v-26.154z"/><path id="3010" d="m1177.795 810.769 22.649-13.077 22.65 13.077v26.154L1200.444 850l-22.649-13.077v-26.154z"/><path id="3012" d="m1177.795 889.231 22.649-13.077 22.65 13.077v26.154l-22.65 13.077-22.649-13.077v-26.154z"/><path id="3008" d="m1200.444 850 22.65-13.077 22.65 13.077v26.154l-22.65 13.077-22.65-13.077V850z"/><path id="3004" d="m1223.094 889.231 22.65-13.077 22.65 13.077v26.154l-22.65 13.077-22.65-13.077v-26.154z"/><path id="3016" d="m1200.444 928.462 22.65-13.077 22.65 13.077v26.153l-22.65 13.077-22.65-13.077v-26.153z"/><path id="3018" d="m1223.094 967.692 22.65-13.077 22.65 13.077v26.154l-22.65 13.077-22.65-13.077v-26.154z"/><path id="3001" d="m1064.545 693.077 22.65-13.077 22.65 13.077v26.154l-22.65 13.077-22.65-13.077v-26.154z"/><path id="3003" d="m1268.394 1046.154 22.65-13.077 22.65 13.077v26.154l-22.65 13.077-22.65-13.077v-26.154z"/><path id="3013" d="m1245.744 928.462 22.65-13.077 22.65 13.077v26.153l-22.65 13.077-22.65-13.077v-26.153z"/><path id="3017" d="m1268.394 967.692 22.65-13.077 22.65 13.077v26.154l-22.65 13.077-22.65-13.077v-26.154z"/><path id="3019" d="m1245.744 1006.923 22.65-13.077 22.65 13.077v26.154l-22.65 13.077-22.65-13.077v-26.154z"/><path id="3002" d="m1087.195 732.308 22.65-13.077 22.65 13.077v26.154l-22.65 13.076-22.65-13.076v-26.154z"/><path id="3005" d="m1132.495 732.308 22.65-13.077 22.65 13.077v26.154l-22.65 13.076-22.65-13.076v-26.154z"/><path id="3014" d="m1291.044 1085.385 22.65-13.077 22.65 13.077v26.153l-22.65 13.077-22.65-13.077v-26.153z"/><path id="3011" d="m1291.044 1006.923 22.65-13.077 22.65 13.077v26.154l-22.65 13.077-22.65-13.077v-26.154z"/><path id="3009" d="m1132.495 810.769 22.65-13.077 22.65 13.077v26.154L1155.145 850l-22.65-13.077v-26.154z"/><path id="3015" d="m1155.145 850 22.65-13.077L1200.444 850v26.154l-22.649 13.077-22.65-13.077V850z"/></g><g id="Colima"><path id="202" d="M566.247 693.077 588.897 680l22.65 13.077v26.154l-22.65 13.077-22.65-13.077v-26.154z"/><path id="201" d="M611.547 693.077 634.197 680l22.65 13.077v26.154l-22.65 13.077-22.65-13.077v-26.154z"/></g><g id="Durango"><path id="1002" d="m566.247 300.769 22.65-13.077 22.65 13.077v26.154L588.897 340l-22.65-13.077v-26.154z"/><path id="1003" d="m588.897 340 22.65-13.077L634.197 340v26.154l-22.65 13.077-22.65-13.077V340z"/><path id="1001" d="m543.597 340 22.65-13.077L588.897 340v26.154l-22.65 13.077-22.65-13.077V340z"/><path id="1004" d="m566.247 379.231 22.65-13.077 22.65 13.077v26.154l-22.65 13.077-22.65-13.077v-26.154z"/></g><g id="Sonora"><path id="2604" d="m339.748 143.846 22.65-13.077 22.65 13.077V170l-22.65 13.077L339.748 170v-26.154zM294.449 143.846l22.65-13.077 22.649 13.077V170l-22.649 13.077L294.449 170v-26.154z"/><path id="2601" d="m271.799 104.615 22.65-13.077 22.65 13.077v26.154l-22.65 13.077-22.65-13.077v-26.154z"/><path id="2605" d="M317.099 183.077 339.748 170l22.65 13.077v26.154l-22.65 13.077-22.649-13.077v-26.154z"/><path id="2602" d="m317.099 104.615 22.649-13.077 22.65 13.077v26.154l-22.65 13.077-22.649-13.077v-26.154z"/><path id="2606" d="M362.398 183.077 385.048 170l22.65 13.077v26.154l-22.65 13.077-22.65-13.077v-26.154z"/><path id="2607" d="m385.048 222.308 22.65-13.077 22.65 13.077v26.154l-22.65 13.076-22.65-13.076v-26.154z"/></g><g id="Campeche"><path id="401" d="m1517.543 1006.923 22.65-13.077 22.65 13.077v26.154l-22.65 13.077-22.65-13.077v-26.154z"/><path id="402" d="m1494.893 1046.154 22.65-13.077 22.65 13.077v26.154l-22.65 13.077-22.65-13.077v-26.154z"/></g><g id="Guanajuato"><path id="1105" d="m724.797 653.846 22.65-13.077 22.649 13.077V680l-22.649 13.077L724.797 680v-26.154z"/><path id="1112" d="M838.046 693.077 860.696 680l22.65 13.077v26.154l-22.65 13.077-22.65-13.077v-26.154z"/><path id="1107" d="M747.447 693.077 770.096 680l22.65 13.077v26.154l-22.65 13.077-22.649-13.077v-26.154z"/><path id="1103" d="m747.447 614.615 22.649-13.077 22.65 13.077v26.154l-22.65 13.077-22.649-13.077v-26.154z"/><path id="1110" d="m770.096 732.308 22.65-13.077 22.65 13.077v26.154l-22.65 13.076-22.65-13.076v-26.154z"/><path id="1104" d="m770.096 575.385 22.65-13.077 22.65 13.077v26.153l-22.65 13.077-22.65-13.077v-26.153z"/><path id="1106" d="m792.746 614.615 22.65-13.077 22.65 13.077v26.154l-22.65 13.077-22.65-13.077v-26.154z"/><path id="1111" d="m770.096 653.846 22.65-13.077 22.65 13.077V680l-22.65 13.077L770.096 680v-26.154z"/><path id="1113" d="m724.797 732.308 22.65-13.077 22.649 13.077v26.154l-22.649 13.076-22.65-13.076v-26.154z"/><path id="1114" d="M883.346 693.077 905.996 680l22.65 13.077v26.154l-22.65 13.077-22.65-13.077v-26.154z"/><path id="1109" d="m838.046 614.615 22.65-13.077 22.65 13.077v26.154l-22.65 13.077-22.65-13.077v-26.154z"/><path id="1108" d="m815.396 653.846 22.65-13.077 22.65 13.077V680l-22.65 13.077L815.396 680v-26.154z"/><path id="1101" d="m883.346 614.615 22.65-13.077 22.65 13.077v26.154l-22.65 13.077-22.65-13.077v-26.154z"/><path id="1102" d="m860.696 653.846 22.65-13.077 22.65 13.077V680l-22.65 13.077L860.696 680v-26.154z"/><path id="1115" d="M792.746 693.077 815.396 680l22.65 13.077v26.154l-22.65 13.077-22.65-13.077v-26.154z"/></g><g id="Tamaulipas"><path id="2802" d="m815.396 340 22.65-13.077L860.696 340v26.154l-22.65 13.077-22.65-13.077V340z"/><path id="2805" d="m815.396 418.462 22.65-13.077 22.65 13.077v26.153l-22.65 13.077-22.65-13.077v-26.153z"/><path id="2806" d="m792.746 457.692 22.65-13.077 22.65 13.077v26.154l-22.65 13.077-22.65-13.077v-26.154z"/><path id="2804" d="m838.046 379.231 22.65-13.077 22.65 13.077v26.154l-22.65 13.077-22.65-13.077v-26.154z"/><path id="2803" d="m860.696 418.462 22.65-13.077 22.65 13.077v26.153l-22.65 13.077-22.65-13.077v-26.153z"/><path id="2808" d="m838.046 457.692 22.65-13.077 22.65 13.077v26.154l-22.65 13.077-22.65-13.077v-26.154z"/><path id="2801" d="m770.096 261.538 22.65-13.076 22.65 13.076v26.154l-22.65 13.077-22.65-13.077v-26.154z"/><path id="2807" d="m792.746 300.769 22.65-13.077 22.65 13.077v26.154L815.396 340l-22.65-13.077v-26.154z"/></g><g id="Nayarit"><path id="1802" d="m566.247 457.692 22.65-13.077 22.65 13.077v26.154l-22.65 13.077-22.65-13.077v-26.154z"/><path id="1801" d="m588.897 418.462 22.65-13.077 22.65 13.077v26.153l-22.65 13.077-22.65-13.077v-26.153z"/><path id="1803" d="m611.547 457.692 22.65-13.077 22.65 13.077v26.154l-22.65 13.077-22.65-13.077v-26.154z"/></g><g id="Morelos"><path id="1704" d="m905.996 1046.154 22.65-13.077 22.65 13.077v26.154l-22.65 13.077-22.65-13.077v-26.154z"/><path id="1701" d="m928.646 1006.923 22.65-13.077 22.649 13.077v26.154l-22.649 13.077-22.65-13.077v-26.154z"/><path id="1702" d="m951.296 1046.154 22.649-13.077 22.65 13.077v26.154l-22.65 13.077-22.649-13.077v-26.154z"/><path id="1703" d="m996.595 1046.154 22.65-13.077 22.65 13.077v26.154l-22.65 13.077-22.65-13.077v-26.154z"/><path id="1705" d="m973.945 1006.923 22.65-13.077 22.65 13.077v26.154l-22.65 13.077-22.65-13.077v-26.154z"/></g><g id="Coahuila"><path id="506" d="m588.897 261.538 22.65-13.076 22.65 13.076v26.154l-22.65 13.077-22.65-13.077v-26.154z"/><path id="501" d="M634.197 183.077 656.847 170l22.65 13.077v26.154l-22.65 13.077-22.65-13.077v-26.154z"/><path id="502" d="m611.547 222.308 22.65-13.077 22.65 13.077v26.154l-22.65 13.076-22.65-13.076v-26.154z"/><path id="508" d="m634.197 261.538 22.65-13.076 22.65 13.076v26.154l-22.65 13.077-22.65-13.077v-26.154z"/><path id="503" d="m656.847 222.308 22.65-13.077 22.65 13.077v26.154l-22.65 13.076-22.65-13.076v-26.154z"/><path id="504" d="m679.497 261.538 22.65-13.076 22.65 13.076v26.154l-22.65 13.077-22.65-13.077v-26.154z"/><path id="507" d="m611.547 300.769 22.65-13.077 22.65 13.077v26.154L634.197 340l-22.65-13.077v-26.154z"/><path id="505" d="m566.247 222.308 22.65-13.077 22.65 13.077v26.154l-22.65 13.076-22.65-13.076v-26.154z"/></g><g id="Nuevo León"><path id="1901" d="m679.497 418.462 22.65-13.077 22.65 13.077v26.153l-22.65 13.077-22.65-13.077v-26.153z"/><path id="1904" d="m724.797 340 22.65-13.077L770.096 340v26.154l-22.649 13.077-22.65-13.077V340z"/><path id="1906" d="m702.147 379.231 22.65-13.077 22.65 13.077v26.154l-22.65 13.077-22.65-13.077v-26.154z"/><path id="1910" d="m724.797 418.462 22.65-13.077 22.649 13.077v26.153l-22.649 13.077-22.65-13.077v-26.153z"/><path id="1908" d="m770.096 340 22.65-13.077L815.396 340v26.154l-22.65 13.077-22.65-13.077V340z"/><path id="1911" d="m747.447 379.231 22.649-13.077 22.65 13.077v26.154l-22.65 13.077-22.649-13.077v-26.154z"/><path id="1912" d="m770.096 418.462 22.65-13.077 22.65 13.077v26.153l-22.65 13.077-22.65-13.077v-26.153z"/><path id="1914" d="m792.746 379.231 22.65-13.077 22.65 13.077v26.154l-22.65 13.077-22.65-13.077v-26.154z"/><path id="1905" d="m679.497 340 22.65-13.077L724.797 340v26.154l-22.65 13.077-22.65-13.077V340z"/><path id="1907" d="m656.847 300.769 22.65-13.077 22.65 13.077v26.154L679.497 340l-22.65-13.077v-26.154z"/><path id="1902" d="m747.447 300.769 22.649-13.077 22.65 13.077v26.154L770.096 340l-22.649-13.077v-26.154z"/><path id="1913" d="m724.797 261.538 22.65-13.076 22.649 13.076v26.154l-22.649 13.077-22.65-13.077v-26.154z"/><path id="1909" d="m702.147 457.692 22.65-13.077 22.65 13.077v26.154l-22.65 13.077-22.65-13.077v-26.154z"/><path id="1903" d="m702.147 300.769 22.65-13.077 22.65 13.077v26.154L724.797 340l-22.65-13.077v-26.154z"/></g><g id="Chiapas"><path id="709" d="m1313.694 1124.615 22.65-13.077 22.65 13.077v26.154l-22.65 13.077-22.65-13.077v-26.154z"/><path id="702" d="m1404.294 1124.615 22.649-13.077 22.65 13.077v26.154l-22.65 13.077-22.649-13.077v-26.154z"/><path id="704" d="m1336.344 1085.385 22.65-13.077 22.65 13.077v26.153l-22.65 13.077-22.65-13.077v-26.153z"/><path id="710" d="m1336.344 1163.846 22.65-13.077 22.65 13.077V1190l-22.65 13.077-22.65-13.077v-26.154z"/><path id="707" d="m1358.994 1203.077 22.65-13.077 22.65 13.077v26.154l-22.65 13.077-22.65-13.077v-26.154z"/><path id="708" d="m1381.644 1163.846 22.65-13.077 22.649 13.077V1190l-22.649 13.077-22.65-13.077v-26.154z"/><path id="713" d="m1404.294 1203.077 22.649-13.077 22.65 13.077v26.154l-22.65 13.077-22.649-13.077v-26.154z"/><path id="711" d="m1426.943 1163.846 22.65-13.077 22.65 13.077V1190l-22.65 13.077-22.65-13.077v-26.154z"/><path id="703" d="m1472.243 1163.846 22.65-13.077 22.65 13.077V1190l-22.65 13.077-22.65-13.077v-26.154z"/><path id="701" d="m1426.943 1085.385 22.65-13.077 22.65 13.077v26.153l-22.65 13.077-22.65-13.077v-26.153z"/><path id="712" d="m1381.644 1242.308 22.65-13.077 22.649 13.077v26.154l-22.649 13.076-22.65-13.076v-26.154z"/><path id="705" d="m1449.593 1124.615 22.65-13.077 22.65 13.077v26.154l-22.65 13.077-22.65-13.077v-26.154z"/><path id="706" d="m1358.994 1124.615 22.65-13.077 22.65 13.077v26.154l-22.65 13.077-22.65-13.077v-26.154z"/></g><g id="Puebla"><path id="2110" d="m1087.195 1046.154 22.65-13.077 22.65 13.077v26.154l-22.65 13.077-22.65-13.077v-26.154z"/><path id="2111" d="m1064.545 1085.385 22.65-13.077 22.65 13.077v26.153l-22.65 13.077-22.65-13.077v-26.153z"/><path id="2101" d="m1155.145 928.462 22.65-13.077 22.649 13.077v26.153l-22.649 13.077-22.65-13.077v-26.153z"/><path id="2113" d="m1041.895 1046.154 22.65-13.077 22.65 13.077v26.154l-22.65 13.077-22.65-13.077v-26.154z"/><path id="2109" d="m1132.495 1046.154 22.65-13.077 22.65 13.077v26.154l-22.65 13.077-22.65-13.077v-26.154z"/><path id="2112" d="m1109.845 1085.385 22.65-13.077 22.65 13.077v26.153l-22.65 13.077-22.65-13.077v-26.153z"/><path id="2114" d="m1019.245 1085.385 22.65-13.077 22.65 13.077v26.153l-22.65 13.077-22.65-13.077v-26.153z"/><path id="2103" d="m1177.795 967.692 22.649-13.077 22.65 13.077v26.154l-22.65 13.077-22.649-13.077v-26.154z"/><path id="2105" d="m1064.545 1006.923 22.65-13.077 22.65 13.077v26.154l-22.65 13.077-22.65-13.077v-26.154z"/><path id="2106" d="m1177.795 1046.154 22.649-13.077 22.65 13.077v26.154l-22.65 13.077-22.649-13.077v-26.154z"/><path id="2107" d="m1155.145 1085.385 22.65-13.077 22.649 13.077v26.153l-22.649 13.077-22.65-13.077v-26.153z"/><path id="2116" d="m1245.744 1085.385 22.65-13.077 22.65 13.077v26.153l-22.65 13.077-22.65-13.077v-26.153z"/><path id="2108" d="m1223.094 1046.154 22.65-13.077 22.65 13.077v26.154l-22.65 13.077-22.65-13.077v-26.154z"/><path id="2102" d="m1155.145 1006.923 22.65-13.077 22.649 13.077v26.154l-22.649 13.077-22.65-13.077v-26.154z"/><path id="2115" d="m1200.444 1085.385 22.65-13.077 22.65 13.077v26.153l-22.65 13.077-22.65-13.077v-26.153z"/><path id="2104" d="m1200.444 1006.923 22.65-13.077 22.65 13.077v26.154l-22.65 13.077-22.65-13.077v-26.154z"/></g><g id="Tabasco"><path id="2703" d="m1358.994 1046.154 22.65-13.077 22.65 13.077v26.154l-22.65 13.077-22.65-13.077v-26.154z"/><path id="2704" d="m1404.294 1046.154 22.649-13.077 22.65 13.077v26.154l-22.65 13.077-22.649-13.077v-26.154z"/><path id="2705" d="m1449.593 1046.154 22.65-13.077 22.65 13.077v26.154l-22.65 13.077-22.65-13.077v-26.154z"/><path id="2701" d="m1472.243 1085.385 22.65-13.077 22.65 13.077v26.153l-22.65 13.077-22.65-13.077v-26.153z"/><path id="2706" d="m1381.644 1085.385 22.65-13.077 22.649 13.077v26.153l-22.649 13.077-22.65-13.077v-26.153z"/><path id="2702" d="m1313.694 1046.154 22.65-13.077 22.65 13.077v26.154l-22.65 13.077-22.65-13.077v-26.154z"/></g><g id="Sinaloa"><path id="2506" d="m520.948 379.231 22.649-13.077 22.65 13.077v26.154l-22.65 13.077-22.649-13.077v-26.154z"/><path id="2503" d="m430.348 300.769 22.65-13.077 22.65 13.077v26.154L452.998 340l-22.65-13.077v-26.154z"/><path id="2507" d="m498.298 340 22.65-13.077L543.597 340v26.154l-22.649 13.077-22.65-13.077V340z"/><path id="2505" d="m475.648 300.769 22.65-13.077 22.65 13.077v26.154L498.298 340l-22.65-13.077v-26.154z"/><path id="2504" d="m452.998 261.538 22.65-13.076 22.65 13.076v26.154l-22.65 13.077-22.65-13.077v-26.154z"/><path id="2502" d="m407.698 261.538 22.65-13.076 22.65 13.076v26.154l-22.65 13.077-22.65-13.077v-26.154z"/><path id="2501" d="m543.597 418.462 22.65-13.077 22.65 13.077v26.153l-22.65 13.077-22.65-13.077v-26.153z"/></g><g id="Jalisco"><path id="1401" d="m588.897 496.923 22.65-13.077 22.65 13.077v26.154l-22.65 13.077-22.65-13.077v-26.154z"/><path id="1414" d="m566.247 614.615 22.65-13.077 22.65 13.077v26.154l-22.65 13.077-22.65-13.077v-26.154z"/><path id="1406" d="m611.547 536.154 22.65-13.077 22.65 13.077v26.154l-22.65 13.077-22.65-13.077v-26.154z"/><path id="1410" d="m588.897 575.385 22.65-13.077 22.65 13.077v26.153l-22.65 13.077-22.65-13.077v-26.153z"/><path id="1411" d="m611.547 614.615 22.65-13.077 22.65 13.077v26.154l-22.65 13.077-22.65-13.077v-26.154z"/><path id="1413" d="m588.897 653.846 22.65-13.077 22.65 13.077V680l-22.65 13.077L588.897 680v-26.154z"/><path id="1405" d="m543.597 575.385 22.65-13.077 22.65 13.077v26.153l-22.65 13.077-22.65-13.077v-26.153z"/><path id="1408" d="m634.197 575.385 22.65-13.077 22.65 13.077v26.153l-22.65 13.077-22.65-13.077v-26.153z"/><path id="1407" d="m656.847 614.615 22.65-13.077 22.65 13.077v26.154l-22.65 13.077-22.65-13.077v-26.154z"/><path id="1416" d="m634.197 653.846 22.65-13.077 22.65 13.077V680l-22.65 13.077L634.197 680v-26.154z"/><path id="1419" d="M656.847 693.077 679.497 680l22.65 13.077v26.154l-22.65 13.077-22.65-13.077v-26.154z"/><path id="1409" d="m679.497 575.385 22.65-13.077 22.65 13.077v26.153l-22.65 13.077-22.65-13.077v-26.153z"/><path id="1415" d="m702.147 614.615 22.65-13.077 22.65 13.077v26.154l-22.65 13.077-22.65-13.077v-26.154z"/><path id="1420" d="m679.497 653.846 22.65-13.077 22.65 13.077V680l-22.65 13.077L679.497 680v-26.154z"/><path id="1417" d="M702.147 693.077 724.797 680l22.65 13.077v26.154l-22.65 13.077-22.65-13.077v-26.154z"/><path id="1403" d="m724.797 575.385 22.65-13.077 22.649 13.077v26.153l-22.649 13.077-22.65-13.077v-26.153z"/><path id="1418" d="m520.948 614.615 22.649-13.077 22.65 13.077v26.154l-22.65 13.077-22.649-13.077v-26.154z"/><path id="1412" d="m543.597 653.846 22.65-13.077 22.65 13.077V680l-22.65 13.077L543.597 680v-26.154z"/><path id="1402" d="m702.147 536.154 22.65-13.077 22.65 13.077v26.154l-22.65 13.077-22.65-13.077v-26.154z"/><path id="1404" d="m656.847 536.154 22.65-13.077 22.65 13.077v26.154l-22.65 13.077-22.65-13.077v-26.154z"/></g><g id="Quintana Roo"><path id="2302" d="m1562.843 1006.923 22.65-13.077 22.65 13.077v26.154l-22.65 13.077-22.65-13.077v-26.154z"/><path id="2301" d="m1585.493 967.692 22.65-13.077 22.649 13.077v26.154l-22.649 13.077-22.65-13.077v-26.154z"/><path id="2303" d="m1653.442 928.462 22.65-13.077 22.65 13.077v26.153l-22.65 13.077-22.65-13.077v-26.153z"/><path id="2304" d="m1630.792 967.692 22.65-13.077 22.65 13.077v26.154l-22.65 13.077-22.65-13.077v-26.154z"/></g><g id="Hidalgo"><path id="1302" d="m905.996 575.385 22.65-13.077 22.65 13.077v26.153l-22.65 13.077-22.65-13.077v-26.153z"/><path id="1305" d="m928.646 614.615 22.65-13.077 22.649 13.077v26.154l-22.649 13.077-22.65-13.077v-26.154z"/><path id="1303" d="m951.296 575.385 22.649-13.077 22.65 13.077v26.153l-22.65 13.077-22.649-13.077v-26.153z"/><path id="1304" d="m973.945 614.615 22.65-13.077 22.65 13.077v26.154l-22.65 13.077-22.65-13.077v-26.154z"/><path id="1306" d="m951.296 653.846 22.649-13.077 22.65 13.077V680l-22.65 13.077L951.296 680v-26.154z"/><path id="1307" d="m996.595 653.846 22.65-13.077 22.65 13.077V680l-22.65 13.077L996.595 680v-26.154z"/><path id="1301" d="m928.646 536.154 22.65-13.077 22.649 13.077v26.154l-22.649 13.077-22.65-13.077v-26.154z"/></g><g id="Michoacán"><path id="1203" d="m747.447 771.538 22.649-13.076 22.65 13.076v26.154l-22.65 13.077-22.649-13.077v-26.154z"/><path id="1206" d="m702.147 771.538 22.65-13.076 22.65 13.076v26.154l-22.65 13.077-22.65-13.077v-26.154z"/><path id="1208" d="m656.847 771.538 22.65-13.076 22.65 13.076v26.154l-22.65 13.077-22.65-13.077v-26.154z"/><path id="1207" d="m611.547 771.538 22.65-13.076 22.65 13.076v26.154l-22.65 13.077-22.65-13.077v-26.154z"/><path id="1204" d="m634.197 732.308 22.65-13.077 22.65 13.077v26.154l-22.65 13.076-22.65-13.076v-26.154z"/><path id="1205" d="m679.497 732.308 22.65-13.077 22.65 13.077v26.154l-22.65 13.076-22.65-13.076v-26.154z"/><path id="1209" d="m634.197 810.769 22.65-13.077 22.65 13.077v26.154L656.847 850l-22.65-13.077v-26.154z"/><path id="1202" d="m656.847 850 22.65-13.077L702.147 850v26.154l-22.65 13.077-22.65-13.077V850z"/><path id="1210" d="m679.497 810.769 22.65-13.077 22.65 13.077v26.154L702.147 850l-22.65-13.077v-26.154z"/><path id="1201" d="m702.147 850 22.65-13.077L747.447 850v26.154l-22.65 13.077-22.65-13.077V850z"/><path id="1211" d="m724.797 810.769 22.65-13.077 22.649 13.077v26.154L747.447 850l-22.65-13.077v-26.154z"/></g><g id="Ciudad de México"><path id="906" d="m838.046 928.462 22.65-13.077 22.65 13.077v26.153l-22.65 13.077-22.65-13.077v-26.153z"/><path id="910" d="m883.346 850 22.65-13.077L928.646 850v26.154l-22.65 13.077-22.65-13.077V850z"/><path id="916" d="m860.696 889.231 22.65-13.077 22.65 13.077v26.154l-22.65 13.077-22.65-13.077v-26.154z"/><path id="908" d="m883.346 928.462 22.65-13.077 22.65 13.077v26.153l-22.65 13.077-22.65-13.077v-26.153z"/><path id="914" d="m860.696 967.692 22.65-13.077 22.65 13.077v26.154l-22.65 13.077-22.65-13.077v-26.154z"/><path id="901" d="m928.646 771.538 22.65-13.076 22.649 13.076v26.154l-22.649 13.077-22.65-13.077v-26.154z"/><path id="903" d="m905.996 810.769 22.65-13.077 22.65 13.077v26.154L928.646 850l-22.65-13.077v-26.154z"/><path id="912" d="m928.646 850 22.65-13.077L973.945 850v26.154l-22.649 13.077-22.65-13.077V850z"/><path id="915" d="m905.996 889.231 22.65-13.077 22.65 13.077v26.154l-22.65 13.077-22.65-13.077v-26.154z"/><path id="919" d="m928.646 928.462 22.65-13.077 22.649 13.077v26.153l-22.649 13.077-22.65-13.077v-26.153z"/><path id="905" d="m905.996 967.692 22.65-13.077 22.65 13.077v26.154l-22.65 13.077-22.65-13.077v-26.154z"/><path id="902" d="m951.296 810.769 22.649-13.077 22.65 13.077v26.154L973.945 850l-22.649-13.077v-26.154z"/><path id="911" d="m973.945 850 22.65-13.077 22.65 13.077v26.154l-22.65 13.077-22.65-13.077V850z"/><path id="913" d="m951.296 889.231 22.649-13.077 22.65 13.077v26.154l-22.65 13.077-22.649-13.077v-26.154z"/><path id="904" d="m973.945 928.462 22.65-13.077 22.65 13.077v26.153l-22.65 13.077-22.65-13.077v-26.153z"/><path id="921" d="m951.296 967.692 22.649-13.077 22.65 13.077v26.154l-22.65 13.077-22.649-13.077v-26.154z"/><path id="907" d="m1019.245 850 22.65-13.077 22.65 13.077v26.154l-22.65 13.077-22.65-13.077V850z"/><path id="918" d="m996.595 889.231 22.65-13.077 22.65 13.077v26.154l-22.65 13.077-22.65-13.077v-26.154z"/><path id="922" d="m1019.245 928.462 22.65-13.077 22.65 13.077v26.153l-22.65 13.077-22.65-13.077v-26.153z"/><path id="909" d="m996.595 967.692 22.65-13.077 22.65 13.077v26.154l-22.65 13.077-22.65-13.077v-26.154z"/><path id="917" d="m815.396 889.231 22.65-13.077 22.65 13.077v26.154l-22.65 13.077-22.65-13.077v-26.154z"/><path id="920" d="m1041.895 889.231 22.65-13.077 22.65 13.077v26.154l-22.65 13.077-22.65-13.077v-26.154z"/></g><g id="Querétaro"><path id="2203" d="m860.696 496.923 22.65-13.077 22.65 13.077v26.154l-22.65 13.077-22.65-13.077v-26.154z"/><path id="2205" d="m883.346 536.154 22.65-13.077 22.65 13.077v26.154l-22.65 13.077-22.65-13.077v-26.154z"/><path id="2202" d="m905.996 496.923 22.65-13.077 22.65 13.077v26.154l-22.65 13.077-22.65-13.077v-26.154z"/><path id="2201" d="m883.346 457.692 22.65-13.077 22.65 13.077v26.154l-22.65 13.077-22.65-13.077v-26.154z"/><path id="2206" d="m815.396 496.923 22.65-13.077 22.65 13.077v26.154l-22.65 13.077-22.65-13.077v-26.154z"/><path id="2204" d="m838.046 536.154 22.65-13.077 22.65 13.077v26.154l-22.65 13.077-22.65-13.077v-26.154z"/></g><g id="Tlaxcala"><path id="2903" d="m1109.845 1006.923 22.65-13.077 22.65 13.077v26.154l-22.65 13.077-22.65-13.077v-26.154z"/><path id="2902" d="m1087.195 967.692 22.65-13.077 22.65 13.077v26.154l-22.65 13.077-22.65-13.077v-26.154z"/><path id="2901" d="m1132.495 967.692 22.65-13.077 22.65 13.077v26.154l-22.65 13.077-22.65-13.077v-26.154z"/></g><g id="Baja California"><path id="206" d="m45.3 104.615 22.65-13.077 22.65 13.077v26.154l-22.65 13.077-22.65-13.077v-26.154z"/><path id="205" d="m90.6 104.615 22.649-13.077 22.65 13.077v26.154l-22.65 13.077L90.6 130.769v-26.154z"/><path id="204" d="m135.899 104.615 22.65-13.077 22.65 13.077v26.154l-22.65 13.077-22.65-13.077v-26.154z"/><path id="208" d="m113.249 143.846 22.65-13.077 22.65 13.077V170l-22.65 13.077L113.249 170v-26.154z"/><path id="202" d="m181.199 104.615 22.65-13.077 22.65 13.077v26.154l-22.65 13.077-22.65-13.077v-26.154z"/><path id="209" d="m158.549 143.846 22.65-13.077 22.65 13.077V170l-22.65 13.077L158.549 170v-26.154z"/><path id="201" d="m226.499 104.615 22.65-13.077 22.65 13.077v26.154l-22.65 13.077-22.65-13.077v-26.154z"/><path id="207" d="m203.849 143.846 22.65-13.077 22.65 13.077V170l-22.65 13.077L203.849 170v-26.154z"/><path id="203" d="M181.199 183.077 203.849 170l22.65 13.077v26.154l-22.65 13.077-22.65-13.077v-26.154z"/></g><g id="Zacatecas"><path id="3203" d="m634.197 340 22.65-13.077L679.497 340v26.154l-22.65 13.077-22.65-13.077V340z"/><path id="3201" d="m611.547 379.231 22.65-13.077 22.65 13.077v26.154l-22.65 13.077-22.65-13.077v-26.154z"/><path id="3202" d="m634.197 418.462 22.65-13.077 22.65 13.077v26.153l-22.65 13.077-22.65-13.077v-26.153z"/><path id="3204" d="m656.847 379.231 22.65-13.077 22.65 13.077v26.154l-22.65 13.077-22.65-13.077v-26.154z"/></g><g id="Oaxaca"><path id="2003" d="m1132.495 1124.615 22.65-13.077 22.65 13.077v26.154l-22.65 13.077-22.65-13.077v-26.154z"/><path id="2008" d="m1155.145 1163.846 22.65-13.077 22.649 13.077V1190l-22.649 13.077-22.65-13.077v-26.154z"/><path id="2002" d="m1177.795 1124.615 22.649-13.077 22.65 13.077v26.154l-22.65 13.077-22.649-13.077v-26.154z"/><path id="2004" d="m1200.444 1163.846 22.65-13.077 22.65 13.077V1190l-22.65 13.077-22.65-13.077v-26.154z"/><path id="2010" d="m1177.795 1203.077 22.649-13.077 22.65 13.077v26.154l-22.65 13.077-22.649-13.077v-26.154z"/><path id="2001" d="m1223.094 1124.615 22.65-13.077 22.65 13.077v26.154l-22.65 13.077-22.65-13.077v-26.154z"/><path id="2005" d="m1245.744 1163.846 22.65-13.077 22.65 13.077V1190l-22.65 13.077-22.65-13.077v-26.154z"/><path id="2006" d="m1109.845 1163.846 22.65-13.077 22.65 13.077V1190l-22.65 13.077-22.65-13.077v-26.154z"/><path id="2007" d="m1268.394 1124.615 22.65-13.077 22.65 13.077v26.154l-22.65 13.077-22.65-13.077v-26.154z"/><path id="2009" d="m1132.495 1203.077 22.65-13.077 22.65 13.077v26.154l-22.65 13.077-22.65-13.077v-26.154z"/></g><g id="Aguascalientes"><path id="103" d="m679.497 496.923 22.65-13.077 22.65 13.077v26.154l-22.65 13.077-22.65-13.077v-26.154z"/><path id="101" d="m656.847 457.692 22.65-13.077 22.65 13.077v26.154l-22.65 13.077-22.65-13.077v-26.154z"/><path id="102" d="m634.197 496.923 22.65-13.077 22.65 13.077v26.154l-22.65 13.077-22.65-13.077v-26.154z"/></g><g id="Baja California Sur"><path id="301" d="m203.849 222.308 22.65-13.077 22.65 13.077v26.154l-22.65 13.076-22.65-13.076v-26.154z"/><path id="302" d="m226.499 261.538 22.65-13.076 22.65 13.076v26.154l-22.65 13.077-22.65-13.077v-26.154z"/></g><g id="Estado de México"><path id="1516" d="m973.945 771.538 22.65-13.076 22.65 13.076v26.154l-22.65 13.077-22.65-13.077v-26.154z"/><path id="1529" d="m1041.895 810.769 22.65-13.077 22.65 13.077v26.154L1064.545 850l-22.65-13.077v-26.154z"/><path id="1539" d="m1087.195 889.231 22.65-13.077 22.65 13.077v26.154l-22.65 13.077-22.65-13.077v-26.154z"/><path id="1513" d="m1064.545 771.538 22.65-13.076 22.65 13.076v26.154l-22.65 13.077-22.65-13.077v-26.154z"/><path id="1504" d="m792.746 771.538 22.65-13.076 22.65 13.076v26.154l-22.65 13.077-22.65-13.077v-26.154z"/><path id="1520" d="M928.646 693.077 951.296 680l22.649 13.077v26.154l-22.649 13.077-22.65-13.077v-26.154z"/><path id="1517" d="m996.595 810.769 22.65-13.077 22.65 13.077v26.154L1019.245 850l-22.65-13.077v-26.154z"/><path id="1533" d="m1041.895 967.692 22.65-13.077 22.65 13.077v26.154l-22.65 13.077-22.65-13.077v-26.154z"/><path id="1538" d="m1087.195 810.769 22.65-13.077 22.65 13.077v26.154L1109.845 850l-22.65-13.077v-26.154z"/><path id="1510" d="m1041.895 732.308 22.65-13.077 22.65 13.077v26.154l-22.65 13.076-22.65-13.076v-26.154z"/><path id="1505" d="M973.945 693.077 996.595 680l22.65 13.077v26.154l-22.65 13.077-22.65-13.077v-26.154z"/><path id="1528" d="m905.996 653.846 22.65-13.077 22.65 13.077V680l-22.65 13.077L905.996 680v-26.154z"/><path id="1521" d="m1019.245 1006.923 22.65-13.077 22.65 13.077v26.154l-22.65 13.077-22.65-13.077v-26.154z"/><path id="1511" d="m1019.245 771.538 22.65-13.076 22.65 13.076v26.154l-22.65 13.077-22.65-13.077v-26.154z"/><path id="1532" d="m1064.545 928.462 22.65-13.077 22.65 13.077v26.153l-22.65 13.077-22.65-13.077v-26.153z"/><path id="1525" d="m1109.845 850 22.65-13.077 22.65 13.077v26.154l-22.65 13.077-22.65-13.077V850z"/><path id="1530" d="m1132.495 889.231 22.65-13.077 22.65 13.077v26.154l-22.65 13.077-22.65-13.077v-26.154z"/><path id="1514" d="m1019.245 693.077 22.65-13.077 22.65 13.077v26.154l-22.65 13.077-22.65-13.077v-26.154z"/><path id="1512" d="m1109.845 928.462 22.65-13.077 22.65 13.077v26.153l-22.65 13.077-22.65-13.077v-26.153z"/><path id="1503" d="m815.396 732.308 22.65-13.077 22.65 13.077v26.154l-22.65 13.076-22.65-13.076v-26.154z"/><path id="1501" d="m860.696 732.308 22.65-13.077 22.65 13.077v26.154l-22.65 13.076-22.65-13.076v-26.154z"/><path id="1506" d="m996.595 732.308 22.65-13.077 22.65 13.077v26.154l-22.65 13.076-22.65-13.076v-26.154z"/><path id="1531" d="m1064.545 850 22.65-13.077 22.65 13.077v26.154l-22.65 13.077-22.65-13.077V850z"/><path id="1502" d="m951.296 732.308 22.649-13.077 22.65 13.077v26.154l-22.65 13.076-22.649-13.076v-26.154z"/><path id="1508" d="m883.346 771.538 22.65-13.076 22.65 13.076v26.154l-22.65 13.077-22.65-13.077v-26.154z"/><path id="1536" d="m724.797 889.231 22.65-13.077 22.649 13.077v26.154l-22.649 13.077-22.65-13.077v-26.154z"/><path id="1534" d="m702.147 928.462 22.65-13.077 22.65 13.077v26.153l-22.65 13.077-22.65-13.077v-26.153z"/><path id="1537" d="m905.996 732.308 22.65-13.077 22.65 13.077v26.154l-22.65 13.076-22.65-13.076v-26.154z"/><path id="1507" d="m838.046 771.538 22.65-13.076 22.65 13.076v26.154l-22.65 13.077-22.65-13.077v-26.154z"/><path id="1519" d="m860.696 810.769 22.65-13.077 22.65 13.077v26.154L883.346 850l-22.65-13.077v-26.154z"/><path id="1524" d="m838.046 850 22.65-13.077L883.346 850v26.154l-22.65 13.077-22.65-13.077V850z"/><path id="1518" d="m770.096 810.769 22.65-13.077 22.65 13.077v26.154L792.746 850l-22.65-13.077v-26.154z"/><path id="1509" d="m747.447 850 22.649-13.077L792.746 850v26.154l-22.65 13.077-22.649-13.077V850z"/><path id="1540" d="m770.096 889.231 22.65-13.077 22.65 13.077v26.154l-22.65 13.077-22.65-13.077v-26.154z"/><path id="1526" d="m747.447 928.462 22.649-13.077 22.65 13.077v26.153l-22.65 13.077-22.649-13.077v-26.153z"/><path id="1535" d="m770.096 967.692 22.65-13.077 22.65 13.077v26.154l-22.65 13.077-22.65-13.077v-26.154z"/><path id="1515" d="m815.396 810.769 22.65-13.077 22.65 13.077v26.154L838.046 850l-22.65-13.077v-26.154z"/><path id="1522" d="m792.746 850 22.65-13.077L838.046 850v26.154l-22.65 13.077-22.65-13.077V850z"/><path id="1527" d="m792.746 928.462 22.65-13.077 22.65 13.077v26.153l-22.65 13.077-22.65-13.077v-26.153z"/><path id="1523" d="m815.396 967.692 22.65-13.077 22.65 13.077v26.154l-22.65 13.077-22.65-13.077v-26.154z"/></g><g id="Chihuahua"><path id="804" d="M452.998 183.077 475.648 170l22.65 13.077v26.154l-22.65 13.077-22.65-13.077v-26.154z"/><path id="806" d="m520.948 222.308 22.649-13.077 22.65 13.077v26.154l-22.65 13.076-22.649-13.076v-26.154z"/><path id="808" d="m498.298 261.538 22.65-13.076 22.649 13.076v26.154l-22.649 13.077-22.65-13.077v-26.154z"/><path id="809" d="m520.948 300.769 22.649-13.077 22.65 13.077v26.154L543.597 340l-22.649-13.077v-26.154z"/><path id="802" d="m475.648 222.308 22.65-13.077 22.65 13.077v26.154l-22.65 13.076-22.65-13.076v-26.154z"/><path id="801" d="M498.298 183.077 520.948 170l22.649 13.077v26.154l-22.649 13.077-22.65-13.077v-26.154z"/><path id="803" d="M407.698 183.077 430.348 170l22.65 13.077v26.154l-22.65 13.077-22.65-13.077v-26.154z"/><path id="807" d="m430.348 222.308 22.65-13.077 22.65 13.077v26.154l-22.65 13.076-22.65-13.076v-26.154z"/><path id="805" d="m543.597 261.538 22.65-13.076 22.65 13.076v26.154l-22.65 13.077-22.65-13.077v-26.154z"/></g><g id="Yucatán"><path id="3104" d="m1472.243 928.462 22.65-13.077 22.65 13.077v26.153l-22.65 13.077-22.65-13.077v-26.153z"/><path id="3105" d="m1494.893 967.692 22.65-13.077 22.65 13.077v26.154l-22.65 13.077-22.65-13.077v-26.154z"/><path id="3102" d="m1562.843 928.462 22.65-13.077 22.65 13.077v26.153l-22.65 13.077-22.65-13.077v-26.153z"/><path id="3101" d="m1608.143 928.462 22.649-13.077 22.65 13.077v26.153l-22.65 13.077-22.649-13.077v-26.153z"/><path id="3106" d="m1517.543 928.462 22.65-13.077 22.65 13.077v26.153l-22.65 13.077-22.65-13.077v-26.153z"/><path id="3103" d="m1540.193 967.692 22.65-13.077 22.65 13.077v26.154l-22.65 13.077-22.65-13.077v-26.154z"/></g><g id="Guerrero"><path id="1202" d="m1064.545 1163.846 22.65-13.077 22.65 13.077V1190l-22.65 13.077-22.65-13.077v-26.154zM1019.245 1163.846l22.65-13.077 22.65 13.077V1190l-22.65 13.077-22.65-13.077v-26.154z"/><path id="1203" d="m951.296 1124.615 22.649-13.077 22.65 13.077v26.154l-22.65 13.077-22.649-13.077v-26.154z"/><path id="1205" d="m1087.195 1124.615 22.65-13.077 22.65 13.077v26.154l-22.65 13.077-22.65-13.077v-26.154z"/><path id="1207" d="m996.595 1124.615 22.65-13.077 22.65 13.077v26.154l-22.65 13.077-22.65-13.077v-26.154z"/><path id="1201" d="m973.945 1085.385 22.65-13.077 22.65 13.077v26.153l-22.65 13.077-22.65-13.077v-26.153z"/><path id="1204" d="m973.945 1163.846 22.65-13.077 22.65 13.077V1190l-22.65 13.077-22.65-13.077v-26.154z"/><path id="1206" d="m1041.895 1124.615 22.65-13.077 22.65 13.077v26.154l-22.65 13.077-22.65-13.077v-26.154z"/></g><g id="San Luis Potosí"><path id="2405" d="m724.797 496.923 22.65-13.077 22.649 13.077v26.154l-22.649 13.077-22.65-13.077v-26.154z"/><path id="2401" d="m747.447 457.692 22.649-13.077 22.65 13.077v26.154l-22.65 13.077-22.649-13.077v-26.154z"/><path id="2406" d="m770.096 496.923 22.65-13.077 22.65 13.077v26.154l-22.65 13.077-22.65-13.077v-26.154z"/><path id="2407" d="m860.696 575.385 22.65-13.077 22.65 13.077v26.153l-22.65 13.077-22.65-13.077v-26.153z"/><path id="2403" d="m792.746 536.154 22.65-13.077 22.65 13.077v26.154l-22.65 13.077-22.65-13.077v-26.154z"/><path id="2404" d="m815.396 575.385 22.65-13.077 22.65 13.077v26.153l-22.65 13.077-22.65-13.077v-26.153z"/><path id="2402" d="m747.447 536.154 22.649-13.077 22.65 13.077v26.154l-22.65 13.077-22.649-13.077v-26.154z"/></g></svg>