<?xml version="1.0" encoding="utf-8"?><svg xmlns="http://www.w3.org/2000/svg" width="1800" height="1400"><g id="Veracruz"><polygon id="3006" points="1109.8448636191345,771.5384615384617,1132.494758795035,758.4615384615386,1155.1446539709357,771.5384615384617,1155.1446539709357,797.6923076923078,1132.494758795035,810.769230769231,1109.8448636191345,797.6923076923078,1109.8448636191345,771.5384615384617"/><polygon id="3007" points="1155.144653970936,771.5384615384617,1177.7945491468365,758.4615384615386,1200.4444443227371,771.5384615384617,1200.4444443227371,797.6923076923078,1177.7945491468365,810.769230769231,1155.144653970936,797.6923076923078,1155.144653970936,771.5384615384617"/><polygon id="3010" points="1177.7945491468367,810.7692307692308,1200.4444443227374,797.6923076923077,1223.094339498638,810.7692307692308,1223.094339498638,836.923076923077,1200.4444443227374,850.0000000000001,1177.7945491468367,836.923076923077,1177.7945491468367,810.7692307692308"/><polygon id="3012" points="1177.7945491468367,889.2307692307693,1200.4444443227374,876.1538461538462,1223.094339498638,889.2307692307693,1223.094339498638,915.3846153846155,1200.4444443227374,928.4615384615386,1177.7945491468367,915.3846153846155,1177.7945491468367,889.2307692307693"/><polygon id="3008" points="1200.4444443227374,850.0000000000001,1223.094339498638,836.923076923077,1245.7442346745386,850.0000000000001,1245.7442346745386,876.1538461538463,1223.094339498638,889.2307692307694,1200.4444443227374,876.1538461538463,1200.4444443227374,850.0000000000001"/><polygon id="3004" points="1223.094339498638,889.2307692307693,1245.7442346745386,876.1538461538462,1268.3941298504392,889.2307692307693,1268.3941298504392,915.3846153846155,1245.7442346745386,928.4615384615386,1223.094339498638,915.3846153846155,1223.094339498638,889.2307692307693"/><polygon id="3016" points="1200.4444443227374,928.4615384615386,1223.094339498638,915.3846153846155,1245.7442346745386,928.4615384615386,1245.7442346745386,954.6153846153848,1223.094339498638,967.6923076923078,1200.4444443227374,954.6153846153848,1200.4444443227374,928.4615384615386"/><polygon id="3018" points="1223.094339498638,967.6923076923077,1245.7442346745386,954.6153846153846,1268.3941298504392,967.6923076923077,1268.3941298504392,993.8461538461539,1245.7442346745386,1006.923076923077,1223.094339498638,993.8461538461539,1223.094339498638,967.6923076923077"/><polygon id="3001" points="1064.5450732673332,693.0769230769231,1087.1949684432338,680,1109.8448636191345,693.0769230769231,1109.8448636191345,719.2307692307693,1087.1949684432338,732.3076923076924,1064.5450732673332,719.2307692307693,1064.5450732673332,693.0769230769231"/><polygon id="3003" points="1268.3941298504394,1046.1538461538462,1291.04402502634,1033.076923076923,1313.6939202022406,1046.1538461538462,1313.6939202022406,1072.3076923076924,1291.04402502634,1085.3846153846155,1268.3941298504394,1072.3076923076924,1268.3941298504394,1046.1538461538462"/><polygon id="3013" points="1245.7442346745388,928.4615384615386,1268.3941298504394,915.3846153846155,1291.04402502634,928.4615384615386,1291.04402502634,954.6153846153848,1268.3941298504394,967.6923076923078,1245.7442346745388,954.6153846153848,1245.7442346745388,928.4615384615386"/><polygon id="3017" points="1268.3941298504394,967.6923076923077,1291.04402502634,954.6153846153846,1313.6939202022406,967.6923076923077,1313.6939202022406,993.8461538461539,1291.04402502634,1006.923076923077,1268.3941298504394,993.8461538461539,1268.3941298504394,967.6923076923077"/><polygon id="3019" points="1245.7442346745388,1006.923076923077,1268.3941298504394,993.8461538461539,1291.04402502634,1006.923076923077,1291.04402502634,1033.076923076923,1268.3941298504394,1046.1538461538462,1245.7442346745388,1033.076923076923,1245.7442346745388,1006.923076923077"/><polygon id="3002" points="1087.1949684432338,732.3076923076924,1109.8448636191345,719.2307692307693,1132.494758795035,732.3076923076924,1132.494758795035,758.4615384615386,1109.8448636191345,771.5384615384617,1087.1949684432338,758.4615384615386,1087.1949684432338,732.3076923076924"/><polygon id="3005" points="1132.4947587950353,732.3076923076924,1155.144653970936,719.2307692307693,1177.7945491468365,732.3076923076924,1177.7945491468365,758.4615384615386,1155.144653970936,771.5384615384617,1132.4947587950353,758.4615384615386,1132.4947587950353,732.3076923076924"/><polygon id="3014" points="1291.0440250263403,1085.3846153846155,1313.6939202022409,1072.3076923076924,1336.3438153781415,1085.3846153846155,1336.3438153781415,1111.5384615384617,1313.6939202022409,1124.6153846153848,1291.0440250263403,1111.5384615384617,1291.0440250263403,1085.3846153846155"/><polygon id="3011" points="1291.0440250263403,1006.923076923077,1313.6939202022409,993.8461538461539,1336.3438153781415,1006.923076923077,1336.3438153781415,1033.076923076923,1313.6939202022409,1046.1538461538462,1291.0440250263403,1033.076923076923,1291.0440250263403,1006.923076923077"/><polygon id="3009" points="1132.4947587950353,810.7692307692308,1155.144653970936,797.6923076923077,1177.7945491468365,810.7692307692308,1177.7945491468365,836.923076923077,1155.144653970936,850.0000000000001,1132.4947587950353,836.923076923077,1132.4947587950353,810.7692307692308"/><polygon id="3015" points="1155.144653970936,850.0000000000001,1177.7945491468365,836.923076923077,1200.4444443227371,850.0000000000001,1200.4444443227371,876.1538461538463,1177.7945491468365,889.2307692307694,1155.144653970936,876.1538461538463,1155.144653970936,850.0000000000001"/></g><g id="Colima"><polygon id="0202" points="566.2473793975175,693.0769230769231,588.8972745734183,680,611.547169749319,693.0769230769231,611.547169749319,719.2307692307693,588.8972745734183,732.3076923076924,566.2473793975175,719.2307692307693,566.2473793975175,693.0769230769231"/><polygon id="0201" points="611.547169749319,693.0769230769231,634.1970649252197,680,656.8469601011204,693.0769230769231,656.8469601011204,719.2307692307693,634.1970649252197,732.3076923076924,611.547169749319,719.2307692307693,611.547169749319,693.0769230769231"/></g><g id="Durango"><polygon id="1002" points="566.2473793975175,300.7692307692308,588.8972745734183,287.69230769230774,611.547169749319,300.7692307692308,611.547169749319,326.92307692307696,588.8972745734183,340,566.2473793975175,326.92307692307696,566.2473793975175,300.7692307692308"/><polygon id="1003" points="588.8972745734183,340,611.547169749319,326.92307692307696,634.1970649252197,340,634.1970649252197,366.1538461538462,611.547169749319,379.2307692307692,588.8972745734183,366.1538461538462,588.8972745734183,340"/><polygon id="1001" points="543.5974842216168,340,566.2473793975175,326.92307692307696,588.8972745734183,340,588.8972745734183,366.1538461538462,566.2473793975175,379.2307692307692,543.5974842216168,366.1538461538462,543.5974842216168,340"/><polygon id="1004" points="566.2473793975175,379.2307692307693,588.8972745734183,366.15384615384625,611.547169749319,379.2307692307693,611.547169749319,405.3846153846155,588.8972745734183,418.4615384615385,566.2473793975175,405.3846153846155,566.2473793975175,379.2307692307693"/></g><g id="Sonora"><polygon id="2604" points="339.7484276385105,143.84615384615387,362.39832281441124,130.76923076923077,385.04821799031197,143.84615384615387,385.04821799031197,170,362.39832281441124,183.0769230769231,339.7484276385105,170,339.7484276385105,143.84615384615387"/><polygon id="2604" points="294.44863728670913,143.84615384615387,317.09853246260985,130.76923076923077,339.7484276385106,143.84615384615387,339.7484276385106,170,317.09853246260985,183.0769230769231,294.44863728670913,170,294.44863728670913,143.84615384615387"/><polygon id="2601" points="271.7987421108084,104.61538461538463,294.44863728670913,91.53846153846155,317.09853246260985,104.61538461538463,317.09853246260985,130.76923076923077,294.44863728670913,143.84615384615387,271.7987421108084,130.76923076923077,271.7987421108084,104.61538461538463"/><polygon id="2605" points="317.0985324626098,183.07692307692312,339.7484276385105,170.00000000000003,362.39832281441124,183.07692307692312,362.39832281441124,209.23076923076925,339.7484276385105,222.30769230769235,317.0985324626098,209.23076923076925,317.0985324626098,183.07692307692312"/><polygon id="2602" points="317.0985324626098,104.61538461538463,339.7484276385105,91.53846153846155,362.39832281441124,104.61538461538463,362.39832281441124,130.76923076923077,339.7484276385105,143.84615384615387,317.0985324626098,130.76923076923077,317.0985324626098,104.61538461538463"/><polygon id="2606" points="362.39832281441124,183.07692307692312,385.04821799031197,170.00000000000003,407.6981131662127,183.07692307692312,407.6981131662127,209.23076923076925,385.04821799031197,222.30769230769235,362.39832281441124,209.23076923076925,362.39832281441124,183.07692307692312"/><polygon id="2607" points="385.0482179903119,222.30769230769235,407.69811316621264,209.23076923076925,430.34800834211336,222.30769230769235,430.34800834211336,248.46153846153848,407.69811316621264,261.53846153846155,385.0482179903119,248.46153846153848,385.0482179903119,222.30769230769235"/></g><g id="Campeche"><polygon id="0401" points="1517.5429767853473,1006.923076923077,1540.1928719612479,993.8461538461539,1562.8427671371485,1006.923076923077,1562.8427671371485,1033.076923076923,1540.1928719612479,1046.1538461538462,1517.5429767853473,1033.076923076923,1517.5429767853473,1006.923076923077"/><polygon id="0402" points="1494.8930816094464,1046.1538461538462,1517.542976785347,1033.076923076923,1540.1928719612476,1046.1538461538462,1540.1928719612476,1072.3076923076924,1517.542976785347,1085.3846153846155,1494.8930816094464,1072.3076923076924,1494.8930816094464,1046.1538461538462"/></g><g id="Guanajuato"><polygon id="1105" points="724.7966456288225,653.8461538461539,747.4465408047232,640.7692307692308,770.0964359806239,653.8461538461539,770.0964359806239,680.0000000000001,747.4465408047232,693.0769230769232,724.7966456288225,680.0000000000001,724.7966456288225,653.8461538461539"/><polygon id="1112" points="838.046121508326,693.0769230769231,860.6960166842267,680,883.3459118601274,693.0769230769231,883.3459118601274,719.2307692307693,860.6960166842267,732.3076923076924,838.046121508326,719.2307692307693,838.046121508326,693.0769230769231"/><polygon id="1107" points="747.4465408047232,693.0769230769231,770.0964359806239,680,792.7463311565247,693.0769230769231,792.7463311565247,719.2307692307693,770.0964359806239,732.3076923076924,747.4465408047232,719.2307692307693,747.4465408047232,693.0769230769231"/><polygon id="1103" points="747.4465408047232,614.6153846153846,770.0964359806239,601.5384615384615,792.7463311565247,614.6153846153846,792.7463311565247,640.7692307692308,770.0964359806239,653.8461538461539,747.4465408047232,640.7692307692308,747.4465408047232,614.6153846153846"/><polygon id="1110" points="770.0964359806238,732.3076923076924,792.7463311565245,719.2307692307693,815.3962263324253,732.3076923076924,815.3962263324253,758.4615384615386,792.7463311565245,771.5384615384617,770.0964359806238,758.4615384615386,770.0964359806238,732.3076923076924"/><polygon id="1104" points="770.0964359806238,575.3846153846155,792.7463311565245,562.3076923076924,815.3962263324253,575.3846153846155,815.3962263324253,601.5384615384617,792.7463311565245,614.6153846153848,770.0964359806238,601.5384615384617,770.0964359806238,575.3846153846155"/><polygon id="1106" points="792.7463311565245,614.6153846153846,815.3962263324253,601.5384615384615,838.046121508326,614.6153846153846,838.046121508326,640.7692307692308,815.3962263324253,653.8461538461539,792.7463311565245,640.7692307692308,792.7463311565245,614.6153846153846"/><polygon id="1111" points="770.0964359806238,653.8461538461539,792.7463311565245,640.7692307692308,815.3962263324253,653.8461538461539,815.3962263324253,680.0000000000001,792.7463311565245,693.0769230769232,770.0964359806238,680.0000000000001,770.0964359806238,653.8461538461539"/><polygon id="1113" points="724.7966456288225,732.3076923076924,747.4465408047232,719.2307692307693,770.0964359806239,732.3076923076924,770.0964359806239,758.4615384615386,747.4465408047232,771.5384615384617,724.7966456288225,758.4615384615386,724.7966456288225,732.3076923076924"/><polygon id="1114" points="883.3459118601273,693.0769230769231,905.995807036028,680,928.6457022119288,693.0769230769231,928.6457022119288,719.2307692307693,905.995807036028,732.3076923076924,883.3459118601273,719.2307692307693,883.3459118601273,693.0769230769231"/><polygon id="1109" points="838.046121508326,614.6153846153846,860.6960166842267,601.5384615384615,883.3459118601274,614.6153846153846,883.3459118601274,640.7692307692308,860.6960166842267,653.8461538461539,838.046121508326,640.7692307692308,838.046121508326,614.6153846153846"/><polygon id="1108" points="815.3962263324253,653.8461538461539,838.046121508326,640.7692307692308,860.6960166842267,653.8461538461539,860.6960166842267,680.0000000000001,838.046121508326,693.0769230769232,815.3962263324253,680.0000000000001,815.3962263324253,653.8461538461539"/><polygon id="1101" points="883.3459118601273,614.6153846153846,905.995807036028,601.5384615384615,928.6457022119288,614.6153846153846,928.6457022119288,640.7692307692308,905.995807036028,653.8461538461539,883.3459118601273,640.7692307692308,883.3459118601273,614.6153846153846"/><polygon id="1102" points="860.6960166842267,653.8461538461539,883.3459118601274,640.7692307692308,905.9958070360282,653.8461538461539,905.9958070360282,680.0000000000001,883.3459118601274,693.0769230769232,860.6960166842267,680.0000000000001,860.6960166842267,653.8461538461539"/><polygon id="1115" points="792.7463311565245,693.0769230769231,815.3962263324253,680,838.046121508326,693.0769230769231,838.046121508326,719.2307692307693,815.3962263324253,732.3076923076924,792.7463311565245,719.2307692307693,792.7463311565245,693.0769230769231"/></g><g id="Tamaulipas"><polygon id="2802" points="815.3962263324253,340,838.046121508326,326.92307692307696,860.6960166842267,340,860.6960166842267,366.1538461538462,838.046121508326,379.2307692307692,815.3962263324253,366.1538461538462,815.3962263324253,340"/><polygon id="2805" points="815.3962263324253,418.4615384615385,838.046121508326,405.3846153846155,860.6960166842267,418.4615384615385,860.6960166842267,444.6153846153847,838.046121508326,457.69230769230774,815.3962263324253,444.6153846153847,815.3962263324253,418.4615384615385"/><polygon id="2806" points="792.7463311565245,457.69230769230774,815.3962263324253,444.6153846153847,838.046121508326,457.69230769230774,838.046121508326,483.8461538461539,815.3962263324253,496.92307692307696,792.7463311565245,483.8461538461539,792.7463311565245,457.69230769230774"/><polygon id="2804" points="838.046121508326,379.2307692307693,860.6960166842267,366.15384615384625,883.3459118601274,379.2307692307693,883.3459118601274,405.3846153846155,860.6960166842267,418.4615384615385,838.046121508326,405.3846153846155,838.046121508326,379.2307692307693"/><polygon id="2803" points="860.6960166842267,418.4615384615385,883.3459118601274,405.3846153846155,905.9958070360282,418.4615384615385,905.9958070360282,444.6153846153847,883.3459118601274,457.69230769230774,860.6960166842267,444.6153846153847,860.6960166842267,418.4615384615385"/><polygon id="2808" points="838.046121508326,457.69230769230774,860.6960166842267,444.6153846153847,883.3459118601274,457.69230769230774,883.3459118601274,483.8461538461539,860.6960166842267,496.92307692307696,838.046121508326,483.8461538461539,838.046121508326,457.69230769230774"/><polygon id="2801" points="770.0964359806238,261.53846153846155,792.7463311565245,248.46153846153848,815.3962263324253,261.53846153846155,815.3962263324253,287.69230769230774,792.7463311565245,300.7692307692308,770.0964359806238,287.69230769230774,770.0964359806238,261.53846153846155"/><polygon id="2807" points="792.7463311565245,300.7692307692308,815.3962263324253,287.69230769230774,838.046121508326,300.7692307692308,838.046121508326,326.92307692307696,815.3962263324253,340,792.7463311565245,326.92307692307696,792.7463311565245,300.7692307692308"/></g><g id="Nayarit"><polygon id="1802" points="566.2473793975175,457.69230769230774,588.8972745734183,444.6153846153847,611.547169749319,457.69230769230774,611.547169749319,483.8461538461539,588.8972745734183,496.92307692307696,566.2473793975175,483.8461538461539,566.2473793975175,457.69230769230774"/><polygon id="1801" points="588.8972745734183,418.4615384615385,611.547169749319,405.3846153846155,634.1970649252197,418.4615384615385,634.1970649252197,444.6153846153847,611.547169749319,457.69230769230774,588.8972745734183,444.6153846153847,588.8972745734183,418.4615384615385"/><polygon id="1803" points="611.547169749319,457.69230769230774,634.1970649252197,444.6153846153847,656.8469601011204,457.69230769230774,656.8469601011204,483.8461538461539,634.1970649252197,496.92307692307696,611.547169749319,483.8461538461539,611.547169749319,457.69230769230774"/></g><g id="Morelos"><polygon id="1704" points="905.995807036028,1046.1538461538462,928.6457022119288,1033.076923076923,951.2955973878295,1046.1538461538462,951.2955973878295,1072.3076923076924,928.6457022119288,1085.3846153846155,905.995807036028,1072.3076923076924,905.995807036028,1046.1538461538462"/><polygon id="1701" points="928.6457022119288,1006.923076923077,951.2955973878295,993.8461538461539,973.9454925637302,1006.923076923077,973.9454925637302,1033.076923076923,951.2955973878295,1046.1538461538462,928.6457022119288,1033.076923076923,928.6457022119288,1006.923076923077"/><polygon id="1702" points="951.2955973878295,1046.1538461538462,973.9454925637302,1033.076923076923,996.595387739631,1046.1538461538462,996.595387739631,1072.3076923076924,973.9454925637302,1085.3846153846155,951.2955973878295,1072.3076923076924,951.2955973878295,1046.1538461538462"/><polygon id="1703" points="996.595387739631,1046.1538461538462,1019.2452829155317,1033.076923076923,1041.8951780914324,1046.1538461538462,1041.8951780914324,1072.3076923076924,1019.2452829155317,1085.3846153846155,996.595387739631,1072.3076923076924,996.595387739631,1046.1538461538462"/><polygon id="1705" points="973.9454925637302,1006.923076923077,996.595387739631,993.8461538461539,1019.2452829155317,1006.923076923077,1019.2452829155317,1033.076923076923,996.595387739631,1046.1538461538462,973.9454925637302,1033.076923076923,973.9454925637302,1006.923076923077"/></g><g id="Coahuila"><polygon id="0506" points="588.8972745734183,261.53846153846155,611.547169749319,248.46153846153848,634.1970649252197,261.53846153846155,634.1970649252197,287.69230769230774,611.547169749319,300.7692307692308,588.8972745734183,287.69230769230774,588.8972745734183,261.53846153846155"/><polygon id="0501" points="634.1970649252197,183.07692307692312,656.8469601011204,170.00000000000003,679.4968552770212,183.07692307692312,679.4968552770212,209.23076923076925,656.8469601011204,222.30769230769235,634.1970649252197,209.23076923076925,634.1970649252197,183.07692307692312"/><polygon id="0502" points="611.547169749319,222.30769230769235,634.1970649252197,209.23076923076925,656.8469601011204,222.30769230769235,656.8469601011204,248.46153846153848,634.1970649252197,261.53846153846155,611.547169749319,248.46153846153848,611.547169749319,222.30769230769235"/><polygon id="0508" points="634.1970649252197,261.53846153846155,656.8469601011204,248.46153846153848,679.4968552770212,261.53846153846155,679.4968552770212,287.69230769230774,656.8469601011204,300.7692307692308,634.1970649252197,287.69230769230774,634.1970649252197,261.53846153846155"/><polygon id="0503" points="656.8469601011203,222.30769230769235,679.496855277021,209.23076923076925,702.1467504529218,222.30769230769235,702.1467504529218,248.46153846153848,679.496855277021,261.53846153846155,656.8469601011203,248.46153846153848,656.8469601011203,222.30769230769235"/><polygon id="0504" points="679.496855277021,261.53846153846155,702.1467504529218,248.46153846153848,724.7966456288225,261.53846153846155,724.7966456288225,287.69230769230774,702.1467504529218,300.7692307692308,679.496855277021,287.69230769230774,679.496855277021,261.53846153846155"/><polygon id="0507" points="611.547169749319,300.7692307692308,634.1970649252197,287.69230769230774,656.8469601011204,300.7692307692308,656.8469601011204,326.92307692307696,634.1970649252197,340,611.547169749319,326.92307692307696,611.547169749319,300.7692307692308"/><polygon id="0505" points="566.2473793975175,222.30769230769235,588.8972745734183,209.23076923076925,611.547169749319,222.30769230769235,611.547169749319,248.46153846153848,588.8972745734183,261.53846153846155,566.2473793975175,248.46153846153848,566.2473793975175,222.30769230769235"/></g><g id="Nuevo León"><polygon id="1901" points="679.496855277021,418.4615384615385,702.1467504529218,405.3846153846155,724.7966456288225,418.4615384615385,724.7966456288225,444.6153846153847,702.1467504529218,457.69230769230774,679.496855277021,444.6153846153847,679.496855277021,418.4615384615385"/><polygon id="1904" points="724.7966456288225,340,747.4465408047232,326.92307692307696,770.0964359806239,340,770.0964359806239,366.1538461538462,747.4465408047232,379.2307692307692,724.7966456288225,366.1538461538462,724.7966456288225,340"/><polygon id="1906" points="702.1467504529218,379.2307692307693,724.7966456288225,366.15384615384625,747.4465408047232,379.2307692307693,747.4465408047232,405.3846153846155,724.7966456288225,418.4615384615385,702.1467504529218,405.3846153846155,702.1467504529218,379.2307692307693"/><polygon id="1910" points="724.7966456288225,418.4615384615385,747.4465408047232,405.3846153846155,770.0964359806239,418.4615384615385,770.0964359806239,444.6153846153847,747.4465408047232,457.69230769230774,724.7966456288225,444.6153846153847,724.7966456288225,418.4615384615385"/><polygon id="1908" points="770.0964359806238,340,792.7463311565245,326.92307692307696,815.3962263324253,340,815.3962263324253,366.1538461538462,792.7463311565245,379.2307692307692,770.0964359806238,366.1538461538462,770.0964359806238,340"/><polygon id="1911" points="747.4465408047232,379.2307692307693,770.0964359806239,366.15384615384625,792.7463311565247,379.2307692307693,792.7463311565247,405.3846153846155,770.0964359806239,418.4615384615385,747.4465408047232,405.3846153846155,747.4465408047232,379.2307692307693"/><polygon id="1912" points="770.0964359806238,418.4615384615385,792.7463311565245,405.3846153846155,815.3962263324253,418.4615384615385,815.3962263324253,444.6153846153847,792.7463311565245,457.69230769230774,770.0964359806238,444.6153846153847,770.0964359806238,418.4615384615385"/><polygon id="1914" points="792.7463311565245,379.2307692307693,815.3962263324253,366.15384615384625,838.046121508326,379.2307692307693,838.046121508326,405.3846153846155,815.3962263324253,418.4615384615385,792.7463311565245,405.3846153846155,792.7463311565245,379.2307692307693"/><polygon id="1905" points="679.496855277021,340,702.1467504529218,326.92307692307696,724.7966456288225,340,724.7966456288225,366.1538461538462,702.1467504529218,379.2307692307692,679.496855277021,366.1538461538462,679.496855277021,340"/><polygon id="1907" points="656.8469601011203,300.7692307692308,679.496855277021,287.69230769230774,702.1467504529218,300.7692307692308,702.1467504529218,326.92307692307696,679.496855277021,340,656.8469601011203,326.92307692307696,656.8469601011203,300.7692307692308"/><polygon id="1902" points="747.4465408047232,300.7692307692308,770.0964359806239,287.69230769230774,792.7463311565247,300.7692307692308,792.7463311565247,326.92307692307696,770.0964359806239,340,747.4465408047232,326.92307692307696,747.4465408047232,300.7692307692308"/><polygon id="1913" points="724.7966456288225,261.53846153846155,747.4465408047232,248.46153846153848,770.0964359806239,261.53846153846155,770.0964359806239,287.69230769230774,747.4465408047232,300.7692307692308,724.7966456288225,287.69230769230774,724.7966456288225,261.53846153846155"/><polygon id="1909" points="702.1467504529218,457.69230769230774,724.7966456288225,444.6153846153847,747.4465408047232,457.69230769230774,747.4465408047232,483.8461538461539,724.7966456288225,496.92307692307696,702.1467504529218,483.8461538461539,702.1467504529218,457.69230769230774"/><polygon id="1903" points="702.1467504529218,300.7692307692308,724.7966456288225,287.69230769230774,747.4465408047232,300.7692307692308,747.4465408047232,326.92307692307696,724.7966456288225,340,702.1467504529218,326.92307692307696,702.1467504529218,300.7692307692308"/></g><g id="Chiapas"><polygon id="0709" points="1313.6939202022409,1124.6153846153848,1336.3438153781415,1111.5384615384617,1358.993710554042,1124.6153846153848,1358.993710554042,1150.769230769231,1336.3438153781415,1163.846153846154,1313.6939202022409,1150.769230769231,1313.6939202022409,1124.6153846153848"/><polygon id="0702" points="1404.2935009058438,1124.6153846153848,1426.9433960817444,1111.5384615384617,1449.593291257645,1124.6153846153848,1449.593291257645,1150.769230769231,1426.9433960817444,1163.846153846154,1404.2935009058438,1150.769230769231,1404.2935009058438,1124.6153846153848"/><polygon id="0704" points="1336.3438153781415,1085.3846153846155,1358.993710554042,1072.3076923076924,1381.6436057299427,1085.3846153846155,1381.6436057299427,1111.5384615384617,1358.993710554042,1124.6153846153848,1336.3438153781415,1111.5384615384617,1336.3438153781415,1085.3846153846155"/><polygon id="0710" points="1336.3438153781415,1163.846153846154,1358.993710554042,1150.769230769231,1381.6436057299427,1163.846153846154,1381.6436057299427,1190.0000000000002,1358.993710554042,1203.0769230769233,1336.3438153781415,1190.0000000000002,1336.3438153781415,1163.846153846154"/><polygon id="0707" points="1358.9937105540423,1203.076923076923,1381.643605729943,1190,1404.2935009058435,1203.076923076923,1404.2935009058435,1229.2307692307693,1381.643605729943,1242.3076923076924,1358.9937105540423,1229.2307692307693,1358.9937105540423,1203.076923076923"/><polygon id="0708" points="1381.643605729943,1163.846153846154,1404.2935009058435,1150.769230769231,1426.9433960817441,1163.846153846154,1426.9433960817441,1190.0000000000002,1404.2935009058435,1203.0769230769233,1381.643605729943,1190.0000000000002,1381.643605729943,1163.846153846154"/><polygon id="0713" points="1404.2935009058438,1203.076923076923,1426.9433960817444,1190,1449.593291257645,1203.076923076923,1449.593291257645,1229.2307692307693,1426.9433960817444,1242.3076923076924,1404.2935009058438,1229.2307692307693,1404.2935009058438,1203.076923076923"/><polygon id="0711" points="1426.9433960817444,1163.846153846154,1449.593291257645,1150.769230769231,1472.2431864335456,1163.846153846154,1472.2431864335456,1190.0000000000002,1449.593291257645,1203.0769230769233,1426.9433960817444,1190.0000000000002,1426.9433960817444,1163.846153846154"/><polygon id="0703" points="1472.2431864335458,1163.846153846154,1494.8930816094464,1150.769230769231,1517.542976785347,1163.846153846154,1517.542976785347,1190.0000000000002,1494.8930816094464,1203.0769230769233,1472.2431864335458,1190.0000000000002,1472.2431864335458,1163.846153846154"/><polygon id="0701" points="1426.9433960817444,1085.3846153846155,1449.593291257645,1072.3076923076924,1472.2431864335456,1085.3846153846155,1472.2431864335456,1111.5384615384617,1449.593291257645,1124.6153846153848,1426.9433960817444,1111.5384615384617,1426.9433960817444,1085.3846153846155"/><polygon id="0712" points="1381.643605729943,1242.3076923076924,1404.2935009058435,1229.2307692307693,1426.9433960817441,1242.3076923076924,1426.9433960817441,1268.4615384615386,1404.2935009058435,1281.5384615384617,1381.643605729943,1268.4615384615386,1381.643605729943,1242.3076923076924"/><polygon id="0705" points="1449.593291257645,1124.6153846153848,1472.2431864335456,1111.5384615384617,1494.8930816094462,1124.6153846153848,1494.8930816094462,1150.769230769231,1472.2431864335456,1163.846153846154,1449.593291257645,1150.769230769231,1449.593291257645,1124.6153846153848"/><polygon id="0706" points="1358.9937105540423,1124.6153846153848,1381.643605729943,1111.5384615384617,1404.2935009058435,1124.6153846153848,1404.2935009058435,1150.769230769231,1381.643605729943,1163.846153846154,1358.9937105540423,1150.769230769231,1358.9937105540423,1124.6153846153848"/></g><g id="Puebla"><polygon id="2110" points="1087.1949684432338,1046.1538461538462,1109.8448636191345,1033.076923076923,1132.494758795035,1046.1538461538462,1132.494758795035,1072.3076923076924,1109.8448636191345,1085.3846153846155,1087.1949684432338,1072.3076923076924,1087.1949684432338,1046.1538461538462"/><polygon id="2111" points="1064.5450732673332,1085.3846153846155,1087.1949684432338,1072.3076923076924,1109.8448636191345,1085.3846153846155,1109.8448636191345,1111.5384615384617,1087.1949684432338,1124.6153846153848,1064.5450732673332,1111.5384615384617,1064.5450732673332,1085.3846153846155"/><polygon id="2101" points="1155.144653970936,928.4615384615386,1177.7945491468365,915.3846153846155,1200.4444443227371,928.4615384615386,1200.4444443227371,954.6153846153848,1177.7945491468365,967.6923076923078,1155.144653970936,954.6153846153848,1155.144653970936,928.4615384615386"/><polygon id="2113" points="1041.8951780914324,1046.1538461538462,1064.545073267333,1033.076923076923,1087.1949684432336,1046.1538461538462,1087.1949684432336,1072.3076923076924,1064.545073267333,1085.3846153846155,1041.8951780914324,1072.3076923076924,1041.8951780914324,1046.1538461538462"/><polygon id="2109" points="1132.4947587950353,1046.1538461538462,1155.144653970936,1033.076923076923,1177.7945491468365,1046.1538461538462,1177.7945491468365,1072.3076923076924,1155.144653970936,1085.3846153846155,1132.4947587950353,1072.3076923076924,1132.4947587950353,1046.1538461538462"/><polygon id="2112" points="1109.8448636191345,1085.3846153846155,1132.494758795035,1072.3076923076924,1155.1446539709357,1085.3846153846155,1155.1446539709357,1111.5384615384617,1132.494758795035,1124.6153846153848,1109.8448636191345,1111.5384615384617,1109.8448636191345,1085.3846153846155"/><polygon id="2114" points="1019.2452829155317,1085.3846153846155,1041.8951780914324,1072.3076923076924,1064.545073267333,1085.3846153846155,1064.545073267333,1111.5384615384617,1041.8951780914324,1124.6153846153848,1019.2452829155317,1111.5384615384617,1019.2452829155317,1085.3846153846155"/><polygon id="2103" points="1177.7945491468367,967.6923076923077,1200.4444443227374,954.6153846153846,1223.094339498638,967.6923076923077,1223.094339498638,993.8461538461539,1200.4444443227374,1006.923076923077,1177.7945491468367,993.8461538461539,1177.7945491468367,967.6923076923077"/><polygon id="2105" points="1064.5450732673332,1006.923076923077,1087.1949684432338,993.8461538461539,1109.8448636191345,1006.923076923077,1109.8448636191345,1033.076923076923,1087.1949684432338,1046.1538461538462,1064.5450732673332,1033.076923076923,1064.5450732673332,1006.923076923077"/><polygon id="2106" points="1177.7945491468367,1046.1538461538462,1200.4444443227374,1033.076923076923,1223.094339498638,1046.1538461538462,1223.094339498638,1072.3076923076924,1200.4444443227374,1085.3846153846155,1177.7945491468367,1072.3076923076924,1177.7945491468367,1046.1538461538462"/><polygon id="2107" points="1155.144653970936,1085.3846153846155,1177.7945491468365,1072.3076923076924,1200.4444443227371,1085.3846153846155,1200.4444443227371,1111.5384615384617,1177.7945491468365,1124.6153846153848,1155.144653970936,1111.5384615384617,1155.144653970936,1085.3846153846155"/><polygon id="2116" points="1245.7442346745388,1085.3846153846155,1268.3941298504394,1072.3076923076924,1291.04402502634,1085.3846153846155,1291.04402502634,1111.5384615384617,1268.3941298504394,1124.6153846153848,1245.7442346745388,1111.5384615384617,1245.7442346745388,1085.3846153846155"/><polygon id="2108" points="1223.094339498638,1046.1538461538462,1245.7442346745386,1033.076923076923,1268.3941298504392,1046.1538461538462,1268.3941298504392,1072.3076923076924,1245.7442346745386,1085.3846153846155,1223.094339498638,1072.3076923076924,1223.094339498638,1046.1538461538462"/><polygon id="2102" points="1155.144653970936,1006.923076923077,1177.7945491468365,993.8461538461539,1200.4444443227371,1006.923076923077,1200.4444443227371,1033.076923076923,1177.7945491468365,1046.1538461538462,1155.144653970936,1033.076923076923,1155.144653970936,1006.923076923077"/><polygon id="2115" points="1200.4444443227374,1085.3846153846155,1223.094339498638,1072.3076923076924,1245.7442346745386,1085.3846153846155,1245.7442346745386,1111.5384615384617,1223.094339498638,1124.6153846153848,1200.4444443227374,1111.5384615384617,1200.4444443227374,1085.3846153846155"/><polygon id="2104" points="1200.4444443227374,1006.923076923077,1223.094339498638,993.8461538461539,1245.7442346745386,1006.923076923077,1245.7442346745386,1033.076923076923,1223.094339498638,1046.1538461538462,1200.4444443227374,1033.076923076923,1200.4444443227374,1006.923076923077"/></g><g id="Tabasco"><polygon id="2703" points="1358.9937105540423,1046.1538461538462,1381.643605729943,1033.076923076923,1404.2935009058435,1046.1538461538462,1404.2935009058435,1072.3076923076924,1381.643605729943,1085.3846153846155,1358.9937105540423,1072.3076923076924,1358.9937105540423,1046.1538461538462"/><polygon id="2704" points="1404.2935009058438,1046.1538461538462,1426.9433960817444,1033.076923076923,1449.593291257645,1046.1538461538462,1449.593291257645,1072.3076923076924,1426.9433960817444,1085.3846153846155,1404.2935009058438,1072.3076923076924,1404.2935009058438,1046.1538461538462"/><polygon id="2705" points="1449.593291257645,1046.1538461538462,1472.2431864335456,1033.076923076923,1494.8930816094462,1046.1538461538462,1494.8930816094462,1072.3076923076924,1472.2431864335456,1085.3846153846155,1449.593291257645,1072.3076923076924,1449.593291257645,1046.1538461538462"/><polygon id="2701" points="1472.2431864335458,1085.3846153846155,1494.8930816094464,1072.3076923076924,1517.542976785347,1085.3846153846155,1517.542976785347,1111.5384615384617,1494.8930816094464,1124.6153846153848,1472.2431864335458,1111.5384615384617,1472.2431864335458,1085.3846153846155"/><polygon id="2706" points="1381.643605729943,1085.3846153846155,1404.2935009058435,1072.3076923076924,1426.9433960817441,1085.3846153846155,1426.9433960817441,1111.5384615384617,1404.2935009058435,1124.6153846153848,1381.643605729943,1111.5384615384617,1381.643605729943,1085.3846153846155"/><polygon id="2702" points="1313.6939202022409,1046.1538461538462,1336.3438153781415,1033.076923076923,1358.993710554042,1046.1538461538462,1358.993710554042,1072.3076923076924,1336.3438153781415,1085.3846153846155,1313.6939202022409,1072.3076923076924,1313.6939202022409,1046.1538461538462"/></g><g id="Sinaloa"><polygon id="2506" points="520.9475890457162,379.2307692307693,543.5974842216169,366.15384615384625,566.2473793975176,379.2307692307693,566.2473793975176,405.3846153846155,543.5974842216169,418.4615384615385,520.9475890457162,405.3846153846155,520.9475890457162,379.2307692307693"/><polygon id="2503" points="430.3480083421133,300.7692307692308,452.997903518014,287.69230769230774,475.64779869391475,300.7692307692308,475.64779869391475,326.92307692307696,452.997903518014,340,430.3480083421133,326.92307692307696,430.3480083421133,300.7692307692308"/><polygon id="2507" points="498.2976938698155,340,520.9475890457162,326.92307692307696,543.5974842216169,340,543.5974842216169,366.1538461538462,520.9475890457162,379.2307692307692,498.2976938698155,366.1538461538462,498.2976938698155,340"/><polygon id="2505" points="475.64779869391475,300.7692307692308,498.2976938698155,287.69230769230774,520.9475890457162,300.7692307692308,520.9475890457162,326.92307692307696,498.2976938698155,340,475.64779869391475,326.92307692307696,475.64779869391475,300.7692307692308"/><polygon id="2504" points="452.997903518014,261.53846153846155,475.64779869391475,248.46153846153848,498.2976938698155,261.53846153846155,498.2976938698155,287.69230769230774,475.64779869391475,300.7692307692308,452.997903518014,287.69230769230774,452.997903518014,261.53846153846155"/><polygon id="2502" points="407.69811316621264,261.53846153846155,430.34800834211336,248.46153846153848,452.9979035180141,261.53846153846155,452.9979035180141,287.69230769230774,430.34800834211336,300.7692307692308,407.69811316621264,287.69230769230774,407.69811316621264,261.53846153846155"/><polygon id="2501" points="543.5974842216168,418.4615384615385,566.2473793975175,405.3846153846155,588.8972745734183,418.4615384615385,588.8972745734183,444.6153846153847,566.2473793975175,457.69230769230774,543.5974842216168,444.6153846153847,543.5974842216168,418.4615384615385"/></g><g id="Jalisco"><polygon id="1401" points="588.8972745734183,496.92307692307696,611.547169749319,483.8461538461539,634.1970649252197,496.92307692307696,634.1970649252197,523.0769230769231,611.547169749319,536.1538461538462,588.8972745734183,523.0769230769231,588.8972745734183,496.92307692307696"/><polygon id="1414" points="566.2473793975175,614.6153846153846,588.8972745734183,601.5384615384615,611.547169749319,614.6153846153846,611.547169749319,640.7692307692308,588.8972745734183,653.8461538461539,566.2473793975175,640.7692307692308,566.2473793975175,614.6153846153846"/><polygon id="1406" points="611.547169749319,536.1538461538462,634.1970649252197,523.0769230769231,656.8469601011204,536.1538461538462,656.8469601011204,562.3076923076924,634.1970649252197,575.3846153846155,611.547169749319,562.3076923076924,611.547169749319,536.1538461538462"/><polygon id="1410" points="588.8972745734183,575.3846153846155,611.547169749319,562.3076923076924,634.1970649252197,575.3846153846155,634.1970649252197,601.5384615384617,611.547169749319,614.6153846153848,588.8972745734183,601.5384615384617,588.8972745734183,575.3846153846155"/><polygon id="1411" points="611.547169749319,614.6153846153846,634.1970649252197,601.5384615384615,656.8469601011204,614.6153846153846,656.8469601011204,640.7692307692308,634.1970649252197,653.8461538461539,611.547169749319,640.7692307692308,611.547169749319,614.6153846153846"/><polygon id="1413" points="588.8972745734183,653.8461538461539,611.547169749319,640.7692307692308,634.1970649252197,653.8461538461539,634.1970649252197,680.0000000000001,611.547169749319,693.0769230769232,588.8972745734183,680.0000000000001,588.8972745734183,653.8461538461539"/><polygon id="1405" points="543.5974842216168,575.3846153846155,566.2473793975175,562.3076923076924,588.8972745734183,575.3846153846155,588.8972745734183,601.5384615384617,566.2473793975175,614.6153846153848,543.5974842216168,601.5384615384617,543.5974842216168,575.3846153846155"/><polygon id="1408" points="634.1970649252197,575.3846153846155,656.8469601011204,562.3076923076924,679.4968552770212,575.3846153846155,679.4968552770212,601.5384615384617,656.8469601011204,614.6153846153848,634.1970649252197,601.5384615384617,634.1970649252197,575.3846153846155"/><polygon id="1407" points="656.8469601011203,614.6153846153846,679.496855277021,601.5384615384615,702.1467504529218,614.6153846153846,702.1467504529218,640.7692307692308,679.496855277021,653.8461538461539,656.8469601011203,640.7692307692308,656.8469601011203,614.6153846153846"/><polygon id="1416" points="634.1970649252197,653.8461538461539,656.8469601011204,640.7692307692308,679.4968552770212,653.8461538461539,679.4968552770212,680.0000000000001,656.8469601011204,693.0769230769232,634.1970649252197,680.0000000000001,634.1970649252197,653.8461538461539"/><polygon id="1419" points="656.8469601011203,693.0769230769231,679.496855277021,680,702.1467504529218,693.0769230769231,702.1467504529218,719.2307692307693,679.496855277021,732.3076923076924,656.8469601011203,719.2307692307693,656.8469601011203,693.0769230769231"/><polygon id="1409" points="679.496855277021,575.3846153846155,702.1467504529218,562.3076923076924,724.7966456288225,575.3846153846155,724.7966456288225,601.5384615384617,702.1467504529218,614.6153846153848,679.496855277021,601.5384615384617,679.496855277021,575.3846153846155"/><polygon id="1415" points="702.1467504529218,614.6153846153846,724.7966456288225,601.5384615384615,747.4465408047232,614.6153846153846,747.4465408047232,640.7692307692308,724.7966456288225,653.8461538461539,702.1467504529218,640.7692307692308,702.1467504529218,614.6153846153846"/><polygon id="1420" points="679.496855277021,653.8461538461539,702.1467504529218,640.7692307692308,724.7966456288225,653.8461538461539,724.7966456288225,680.0000000000001,702.1467504529218,693.0769230769232,679.496855277021,680.0000000000001,679.496855277021,653.8461538461539"/><polygon id="1417" points="702.1467504529218,693.0769230769231,724.7966456288225,680,747.4465408047232,693.0769230769231,747.4465408047232,719.2307692307693,724.7966456288225,732.3076923076924,702.1467504529218,719.2307692307693,702.1467504529218,693.0769230769231"/><polygon id="1403" points="724.7966456288225,575.3846153846155,747.4465408047232,562.3076923076924,770.0964359806239,575.3846153846155,770.0964359806239,601.5384615384617,747.4465408047232,614.6153846153848,724.7966456288225,601.5384615384617,724.7966456288225,575.3846153846155"/><polygon id="1418" points="520.9475890457162,614.6153846153846,543.5974842216169,601.5384615384615,566.2473793975176,614.6153846153846,566.2473793975176,640.7692307692308,543.5974842216169,653.8461538461539,520.9475890457162,640.7692307692308,520.9475890457162,614.6153846153846"/><polygon id="1412" points="543.5974842216168,653.8461538461539,566.2473793975175,640.7692307692308,588.8972745734183,653.8461538461539,588.8972745734183,680.0000000000001,566.2473793975175,693.0769230769232,543.5974842216168,680.0000000000001,543.5974842216168,653.8461538461539"/><polygon id="1402" points="702.1467504529218,536.1538461538462,724.7966456288225,523.0769230769231,747.4465408047232,536.1538461538462,747.4465408047232,562.3076923076924,724.7966456288225,575.3846153846155,702.1467504529218,562.3076923076924,702.1467504529218,536.1538461538462"/><polygon id="1404" points="656.8469601011203,536.1538461538462,679.496855277021,523.0769230769231,702.1467504529218,536.1538461538462,702.1467504529218,562.3076923076924,679.496855277021,575.3846153846155,656.8469601011203,562.3076923076924,656.8469601011203,536.1538461538462"/></g><g id="Quintana Roo"><polygon id="2302" points="1562.8427671371485,1006.923076923077,1585.492662313049,993.8461538461539,1608.1425574889497,1006.923076923077,1608.1425574889497,1033.076923076923,1585.492662313049,1046.1538461538462,1562.8427671371485,1033.076923076923,1562.8427671371485,1006.923076923077"/><polygon id="2301" points="1585.4926623130493,967.6923076923077,1608.14255748895,954.6153846153846,1630.7924526648505,967.6923076923077,1630.7924526648505,993.8461538461539,1608.14255748895,1006.923076923077,1585.4926623130493,993.8461538461539,1585.4926623130493,967.6923076923077"/><polygon id="2303" points="1653.4423478407514,928.4615384615386,1676.092243016652,915.3846153846155,1698.7421381925526,928.4615384615386,1698.7421381925526,954.6153846153848,1676.092243016652,967.6923076923078,1653.4423478407514,954.6153846153848,1653.4423478407514,928.4615384615386"/><polygon id="2304" points="1630.7924526648508,967.6923076923077,1653.4423478407514,954.6153846153846,1676.092243016652,967.6923076923077,1676.092243016652,993.8461538461539,1653.4423478407514,1006.923076923077,1630.7924526648508,993.8461538461539,1630.7924526648508,967.6923076923077"/></g><g id="Hidalgo"><polygon id="1302" points="905.995807036028,575.3846153846155,928.6457022119288,562.3076923076924,951.2955973878295,575.3846153846155,951.2955973878295,601.5384615384617,928.6457022119288,614.6153846153848,905.995807036028,601.5384615384617,905.995807036028,575.3846153846155"/><polygon id="1305" points="928.6457022119288,614.6153846153846,951.2955973878295,601.5384615384615,973.9454925637302,614.6153846153846,973.9454925637302,640.7692307692308,951.2955973878295,653.8461538461539,928.6457022119288,640.7692307692308,928.6457022119288,614.6153846153846"/><polygon id="1303" points="951.2955973878295,575.3846153846155,973.9454925637302,562.3076923076924,996.595387739631,575.3846153846155,996.595387739631,601.5384615384617,973.9454925637302,614.6153846153848,951.2955973878295,601.5384615384617,951.2955973878295,575.3846153846155"/><polygon id="1304" points="973.9454925637302,614.6153846153846,996.595387739631,601.5384615384615,1019.2452829155317,614.6153846153846,1019.2452829155317,640.7692307692308,996.595387739631,653.8461538461539,973.9454925637302,640.7692307692308,973.9454925637302,614.6153846153846"/><polygon id="1306" points="951.2955973878295,653.8461538461539,973.9454925637302,640.7692307692308,996.595387739631,653.8461538461539,996.595387739631,680.0000000000001,973.9454925637302,693.0769230769232,951.2955973878295,680.0000000000001,951.2955973878295,653.8461538461539"/><polygon id="1307" points="996.595387739631,653.8461538461539,1019.2452829155317,640.7692307692308,1041.8951780914324,653.8461538461539,1041.8951780914324,680.0000000000001,1019.2452829155317,693.0769230769232,996.595387739631,680.0000000000001,996.595387739631,653.8461538461539"/><polygon id="1301" points="928.6457022119288,536.1538461538462,951.2955973878295,523.0769230769231,973.9454925637302,536.1538461538462,973.9454925637302,562.3076923076924,951.2955973878295,575.3846153846155,928.6457022119288,562.3076923076924,928.6457022119288,536.1538461538462"/></g><g id="Michoacán"><polygon id="1203" points="747.4465408047232,771.5384615384617,770.0964359806239,758.4615384615386,792.7463311565247,771.5384615384617,792.7463311565247,797.6923076923078,770.0964359806239,810.769230769231,747.4465408047232,797.6923076923078,747.4465408047232,771.5384615384617"/><polygon id="1206" points="702.1467504529218,771.5384615384617,724.7966456288225,758.4615384615386,747.4465408047232,771.5384615384617,747.4465408047232,797.6923076923078,724.7966456288225,810.769230769231,702.1467504529218,797.6923076923078,702.1467504529218,771.5384615384617"/><polygon id="1208" points="656.8469601011203,771.5384615384617,679.496855277021,758.4615384615386,702.1467504529218,771.5384615384617,702.1467504529218,797.6923076923078,679.496855277021,810.769230769231,656.8469601011203,797.6923076923078,656.8469601011203,771.5384615384617"/><polygon id="1207" points="611.547169749319,771.5384615384617,634.1970649252197,758.4615384615386,656.8469601011204,771.5384615384617,656.8469601011204,797.6923076923078,634.1970649252197,810.769230769231,611.547169749319,797.6923076923078,611.547169749319,771.5384615384617"/><polygon id="1204" points="634.1970649252197,732.3076923076924,656.8469601011204,719.2307692307693,679.4968552770212,732.3076923076924,679.4968552770212,758.4615384615386,656.8469601011204,771.5384615384617,634.1970649252197,758.4615384615386,634.1970649252197,732.3076923076924"/><polygon id="1205" points="679.496855277021,732.3076923076924,702.1467504529218,719.2307692307693,724.7966456288225,732.3076923076924,724.7966456288225,758.4615384615386,702.1467504529218,771.5384615384617,679.496855277021,758.4615384615386,679.496855277021,732.3076923076924"/><polygon id="1209" points="634.1970649252197,810.7692307692308,656.8469601011204,797.6923076923077,679.4968552770212,810.7692307692308,679.4968552770212,836.923076923077,656.8469601011204,850.0000000000001,634.1970649252197,836.923076923077,634.1970649252197,810.7692307692308"/><polygon id="1202" points="656.8469601011203,850.0000000000001,679.496855277021,836.923076923077,702.1467504529218,850.0000000000001,702.1467504529218,876.1538461538463,679.496855277021,889.2307692307694,656.8469601011203,876.1538461538463,656.8469601011203,850.0000000000001"/><polygon id="1210" points="679.496855277021,810.7692307692308,702.1467504529218,797.6923076923077,724.7966456288225,810.7692307692308,724.7966456288225,836.923076923077,702.1467504529218,850.0000000000001,679.496855277021,836.923076923077,679.496855277021,810.7692307692308"/><polygon id="1201" points="702.1467504529218,850.0000000000001,724.7966456288225,836.923076923077,747.4465408047232,850.0000000000001,747.4465408047232,876.1538461538463,724.7966456288225,889.2307692307694,702.1467504529218,876.1538461538463,702.1467504529218,850.0000000000001"/><polygon id="1211" points="724.7966456288225,810.7692307692308,747.4465408047232,797.6923076923077,770.0964359806239,810.7692307692308,770.0964359806239,836.923076923077,747.4465408047232,850.0000000000001,724.7966456288225,836.923076923077,724.7966456288225,810.7692307692308"/></g><g id="Ciudad de México"><polygon id="0906" points="838.046121508326,928.4615384615386,860.6960166842267,915.3846153846155,883.3459118601274,928.4615384615386,883.3459118601274,954.6153846153848,860.6960166842267,967.6923076923078,838.046121508326,954.6153846153848,838.046121508326,928.4615384615386"/><polygon id="0910" points="883.3459118601273,850.0000000000001,905.995807036028,836.923076923077,928.6457022119288,850.0000000000001,928.6457022119288,876.1538461538463,905.995807036028,889.2307692307694,883.3459118601273,876.1538461538463,883.3459118601273,850.0000000000001"/><polygon id="0916" points="860.6960166842267,889.2307692307693,883.3459118601274,876.1538461538462,905.9958070360282,889.2307692307693,905.9958070360282,915.3846153846155,883.3459118601274,928.4615384615386,860.6960166842267,915.3846153846155,860.6960166842267,889.2307692307693"/><polygon id="0908" points="883.3459118601273,928.4615384615386,905.995807036028,915.3846153846155,928.6457022119288,928.4615384615386,928.6457022119288,954.6153846153848,905.995807036028,967.6923076923078,883.3459118601273,954.6153846153848,883.3459118601273,928.4615384615386"/><polygon id="0914" points="860.6960166842267,967.6923076923077,883.3459118601274,954.6153846153846,905.9958070360282,967.6923076923077,905.9958070360282,993.8461538461539,883.3459118601274,1006.923076923077,860.6960166842267,993.8461538461539,860.6960166842267,967.6923076923077"/><polygon id="0901" points="928.6457022119288,771.5384615384617,951.2955973878295,758.4615384615386,973.9454925637302,771.5384615384617,973.9454925637302,797.6923076923078,951.2955973878295,810.769230769231,928.6457022119288,797.6923076923078,928.6457022119288,771.5384615384617"/><polygon id="0903" points="905.995807036028,810.7692307692308,928.6457022119288,797.6923076923077,951.2955973878295,810.7692307692308,951.2955973878295,836.923076923077,928.6457022119288,850.0000000000001,905.995807036028,836.923076923077,905.995807036028,810.7692307692308"/><polygon id="0912" points="928.6457022119288,850.0000000000001,951.2955973878295,836.923076923077,973.9454925637302,850.0000000000001,973.9454925637302,876.1538461538463,951.2955973878295,889.2307692307694,928.6457022119288,876.1538461538463,928.6457022119288,850.0000000000001"/><polygon id="0915" points="905.995807036028,889.2307692307693,928.6457022119288,876.1538461538462,951.2955973878295,889.2307692307693,951.2955973878295,915.3846153846155,928.6457022119288,928.4615384615386,905.995807036028,915.3846153846155,905.995807036028,889.2307692307693"/><polygon id="0919" points="928.6457022119288,928.4615384615386,951.2955973878295,915.3846153846155,973.9454925637302,928.4615384615386,973.9454925637302,954.6153846153848,951.2955973878295,967.6923076923078,928.6457022119288,954.6153846153848,928.6457022119288,928.4615384615386"/><polygon id="0905" points="905.995807036028,967.6923076923077,928.6457022119288,954.6153846153846,951.2955973878295,967.6923076923077,951.2955973878295,993.8461538461539,928.6457022119288,1006.923076923077,905.995807036028,993.8461538461539,905.995807036028,967.6923076923077"/><polygon id="0902" points="951.2955973878295,810.7692307692308,973.9454925637302,797.6923076923077,996.595387739631,810.7692307692308,996.595387739631,836.923076923077,973.9454925637302,850.0000000000001,951.2955973878295,836.923076923077,951.2955973878295,810.7692307692308"/><polygon id="0911" points="973.9454925637302,850.0000000000001,996.595387739631,836.923076923077,1019.2452829155317,850.0000000000001,1019.2452829155317,876.1538461538463,996.595387739631,889.2307692307694,973.9454925637302,876.1538461538463,973.9454925637302,850.0000000000001"/><polygon id="0913" points="951.2955973878295,889.2307692307693,973.9454925637302,876.1538461538462,996.595387739631,889.2307692307693,996.595387739631,915.3846153846155,973.9454925637302,928.4615384615386,951.2955973878295,915.3846153846155,951.2955973878295,889.2307692307693"/><polygon id="0904" points="973.9454925637302,928.4615384615386,996.595387739631,915.3846153846155,1019.2452829155317,928.4615384615386,1019.2452829155317,954.6153846153848,996.595387739631,967.6923076923078,973.9454925637302,954.6153846153848,973.9454925637302,928.4615384615386"/><polygon id="0921" points="951.2955973878295,967.6923076923077,973.9454925637302,954.6153846153846,996.595387739631,967.6923076923077,996.595387739631,993.8461538461539,973.9454925637302,1006.923076923077,951.2955973878295,993.8461538461539,951.2955973878295,967.6923076923077"/><polygon id="0907" points="1019.2452829155317,850.0000000000001,1041.8951780914324,836.923076923077,1064.545073267333,850.0000000000001,1064.545073267333,876.1538461538463,1041.8951780914324,889.2307692307694,1019.2452829155317,876.1538461538463,1019.2452829155317,850.0000000000001"/><polygon id="0918" points="996.595387739631,889.2307692307693,1019.2452829155317,876.1538461538462,1041.8951780914324,889.2307692307693,1041.8951780914324,915.3846153846155,1019.2452829155317,928.4615384615386,996.595387739631,915.3846153846155,996.595387739631,889.2307692307693"/><polygon id="0922" points="1019.2452829155317,928.4615384615386,1041.8951780914324,915.3846153846155,1064.545073267333,928.4615384615386,1064.545073267333,954.6153846153848,1041.8951780914324,967.6923076923078,1019.2452829155317,954.6153846153848,1019.2452829155317,928.4615384615386"/><polygon id="0909" points="996.595387739631,967.6923076923077,1019.2452829155317,954.6153846153846,1041.8951780914324,967.6923076923077,1041.8951780914324,993.8461538461539,1019.2452829155317,1006.923076923077,996.595387739631,993.8461538461539,996.595387739631,967.6923076923077"/><polygon id="0917" points="815.3962263324253,889.2307692307693,838.046121508326,876.1538461538462,860.6960166842267,889.2307692307693,860.6960166842267,915.3846153846155,838.046121508326,928.4615384615386,815.3962263324253,915.3846153846155,815.3962263324253,889.2307692307693"/><polygon id="0920" points="1041.8951780914324,889.2307692307693,1064.545073267333,876.1538461538462,1087.1949684432336,889.2307692307693,1087.1949684432336,915.3846153846155,1064.545073267333,928.4615384615386,1041.8951780914324,915.3846153846155,1041.8951780914324,889.2307692307693"/></g><g id="Querétaro"><polygon id="2203" points="860.6960166842267,496.92307692307696,883.3459118601274,483.8461538461539,905.9958070360282,496.92307692307696,905.9958070360282,523.0769230769231,883.3459118601274,536.1538461538462,860.6960166842267,523.0769230769231,860.6960166842267,496.92307692307696"/><polygon id="2205" points="883.3459118601273,536.1538461538462,905.995807036028,523.0769230769231,928.6457022119288,536.1538461538462,928.6457022119288,562.3076923076924,905.995807036028,575.3846153846155,883.3459118601273,562.3076923076924,883.3459118601273,536.1538461538462"/><polygon id="2202" points="905.995807036028,496.92307692307696,928.6457022119288,483.8461538461539,951.2955973878295,496.92307692307696,951.2955973878295,523.0769230769231,928.6457022119288,536.1538461538462,905.995807036028,523.0769230769231,905.995807036028,496.92307692307696"/><polygon id="2201" points="883.3459118601273,457.69230769230774,905.995807036028,444.6153846153847,928.6457022119288,457.69230769230774,928.6457022119288,483.8461538461539,905.995807036028,496.92307692307696,883.3459118601273,483.8461538461539,883.3459118601273,457.69230769230774"/><polygon id="2206" points="815.3962263324253,496.92307692307696,838.046121508326,483.8461538461539,860.6960166842267,496.92307692307696,860.6960166842267,523.0769230769231,838.046121508326,536.1538461538462,815.3962263324253,523.0769230769231,815.3962263324253,496.92307692307696"/><polygon id="2204" points="838.046121508326,536.1538461538462,860.6960166842267,523.0769230769231,883.3459118601274,536.1538461538462,883.3459118601274,562.3076923076924,860.6960166842267,575.3846153846155,838.046121508326,562.3076923076924,838.046121508326,536.1538461538462"/></g><g id="Tlaxcala"><polygon id="2903" points="1109.8448636191345,1006.923076923077,1132.494758795035,993.8461538461539,1155.1446539709357,1006.923076923077,1155.1446539709357,1033.076923076923,1132.494758795035,1046.1538461538462,1109.8448636191345,1033.076923076923,1109.8448636191345,1006.923076923077"/><polygon id="2902" points="1087.1949684432338,967.6923076923077,1109.8448636191345,954.6153846153846,1132.494758795035,967.6923076923077,1132.494758795035,993.8461538461539,1109.8448636191345,1006.923076923077,1087.1949684432338,993.8461538461539,1087.1949684432338,967.6923076923077"/><polygon id="2901" points="1132.4947587950353,967.6923076923077,1155.144653970936,954.6153846153846,1177.7945491468365,967.6923076923077,1177.7945491468365,993.8461538461539,1155.144653970936,1006.923076923077,1132.4947587950353,993.8461538461539,1132.4947587950353,967.6923076923077"/></g><g id="Baja California"><polygon id="0206" points="45.29979035180141,104.61538461538463,67.94968552770212,91.53846153846155,90.59958070360281,104.61538461538463,90.59958070360281,130.76923076923077,67.94968552770212,143.84615384615387,45.29979035180141,130.76923076923077,45.29979035180141,104.61538461538463"/><polygon id="0205" points="90.59958070360281,104.61538461538463,113.2494758795035,91.53846153846155,135.8993710554042,104.61538461538463,135.8993710554042,130.76923076923077,113.2494758795035,143.84615384615387,90.59958070360281,130.76923076923077,90.59958070360281,104.61538461538463"/><polygon id="0204" points="135.89937105540423,104.61538461538463,158.54926623130493,91.53846153846155,181.19916140720562,104.61538461538463,181.19916140720562,130.76923076923077,158.54926623130493,143.84615384615387,135.89937105540423,130.76923076923077,135.89937105540423,104.61538461538463"/><polygon id="0208" points="113.24947587950354,143.84615384615387,135.89937105540423,130.76923076923077,158.54926623130493,143.84615384615387,158.54926623130493,170,135.89937105540423,183.0769230769231,113.24947587950354,170,113.24947587950354,143.84615384615387"/><polygon id="0202" points="181.19916140720562,104.61538461538463,203.84905658310632,91.53846153846155,226.498951759007,104.61538461538463,226.498951759007,130.76923076923077,203.84905658310632,143.84615384615387,181.19916140720562,130.76923076923077,181.19916140720562,104.61538461538463"/><polygon id="0209" points="158.54926623130493,143.84615384615387,181.19916140720562,130.76923076923077,203.84905658310632,143.84615384615387,203.84905658310632,170,181.19916140720562,183.0769230769231,158.54926623130493,170,158.54926623130493,143.84615384615387"/><polygon id="0201" points="226.49895175900704,104.61538461538463,249.14884693490774,91.53846153846155,271.79874211080846,104.61538461538463,271.79874211080846,130.76923076923077,249.14884693490774,143.84615384615387,226.49895175900704,130.76923076923077,226.49895175900704,104.61538461538463"/><polygon id="0207" points="203.84905658310632,143.84615384615387,226.498951759007,130.76923076923077,249.1488469349077,143.84615384615387,249.1488469349077,170,226.498951759007,183.0769230769231,203.84905658310632,170,203.84905658310632,143.84615384615387"/><polygon id="0203" points="181.19916140720562,183.07692307692312,203.84905658310632,170.00000000000003,226.498951759007,183.07692307692312,226.498951759007,209.23076923076925,203.84905658310632,222.30769230769235,181.19916140720562,209.23076923076925,181.19916140720562,183.07692307692312"/></g><g id="Zacatecas"><polygon id="3203" points="634.1970649252197,340,656.8469601011204,326.92307692307696,679.4968552770212,340,679.4968552770212,366.1538461538462,656.8469601011204,379.2307692307692,634.1970649252197,366.1538461538462,634.1970649252197,340"/><polygon id="3201" points="611.547169749319,379.2307692307693,634.1970649252197,366.15384615384625,656.8469601011204,379.2307692307693,656.8469601011204,405.3846153846155,634.1970649252197,418.4615384615385,611.547169749319,405.3846153846155,611.547169749319,379.2307692307693"/><polygon id="3202" points="634.1970649252197,418.4615384615385,656.8469601011204,405.3846153846155,679.4968552770212,418.4615384615385,679.4968552770212,444.6153846153847,656.8469601011204,457.69230769230774,634.1970649252197,444.6153846153847,634.1970649252197,418.4615384615385"/><polygon id="3204" points="656.8469601011203,379.2307692307693,679.496855277021,366.15384615384625,702.1467504529218,379.2307692307693,702.1467504529218,405.3846153846155,679.496855277021,418.4615384615385,656.8469601011203,405.3846153846155,656.8469601011203,379.2307692307693"/></g><g id="Oaxaca"><polygon id="2003" points="1132.4947587950353,1124.6153846153848,1155.144653970936,1111.5384615384617,1177.7945491468365,1124.6153846153848,1177.7945491468365,1150.769230769231,1155.144653970936,1163.846153846154,1132.4947587950353,1150.769230769231,1132.4947587950353,1124.6153846153848"/><polygon id="2008" points="1155.144653970936,1163.846153846154,1177.7945491468365,1150.769230769231,1200.4444443227371,1163.846153846154,1200.4444443227371,1190.0000000000002,1177.7945491468365,1203.0769230769233,1155.144653970936,1190.0000000000002,1155.144653970936,1163.846153846154"/><polygon id="2002" points="1177.7945491468367,1124.6153846153848,1200.4444443227374,1111.5384615384617,1223.094339498638,1124.6153846153848,1223.094339498638,1150.769230769231,1200.4444443227374,1163.846153846154,1177.7945491468367,1150.769230769231,1177.7945491468367,1124.6153846153848"/><polygon id="2004" points="1200.4444443227374,1163.846153846154,1223.094339498638,1150.769230769231,1245.7442346745386,1163.846153846154,1245.7442346745386,1190.0000000000002,1223.094339498638,1203.0769230769233,1200.4444443227374,1190.0000000000002,1200.4444443227374,1163.846153846154"/><polygon id="2010" points="1177.7945491468367,1203.076923076923,1200.4444443227374,1190,1223.094339498638,1203.076923076923,1223.094339498638,1229.2307692307693,1200.4444443227374,1242.3076923076924,1177.7945491468367,1229.2307692307693,1177.7945491468367,1203.076923076923"/><polygon id="2001" points="1223.094339498638,1124.6153846153848,1245.7442346745386,1111.5384615384617,1268.3941298504392,1124.6153846153848,1268.3941298504392,1150.769230769231,1245.7442346745386,1163.846153846154,1223.094339498638,1150.769230769231,1223.094339498638,1124.6153846153848"/><polygon id="2005" points="1245.7442346745388,1163.846153846154,1268.3941298504394,1150.769230769231,1291.04402502634,1163.846153846154,1291.04402502634,1190.0000000000002,1268.3941298504394,1203.0769230769233,1245.7442346745388,1190.0000000000002,1245.7442346745388,1163.846153846154"/><polygon id="2006" points="1109.8448636191345,1163.846153846154,1132.494758795035,1150.769230769231,1155.1446539709357,1163.846153846154,1155.1446539709357,1190.0000000000002,1132.494758795035,1203.0769230769233,1109.8448636191345,1190.0000000000002,1109.8448636191345,1163.846153846154"/><polygon id="2007" points="1268.3941298504394,1124.6153846153848,1291.04402502634,1111.5384615384617,1313.6939202022406,1124.6153846153848,1313.6939202022406,1150.769230769231,1291.04402502634,1163.846153846154,1268.3941298504394,1150.769230769231,1268.3941298504394,1124.6153846153848"/><polygon id="2009" points="1132.4947587950353,1203.076923076923,1155.144653970936,1190,1177.7945491468365,1203.076923076923,1177.7945491468365,1229.2307692307693,1155.144653970936,1242.3076923076924,1132.4947587950353,1229.2307692307693,1132.4947587950353,1203.076923076923"/></g><g id="Aguascalientes"><polygon id="0103" points="679.496855277021,496.92307692307696,702.1467504529218,483.8461538461539,724.7966456288225,496.92307692307696,724.7966456288225,523.0769230769231,702.1467504529218,536.1538461538462,679.496855277021,523.0769230769231,679.496855277021,496.92307692307696"/><polygon id="0101" points="656.8469601011203,457.69230769230774,679.496855277021,444.6153846153847,702.1467504529218,457.69230769230774,702.1467504529218,483.8461538461539,679.496855277021,496.92307692307696,656.8469601011203,483.8461538461539,656.8469601011203,457.69230769230774"/><polygon id="0102" points="634.1970649252197,496.92307692307696,656.8469601011204,483.8461538461539,679.4968552770212,496.92307692307696,679.4968552770212,523.0769230769231,656.8469601011204,536.1538461538462,634.1970649252197,523.0769230769231,634.1970649252197,496.92307692307696"/></g><g id="Baja California Sur"><polygon id="0301" points="203.84905658310632,222.30769230769235,226.498951759007,209.23076923076925,249.1488469349077,222.30769230769235,249.1488469349077,248.46153846153848,226.498951759007,261.53846153846155,203.84905658310632,248.46153846153848,203.84905658310632,222.30769230769235"/><polygon id="0302" points="226.49895175900704,261.53846153846155,249.14884693490774,248.46153846153848,271.79874211080846,261.53846153846155,271.79874211080846,287.69230769230774,249.14884693490774,300.7692307692308,226.49895175900704,287.69230769230774,226.49895175900704,261.53846153846155"/></g><g id="Estado de México"><polygon id="1516" points="973.9454925637302,771.5384615384617,996.595387739631,758.4615384615386,1019.2452829155317,771.5384615384617,1019.2452829155317,797.6923076923078,996.595387739631,810.769230769231,973.9454925637302,797.6923076923078,973.9454925637302,771.5384615384617"/><polygon id="1529" points="1041.8951780914324,810.7692307692308,1064.545073267333,797.6923076923077,1087.1949684432336,810.7692307692308,1087.1949684432336,836.923076923077,1064.545073267333,850.0000000000001,1041.8951780914324,836.923076923077,1041.8951780914324,810.7692307692308"/><polygon id="1539" points="1087.1949684432338,889.2307692307693,1109.8448636191345,876.1538461538462,1132.494758795035,889.2307692307693,1132.494758795035,915.3846153846155,1109.8448636191345,928.4615384615386,1087.1949684432338,915.3846153846155,1087.1949684432338,889.2307692307693"/><polygon id="1513" points="1064.5450732673332,771.5384615384617,1087.1949684432338,758.4615384615386,1109.8448636191345,771.5384615384617,1109.8448636191345,797.6923076923078,1087.1949684432338,810.769230769231,1064.5450732673332,797.6923076923078,1064.5450732673332,771.5384615384617"/><polygon id="1504" points="792.7463311565245,771.5384615384617,815.3962263324253,758.4615384615386,838.046121508326,771.5384615384617,838.046121508326,797.6923076923078,815.3962263324253,810.769230769231,792.7463311565245,797.6923076923078,792.7463311565245,771.5384615384617"/><polygon id="1520" points="928.6457022119288,693.0769230769231,951.2955973878295,680,973.9454925637302,693.0769230769231,973.9454925637302,719.2307692307693,951.2955973878295,732.3076923076924,928.6457022119288,719.2307692307693,928.6457022119288,693.0769230769231"/><polygon id="1517" points="996.595387739631,810.7692307692308,1019.2452829155317,797.6923076923077,1041.8951780914324,810.7692307692308,1041.8951780914324,836.923076923077,1019.2452829155317,850.0000000000001,996.595387739631,836.923076923077,996.595387739631,810.7692307692308"/><polygon id="1533" points="1041.8951780914324,967.6923076923077,1064.545073267333,954.6153846153846,1087.1949684432336,967.6923076923077,1087.1949684432336,993.8461538461539,1064.545073267333,1006.923076923077,1041.8951780914324,993.8461538461539,1041.8951780914324,967.6923076923077"/><polygon id="1538" points="1087.1949684432338,810.7692307692308,1109.8448636191345,797.6923076923077,1132.494758795035,810.7692307692308,1132.494758795035,836.923076923077,1109.8448636191345,850.0000000000001,1087.1949684432338,836.923076923077,1087.1949684432338,810.7692307692308"/><polygon id="1510" points="1041.8951780914324,732.3076923076924,1064.545073267333,719.2307692307693,1087.1949684432336,732.3076923076924,1087.1949684432336,758.4615384615386,1064.545073267333,771.5384615384617,1041.8951780914324,758.4615384615386,1041.8951780914324,732.3076923076924"/><polygon id="1505" points="973.9454925637302,693.0769230769231,996.595387739631,680,1019.2452829155317,693.0769230769231,1019.2452829155317,719.2307692307693,996.595387739631,732.3076923076924,973.9454925637302,719.2307692307693,973.9454925637302,693.0769230769231"/><polygon id="1528" points="905.995807036028,653.8461538461539,928.6457022119288,640.7692307692308,951.2955973878295,653.8461538461539,951.2955973878295,680.0000000000001,928.6457022119288,693.0769230769232,905.995807036028,680.0000000000001,905.995807036028,653.8461538461539"/><polygon id="1521" points="1019.2452829155317,1006.923076923077,1041.8951780914324,993.8461538461539,1064.545073267333,1006.923076923077,1064.545073267333,1033.076923076923,1041.8951780914324,1046.1538461538462,1019.2452829155317,1033.076923076923,1019.2452829155317,1006.923076923077"/><polygon id="1511" points="1019.2452829155317,771.5384615384617,1041.8951780914324,758.4615384615386,1064.545073267333,771.5384615384617,1064.545073267333,797.6923076923078,1041.8951780914324,810.769230769231,1019.2452829155317,797.6923076923078,1019.2452829155317,771.5384615384617"/><polygon id="1532" points="1064.5450732673332,928.4615384615386,1087.1949684432338,915.3846153846155,1109.8448636191345,928.4615384615386,1109.8448636191345,954.6153846153848,1087.1949684432338,967.6923076923078,1064.5450732673332,954.6153846153848,1064.5450732673332,928.4615384615386"/><polygon id="1525" points="1109.8448636191345,850.0000000000001,1132.494758795035,836.923076923077,1155.1446539709357,850.0000000000001,1155.1446539709357,876.1538461538463,1132.494758795035,889.2307692307694,1109.8448636191345,876.1538461538463,1109.8448636191345,850.0000000000001"/><polygon id="1530" points="1132.4947587950353,889.2307692307693,1155.144653970936,876.1538461538462,1177.7945491468365,889.2307692307693,1177.7945491468365,915.3846153846155,1155.144653970936,928.4615384615386,1132.4947587950353,915.3846153846155,1132.4947587950353,889.2307692307693"/><polygon id="1514" points="1019.2452829155317,693.0769230769231,1041.8951780914324,680,1064.545073267333,693.0769230769231,1064.545073267333,719.2307692307693,1041.8951780914324,732.3076923076924,1019.2452829155317,719.2307692307693,1019.2452829155317,693.0769230769231"/><polygon id="1512" points="1109.8448636191345,928.4615384615386,1132.494758795035,915.3846153846155,1155.1446539709357,928.4615384615386,1155.1446539709357,954.6153846153848,1132.494758795035,967.6923076923078,1109.8448636191345,954.6153846153848,1109.8448636191345,928.4615384615386"/><polygon id="1503" points="815.3962263324253,732.3076923076924,838.046121508326,719.2307692307693,860.6960166842267,732.3076923076924,860.6960166842267,758.4615384615386,838.046121508326,771.5384615384617,815.3962263324253,758.4615384615386,815.3962263324253,732.3076923076924"/><polygon id="1501" points="860.6960166842267,732.3076923076924,883.3459118601274,719.2307692307693,905.9958070360282,732.3076923076924,905.9958070360282,758.4615384615386,883.3459118601274,771.5384615384617,860.6960166842267,758.4615384615386,860.6960166842267,732.3076923076924"/><polygon id="1506" points="996.595387739631,732.3076923076924,1019.2452829155317,719.2307692307693,1041.8951780914324,732.3076923076924,1041.8951780914324,758.4615384615386,1019.2452829155317,771.5384615384617,996.595387739631,758.4615384615386,996.595387739631,732.3076923076924"/><polygon id="1531" points="1064.5450732673332,850.0000000000001,1087.1949684432338,836.923076923077,1109.8448636191345,850.0000000000001,1109.8448636191345,876.1538461538463,1087.1949684432338,889.2307692307694,1064.5450732673332,876.1538461538463,1064.5450732673332,850.0000000000001"/><polygon id="1502" points="951.2955973878295,732.3076923076924,973.9454925637302,719.2307692307693,996.595387739631,732.3076923076924,996.595387739631,758.4615384615386,973.9454925637302,771.5384615384617,951.2955973878295,758.4615384615386,951.2955973878295,732.3076923076924"/><polygon id="1508" points="883.3459118601273,771.5384615384617,905.995807036028,758.4615384615386,928.6457022119288,771.5384615384617,928.6457022119288,797.6923076923078,905.995807036028,810.769230769231,883.3459118601273,797.6923076923078,883.3459118601273,771.5384615384617"/><polygon id="1536" points="724.7966456288225,889.2307692307693,747.4465408047232,876.1538461538462,770.0964359806239,889.2307692307693,770.0964359806239,915.3846153846155,747.4465408047232,928.4615384615386,724.7966456288225,915.3846153846155,724.7966456288225,889.2307692307693"/><polygon id="1534" points="702.1467504529218,928.4615384615386,724.7966456288225,915.3846153846155,747.4465408047232,928.4615384615386,747.4465408047232,954.6153846153848,724.7966456288225,967.6923076923078,702.1467504529218,954.6153846153848,702.1467504529218,928.4615384615386"/><polygon id="1537" points="905.995807036028,732.3076923076924,928.6457022119288,719.2307692307693,951.2955973878295,732.3076923076924,951.2955973878295,758.4615384615386,928.6457022119288,771.5384615384617,905.995807036028,758.4615384615386,905.995807036028,732.3076923076924"/><polygon id="1507" points="838.046121508326,771.5384615384617,860.6960166842267,758.4615384615386,883.3459118601274,771.5384615384617,883.3459118601274,797.6923076923078,860.6960166842267,810.769230769231,838.046121508326,797.6923076923078,838.046121508326,771.5384615384617"/><polygon id="1519" points="860.6960166842267,810.7692307692308,883.3459118601274,797.6923076923077,905.9958070360282,810.7692307692308,905.9958070360282,836.923076923077,883.3459118601274,850.0000000000001,860.6960166842267,836.923076923077,860.6960166842267,810.7692307692308"/><polygon id="1524" points="838.046121508326,850.0000000000001,860.6960166842267,836.923076923077,883.3459118601274,850.0000000000001,883.3459118601274,876.1538461538463,860.6960166842267,889.2307692307694,838.046121508326,876.1538461538463,838.046121508326,850.0000000000001"/><polygon id="1518" points="770.0964359806238,810.7692307692308,792.7463311565245,797.6923076923077,815.3962263324253,810.7692307692308,815.3962263324253,836.923076923077,792.7463311565245,850.0000000000001,770.0964359806238,836.923076923077,770.0964359806238,810.7692307692308"/><polygon id="1509" points="747.4465408047232,850.0000000000001,770.0964359806239,836.923076923077,792.7463311565247,850.0000000000001,792.7463311565247,876.1538461538463,770.0964359806239,889.2307692307694,747.4465408047232,876.1538461538463,747.4465408047232,850.0000000000001"/><polygon id="1540" points="770.0964359806238,889.2307692307693,792.7463311565245,876.1538461538462,815.3962263324253,889.2307692307693,815.3962263324253,915.3846153846155,792.7463311565245,928.4615384615386,770.0964359806238,915.3846153846155,770.0964359806238,889.2307692307693"/><polygon id="1526" points="747.4465408047232,928.4615384615386,770.0964359806239,915.3846153846155,792.7463311565247,928.4615384615386,792.7463311565247,954.6153846153848,770.0964359806239,967.6923076923078,747.4465408047232,954.6153846153848,747.4465408047232,928.4615384615386"/><polygon id="1535" points="770.0964359806238,967.6923076923077,792.7463311565245,954.6153846153846,815.3962263324253,967.6923076923077,815.3962263324253,993.8461538461539,792.7463311565245,1006.923076923077,770.0964359806238,993.8461538461539,770.0964359806238,967.6923076923077"/><polygon id="1515" points="815.3962263324253,810.7692307692308,838.046121508326,797.6923076923077,860.6960166842267,810.7692307692308,860.6960166842267,836.923076923077,838.046121508326,850.0000000000001,815.3962263324253,836.923076923077,815.3962263324253,810.7692307692308"/><polygon id="1522" points="792.7463311565245,850.0000000000001,815.3962263324253,836.923076923077,838.046121508326,850.0000000000001,838.046121508326,876.1538461538463,815.3962263324253,889.2307692307694,792.7463311565245,876.1538461538463,792.7463311565245,850.0000000000001"/><polygon id="1527" points="792.7463311565245,928.4615384615386,815.3962263324253,915.3846153846155,838.046121508326,928.4615384615386,838.046121508326,954.6153846153848,815.3962263324253,967.6923076923078,792.7463311565245,954.6153846153848,792.7463311565245,928.4615384615386"/><polygon id="1523" points="815.3962263324253,967.6923076923077,838.046121508326,954.6153846153846,860.6960166842267,967.6923076923077,860.6960166842267,993.8461538461539,838.046121508326,1006.923076923077,815.3962263324253,993.8461538461539,815.3962263324253,967.6923076923077"/></g><g id="Chihuahua"><polygon id="0804" points="452.997903518014,183.07692307692312,475.64779869391475,170.00000000000003,498.2976938698155,183.07692307692312,498.2976938698155,209.23076923076925,475.64779869391475,222.30769230769235,452.997903518014,209.23076923076925,452.997903518014,183.07692307692312"/><polygon id="0806" points="520.9475890457162,222.30769230769235,543.5974842216169,209.23076923076925,566.2473793975176,222.30769230769235,566.2473793975176,248.46153846153848,543.5974842216169,261.53846153846155,520.9475890457162,248.46153846153848,520.9475890457162,222.30769230769235"/><polygon id="0808" points="498.2976938698155,261.53846153846155,520.9475890457162,248.46153846153848,543.5974842216169,261.53846153846155,543.5974842216169,287.69230769230774,520.9475890457162,300.7692307692308,498.2976938698155,287.69230769230774,498.2976938698155,261.53846153846155"/><polygon id="0809" points="520.9475890457162,300.7692307692308,543.5974842216169,287.69230769230774,566.2473793975176,300.7692307692308,566.2473793975176,326.92307692307696,543.5974842216169,340,520.9475890457162,326.92307692307696,520.9475890457162,300.7692307692308"/><polygon id="0802" points="475.64779869391475,222.30769230769235,498.2976938698155,209.23076923076925,520.9475890457162,222.30769230769235,520.9475890457162,248.46153846153848,498.2976938698155,261.53846153846155,475.64779869391475,248.46153846153848,475.64779869391475,222.30769230769235"/><polygon id="0801" points="498.2976938698155,183.07692307692312,520.9475890457162,170.00000000000003,543.5974842216169,183.07692307692312,543.5974842216169,209.23076923076925,520.9475890457162,222.30769230769235,498.2976938698155,209.23076923076925,498.2976938698155,183.07692307692312"/><polygon id="0803" points="407.69811316621264,183.07692307692312,430.34800834211336,170.00000000000003,452.9979035180141,183.07692307692312,452.9979035180141,209.23076923076925,430.34800834211336,222.30769230769235,407.69811316621264,209.23076923076925,407.69811316621264,183.07692307692312"/><polygon id="0807" points="430.3480083421133,222.30769230769235,452.997903518014,209.23076923076925,475.64779869391475,222.30769230769235,475.64779869391475,248.46153846153848,452.997903518014,261.53846153846155,430.3480083421133,248.46153846153848,430.3480083421133,222.30769230769235"/><polygon id="0805" points="543.5974842216168,261.53846153846155,566.2473793975175,248.46153846153848,588.8972745734183,261.53846153846155,588.8972745734183,287.69230769230774,566.2473793975175,300.7692307692308,543.5974842216168,287.69230769230774,543.5974842216168,261.53846153846155"/></g><g id="Yucatán"><polygon id="3104" points="1472.2431864335458,928.4615384615386,1494.8930816094464,915.3846153846155,1517.542976785347,928.4615384615386,1517.542976785347,954.6153846153848,1494.8930816094464,967.6923076923078,1472.2431864335458,954.6153846153848,1472.2431864335458,928.4615384615386"/><polygon id="3105" points="1494.8930816094464,967.6923076923077,1517.542976785347,954.6153846153846,1540.1928719612476,967.6923076923077,1540.1928719612476,993.8461538461539,1517.542976785347,1006.923076923077,1494.8930816094464,993.8461538461539,1494.8930816094464,967.6923076923077"/><polygon id="3102" points="1562.8427671371485,928.4615384615386,1585.492662313049,915.3846153846155,1608.1425574889497,928.4615384615386,1608.1425574889497,954.6153846153848,1585.492662313049,967.6923076923078,1562.8427671371485,954.6153846153848,1562.8427671371485,928.4615384615386"/><polygon id="3101" points="1608.14255748895,928.4615384615386,1630.7924526648505,915.3846153846155,1653.4423478407512,928.4615384615386,1653.4423478407512,954.6153846153848,1630.7924526648505,967.6923076923078,1608.14255748895,954.6153846153848,1608.14255748895,928.4615384615386"/><polygon id="3106" points="1517.5429767853473,928.4615384615386,1540.1928719612479,915.3846153846155,1562.8427671371485,928.4615384615386,1562.8427671371485,954.6153846153848,1540.1928719612479,967.6923076923078,1517.5429767853473,954.6153846153848,1517.5429767853473,928.4615384615386"/><polygon id="3103" points="1540.1928719612479,967.6923076923077,1562.8427671371485,954.6153846153846,1585.492662313049,967.6923076923077,1585.492662313049,993.8461538461539,1562.8427671371485,1006.923076923077,1540.1928719612479,993.8461538461539,1540.1928719612479,967.6923076923077"/></g><g id="Guerrero"><polygon id="1202" points="1064.5450732673332,1163.846153846154,1087.1949684432338,1150.769230769231,1109.8448636191345,1163.846153846154,1109.8448636191345,1190.0000000000002,1087.1949684432338,1203.0769230769233,1064.5450732673332,1190.0000000000002,1064.5450732673332,1163.846153846154"/><polygon id="1202" points="1019.2452829155317,1163.846153846154,1041.8951780914324,1150.769230769231,1064.545073267333,1163.846153846154,1064.545073267333,1190.0000000000002,1041.8951780914324,1203.0769230769233,1019.2452829155317,1190.0000000000002,1019.2452829155317,1163.846153846154"/><polygon id="1203" points="951.2955973878295,1124.6153846153848,973.9454925637302,1111.5384615384617,996.595387739631,1124.6153846153848,996.595387739631,1150.769230769231,973.9454925637302,1163.846153846154,951.2955973878295,1150.769230769231,951.2955973878295,1124.6153846153848"/><polygon id="1205" points="1087.1949684432338,1124.6153846153848,1109.8448636191345,1111.5384615384617,1132.494758795035,1124.6153846153848,1132.494758795035,1150.769230769231,1109.8448636191345,1163.846153846154,1087.1949684432338,1150.769230769231,1087.1949684432338,1124.6153846153848"/><polygon id="1207" points="996.595387739631,1124.6153846153848,1019.2452829155317,1111.5384615384617,1041.8951780914324,1124.6153846153848,1041.8951780914324,1150.769230769231,1019.2452829155317,1163.846153846154,996.595387739631,1150.769230769231,996.595387739631,1124.6153846153848"/><polygon id="1201" points="973.9454925637302,1085.3846153846155,996.595387739631,1072.3076923076924,1019.2452829155317,1085.3846153846155,1019.2452829155317,1111.5384615384617,996.595387739631,1124.6153846153848,973.9454925637302,1111.5384615384617,973.9454925637302,1085.3846153846155"/><polygon id="1204" points="973.9454925637302,1163.846153846154,996.595387739631,1150.769230769231,1019.2452829155317,1163.846153846154,1019.2452829155317,1190.0000000000002,996.595387739631,1203.0769230769233,973.9454925637302,1190.0000000000002,973.9454925637302,1163.846153846154"/><polygon id="1206" points="1041.8951780914324,1124.6153846153848,1064.545073267333,1111.5384615384617,1087.1949684432336,1124.6153846153848,1087.1949684432336,1150.769230769231,1064.545073267333,1163.846153846154,1041.8951780914324,1150.769230769231,1041.8951780914324,1124.6153846153848"/></g><g id="San Luis Potosí"><polygon id="2405" points="724.7966456288225,496.92307692307696,747.4465408047232,483.8461538461539,770.0964359806239,496.92307692307696,770.0964359806239,523.0769230769231,747.4465408047232,536.1538461538462,724.7966456288225,523.0769230769231,724.7966456288225,496.92307692307696"/><polygon id="2401" points="747.4465408047232,457.69230769230774,770.0964359806239,444.6153846153847,792.7463311565247,457.69230769230774,792.7463311565247,483.8461538461539,770.0964359806239,496.92307692307696,747.4465408047232,483.8461538461539,747.4465408047232,457.69230769230774"/><polygon id="2406" points="770.0964359806238,496.92307692307696,792.7463311565245,483.8461538461539,815.3962263324253,496.92307692307696,815.3962263324253,523.0769230769231,792.7463311565245,536.1538461538462,770.0964359806238,523.0769230769231,770.0964359806238,496.92307692307696"/><polygon id="2407" points="860.6960166842267,575.3846153846155,883.3459118601274,562.3076923076924,905.9958070360282,575.3846153846155,905.9958070360282,601.5384615384617,883.3459118601274,614.6153846153848,860.6960166842267,601.5384615384617,860.6960166842267,575.3846153846155"/><polygon id="2403" points="792.7463311565245,536.1538461538462,815.3962263324253,523.0769230769231,838.046121508326,536.1538461538462,838.046121508326,562.3076923076924,815.3962263324253,575.3846153846155,792.7463311565245,562.3076923076924,792.7463311565245,536.1538461538462"/><polygon id="2404" points="815.3962263324253,575.3846153846155,838.046121508326,562.3076923076924,860.6960166842267,575.3846153846155,860.6960166842267,601.5384615384617,838.046121508326,614.6153846153848,815.3962263324253,601.5384615384617,815.3962263324253,575.3846153846155"/><polygon id="2402" points="747.4465408047232,536.1538461538462,770.0964359806239,523.0769230769231,792.7463311565247,536.1538461538462,792.7463311565247,562.3076923076924,770.0964359806239,575.3846153846155,747.4465408047232,562.3076923076924,747.4465408047232,536.1538461538462"/></g></svg>