<?xml version="1.0" encoding="UTF-8"?>
<svg id="Layer_1" data-name="Layer 1" xmlns="http://www.w3.org/2000/svg" version="1.1" viewBox="0 0 1800 1400">
  <defs></defs>
  <polygon id="Veracruz" points="1336.3 1033.1 1336.3 1006.9 1313.7 993.8 1313.7 967.7 1291 954.6 1291 928.5 1268.4 915.4 1268.4 889.2 1245.7 876.2 1245.7 850 1223.1 836.9 1223.1 810.8 1200.4 797.7 1200.4 771.5 1177.8 758.5 1177.8 732.3 1155.1 719.2 1132.5 732.3 1109.8 719.2 1109.8 693.1 1087.2 680 1064.5 693.1 1064.5 719.2 1087.2 732.3 1087.2 758.5 1109.8 771.5 1109.8 797.7 1132.5 810.8 1132.5 836.9 1155.1 850 1155.1 876.2 1177.8 889.2 1177.8 915.4 1200.4 928.5 1200.4 954.6 1223.1 967.7 1223.1 993.8 1245.7 1006.9 1245.7 1033.1 1268.4 1046.2 1268.4 1072.3 1291 1085.4 1291 1111.5 1313.7 1124.6 1336.3 1111.5 1336.3 1085.4 1313.7 1072.3 1313.7 1046.2 1336.3 1033.1"/>
  <polygon id="Colima" points="634.2 680 611.5 693.1 588.9 680 566.2 693.1 566.2 719.2 588.9 732.3 611.5 719.2 634.2 732.3 656.8 719.2 656.8 693.1 634.2 680"/>
  <polygon id="Durango" points="611.5 326.9 611.5 300.8 588.9 287.7 566.2 300.8 566.2 326.9 543.6 340 543.6 366.2 566.2 379.2 566.2 405.4 588.9 418.5 611.5 405.4 611.5 379.2 634.2 366.2 634.2 340 611.5 326.9"/>
  <polygon id="Sonora" points="407.7 209.2 407.7 183.1 385 170 385 143.8 362.4 130.8 362.4 104.6 339.7 91.5 317.1 104.6 294.4 91.5 271.8 104.6 271.8 130.8 294.4 143.8 294.4 170 317.1 183.1 317.1 209.2 339.7 222.3 362.4 209.2 385 222.3 385 248.5 407.7 261.5 430.3 248.5 430.3 222.3 407.7 209.2"/>
  <polygon id="Campeche" points="1540.2 993.8 1517.5 1006.9 1517.5 1033.1 1494.9 1046.2 1494.9 1072.3 1517.5 1085.4 1540.2 1072.3 1540.2 1046.2 1562.8 1033.1 1562.8 1006.9 1540.2 993.8"/>
  <polygon id="Guanajuato" points="928.6 640.8 928.6 614.6 906 601.5 883.3 614.6 860.7 601.5 838 614.6 815.4 601.5 815.4 575.4 792.7 562.3 770.1 575.4 770.1 601.5 747.4 614.6 747.4 640.8 724.8 653.8 724.8 680 747.4 693.1 747.4 719.2 724.8 732.3 724.8 758.5 747.4 771.5 770.1 758.5 792.7 771.5 815.4 758.5 815.4 732.3 838 719.2 860.7 732.3 883.3 719.2 906 732.3 928.6 719.2 928.6 693.1 906 680 906 653.8 928.6 640.8"/>
  <polygon id="Tamaulipas" points="883.3 405.4 883.3 379.2 860.7 366.2 860.7 340 838 326.9 838 300.8 815.4 287.7 815.4 261.5 792.7 248.5 770.1 261.5 770.1 287.7 792.7 300.8 792.7 326.9 815.4 340 815.4 366.2 838 379.2 838 405.4 815.4 418.5 815.4 444.6 792.7 457.7 792.7 483.8 815.4 496.9 838 483.8 860.7 496.9 883.3 483.8 883.3 457.7 906 444.6 906 418.5 883.3 405.4"/>
  <polygon id="Nayarit" points="634.2 444.6 634.2 418.5 611.5 405.4 588.9 418.5 588.9 444.6 566.2 457.7 566.2 483.8 588.9 496.9 611.5 483.8 634.2 496.9 656.8 483.8 656.8 457.7 634.2 444.6"/>
  <polygon id="Morelos" points="1019.2 1033.1 1019.2 1006.9 996.6 993.8 973.9 1006.9 951.3 993.8 928.6 1006.9 928.6 1033.1 906 1046.2 906 1072.3 928.6 1085.4 951.3 1072.3 973.9 1085.4 996.6 1072.3 1019.2 1085.4 1041.9 1072.3 1041.9 1046.2 1019.2 1033.1"/>
  <polygon id="Coahuila" points="702.1 248.5 702.1 222.3 679.5 209.2 679.5 183.1 656.8 170 634.2 183.1 634.2 209.2 611.5 222.3 588.9 209.2 566.2 222.3 566.2 248.5 588.9 261.5 588.9 287.7 611.5 300.8 611.5 326.9 634.2 340 656.8 326.9 656.8 300.8 679.5 287.7 702.1 300.8 724.8 287.7 724.8 261.5 702.1 248.5"/>
  <polygon id="Nuevo León" points="815.4 366.2 815.4 340 792.7 326.9 792.7 300.8 770.1 287.7 770.1 261.5 747.4 248.5 724.8 261.5 724.8 287.7 702.1 300.8 679.5 287.7 656.8 300.8 656.8 326.9 679.5 340 679.5 366.2 702.1 379.2 702.1 405.4 679.5 418.5 679.5 444.6 702.1 457.7 702.1 483.8 724.8 496.9 747.4 483.8 747.4 457.7 770.1 444.6 792.7 457.7 815.4 444.6 815.4 418.5 838 405.4 838 379.2 815.4 366.2"/>
  <polygon id="Chiapas" points="1494.9 1150.8 1494.9 1124.6 1472.2 1111.5 1472.2 1085.4 1449.6 1072.3 1426.9 1085.4 1426.9 1111.5 1404.3 1124.6 1381.6 1111.5 1381.6 1085.4 1359 1072.3 1336.3 1085.4 1336.3 1111.5 1313.7 1124.6 1313.7 1150.8 1336.3 1163.8 1336.3 1190 1359 1203.1 1359 1229.2 1381.6 1242.3 1381.6 1268.5 1404.3 1281.5 1426.9 1268.5 1426.9 1242.3 1449.6 1229.2 1449.6 1203.1 1472.2 1190 1494.9 1203.1 1517.5 1190 1517.5 1163.8 1494.9 1150.8"/>
  <polygon id="Puebla" points="1268.4 1072.3 1268.4 1046.2 1245.7 1033.1 1245.7 1006.9 1223.1 993.8 1223.1 967.7 1200.4 954.6 1200.4 928.5 1177.8 915.4 1155.1 928.5 1155.1 954.6 1177.8 967.7 1177.8 993.8 1155.1 1006.9 1155.1 1033.1 1132.5 1046.2 1109.8 1033.1 1109.8 1006.9 1087.2 993.8 1064.5 1006.9 1064.5 1033.1 1041.9 1046.2 1041.9 1072.3 1019.2 1085.4 1019.2 1111.5 1041.9 1124.6 1064.5 1111.5 1087.2 1124.6 1109.8 1111.5 1132.5 1124.6 1155.1 1111.5 1177.8 1124.6 1200.4 1111.5 1223.1 1124.6 1245.7 1111.5 1268.4 1124.6 1291 1111.5 1291 1085.4 1268.4 1072.3"/>
  <polygon id="Tabasco" points="1494.9 1072.3 1494.9 1046.2 1472.2 1033.1 1449.6 1046.2 1426.9 1033.1 1404.3 1046.2 1381.6 1033.1 1359 1046.2 1336.3 1033.1 1313.7 1046.2 1313.7 1072.3 1336.3 1085.4 1359 1072.3 1381.6 1085.4 1381.6 1111.5 1404.3 1124.6 1426.9 1111.5 1426.9 1085.4 1449.6 1072.3 1472.2 1085.4 1472.2 1111.5 1494.9 1124.6 1517.5 1111.5 1517.5 1085.4 1494.9 1072.3"/>
  <polygon id="Sinaloa" points="566.2 405.4 566.2 379.2 543.6 366.2 543.6 340 520.9 326.9 520.9 300.8 498.3 287.7 498.3 261.5 475.6 248.5 453 261.5 430.3 248.5 407.7 261.5 407.7 287.7 430.3 300.8 430.3 326.9 453 340 475.6 326.9 498.3 340 498.3 366.2 520.9 379.2 520.9 405.4 543.6 418.5 543.6 444.6 566.2 457.7 588.9 444.6 588.9 418.5 566.2 405.4"/>
  <polygon id="Jalisco" points="747.4 562.3 747.4 536.2 724.8 523.1 702.1 536.2 679.5 523.1 656.8 536.2 634.2 523.1 634.2 496.9 611.5 483.8 588.9 496.9 588.9 523.1 611.5 536.2 611.5 562.3 588.9 575.4 566.2 562.3 543.6 575.4 543.6 601.5 520.9 614.6 520.9 640.8 543.6 653.8 543.6 680 566.2 693.1 588.9 680 611.5 693.1 634.2 680 656.8 693.1 656.8 719.2 679.5 732.3 702.1 719.2 724.8 732.3 747.4 719.2 747.4 693.1 724.8 680 724.8 653.8 747.4 640.8 747.4 614.6 770.1 601.5 770.1 575.4 747.4 562.3"/>
  <polygon id="Quintana Roo" points="1676.1 915.4 1653.4 928.5 1653.4 954.6 1630.8 967.7 1608.1 954.6 1585.5 967.7 1585.5 993.8 1562.8 1006.9 1562.8 1033.1 1585.5 1046.2 1608.1 1033.1 1608.1 1006.9 1630.8 993.8 1653.4 1006.9 1676.1 993.8 1676.1 967.7 1698.7 954.6 1698.7 928.5 1676.1 915.4"/>
  <polygon id="Hidalgo" points="1019.2 640.8 1019.2 614.6 996.6 601.5 996.6 575.4 973.9 562.3 973.9 536.2 951.3 523.1 928.6 536.2 928.6 562.3 906 575.4 906 601.5 928.6 614.6 928.6 640.8 951.3 653.8 951.3 680 973.9 693.1 996.6 680 1019.2 693.1 1041.9 680 1041.9 653.8 1019.2 640.8"/>
  <polygon id="Michoacán" points="770.1 758.5 747.4 771.5 724.8 758.5 724.8 732.3 702.1 719.2 679.5 732.3 656.8 719.2 634.2 732.3 634.2 758.5 611.5 771.5 611.5 797.7 634.2 810.8 634.2 836.9 656.8 850 656.8 876.2 679.5 889.2 702.1 876.2 724.8 889.2 747.4 876.2 747.4 850 770.1 836.9 770.1 810.8 792.7 797.7 792.7 771.5 770.1 758.5"/>
  <polygon id="Ciudad de México" points="1064.5 876.2 1064.5 850 1041.9 836.9 1019.2 850 996.6 836.9 996.6 810.8 973.9 797.7 973.9 771.5 951.3 758.5 928.6 771.5 928.6 797.7 906 810.8 906 836.9 883.3 850 883.3 876.2 860.7 889.2 838 876.2 815.4 889.2 815.4 915.4 838 928.5 838 954.6 860.7 967.7 860.7 993.8 883.3 1006.9 906 993.8 928.6 1006.9 951.3 993.8 973.9 1006.9 996.6 993.8 1019.2 1006.9 1041.9 993.8 1041.9 967.7 1064.5 954.6 1064.5 928.5 1087.2 915.4 1087.2 889.2 1064.5 876.2"/>
  <polygon id="Querétaro" points="928.6 483.8 928.6 457.7 906 444.6 883.3 457.7 883.3 483.8 860.7 496.9 838 483.8 815.4 496.9 815.4 523.1 838 536.2 838 562.3 860.7 575.4 883.3 562.3 906 575.4 928.6 562.3 928.6 536.2 951.3 523.1 951.3 496.9 928.6 483.8"/>
  <polygon id="Tlaxcala" points="1155.1 954.6 1132.5 967.7 1109.8 954.6 1087.2 967.7 1087.2 993.8 1109.8 1006.9 1109.8 1033.1 1132.5 1046.2 1155.1 1033.1 1155.1 1006.9 1177.8 993.8 1177.8 967.7 1155.1 954.6"/>
  <polygon id="Baja California" points="249.1 91.5 226.5 104.6 203.8 91.5 181.2 104.6 158.5 91.5 135.9 104.6 113.2 91.5 90.6 104.6 67.9 91.5 45.3 104.6 45.3 130.8 67.9 143.8 90.6 130.8 113.2 143.8 113.2 170 135.9 183.1 158.5 170 181.2 183.1 181.2 209.2 203.8 222.3 226.5 209.2 226.5 183.1 249.1 170 249.1 143.8 271.8 130.8 271.8 104.6 249.1 91.5"/>
  <polygon id="Zacatecas" points="679.5 366.2 679.5 340 656.8 326.9 634.2 340 634.2 366.2 611.5 379.2 611.5 405.4 634.2 418.5 634.2 444.6 656.8 457.7 679.5 444.6 679.5 418.5 702.1 405.4 702.1 379.2 679.5 366.2"/>
  <polygon id="Oaxaca" points="1291 1111.5 1268.4 1124.6 1245.7 1111.5 1223.1 1124.6 1200.4 1111.5 1177.8 1124.6 1155.1 1111.5 1132.5 1124.6 1132.5 1150.8 1109.8 1163.8 1109.8 1190 1132.5 1203.1 1132.5 1229.2 1155.1 1242.3 1177.8 1229.2 1200.4 1242.3 1223.1 1229.2 1223.1 1203.1 1245.7 1190 1268.4 1203.1 1291 1190 1291 1163.8 1313.7 1150.8 1313.7 1124.6 1291 1111.5"/>
  <polygon id="Aguascalientes" points="702.1 483.8 702.1 457.7 679.5 444.6 656.8 457.7 656.8 483.8 634.2 496.9 634.2 523.1 656.8 536.2 679.5 523.1 702.1 536.2 724.8 523.1 724.8 496.9 702.1 483.8"/>
  <polygon id="Baja California Sur" points="249.1 248.5 249.1 222.3 226.5 209.2 203.8 222.3 203.8 248.5 226.5 261.5 226.5 287.7 249.1 300.8 271.8 287.7 271.8 261.5 249.1 248.5"/>
  <polygon id="Estado de México" points="1155.1 876.2 1155.1 850 1132.5 836.9 1132.5 810.8 1109.8 797.7 1109.8 771.5 1087.2 758.5 1087.2 732.3 1064.5 719.2 1064.5 693.1 1041.9 680 1019.2 693.1 996.6 680 973.9 693.1 951.3 680 951.3 653.8 928.6 640.8 906 653.8 906 680 928.6 693.1 928.6 719.2 906 732.3 883.3 719.2 860.7 732.3 838 719.2 815.4 732.3 815.4 758.5 792.7 771.5 792.7 797.7 770.1 810.8 770.1 836.9 747.4 850 747.4 876.2 724.8 889.2 724.8 915.4 702.1 928.5 702.1 954.6 724.8 967.7 747.4 954.6 770.1 967.7 770.1 993.8 792.7 1006.9 815.4 993.8 838 1006.9 860.7 993.8 860.7 967.7 838 954.6 838 928.5 815.4 915.4 815.4 889.2 838 876.2 860.7 889.2 883.3 876.2 883.3 850 906 836.9 906 810.8 928.6 797.7 928.6 771.5 951.3 758.5 973.9 771.5 973.9 797.7 996.6 810.8 996.6 836.9 1019.2 850 1041.9 836.9 1064.5 850 1064.5 876.2 1087.2 889.2 1087.2 915.4 1064.5 928.5 1064.5 954.6 1041.9 967.7 1041.9 993.8 1019.2 1006.9 1019.2 1033.1 1041.9 1046.2 1064.5 1033.1 1064.5 1006.9 1087.2 993.8 1087.2 967.7 1109.8 954.6 1132.5 967.7 1155.1 954.6 1155.1 928.5 1177.8 915.4 1177.8 889.2 1155.1 876.2"/>
  <polygon id="Chihuahua" points="566.2 248.5 566.2 222.3 543.6 209.2 543.6 183.1 520.9 170 498.3 183.1 475.6 170 453 183.1 430.3 170 407.7 183.1 407.7 209.2 430.3 222.3 430.3 248.5 453 261.5 475.6 248.5 498.3 261.5 498.3 287.7 520.9 300.8 520.9 326.9 543.6 340 566.2 326.9 566.2 300.8 588.9 287.7 588.9 261.5 566.2 248.5"/>
  <polygon id="Yucatán" points="1630.8 915.4 1608.1 928.5 1585.5 915.4 1562.8 928.5 1540.2 915.4 1517.5 928.5 1494.9 915.4 1472.2 928.5 1472.2 954.6 1494.9 967.7 1494.9 993.8 1517.5 1006.9 1540.2 993.8 1562.8 1006.9 1585.5 993.8 1585.5 967.7 1608.1 954.6 1630.8 967.7 1653.4 954.6 1653.4 928.5 1630.8 915.4"/>
  <polygon id="Guerrero" points="1109.8 1111.5 1087.2 1124.6 1064.5 1111.5 1041.9 1124.6 1019.2 1111.5 1019.2 1085.4 996.6 1072.3 973.9 1085.4 973.9 1111.5 951.3 1124.6 951.3 1150.8 973.9 1163.8 973.9 1190 996.6 1203.1 1019.2 1190 1041.9 1203.1 1064.5 1190 1087.2 1203.1 1109.8 1190 1109.8 1163.8 1132.5 1150.8 1132.5 1124.6 1109.8 1111.5"/>
  <polygon id="San Luis Potosí" points="883.3 562.3 860.7 575.4 838 562.3 838 536.2 815.4 523.1 815.4 496.9 792.7 483.8 792.7 457.7 770.1 444.6 747.4 457.7 747.4 483.8 724.8 496.9 724.8 523.1 747.4 536.2 747.4 562.3 770.1 575.4 792.7 562.3 815.4 575.4 815.4 601.5 838 614.6 860.7 601.5 883.3 614.6 906 601.5 906 575.4 883.3 562.3"/>
</svg>