<?xml version="1.0" encoding="utf-8"?>
<svg version="1.1" xmlns="http://www.w3.org/2000/svg" xmlns:xlink="http://www.w3.org/1999/xlink" x="0px" y="0px"
	 viewBox="0 0 595.3 413.4" style="enable-background:new 0 0 595.3 413.4;" xml:space="preserve">
<style type="text/css">
	.st0{fill:#E6E7E8;stroke:#FFFFFF;stroke-width:2;}
	.st1{fill:none;stroke:#808285;}
	.st2{fill:none;}
	.st3{fill:#6D6E71;}
	.st4{font-family:'DINCondensed-Bold';}
	.st5{font-size:8px;}
	.st6{font-size:5.6px;}
	.st7{font-size:10px;}
	.st8{font-size:0.1px;}
</style>
<g id="hexagonos">
	<g>
		<polygon class="st0" points="231,221.2 224.4,225 217.7,221.2 217.7,213.5 224.4,209.6 231,213.5 		"/>
		<polygon class="st0" points="217.7,221.2 211,225 204.4,221.2 204.4,213.5 211,209.6 217.7,213.5 		"/>
	</g>
	<g>
		<polygon class="st0" points="244.3,152 237.7,155.8 231,152 231,144.3 237.7,140.4 244.3,144.3 		"/>
		<polygon class="st0" points="237.7,163.5 231,167.4 224.4,163.5 224.4,155.8 231,152 237.7,155.8 		"/>
		<polygon class="st0" points="251,163.5 244.3,167.4 237.7,163.5 237.7,155.8 244.3,152 251,155.8 		"/>
	</g>
	<g>
		<polygon class="st0" points="377.4,313.4 370.8,317.3 364.1,313.4 364.1,305.7 370.8,301.9 377.4,305.7 		"/>
		<polygon class="st0" points="370.8,301.9 364.2,305.7 357.5,301.9 357.5,294.2 364.2,290.4 370.8,294.2 		"/>
		<polygon class="st0" points="384.1,301.9 377.5,305.7 370.8,301.9 370.8,294.2 377.5,290.4 384.1,294.2 		"/>
	</g>
	<g>
		<polygon class="st0" points="217.7,105.8 211,109.7 204.4,105.8 204.4,98.2 211,94.3 217.7,98.2 		"/>
		<polygon class="st0" points="217.7,128.9 211,132.8 204.4,128.9 204.4,121.2 211,117.4 217.7,121.2 		"/>
		<polygon class="st0" points="211,117.4 204.4,121.2 197.7,117.4 197.7,109.7 204.4,105.9 211,109.7 		"/>
		<polygon class="st0" points="224.4,117.4 217.7,121.2 211,117.4 211,109.7 217.7,105.9 224.4,109.7 		"/>
	</g>
	<g>
		<polygon class="st0" points="237.7,117.4 231,121.2 224.4,117.4 224.4,109.7 231,105.8 237.7,109.7 		"/>
		<polygon class="st0" points="237.7,140.4 231,144.3 224.4,140.4 224.4,132.8 231,128.9 237.7,132.8 		"/>
		<polygon class="st0" points="231,128.9 224.4,132.8 217.7,128.9 217.7,121.2 224.4,117.4 231,121.2 		"/>
		<polygon class="st0" points="244.3,128.9 237.7,132.8 231,128.9 231,121.2 237.7,117.4 244.3,121.2 		"/>
	</g>
	<g>
		<polygon class="st0" points="224.4,140.4 217.7,144.3 211,140.4 211,132.8 217.7,128.9 224.4,132.8 		"/>
		<polygon class="st0" points="217.7,152 211,155.8 204.4,152 204.4,144.3 211,140.4 217.7,144.3 		"/>
		<polygon class="st0" points="231,152 224.4,155.8 217.7,152 217.7,144.3 224.4,140.4 231,144.3 		"/>
	</g>
	<polygon class="st0" points="224.3,94.3 217.7,98.2 211,94.3 211,86.6 217.7,82.8 224.3,86.6 	"/>
	<polygon class="st0" points="244.3,82.8 237.7,86.6 231,82.8 231,75.1 237.7,71.3 244.3,75.1 	"/>
	<polygon class="st0" points="237.7,71.2 231,75.1 224.4,71.2 224.4,63.6 231,59.7 237.7,63.6 	"/>
	<polygon class="st0" points="231,105.8 224.3,109.7 217.7,105.8 217.7,98.2 224.3,94.3 231,98.2 	"/>
	<polygon class="st0" points="231,82.8 224.3,86.6 217.7,82.8 217.7,75.1 224.3,71.3 231,75.1 	"/>
	<polygon class="st0" points="237.7,94.3 231,98.2 224.3,94.3 224.3,86.6 231,82.8 237.7,86.6 	"/>
	<polygon class="st0" points="251,94.3 244.3,98.2 237.7,94.3 237.7,86.6 244.3,82.8 251,86.6 	"/>
	<g>
		<polygon class="st0" points="191.1,82.8 184.4,86.6 177.8,82.8 177.8,75.1 184.4,71.3 191.1,75.1 		"/>
		<polygon class="st0" points="177.8,82.8 171.1,86.6 164.4,82.8 164.4,75.1 171.1,71.3 177.8,75.1 		"/>
		<polygon class="st0" points="204.4,105.9 197.7,109.7 191.1,105.9 191.1,98.2 197.7,94.3 204.4,98.2 		"/>
		<polygon class="st0" points="184.4,71.3 177.8,75.1 171.1,71.3 171.1,63.6 177.8,59.7 184.4,63.6 		"/>
		<polygon class="st0" points="171.1,71.3 164.4,75.1 157.8,71.3 157.8,63.6 164.4,59.7 171.1,63.6 		"/>
		<polygon class="st0" points="197.7,94.3 191.1,98.2 184.4,94.3 184.4,86.6 191.1,82.8 197.7,86.6 		"/>
		<polygon class="st0" points="197.7,71.3 191.1,75.1 184.4,71.3 184.4,63.6 191.1,59.7 197.7,63.6 		"/>
		<polygon class="st0" points="204.4,82.8 197.7,86.6 191.1,82.8 191.1,75.1 197.7,71.3 204.4,75.1 		"/>
		<polygon class="st0" points="211,94.3 204.4,98.2 197.7,94.3 197.7,86.6 204.4,82.8 211,86.6 		"/>
	</g>
	<g>
		<polygon class="st0" points="290.9,209.6 284.3,213.5 277.6,209.6 277.6,202 284.3,198.1 290.9,202 		"/>
		<polygon class="st0" points="277.6,209.6 271,213.5 264.3,209.6 264.3,202 271,198.1 277.6,202 		"/>
		<polygon class="st0" points="264.3,209.6 257.6,213.5 251,209.6 251,202 257.6,198.1 264.3,202 		"/>
		<polygon class="st0" points="284.3,221.2 277.6,225 271,221.2 271,213.5 277.6,209.6 284.3,213.5 		"/>
		<polygon class="st0" points="277.6,232.7 271,236.6 264.3,232.7 264.3,225 271,221.2 277.6,225 		"/>
		<polygon class="st0" points="271,221.2 264.3,225 257.6,221.2 257.6,213.5 264.3,209.6 271,213.5 		"/>
		<polygon class="st0" points="264.3,232.7 257.6,236.6 251,232.7 251,225 257.6,221.2 264.3,225 		"/>
		<polygon class="st0" points="284.3,198.1 277.6,202 271,198.1 271,190.4 277.6,186.6 284.3,190.4 		"/>
		<polygon class="st0" points="271,198.1 264.3,202 257.6,198.1 257.6,190.4 264.3,186.6 271,190.4 		"/>
		<polygon class="st0" points="297.6,221.2 290.9,225 284.3,221.2 284.3,213.5 290.9,209.6 297.6,213.5 		"/>
		<polygon class="st0" points="297.6,198.1 290.9,202 284.3,198.1 284.3,190.4 290.9,186.6 297.6,190.4 		"/>
		<polygon class="st0" points="310.9,198.1 304.2,202 297.6,198.1 297.6,190.4 304.2,186.6 310.9,190.4 		"/>
		<polygon class="st0" points="304.2,209.6 297.6,213.5 290.9,209.6 290.9,202 297.6,198.1 304.2,202 		"/>
		<polygon class="st0" points="277.6,186.6 271,190.4 264.3,186.6 264.3,178.9 271,175 277.6,178.9 		"/>
		<polygon class="st0" points="310.9,221.2 304.2,225 297.6,221.2 297.6,213.5 304.2,209.6 310.9,213.5 		"/>
	</g>
	<g>
		<polygon class="st0" points="344.2,325 337.5,328.8 330.9,325 330.9,317.3 337.5,313.4 344.2,317.3 		"/>
		<polygon class="st0" points="310.9,313.4 304.2,317.3 297.6,313.4 297.6,305.7 304.2,301.9 310.9,305.7 		"/>
		<polygon class="st0" points="317.6,325 310.9,328.8 304.2,325 304.2,317.3 310.9,313.4 317.6,317.3 		"/>
		<polygon class="st0" points="304.2,325 297.6,328.8 290.9,325 290.9,317.3 297.6,313.4 304.2,317.3 		"/>
		<polygon class="st0" points="330.9,325 324.2,328.8 317.6,325 317.6,317.3 324.2,313.4 330.9,317.3 		"/>
	</g>
	<g>
		<polygon class="st0" points="264.3,255.8 257.7,259.6 251,255.8 251,248.1 257.7,244.2 264.3,248.1 		"/>
		<polygon class="st0" points="251,255.8 244.3,259.6 237.7,255.8 237.7,248.1 244.3,244.2 251,248.1 		"/>
		<polygon class="st0" points="244.3,267.3 237.7,271.1 231,267.3 231,259.6 237.7,255.8 244.3,259.6 		"/>
		<polygon class="st0" points="257.7,267.3 251,271.2 244.3,267.3 244.3,259.6 251,255.8 257.7,259.6 		"/>
		<polygon class="st0" points="251,232.7 244.3,236.6 237.7,232.7 237.7,225 244.3,221.2 251,225 		"/>
		<polygon class="st0" points="237.7,232.7 231,236.6 224.4,232.7 224.4,225 231,221.2 237.7,225 		"/>
		<polygon class="st0" points="224.4,232.7 217.7,236.6 211,232.7 211,225 217.7,221.2 224.4,225 		"/>
		<polygon class="st0" points="244.3,244.2 237.7,248.1 231,244.2 231,236.6 237.7,232.7 244.3,236.6 		"/>
		<polygon class="st0" points="237.7,255.8 231,259.6 224.3,255.8 224.3,248.1 231,244.2 237.7,248.1 		"/>
		<polygon class="st0" points="231,244.2 224.4,248.1 217.7,244.2 217.7,236.6 224.4,232.7 231,236.6 		"/>
		<polygon class="st0" points="257.7,244.2 251,248.1 244.3,244.2 244.3,236.6 251,232.7 257.7,236.6 		"/>
		<polygon class="st0" points="271,244.2 264.3,248.1 257.7,244.2 257.7,236.6 264.3,232.7 271,236.6 		"/>
	</g>
	<g>
		<polygon class="st0" points="397.4,371.1 390.8,374.9 384.1,371.1 384.1,363.4 390.8,359.6 397.4,363.4 		"/>
		<polygon class="st0" points="384.1,371.1 377.5,374.9 370.8,371.1 370.8,363.4 377.5,359.6 384.1,363.4 		"/>
		<polygon class="st0" points="410.8,348 404.1,351.9 397.4,348 397.4,340.3 404.1,336.5 410.8,340.3 		"/>
		<polygon class="st0" points="377.5,359.6 370.8,363.4 364.1,359.6 364.1,351.9 370.8,348 377.5,351.9 		"/>
		<polygon class="st0" points="397.4,348 390.8,351.9 384.1,348 384.1,340.3 390.8,336.5 397.4,340.3 		"/>
		<polygon class="st0" points="384.1,348 377.5,351.9 370.8,348 370.8,340.3 377.5,336.5 384.1,340.3 		"/>
		<polygon class="st0" points="404.1,359.6 397.4,363.4 390.8,359.6 390.8,351.9 397.4,348 404.1,351.9 		"/>
		<polygon class="st0" points="390.8,359.6 384.1,363.4 377.5,359.6 377.5,351.9 384.1,348 390.8,351.9 		"/>
		<polygon class="st0" points="417.4,359.6 410.8,363.4 404.1,359.6 404.1,351.9 410.8,348 417.4,351.9 		"/>
		<polygon class="st0" points="430.7,359.6 424.1,363.4 417.4,359.6 417.4,351.9 424.1,348 430.7,351.9 		"/>
	</g>
	<g>
		<polygon class="st0" points="350.8,359.6 344.2,363.4 337.5,359.6 337.5,351.9 344.2,348 350.8,351.9 		"/>
		<polygon class="st0" points="337.5,359.6 330.9,363.4 324.2,359.6 324.2,351.9 330.9,348 337.5,351.9 		"/>
		<polygon class="st0" points="344.2,348 337.5,351.9 330.9,348 330.9,340.3 337.5,336.5 344.2,340.3 		"/>
		<polygon class="st0" points="330.9,348 324.2,351.9 317.5,348 317.5,340.3 324.2,336.5 330.9,340.3 		"/>
		<polygon class="st0" points="337.5,336.5 330.9,340.3 324.2,336.5 324.2,328.8 330.9,325 337.5,328.8 		"/>
		<polygon class="st0" points="357.5,348 350.8,351.9 344.2,348 344.2,340.3 350.8,336.5 357.5,340.3 		"/>
		<polygon class="st0" points="370.8,348 364.1,351.9 357.5,348 357.5,340.3 364.1,336.5 370.8,340.3 		"/>
		<polygon class="st0" points="364.1,359.6 357.5,363.4 350.8,359.6 350.8,351.9 357.5,348 364.1,351.9 		"/>
		<polygon class="st0" points="324.2,336.5 317.6,340.3 310.9,336.5 310.9,328.8 317.6,325 324.2,328.8 		"/>
	</g>
	<g>
		<polygon class="st0" points="324.2,198.1 317.6,202 310.9,198.1 310.9,190.4 317.6,186.6 324.2,190.4 		"/>
		<polygon class="st0" points="317.6,186.6 310.9,190.4 304.2,186.6 304.2,178.9 310.9,175 317.6,178.9 		"/>
		<polygon class="st0" points="330.9,209.6 324.2,213.5 317.6,209.6 317.6,202 324.2,198.1 330.9,202 		"/>
		<polygon class="st0" points="330.9,186.6 324.2,190.4 317.6,186.6 317.6,178.9 324.2,175 330.9,178.9 		"/>
		<polygon class="st0" points="324.2,175 317.6,178.9 310.9,175 310.9,167.4 317.6,163.5 324.2,167.4 		"/>
		<polygon class="st0" points="337.5,198.1 330.9,202 324.2,198.1 324.2,190.4 330.9,186.6 337.5,190.4 		"/>
		<polygon class="st0" points="344.2,209.6 337.5,213.5 330.9,209.6 330.9,202 337.5,198.1 344.2,202 		"/>
	</g>
	<g>
		<polygon class="st0" points="277.6,178.9 284.3,175 290.9,178.9 290.9,186.6 284.3,190.4 277.6,186.6 		"/>
		<polygon class="st0" points="290.9,178.9 297.6,175 304.2,178.9 304.2,186.6 297.6,190.4 290.9,186.6 		"/>
		<polygon class="st0" points="271,167.4 277.6,163.5 284.3,167.4 284.3,175 277.6,178.9 271,175 		"/>
		<polygon class="st0" points="264.3,155.8 271,152 277.6,155.8 277.6,163.5 271,167.4 264.3,163.5 		"/>
		<polygon class="st0" points="251,155.8 257.6,152 264.3,155.8 264.3,163.5 257.6,167.4 251,163.5 		"/>
		<polygon class="st0" points="257.6,144.3 264.3,140.4 271,144.3 271,152 264.3,155.8 257.6,152 		"/>
		<polygon class="st0" points="257.6,167.4 264.3,163.5 271,167.4 271,175 264.3,178.9 257.6,175 		"/>
	</g>
	<g>
		<polygon class="st0" points="304.2,163.5 297.6,167.4 290.9,163.5 290.9,155.8 297.6,152 304.2,155.8 		"/>
		<polygon class="st0" points="297.6,175 290.9,178.9 284.3,175 284.3,167.4 290.9,163.5 297.6,167.4 		"/>
		<polygon class="st0" points="310.9,175 304.2,178.9 297.6,175 297.6,167.4 304.2,163.5 310.9,167.4 		"/>
		<polygon class="st0" points="317.6,163.5 310.9,167.4 304.2,163.5 304.2,155.8 310.9,152 317.6,155.8 		"/>
		<polygon class="st0" points="290.9,163.5 284.3,167.4 277.6,163.5 277.6,155.8 284.3,152 290.9,155.8 		"/>
	</g>
	<g>
		<polygon class="st0" points="504,325 497.4,328.8 490.7,325 490.7,317.3 497.4,313.4 504,317.3 		"/>
		<polygon class="st0" points="497.4,336.5 490.7,340.3 484.1,336.5 484.1,328.8 490.7,325 497.4,328.8 		"/>
	</g>
	<g>
		<polygon class="st0" points="524,313.4 517.4,317.3 510.7,313.4 510.7,305.8 517.4,301.9 524,305.8 		"/>
		<polygon class="st0" points="530.7,301.9 524,305.8 517.4,301.9 517.4,294.2 524,290.4 530.7,294.2 		"/>
		<polygon class="st0" points="537.3,313.4 530.7,317.3 524,313.4 524,305.8 530.7,301.9 537.3,305.8 		"/>
		<polygon class="st0" points="517.4,325 510.7,328.8 504,325 504,317.3 510.7,313.4 517.4,317.3 		"/>
	</g>
	<g>
		<polygon class="st0" points="510.7,313.4 504,317.3 497.4,313.4 497.4,305.7 504,301.9 510.7,305.7 		"/>
		<polygon class="st0" points="497.4,313.4 490.7,317.3 484.1,313.4 484.1,305.7 490.7,301.9 497.4,305.7 		"/>
		<polygon class="st0" points="504,301.9 497.4,305.7 490.7,301.9 490.7,294.2 497.4,290.4 504,294.2 		"/>
		<polygon class="st0" points="490.7,301.9 484.1,305.7 477.4,301.9 477.4,294.2 484.1,290.4 490.7,294.2 		"/>
		<polygon class="st0" points="517.3,301.9 510.7,305.7 504,301.9 504,294.2 510.7,290.4 517.3,294.2 		"/>
	</g>
	<g>
		<polygon class="st0" points="470.7,336.5 464.1,340.3 457.4,336.5 457.4,328.8 464.1,325 470.7,328.8 		"/>
		<polygon class="st0" points="457.4,336.5 450.8,340.3 444.1,336.5 444.1,328.8 450.8,325 457.4,328.8 		"/>
		<polygon class="st0" points="484.1,336.5 477.4,340.3 470.7,336.5 470.7,328.8 477.4,325 484.1,328.8 		"/>
		<polygon class="st0" points="490.7,348 484.1,351.9 477.4,348 477.4,340.3 484.1,336.5 490.7,340.3 		"/>
		<polygon class="st0" points="444.1,336.5 437.4,340.3 430.8,336.5 430.8,328.8 437.4,325 444.1,328.8 		"/>
		<polygon class="st0" points="464.1,348 457.4,351.9 450.8,348 450.8,340.3 457.4,336.5 464.1,340.3 		"/>
	</g>
	<g>
		<polygon class="st0" points="470.7,359.6 464.1,363.4 457.4,359.6 457.4,351.9 464.1,348 470.7,351.9 		"/>
		<polygon class="st0" points="457.4,359.6 450.8,363.4 444.1,359.6 444.1,351.9 450.8,348 457.4,351.9 		"/>
		<polygon class="st0" points="450.8,348 444.1,351.9 437.4,348 437.4,340.3 444.1,336.5 450.8,340.3 		"/>
		<polygon class="st0" points="444.1,359.6 437.4,363.4 430.8,359.6 430.8,351.9 437.4,348 444.1,351.9 		"/>
		<polygon class="st0" points="470.7,382.6 464.1,386.5 457.4,382.6 457.4,374.9 464.1,371.1 470.7,374.9 		"/>
		<polygon class="st0" points="457.4,382.6 450.8,386.5 444.1,382.6 444.1,374.9 450.8,371.1 457.4,374.9 		"/>
		<polygon class="st0" points="464.1,371.1 457.4,374.9 450.8,371.1 450.8,363.4 457.4,359.6 464.1,363.4 		"/>
		<polygon class="st0" points="477.4,371.1 470.7,374.9 464.1,371.1 464.1,363.4 470.7,359.6 477.4,363.4 		"/>
		<polygon class="st0" points="477.4,348 470.7,351.9 464.1,348 464.1,340.3 470.7,336.5 477.4,340.3 		"/>
		<polygon class="st0" points="490.7,371.1 484.1,374.9 477.4,371.1 477.4,363.4 484.1,359.6 490.7,363.4 		"/>
		<polygon class="st0" points="464.1,394.2 457.4,398 450.8,394.2 450.8,386.5 457.4,382.6 464.1,386.5 		"/>
		<polygon class="st0" points="484.1,359.6 477.4,363.4 470.7,359.6 470.7,351.9 477.4,348 484.1,351.9 		"/>
		<polygon class="st0" points="450.8,371.1 444.1,374.9 437.4,371.1 437.4,363.4 444.1,359.6 450.8,363.4 		"/>
	</g>
	<g>
		<polygon class="st0" points="390.8,336.5 384.1,340.3 377.5,336.5 377.5,328.8 384.1,325 390.8,328.8 		"/>
		<polygon class="st0" points="377.5,336.5 370.8,340.3 364.1,336.5 364.1,328.8 370.8,325 377.5,328.8 		"/>
		<polygon class="st0" points="364.1,336.5 357.5,340.3 350.8,336.5 350.8,328.8 357.5,325 364.1,328.8 		"/>
		<polygon class="st0" points="364.1,313.4 357.5,317.3 350.8,313.4 350.8,305.7 357.5,301.9 364.1,305.7 		"/>
		<polygon class="st0" points="397.4,301.9 390.8,305.7 384.1,301.9 384.1,294.2 390.8,290.4 397.4,294.2 		"/>
		<polygon class="st0" points="350.8,336.5 344.2,340.3 337.5,336.5 337.5,328.8 344.2,325 350.8,328.8 		"/>
		<polygon class="st0" points="404.1,313.4 397.4,317.3 390.8,313.4 390.8,305.7 397.4,301.9 404.1,305.7 		"/>
		<polygon class="st0" points="410.8,325 404.1,328.8 397.4,325 397.4,317.3 404.1,313.4 410.8,317.3 		"/>
		<polygon class="st0" points="397.4,325 390.8,328.8 384.1,325 384.1,317.3 390.8,313.4 397.4,317.3 		"/>
		<polygon class="st0" points="384.1,325 377.5,328.8 370.8,325 370.8,317.3 377.5,313.4 384.1,317.3 		"/>
		<polygon class="st0" points="390.8,313.4 384.1,317.3 377.5,313.4 377.5,305.7 384.1,301.9 390.8,305.7 		"/>
		<polygon class="st0" points="390.8,290.4 384.1,294.2 377.5,290.4 377.5,282.7 384.1,278.8 390.8,282.7 		"/>
		<polygon class="st0" points="404.1,336.5 397.4,340.3 390.8,336.5 390.8,328.8 397.4,325 404.1,328.8 		"/>
		<polygon class="st0" points="357.5,325 350.8,328.8 344.2,325 344.2,317.3 350.8,313.4 357.5,317.3 		"/>
		<polygon class="st0" points="370.8,325 364.1,328.8 357.5,325 357.5,317.3 364.1,313.4 370.8,317.3 		"/>
	</g>
	<g>
		<polygon class="st0" points="264.3,117.4 257.6,121.2 251,117.4 251,109.7 257.6,105.8 264.3,109.7 		"/>
		<polygon class="st0" points="251,117.4 244.3,121.2 237.7,117.4 237.7,109.7 244.3,105.8 251,109.7 		"/>
		<polygon class="st0" points="264.3,94.3 257.6,98.2 251,94.3 251,86.6 257.6,82.8 264.3,86.6 		"/>
		<polygon class="st0" points="264.3,140.4 257.6,144.3 251,140.4 251,132.8 257.6,128.9 264.3,132.8 		"/>
		<polygon class="st0" points="251,140.4 244.3,144.3 237.7,140.4 237.7,132.8 244.3,128.9 251,132.8 		"/>
		<polygon class="st0" points="257.6,128.9 251,132.8 244.3,128.9 244.3,121.2 251,117.4 257.6,121.2 		"/>
		<polygon class="st0" points="271,128.9 264.3,132.8 257.6,128.9 257.6,121.2 264.3,117.4 271,121.2 		"/>
		<polygon class="st0" points="271,105.8 264.3,109.7 257.6,105.8 257.6,98.2 264.3,94.3 271,98.2 		"/>
		<polygon class="st0" points="257.6,105.8 251,109.7 244.3,105.8 244.3,98.2 251,94.3 257.6,98.2 		"/>
		<polygon class="st0" points="257.6,152 251,155.8 244.3,152 244.3,144.3 251,140.4 257.6,144.3 		"/>
		<polygon class="st0" points="277.6,117.4 271,121.2 264.3,117.4 264.3,109.7 271,105.8 277.6,109.7 		"/>
		<polygon class="st0" points="244.3,105.8 237.7,109.7 231,105.8 231,98.2 237.7,94.3 244.3,98.2 		"/>
	</g>
	<g>
		<polygon class="st0" points="284.3,128.9 277.6,132.8 271,128.9 271,121.2 277.6,117.4 284.3,121.2 		"/>
		<polygon class="st0" points="277.6,94.3 271,98.2 264.3,94.3 264.3,86.6 271,82.8 277.6,86.6 		"/>
		<polygon class="st0" points="284.3,152 277.6,155.8 271,152 271,144.3 277.6,140.4 284.3,144.3 		"/>
		<polygon class="st0" points="297.6,152 290.9,155.8 284.3,152 284.3,144.3 290.9,140.4 297.6,144.3 		"/>
		<polygon class="st0" points="277.6,140.4 271,144.3 264.3,140.4 264.3,132.8 271,128.9 277.6,132.8 		"/>
		<polygon class="st0" points="290.9,140.4 284.3,144.3 277.6,140.4 277.6,132.8 284.3,128.9 290.9,132.8 		"/>
		<polygon class="st0" points="290.9,117.4 284.3,121.2 277.6,117.4 277.6,109.7 284.3,105.8 290.9,109.7 		"/>
		<polygon class="st0" points="284.3,105.8 277.6,109.7 271,105.8 271,98.2 277.6,94.3 284.3,98.2 		"/>
		<polygon class="st0" points="297.6,128.9 290.9,132.8 284.3,128.9 284.3,121.2 290.9,117.4 297.6,121.2 		"/>
	</g>
	<g>
		<polygon class="st0" points="330.9,278.8 324.2,282.7 317.6,278.8 317.6,271.1 324.2,267.3 330.9,271.1 		"/>
		<polygon class="st0" points="317.6,278.8 310.9,282.7 304.2,278.8 304.2,271.1 310.9,267.3 317.6,271.1 		"/>
		<polygon class="st0" points="317.6,255.8 310.9,259.6 304.2,255.8 304.2,248.1 310.9,244.2 317.6,248.1 		"/>
		<polygon class="st0" points="330.9,255.8 324.2,259.6 317.6,255.8 317.6,248.1 324.2,244.2 330.9,248.1 		"/>
		<polygon class="st0" points="304.2,278.8 297.6,282.7 290.9,278.8 290.9,271.1 297.6,267.3 304.2,271.1 		"/>
		<polygon class="st0" points="290.9,278.8 284.3,282.7 277.6,278.8 277.6,271.1 284.3,267.3 290.9,271.1 		"/>
		<polygon class="st0" points="330.9,301.9 324.2,305.7 317.6,301.9 317.6,294.2 324.2,290.4 330.9,294.2 		"/>
		<polygon class="st0" points="344.2,301.9 337.5,305.7 330.9,301.9 330.9,294.2 337.5,290.4 344.2,294.2 		"/>
		<polygon class="st0" points="317.6,301.9 310.9,305.7 304.2,301.9 304.2,294.2 310.9,290.4 317.6,294.2 		"/>
		<polygon class="st0" points="324.2,290.4 317.6,294.2 310.9,290.4 310.9,282.7 317.6,278.8 324.2,282.7 		"/>
		<polygon class="st0" points="337.5,290.4 330.9,294.2 324.2,290.4 324.2,282.7 330.9,278.8 337.5,282.7 		"/>
		<polygon class="st0" points="350.9,290.4 344.2,294.2 337.5,290.4 337.5,282.7 344.2,278.8 350.9,282.7 		"/>
		<polygon class="st0" points="350.9,267.3 344.2,271.1 337.5,267.3 337.5,259.6 344.2,255.8 350.9,259.6 		"/>
		<polygon class="st0" points="337.5,313.4 330.9,317.3 324.2,313.4 324.2,305.7 330.9,301.9 337.5,305.7 		"/>
		<polygon class="st0" points="337.5,267.3 330.9,271.1 324.2,267.3 324.2,259.6 330.9,255.8 337.5,259.6 		"/>
		<polygon class="st0" points="324.2,267.3 317.6,271.1 310.9,267.3 310.9,259.6 317.6,255.8 324.2,259.6 		"/>
		<polygon class="st0" points="324.2,244.2 317.6,248.1 310.9,244.2 310.9,236.6 317.6,232.7 324.2,236.6 		"/>
		<polygon class="st0" points="310.9,267.3 304.2,271.1 297.6,267.3 297.6,259.6 304.2,255.8 310.9,259.6 		"/>
		<polygon class="st0" points="324.2,313.4 317.6,317.3 310.9,313.4 310.9,305.7 317.6,301.9 324.2,305.7 		"/>
		<polygon class="st0" points="344.2,278.8 337.5,282.7 330.9,278.8 330.9,271.1 337.5,267.3 344.2,271.1 		"/>
		<polygon class="st0" points="357.5,278.8 350.9,282.7 344.2,278.8 344.2,271.1 350.9,267.3 357.5,271.1 		"/>
		<polygon class="st0" points="310.9,290.4 304.2,294.2 297.6,290.4 297.6,282.7 304.2,278.8 310.9,282.7 		"/>
		<polygon class="st0" points="297.6,290.4 290.9,294.2 284.3,290.4 284.3,282.7 290.9,278.8 297.6,282.7 		"/>
		<polygon class="st0" points="297.6,267.3 290.9,271.1 284.3,267.3 284.3,259.6 290.9,255.8 297.6,259.6 		"/>
	</g>
	<g>
		<polygon class="st0" points="237.7,186.6 231,190.4 224.4,186.6 224.4,178.9 231,175 237.7,178.9 		"/>
		<polygon class="st0" points="224.4,186.6 217.7,190.4 211,186.6 211,178.9 217.7,175 224.4,178.9 		"/>
		<polygon class="st0" points="224.4,163.5 217.7,167.4 211,163.5 211,155.8 217.7,152 224.4,155.8 		"/>
		<polygon class="st0" points="211,186.6 204.4,190.4 197.7,186.6 197.7,178.9 204.4,175 211,178.9 		"/>
		<polygon class="st0" points="237.7,209.6 231,213.5 224.4,209.6 224.4,202 231,198.1 237.7,202 		"/>
		<polygon class="st0" points="251,209.6 244.3,213.5 237.7,209.6 237.7,202 244.3,198.1 251,202 		"/>
		<polygon class="st0" points="224.4,209.6 217.7,213.5 211,209.6 211,202 217.7,198.1 224.4,202 		"/>
		<polygon class="st0" points="211,209.6 204.4,213.5 197.7,209.6 197.7,202 204.4,198.1 211,202 		"/>
		<polygon class="st0" points="231,198.1 224.4,202 217.7,198.1 217.7,190.4 224.4,186.6 231,190.4 		"/>
		<polygon class="st0" points="244.3,198.1 237.7,202 231,198.1 231,190.4 237.7,186.6 244.3,190.4 		"/>
		<polygon class="st0" points="257.7,175 251,178.9 244.3,175 244.3,167.4 251,163.5 257.7,167.4 		"/>
		<polygon class="st0" points="257.7,198.1 251,202 244.3,198.1 244.3,190.4 251,186.6 257.7,190.4 		"/>
		<polygon class="st0" points="244.3,221.2 237.7,225 231,221.2 231,213.5 237.7,209.6 244.3,213.5 		"/>
		<polygon class="st0" points="257.6,221.2 251,225 244.3,221.2 244.3,213.5 251,209.6 257.6,213.5 		"/>
		<polygon class="st0" points="244.3,175 237.7,178.9 231,175 231,167.4 237.7,163.5 244.3,167.4 		"/>
		<polygon class="st0" points="231,175 224.4,178.9 217.7,175 217.7,167.4 224.4,163.5 231,167.4 		"/>
		<polygon class="st0" points="251,186.6 244.3,190.4 237.7,186.6 237.7,178.9 244.3,175 251,178.9 		"/>
		<polygon class="st0" points="264.3,186.6 257.7,190.4 251,186.6 251,178.9 257.7,175 264.3,178.9 		"/>
		<polygon class="st0" points="217.7,198.1 211,202 204.4,198.1 204.4,190.4 211,186.6 217.7,190.4 		"/>
		<polygon class="st0" points="204.4,198.1 197.7,202 191.1,198.1 191.1,190.4 197.7,186.6 204.4,190.4 		"/>
	</g>
	<g>
		<polygon class="st0" points="191.1,105.8 184.4,109.7 177.8,105.8 177.8,98.2 184.4,94.3 191.1,98.2 		"/>
		<polygon class="st0" points="177.8,105.8 171.1,109.7 164.4,105.8 164.4,98.2 171.1,94.3 177.8,98.2 		"/>
		<polygon class="st0" points="204.4,128.9 197.7,132.8 191.1,128.9 191.1,121.2 197.7,117.4 204.4,121.2 		"/>
		<polygon class="st0" points="197.7,117.4 191.1,121.2 184.4,117.4 184.4,109.7 191.1,105.9 197.7,109.7 		"/>
		<polygon class="st0" points="211,140.4 204.4,144.3 197.7,140.4 197.7,132.8 204.4,128.9 211,132.8 		"/>
		<polygon class="st0" points="171.1,94.3 164.4,98.2 157.8,94.3 157.8,86.6 164.4,82.8 171.1,86.6 		"/>
		<polygon class="st0" points="184.4,94.3 177.8,98.2 171.1,94.3 171.1,86.6 177.8,82.8 184.4,86.6 		"/>
	</g>
	<g>
		<polygon class="st0" points="364.1,236.5 370.8,232.7 377.5,236.5 377.5,244.2 370.8,248.1 364.1,244.2 		"/>
		<polygon class="st0" points="404.1,328.8 410.8,325 417.4,328.8 417.4,336.5 410.8,340.3 404.1,336.5 		"/>
		<polygon class="st0" points="370.8,225 377.5,221.2 384.1,225 384.1,232.7 377.5,236.5 370.8,232.7 		"/>
		<polygon class="st0" points="410.8,317.3 417.4,313.4 424.1,317.3 424.1,325 417.4,328.8 410.8,325 		"/>
		<polygon class="st0" points="357.5,225 364.1,221.2 370.8,225 370.8,232.7 364.1,236.5 357.5,232.7 		"/>
		<polygon class="st0" points="350.9,213.5 357.5,209.6 364.2,213.5 364.2,221.2 357.5,225 350.9,221.2 		"/>
		<polygon class="st0" points="424.1,340.3 430.7,336.5 437.4,340.3 437.4,348 430.7,351.9 424.1,348 		"/>
		<polygon class="st0" points="410.8,340.3 417.4,336.5 424.1,340.3 424.1,348 417.4,351.9 410.8,348 		"/>
		<polygon class="st0" points="390.8,282.7 397.4,278.8 404.1,282.7 404.1,290.4 397.4,294.2 390.8,290.4 		"/>
		<polygon class="st0" points="390.8,259.6 397.4,255.8 404.1,259.6 404.1,267.3 397.4,271.1 390.8,267.3 		"/>
		<polygon class="st0" points="404.1,282.7 410.8,278.8 417.4,282.7 417.4,290.4 410.8,294.2 404.1,290.4 		"/>
		<polygon class="st0" points="404.1,305.7 410.8,301.9 417.4,305.7 417.4,313.4 410.8,317.3 404.1,313.4 		"/>
		<polygon class="st0" points="377.5,259.6 384.1,255.8 390.8,259.6 390.8,267.3 384.1,271.1 377.5,267.3 		"/>
		<polygon class="st0" points="377.5,236.5 384.1,232.7 390.8,236.5 390.8,244.2 384.1,248.1 377.5,244.2 		"/>
		<polygon class="st0" points="397.4,271.1 404.1,267.3 410.8,271.1 410.8,278.8 404.1,282.7 397.4,278.8 		"/>
		<polygon class="st0" points="384.1,271.1 390.8,267.3 397.4,271.1 397.4,278.8 390.8,282.7 384.1,278.8 		"/>
		<polygon class="st0" points="384.1,248.1 390.8,244.2 397.4,248.1 397.4,255.8 390.8,259.6 384.1,255.8 		"/>
		<polygon class="st0" points="370.8,248.1 377.5,244.2 384.1,248.1 384.1,255.8 377.5,259.6 370.8,255.8 		"/>
		<polygon class="st0" points="410.8,294.2 417.4,290.4 424.1,294.2 424.1,301.9 417.4,305.7 410.8,301.9 		"/>
		<polygon class="st0" points="397.4,294.2 404.1,290.4 410.8,294.2 410.8,301.9 404.1,305.7 397.4,301.9 		"/>
	</g>
	<g>
		<polygon class="st0" points="151.1,59.7 144.5,63.6 137.8,59.7 137.8,52 144.5,48.2 151.1,52 		"/>
		<polygon class="st0" points="137.8,59.7 131.1,63.6 124.5,59.7 124.5,52 131.1,48.2 137.8,52 		"/>
		<polygon class="st0" points="164.4,82.8 157.8,86.6 151.1,82.8 151.1,75.1 157.8,71.3 164.4,75.1 		"/>
		<polygon class="st0" points="144.5,71.3 137.8,75.1 131.1,71.3 131.1,63.6 137.8,59.7 144.5,63.6 		"/>
		<polygon class="st0" points="157.8,71.3 151.1,75.1 144.5,71.3 144.5,63.6 151.1,59.7 157.8,63.6 		"/>
		<polygon class="st0" points="144.5,48.2 137.8,52 131.1,48.2 131.1,40.5 137.8,36.7 144.5,40.5 		"/>
		<polygon class="st0" points="131.1,48.2 124.5,52 117.8,48.2 117.8,40.5 124.5,36.7 131.1,40.5 		"/>
	</g>
	<g>
		<polygon class="st0" points="104.5,48.2 97.9,52 91.2,48.2 91.2,40.5 97.9,36.7 104.5,40.5 		"/>
		<polygon class="st0" points="117.8,48.2 111.2,52 104.5,48.2 104.5,40.5 111.2,36.7 117.8,40.5 		"/>
		<polygon class="st0" points="91.2,48.2 84.5,52 77.9,48.2 77.9,40.5 84.5,36.7 91.2,40.5 		"/>
		<polygon class="st0" points="77.9,48.2 71.2,52 64.6,48.2 64.6,40.5 71.2,36.7 77.9,40.5 		"/>
		<polygon class="st0" points="97.9,59.7 91.2,63.6 84.5,59.7 84.5,52 91.2,48.2 97.9,52 		"/>
		<polygon class="st0" points="84.5,59.7 77.9,63.6 71.2,59.7 71.2,52 77.9,48.2 84.5,52 		"/>
		<polygon class="st0" points="104.5,71.2 97.9,75.1 91.2,71.2 91.2,63.6 97.9,59.7 104.5,63.6 		"/>
		<polygon class="st0" points="111.2,59.7 104.5,63.6 97.9,59.7 97.9,52 104.5,48.2 111.2,52 		"/>
	</g>
	<g>
		<polygon class="st0" points="111.2,82.8 104.5,86.6 97.9,82.8 97.9,75.1 104.5,71.2 111.2,75.1 		"/>
		<polygon class="st0" points="117.8,94.3 111.2,98.2 104.5,94.3 104.5,86.6 111.2,82.8 117.8,86.6 		"/>
	</g>
	<g>
		<polygon class="st0" points="284.3,267.3 277.6,271.1 271,267.3 271,259.6 277.6,255.8 284.3,259.6 		"/>
		<polygon class="st0" points="271,267.3 264.3,271.1 257.6,267.3 257.6,259.6 264.3,255.8 271,259.6 		"/>
		<polygon class="st0" points="284.3,244.2 277.6,248.1 271,244.2 271,236.6 277.6,232.7 284.3,236.6 		"/>
		<polygon class="st0" points="297.6,244.2 290.9,248.1 284.3,244.2 284.3,236.6 290.9,232.7 297.6,236.6 		"/>
		<polygon class="st0" points="310.9,244.2 304.2,248.1 297.6,244.2 297.6,236.6 304.2,232.7 310.9,236.6 		"/>
		<polygon class="st0" points="337.5,244.2 330.9,248.1 324.2,244.2 324.2,236.6 330.9,232.7 337.5,236.6 		"/>
		<polygon class="st0" points="350.9,244.2 344.2,248.1 337.5,244.2 337.5,236.6 344.2,232.7 350.9,236.6 		"/>
		<polygon class="st0" points="364.2,244.2 357.5,248.1 350.9,244.2 350.9,236.6 357.5,232.7 364.2,236.6 		"/>
		<polygon class="st0" points="324.2,221.2 317.6,225 310.9,221.2 310.9,213.5 317.6,209.6 324.2,213.5 		"/>
		<polygon class="st0" points="337.5,221.2 330.9,225 324.2,221.2 324.2,213.5 330.9,209.6 337.5,213.5 		"/>
		<polygon class="st0" points="350.9,221.2 344.2,225 337.5,221.2 337.5,213.5 344.2,209.6 350.9,213.5 		"/>
		<polygon class="st0" points="377.5,290.4 370.8,294.2 364.2,290.4 364.2,282.7 370.8,278.8 377.5,282.7 		"/>
		<polygon class="st0" points="344.2,255.8 337.5,259.6 330.9,255.8 330.9,248.1 337.5,244.2 344.2,248.1 		"/>
		<polygon class="st0" points="364.2,267.3 357.5,271.1 350.9,267.3 350.9,259.6 357.5,255.8 364.2,259.6 		"/>
		<polygon class="st0" points="377.5,267.3 370.8,271.1 364.2,267.3 364.2,259.6 370.8,255.8 377.5,259.6 		"/>
		<polygon class="st0" points="364.2,290.4 357.5,294.2 350.9,290.4 350.9,282.7 357.5,278.8 364.2,282.7 		"/>
		<polygon class="st0" points="350.9,313.4 344.2,317.3 337.5,313.4 337.5,305.7 344.2,301.9 350.9,305.7 		"/>
		<polygon class="st0" points="357.5,301.9 350.9,305.7 344.2,301.9 344.2,294.2 350.9,290.4 357.5,294.2 		"/>
		<polygon class="st0" points="370.8,278.8 364.2,282.7 357.5,278.8 357.5,271.1 364.2,267.3 370.8,271.1 		"/>
		<polygon class="st0" points="357.5,255.8 350.9,259.6 344.2,255.8 344.2,248.1 350.9,244.2 357.5,248.1 		"/>
		<polygon class="st0" points="370.8,255.8 364.2,259.6 357.5,255.8 357.5,248.1 364.2,244.2 370.8,248.1 		"/>
		<polygon class="st0" points="284.3,290.4 277.6,294.2 271,290.4 271,282.7 277.6,278.8 284.3,282.7 		"/>
		<polygon class="st0" points="271,290.4 264.3,294.2 257.6,290.4 257.6,282.7 264.3,278.8 271,282.7 		"/>
		<polygon class="st0" points="257.6,290.4 251,294.2 244.3,290.4 244.3,282.7 251,278.8 257.6,282.7 		"/>
		<polygon class="st0" points="277.6,278.8 271,282.7 264.3,278.8 264.3,271.1 271,267.3 277.6,271.1 		"/>
		<polygon class="st0" points="304.2,255.8 297.6,259.6 290.9,255.8 290.9,248.1 297.6,244.2 304.2,248.1 		"/>
		<polygon class="st0" points="290.9,255.8 284.3,259.6 277.6,255.8 277.6,248.1 284.3,244.2 290.9,248.1 		"/>
		<polygon class="st0" points="277.6,255.8 271,259.6 264.3,255.8 264.3,248.1 271,244.2 277.6,248.1 		"/>
		<polygon class="st0" points="290.9,232.7 284.3,236.6 277.6,232.7 277.6,225 284.3,221.2 290.9,225 		"/>
		<polygon class="st0" points="304.2,232.7 297.6,236.6 290.9,232.7 290.9,225 297.6,221.2 304.2,225 		"/>
		<polygon class="st0" points="317.6,232.7 310.9,236.6 304.2,232.7 304.2,225 310.9,221.2 317.6,225 		"/>
		<polygon class="st0" points="330.9,232.7 324.2,236.6 317.6,232.7 317.6,225 324.2,221.2 330.9,225 		"/>
		<polygon class="st0" points="317.6,209.6 310.9,213.5 304.2,209.6 304.2,201.9 310.9,198.1 317.6,201.9 		"/>
		<polygon class="st0" points="344.2,232.7 337.5,236.6 330.9,232.7 330.9,225 337.5,221.2 344.2,225 		"/>
		<polygon class="st0" points="357.5,232.7 350.9,236.6 344.2,232.7 344.2,225 350.9,221.2 357.5,225 		"/>
		<polygon class="st0" points="277.6,301.9 271,305.7 264.3,301.9 264.3,294.2 271,290.4 277.6,294.2 		"/>
		<polygon class="st0" points="264.3,301.9 257.6,305.7 251,301.9 251,294.2 257.6,290.4 264.3,294.2 		"/>
		<polygon class="st0" points="264.3,278.8 257.6,282.7 251,278.8 251,271.1 257.6,267.3 264.3,271.1 		"/>
		<polygon class="st0" points="384.1,278.8 377.5,282.7 370.8,278.8 370.8,271.1 377.5,267.3 384.1,271.1 		"/>
		<polygon class="st0" points="290.9,301.9 284.3,305.7 277.6,301.9 277.6,294.2 284.3,290.4 290.9,294.2 		"/>
		<polygon class="st0" points="304.2,301.9 297.6,305.7 290.9,301.9 290.9,294.2 297.6,290.4 304.2,294.2 		"/>
	</g>
	<g id="Capa_2">
		<g id="Capa_3">
			<g id="Capa_4">
			</g>
		</g>
	</g>
</g>
<g id="Capa_9">
</g>
<g id="contornos-estados">
	<polygon class="st1" points="224.4,209.6 217.7,213.5 217.7,213.5 211,209.6 204.4,213.5 204.4,221.2 211,225 217.7,221.2 
		217.7,221.2 224.4,225 231,221.2 231,213.5 	"/>
	<polygon class="st1" points="244.3,152 244.3,144.3 237.7,140.4 231,144.3 231,152 224.4,155.8 224.4,163.5 231,167.4 237.7,163.5 
		244.3,167.4 251,163.5 251,155.8 	"/>
	<polygon class="st1" points="377.5,290.4 370.8,294.2 364.2,290.4 357.5,294.2 357.5,301.9 364.2,305.7 364.1,313.4 370.8,317.3 
		377.4,313.4 377.5,305.7 384.1,301.9 384.1,294.2 	"/>
	<polygon class="st1" points="224.4,109.7 217.7,105.9 217.7,98.2 211,94.3 204.4,98.2 204.4,105.9 197.7,109.7 197.7,117.4 
		204.4,121.2 204.4,128.9 211,132.8 217.7,128.9 217.7,121.2 224.4,117.4 	"/>
	<polygon class="st1" points="244.3,121.2 237.7,117.4 237.7,109.7 231,105.9 224.4,109.7 224.4,117.4 217.7,121.2 217.7,128.9 
		224.4,132.8 224.4,140.4 231,144.3 237.7,140.4 237.7,132.8 244.3,128.9 	"/>
	<polygon class="st1" points="224.4,140.4 224.4,132.8 217.7,128.9 211,132.8 211,140.4 204.4,144.3 204.4,152 211,155.8 217.7,152 
		224.4,155.8 231,152 231,144.3 	"/>
	<polygon class="st1" points="204.4,82.8 204.4,75.1 197.7,71.3 197.7,63.6 191.1,59.7 184.4,63.6 177.8,59.7 171.1,63.6 
		164.4,59.7 157.8,63.6 157.8,71.3 164.4,75.1 164.4,82.8 171.1,86.6 177.8,82.8 184.4,86.6 184.4,94.3 191.1,98.2 191.1,98.1 
		191.1,98.2 191.1,105.9 197.7,109.7 204.4,105.9 204.4,98.2 204.4,98.2 204.4,98.2 211,94.3 211,86.6 	"/>
	<polygon class="st1" points="337.5,313.4 330.9,317.3 324.2,313.4 317.6,317.3 310.9,313.4 310.9,305.7 304.2,301.9 297.6,305.7 
		297.6,313.4 290.9,317.3 290.9,325 297.6,328.8 304.2,325 310.9,328.8 317.6,325 324.2,328.8 330.9,325 337.5,328.8 344.2,325 
		344.2,317.3 	"/>
	<path class="st1" d="M424.1,348l-6.7,3.8l-6.7-3.8l0,0v-7.7l-6.7-3.8l-6.7,3.8l-6.7-3.8l-6.7,3.8l-6.7-3.8l-6.7,3.8v7.7v0l-6.7,3.8
		v7.7l6.7,3.8v7.7l6.7,3.8l6.7-3.8l6.7,3.8l6.7-3.8v-7.7l6.7-3.8l6.7,3.8l6.7-3.8l6.7,3.8l6.7-3.8v-7.7L424.1,348z"/>
	<polygon class="st1" points="364.1,336.5 357.5,340.3 350.8,336.5 344.2,340.3 337.5,336.5 337.5,328.8 330.9,325 324.2,328.8 
		317.6,325 310.9,328.8 310.9,336.5 317.6,340.3 317.5,348 324.2,351.9 324.2,359.6 330.9,363.4 337.5,359.6 344.2,363.4 
		350.8,359.6 357.5,363.4 364.1,359.6 364.1,351.9 370.8,348 370.8,340.3 	"/>
	<polygon class="st1" points="337.5,198.1 337.5,190.4 330.9,186.6 330.9,178.9 324.2,175 324.2,167.4 317.6,163.5 310.9,167.4 
		310.9,175 304.2,178.9 304.2,186.6 310.9,190.4 310.9,198.1 317.6,202 317.6,209.6 324.2,213.5 330.9,209.6 337.5,213.5 
		344.2,209.6 344.2,202 	"/>
	<polygon class="st1" points="297.6,175 290.9,178.9 284.3,175 284.3,167.4 277.6,163.5 277.6,155.8 271,152 271,144.3 264.3,140.4 
		257.6,144.3 257.6,152 251,155.8 251,163.5 257.6,167.4 257.6,175 264.3,178.9 271,175 277.6,178.9 277.6,186.6 284.3,190.4 
		290.9,186.6 297.6,190.4 304.2,186.6 304.2,178.9 	"/>
	<polygon class="st1" points="310.9,152 304.2,155.8 297.6,152 290.9,155.8 284.3,152 277.6,155.8 277.6,163.5 284.3,167.4 
		284.3,175 290.9,178.9 297.6,175 304.2,178.9 310.9,175 310.9,167.4 317.6,163.5 317.6,155.8 	"/>
	<polygon class="st1" points="497.4,313.4 490.7,317.3 490.7,325 484.1,328.8 484.1,336.5 490.7,340.3 497.4,336.5 497.4,328.8 
		504,325 504,317.3 	"/>
	<polygon class="st1" points="524,290.4 517.4,294.2 517.4,301.9 510.7,305.8 510.7,313.4 504,317.3 504,325 510.7,328.8 517.4,325 
		517.4,317.3 524,313.4 530.7,317.3 537.3,313.4 537.3,305.8 530.7,301.9 530.7,294.2 	"/>
	<polygon class="st1" points="510.7,290.4 504,294.2 497.4,290.4 490.7,294.2 484.1,290.4 477.4,294.2 477.4,301.9 484.1,305.7 
		484.1,313.4 490.7,317.3 497.4,313.4 504,317.3 510.7,313.4 510.7,305.7 517.3,301.9 517.3,294.2 	"/>
	<polygon class="st1" points="404.1,313.4 404.1,305.7 397.4,301.9 397.4,294.2 390.8,290.4 390.8,282.7 384.1,278.8 377.5,282.7 
		377.5,290.4 384.1,294.2 384.1,301.9 377.5,305.7 377.4,313.4 370.8,317.3 364.1,313.4 364.1,305.7 357.5,301.9 350.8,305.7 
		350.8,313.4 350.8,313.4 344.2,317.3 344.2,325 337.5,328.8 337.5,336.5 344.2,340.3 350.8,336.5 357.5,340.3 364.1,336.5 
		370.8,340.3 377.5,336.5 384.1,340.3 390.8,336.5 397.4,340.3 404.1,336.5 404.1,328.8 410.8,325 410.8,317.3 	"/>
	<polygon class="st1" points="271,105.8 271,98.2 264.3,94.3 264.3,86.6 257.6,82.8 251,86.6 251,94.3 244.3,98.2 237.7,94.3 
		231,98.2 231,105.8 237.7,109.7 237.7,117.4 244.3,121.2 244.3,128.9 237.7,132.8 237.7,140.4 244.3,144.3 244.3,152 251,155.8 
		257.6,152 257.6,144.3 264.3,140.4 264.3,132.8 271,128.9 271,121.2 277.6,117.4 277.6,109.7 	"/>
	<polygon class="st1" points="290.9,117.4 290.9,109.7 284.3,105.8 284.3,98.2 277.6,94.3 277.6,86.6 271,82.8 264.3,86.6 
		264.3,94.3 271,98.2 271,105.8 277.6,109.7 277.6,117.4 271,121.2 271,128.9 264.3,132.8 264.3,140.4 271,144.3 271,152 
		277.6,155.8 284.3,152 290.9,155.8 297.6,152 297.6,144.3 290.9,140.4 290.9,132.8 297.6,128.9 297.6,121.2 	"/>
	<polygon class="st1" points="257.7,175 257.7,167.4 251,163.5 244.3,167.4 237.7,163.5 231,167.4 224.4,163.5 224.4,155.8 
		217.7,152 211,155.8 211,163.5 217.7,167.4 217.7,175 211,178.9 204.4,175 197.7,178.9 197.7,186.6 191.1,190.4 191.1,198.1 
		197.7,202 197.7,209.6 204.4,213.5 211,209.6 217.7,213.5 224.4,209.6 231,213.5 231,221.2 237.7,225 244.3,221.2 251,225 
		257.6,221.2 257.6,213.5 251,209.6 251,202 257.7,198.1 257.7,190.4 264.3,186.6 264.3,178.9 	"/>
	<polygon class="st1" points="204.4,128.9 204.4,121.2 197.7,117.4 197.7,109.7 191.1,105.9 191.1,98.2 184.4,94.3 184.4,86.6 
		177.8,82.8 171.1,86.6 164.4,82.8 157.8,86.6 157.8,94.3 164.4,98.2 164.4,105.9 171.1,109.7 177.8,105.8 184.4,109.7 184.4,117.4 
		191.1,121.2 191.1,128.9 197.7,132.8 197.7,140.5 204.4,144.3 211,140.5 211,132.8 	"/>
	<polygon class="st1" points="430.7,336.5 424.1,340.3 417.4,336.5 417.4,328.8 424.1,325 424.1,317.3 417.4,313.4 417.4,305.7 
		424.1,301.9 424.1,294.2 417.4,290.4 417.4,282.7 410.8,278.8 410.8,271.2 404.1,267.3 404.1,259.6 397.4,255.8 397.4,248.1 
		390.8,244.2 390.8,236.6 384.1,232.7 384.1,225 377.5,221.2 370.8,225 364.1,221.2 364.2,213.5 357.5,209.6 350.9,213.5 
		350.9,221.2 357.5,225 357.5,232.7 364.2,236.6 364.2,244.2 370.8,248.1 370.8,255.8 377.5,259.6 377.5,267.3 384.1,271.2 
		384.1,278.8 390.8,282.7 390.8,290.4 397.4,294.2 397.4,301.9 404.1,305.8 404.1,313.4 410.8,317.3 410.8,325 404.1,328.8 
		404.1,336.5 410.8,340.3 410.8,348 417.4,351.9 424.1,348 430.7,351.9 437.4,348 437.4,340.3 	"/>
	<polygon class="st1" points="151.1,59.7 151.1,52 144.5,48.2 144.5,40.5 137.8,36.7 131.2,40.5 124.5,36.7 117.8,40.5 117.8,48.2 
		124.5,52 124.5,59.7 131.2,63.6 131.2,71.3 137.8,75.1 144.5,71.3 151.1,75.1 151.1,82.8 157.8,86.6 164.4,82.8 164.4,75.1 
		157.8,71.3 157.8,63.6 	"/>
	<polygon class="st1" points="111.2,36.7 104.5,40.5 104.5,40.5 97.9,36.7 91.2,40.5 84.5,36.7 77.9,40.5 71.2,36.7 64.6,40.5 
		64.6,48.2 71.2,52 71.2,59.7 77.9,63.6 84.5,59.7 91.2,63.6 91.2,71.3 97.9,75.1 104.5,71.3 104.5,63.6 111.2,59.7 111.2,52 
		117.8,48.2 117.8,40.5 	"/>
	<polygon class="st1" points="111.2,82.8 111.2,75.1 104.5,71.2 97.9,75.1 97.9,82.8 104.5,86.6 104.5,94.3 111.2,98.2 117.8,94.3 
		117.8,86.6 	"/>
	<polygon class="st1" points="377.5,267.3 377.5,259.6 370.8,255.8 370.8,248.1 364.2,244.2 364.2,236.6 357.5,232.7 357.5,225 
		350.9,221.2 350.9,213.5 344.2,209.6 337.5,213.5 337.5,213.5 330.9,209.6 324.2,213.5 317.6,209.6 317.6,209.6 317.6,209.6 
		317.6,202 317.6,201.9 310.9,198.1 304.2,201.9 304.2,202 304.2,209.6 304.2,209.6 310.9,213.5 310.9,221.2 304.2,225 297.6,221.2 
		290.9,225 284.3,221.2 277.6,225 277.6,232.7 271,236.6 271,244.2 264.3,248.1 264.3,255.8 257.6,259.6 257.6,267.3 251,271.2 
		251,278.8 244.3,282.7 244.3,290.4 251,294.2 251,301.9 257.6,305.7 264.3,301.9 271,305.7 277.6,301.9 284.3,305.7 290.9,301.9 
		297.6,305.7 304.2,301.9 304.2,294.2 297.6,290.4 290.9,294.2 284.3,290.4 284.3,282.7 277.6,278.8 277.6,271.2 284.3,267.3 
		284.3,259.6 290.9,255.8 297.6,259.6 304.2,255.8 304.2,248.1 310.9,244.2 310.9,236.6 317.6,232.7 324.2,236.6 324.2,244.2 
		330.9,248.1 330.9,255.8 337.5,259.6 344.2,255.8 350.8,259.6 350.8,267.3 357.5,271.2 357.5,278.8 350.8,282.7 350.8,290.4 
		344.2,294.2 344.2,301.9 337.5,305.7 337.5,313.4 344.2,317.3 350.9,313.4 350.9,305.7 357.5,301.9 357.5,294.2 364.2,290.4 
		370.8,294.2 377.5,290.4 377.5,282.7 384.1,278.8 384.1,271.2 	"/>
	<g id="Capa_2_copia">
		<g id="Capa_3_copia">
			<g id="Capa_4_copia">
			</g>
		</g>
	</g>
	<path class="st1" d="M484.1,336.5v-7.7l-6.7-3.8l-6.7,3.8l-6.7-3.8l-6.7,3.8l-6.7-3.8l-6.7,3.8l-6.7-3.8l-6.7,3.8v7.7l6.7,3.8
		l6.7-3.8l6.7,3.8l0,7.7l6.7,3.8l6.7-3.8v-7.7l6.7-3.8l6.7,3.8v7.7l6.7,3.8l6.7-3.8v-7.7L484.1,336.5z"/>
	<path class="st1" d="M484.1,359.6v-7.7l-6.7-3.8v-7.7l-6.7-3.8l-6.7,3.8v7.7l-6.7,3.8l-6.7-3.8l0-7.7l-6.7-3.8l-6.7,3.8v7.7
		l-6.7,3.8v7.7l6.7,3.8v7.7l6.7,3.8v7.7l6.7,3.8v7.7l6.7,3.8l6.7-3.8v-7.7l6.7-3.8v-7.7l6.7-3.8l6.7,3.8l6.7-3.8v-7.7L484.1,359.6z"
		/>
	<polygon class="st1" points="350.9,267.3 350.9,259.6 344.2,255.8 337.5,259.6 330.9,255.8 330.9,248.1 324.2,244.2 324.2,236.6 
		317.6,232.7 310.9,236.6 310.9,244.2 304.2,248.1 304.2,255.8 297.6,259.6 290.9,255.8 284.3,259.6 284.3,267.3 277.6,271.1 
		277.6,278.8 284.3,282.7 284.3,290.4 290.9,294.2 297.6,290.4 304.2,294.2 304.2,301.9 310.9,305.7 310.9,313.4 317.6,317.3 
		324.2,313.4 330.9,317.3 337.5,313.4 337.5,305.7 344.2,301.9 344.2,294.2 350.9,290.4 350.9,282.7 357.5,278.8 357.5,271.1 	"/>
	<polygon class="st1" points="244.3,82.8 244.3,75.1 237.7,71.3 237.7,63.6 231,59.7 224.4,63.6 224.4,71.2 217.7,75.1 217.7,82.8 
		211,86.6 211,94.3 217.7,98.2 217.7,105.8 224.3,109.7 231,105.8 231,98.2 237.7,94.3 244.3,98.2 251,94.3 251,86.6 	"/>
	<polygon class="st1" points="310.9,198.1 310.9,190.4 304.2,186.6 297.6,190.4 290.9,186.6 284.3,190.4 277.6,186.6 277.6,186.6 
		277.6,178.9 271,175 264.3,178.9 264.3,186.6 257.6,190.4 257.6,198.1 251,202 251,209.6 257.6,213.5 257.6,221.2 251,225 
		251,232.7 257.6,236.6 264.3,232.7 271,236.6 277.6,232.7 277.6,225 284.3,221.2 290.9,225 297.6,221.2 304.2,225 310.9,221.2 
		310.9,213.5 304.2,209.6 304.2,202 	"/>
	<polygon class="st1" points="264.3,232.7 257.6,236.6 251,232.7 251,225 244.3,221.2 237.7,225 231,221.2 224.4,225 217.7,221.2 
		211,225 211,232.7 217.7,236.6 217.7,244.2 224.4,248.1 224.3,255.8 231,259.6 231,267.3 237.7,271.1 244.3,267.3 251,271.1 
		257.7,267.3 257.7,259.6 264.3,255.8 264.3,248.1 271,244.2 271,236.6 	"/>
</g>
<g id="nombres">
	<rect x="63" y="25.7" class="st2" width="49.1" height="8.9"/>
	<text transform="matrix(1 0 0 1 62.989 31.4116)" class="st3 st4 st5">02 Baja California</text>
	<rect x="41.4" y="87.9" class="st2" width="61.1" height="8.5"/>
	<text transform="matrix(1 0 0 1 41.3979 93.5796)" class="st3 st4 st5">03 Baja California Sur</text>
	<g>
		<rect x="185.1" y="251.3" class="st2" width="34.8" height="7.2"/>
		<text transform="matrix(1 0 0 1 185.0953 257.0344)" class="st3 st4 st5">12 Michoacán</text>
	</g>
	<g>
		<rect x="164.4" y="191.8" class="st2" width="26.7" height="6.3"/>
		<text transform="matrix(1 0 0 1 164.4091 197.5009)" class="st3 st4 st5">14 Jalisco</text>
	</g>
	<rect x="176.9" y="215" class="st2" width="25.6" height="8.1"/>
	<text transform="matrix(1 0 0 1 176.8958 220.6597)" class="st3 st4 st5">02 Colima</text>
	<g>
		<rect x="377.1" y="377.8" class="st2" width="27.3" height="6.9"/>
		<text transform="matrix(1 0 0 1 377.1234 383.476)" class="st3 st4 st5">20 Oaxaca</text>
	</g>
	<rect x="307.2" y="363.4" class="st2" width="30.4" height="7.7"/>
	<text transform="matrix(1 0 0 1 307.1837 369.1072)" class="st3 st4 st5">12 Guerrero</text>
	<g>
		<rect x="360.1" y="323.7" class="st2" width="25.7" height="6.4"/>
		<text transform="matrix(1 0 0 1 360.0884 329.3693)" class="st3 st4 st5">21 Puebla</text>
	</g>
	<g>
		<rect x="274" y="329.8" class="st2" width="30.4" height="6.7"/>
		<text transform="matrix(1 0 0 1 273.9986 335.5117)" class="st3 st4 st5">17 Morelos</text>
	</g>
	<g>
		<rect x="360.5" y="300.1" class="st2" width="20.5" height="4.5"/>
		<text transform="matrix(1 0 0 1 360.4865 304.1362)" class="st3 st4 st6">29 Tlaxcala</text>
	</g>
	<g>
		<rect x="125.5" y="28.1" class="st2" width="26.6" height="6.5"/>
		<text transform="matrix(1 0 0 1 125.5045 33.7928)" class="st3 st4 st5">26 Sonora</text>
	</g>
	<g>
		<rect x="149.8" y="112.2" class="st2" width="29.3" height="7.1"/>
		<text transform="matrix(1 0 0 1 149.7654 117.8977)" class="st3 st4 st5">25 Sinaloa</text>
	</g>
	<rect x="168.5" y="50.1" class="st2" width="36.5" height="7.1"/>
	<text transform="matrix(1 0 0 1 168.4715 55.785)" class="st3 st4 st5">08 Chihuahua</text>
	<rect x="223.9" y="151.3" class="st2" width="32.3" height="5.2"/>
	<text transform="matrix(1 0 0 1 223.9465 155.2721)" class="st3 st4 st6">01 Aguascalientes</text>
	<g>
		<rect x="219.4" y="126.7" class="st2" width="23.2" height="4.4"/>
		<text transform="matrix(1 0 0 1 219.4141 130.7133)" class="st3 st4 st6">32 Zacatecas</text>
	</g>
	<rect x="338.3" y="180.2" class="st2" width="34.6" height="8.8"/>
	<text transform="matrix(1 0 0 1 338.344 185.8685)" class="st3 st4 st5">13 Hidalgo</text>
	<g>
		<rect x="200.6" y="116.6" class="st2" width="20" height="4.7"/>
		<text transform="matrix(1 0 0 1 200.5781 120.5453)" class="st3 st4 st6">10 Durango</text>
	</g>
	<g>
		<rect x="176.5" y="147.6" class="st2" width="26.8" height="7"/>
		<text transform="matrix(1 0 0 1 176.4658 153.3)" class="st3 st4 st5">18 Nayarit</text>
	</g>
	<g>
		<rect x="261.5" y="207.5" class="st2" width="36.9" height="8.2"/>
		<text transform="matrix(1 0 0 1 261.521 213.1534)" class="st3 st4 st5">11 Guanajuato</text>
	</g>
	<g>
		<rect x="320.4" y="147.4" class="st2" width="34.2" height="7.7"/>
		<text transform="matrix(1 0 0 1 320.4147 153.1309)" class="st3 st4 st5">22 Querétaro</text>
	</g>
	<g>
		<rect x="484.1" y="280.8" class="st2" width="30.6" height="6.7"/>
		<text transform="matrix(1 0 0 1 484.0549 286.4525)" class="st3 st4 st5">31 Yucatán</text>
	</g>
	<g>
		<rect x="498.8" y="333.3" class="st2" width="34.9" height="7.1"/>
		<text transform="matrix(1 0 0 1 498.8254 338.9619)" class="st3 st4 st5">04 Campeche</text>
	</g>
	<g>
		<rect x="447" y="314.2" class="st2" width="34.2" height="8.8"/>
		<text transform="matrix(1 0 0 1 446.9599 319.9187)" class="st3 st4 st5">27 Tabasco</text>
	</g>
	<g>
		<rect x="410.8" y="260.9" class="st2" width="34.2" height="8.8"/>
		<text transform="matrix(1 0 0 1 410.7548 267.9845)" class="st3 st4 st7">Veracruz</text>
	</g>
	<g>
		<rect x="474.8" y="382.1" class="st2" width="29.3" height="7.4"/>
		<text transform="matrix(1 0 0 1 474.7863 387.7827)" class="st3 st4 st5">07 Chiapas</text>
	</g>
	<g>
		<rect x="534.8" y="294.6" class="st2" width="41.4" height="7"/>
		<text transform="matrix(1 0 0 1 534.7969 300.2598)" class="st3 st4 st5">23 Quintana Roo</text>
	</g>
	<g>
		<rect x="251.3" y="163.6" class="st2" width="35.9" height="4.5"/>
		<text transform="matrix(1 0 0 1 251.3167 167.5408)" class="st3 st4 st6">24 San Luis Potosí</text>
	</g>
	<g>
		<rect x="302.1" y="119.3" class="st2" width="36.6" height="6.8"/>
		<text transform="matrix(1 0 0 1 302.1064 125.0062)" class="st3 st4 st5">28 Tamaulipas</text>
	</g>
	<g>
		<rect x="254.3" y="72" class="st2" width="37.4" height="6.9"/>
		<text transform="matrix(1 0 0 1 254.3094 77.7261)" class="st3 st4 st5">19 Nuevo León</text>
	</g>
	<g>
		<rect x="217.7" y="51.6" class="st2" width="30.4" height="8.5"/>
		<text transform="matrix(1 0 0 1 217.6898 57.3333)" class="st3 st4 st5">05 Coahuila</text>
	</g>
	<g>
		<rect x="315.3" y="220.5" class="st2" width="35.8" height="5"/>
		<text transform="matrix(1 0 0 1 315.3204 224.4791)" class="st3 st4 st6">15 Estado de México</text>
	</g>
	<g>
		<rect x="299.2" y="267" class="st2" width="36.6" height="4.5"/>
		<text transform="matrix(1 0 0 1 299.2366 270.9816)" class="st3 st4 st6">09 Ciudad de México</text>
	</g>
</g>
<g id="numeros">
	<text transform="matrix(1 0 0 1 235.8662 149.4272)" class="st4 st6">01</text>
	<text transform="matrix(1 0 0 1 235.8662 104.4855)" class="st4 st6">01</text>
	<text transform="matrix(1 0 0 1 216.2061 161.8813)" class="st4 st6">01</text>
	<text transform="matrix(1 0 0 1 230.3719 161.8808)" class="st4 st6">02</text>
	<text transform="matrix(1 0 0 1 261.5207 104.4855)" class="st4 st6">02</text>
	<text transform="matrix(1 0 0 1 249.102 173.1641)" class="st4 st6">02</text>
	<text transform="matrix(1 0 0 1 242.3372 161.8808)" class="st4 st6">03</text>
	<text transform="matrix(1 0 0 1 255.9138 184.5478)" class="st4 st6">03</text>
	<text transform="matrix(1 0 0 1 109.0785 46.1903)" class="st4 st6">01</text>
	<text transform="matrix(1 0 0 1 122 46.1902)" class="st4 st6">01</text>
	<text transform="matrix(1 0 0 1 229.1432 69.4508)" class="st4 st6">01</text>
	<text transform="matrix(1 0 0 1 202.4806 115.7556)" class="st4 st6">01</text>
	<text transform="matrix(1 0 0 1 221.3762 126.7249)" class="st4 st6">01</text>
	<text transform="matrix(1 0 0 1 215.8392 138.6676)" class="st4 st6">01</text>
	<text transform="matrix(1 0 0 1 202.4806 138.6673)" class="st4 st6">01</text>
	<text transform="matrix(1 0 0 1 102.5383 81.2788)" class="st4 st6">01</text>
	<text transform="matrix(1 0 0 1 183.1884 81.2776)" class="st4 st6">01</text>
	<text transform="matrix(1 0 0 1 222.5165 219.0255)" class="st4 st6">01</text>
	<text transform="matrix(1 0 0 1 95.1401 69.4508)" class="st4 st6">03</text>
	<text transform="matrix(1 0 0 1 175.9148 69.4513)" class="st4 st6">03</text>
	<text transform="matrix(1 0 0 1 129.2481 57.997)" class="st4 st6">03</text>
	<text transform="matrix(1 0 0 1 235.8662 81.2781)" class="st4 st6">03</text>
	<text transform="matrix(1 0 0 1 215.8391 115.7554)" class="st4 st6">03</text>
	<text transform="matrix(1 0 0 1 229.1433 115.7548)" class="st4 st6">03</text>
	<text transform="matrix(1 0 0 1 170.4843 104.485)" class="st4 st6">03</text>
	<text transform="matrix(1 0 0 1 222.2868 149.4267)" class="st4 st6">03</text>
	<text transform="matrix(1 0 0 1 249.1019 104.485)" class="st4 st6">03</text>
	<text transform="matrix(1 0 0 1 96.1202 46.1901)" class="st4 st6">02</text>
	<text transform="matrix(1 0 0 1 162.9663 69.4509)" class="st4 st6">02</text>
	<text transform="matrix(1 0 0 1 134.9663 46.1899)" class="st4 st6">02</text>
	<text transform="matrix(1 0 0 1 222.5164 81.2784)" class="st4 st6">02</text>
	<text transform="matrix(1 0 0 1 208.78 104.4851)" class="st4 st6">02</text>
	<text transform="matrix(1 0 0 1 228.4004 137.6639)" class="st4 st6">02</text>
	<text transform="matrix(1 0 0 1 209.6161 149.4269)" class="st4 st6">02</text>
	<text transform="matrix(1 0 0 1 161.6161 92.1322)" class="st4 st6">02</text>
	<text transform="matrix(1 0 0 1 109.0786 92.1313)" class="st4 st6">02</text>
	<text transform="matrix(1 0 0 1 208.7801 219.026)" class="st4 st6">02</text>
	<text transform="matrix(1 0 0 1 69.4337 46.1899)" class="st4 st6">06</text>
	<text transform="matrix(1 0 0 1 195.6997 81.2776)" class="st4 st6">06</text>
	<text transform="matrix(1 0 0 1 149.7654 69.4518)" class="st4 st6">06</text>
	<text transform="matrix(1 0 0 1 222.5164 103.5034)" class="st4 st6">06</text>
	<text transform="matrix(1 0 0 1 195.6996 127.4838)" class="st4 st6">06</text>
	<text transform="matrix(1 0 0 1 75.5141 57.9965)" class="st4 st6">08</text>
	<text transform="matrix(1 0 0 1 189.6882 92.1318)" class="st4 st6">08</text>
	<text transform="matrix(1 0 0 1 89.0263 57.9969)" class="st4 st6">04</text>
	<text transform="matrix(1 0 0 1 189.6883 70.201)" class="st4 st6">04</text>
	<text transform="matrix(1 0 0 1 142.6883 57.9964)" class="st4 st6">04</text>
	<text transform="matrix(1 0 0 1 175.9146 92.132)" class="st4 st6">04</text>
	<text transform="matrix(1 0 0 1 242.3371 92.1312)" class="st4 st6">04</text>
	<text transform="matrix(1 0 0 1 208.7746 127.4834)" class="st4 st6">04</text>
	<text transform="matrix(1 0 0 1 235.799 127.4833)" class="st4 st6">04</text>
	<text transform="matrix(1 0 0 1 102.5384 57.9968)" class="st4 st6">07</text>
	<text transform="matrix(1 0 0 1 168.4715 81.2788)" class="st4 st6">07</text>
	<text transform="matrix(1 0 0 1 156 81.2781)" class="st4 st6">07</text>
	<text transform="matrix(1 0 0 1 195.6996 103.5037)" class="st4 st6">09</text>
	<text transform="matrix(1 0 0 1 249.1019 149.427)" class="st4 st6">09</text>
	<text transform="matrix(1 0 0 1 202.4806 92.1312)" class="st4 st6">05</text>
	<text transform="matrix(1 0 0 1 136.4806 69.4516)" class="st4 st6">05</text>
	<text transform="matrix(1 0 0 1 183.1885 103.5041)" class="st4 st6">05</text>
	<text transform="matrix(1 0 0 1 229.1433 92.1311)" class="st4 st6">07</text>
	<text transform="matrix(1 0 0 1 255.4144 92.132)" class="st4 st6">07</text>
	<text transform="matrix(1 0 0 1 189.688 115.756)" class="st4 st6">07</text>
	<text transform="matrix(1 0 0 1 82.9458 46.1899)" class="st4 st6">05</text>
	<text transform="matrix(1 0 0 1 249.1019 265.2547)" class="st4 st6">01</text>
	<text transform="matrix(1 0 0 1 328.9011 311.2947)" class="st4 st6">21</text>
	<text transform="matrix(1 0 0 1 342.7685 311.2949)" class="st4 st6">21</text>
	<text transform="matrix(1 0 0 1 328.9012 265.2545)" class="st4 st6">11</text>
	<text transform="matrix(1 0 0 1 335.8452 230.5879)" class="st4 st6">11</text>
	<text transform="matrix(1 0 0 1 415.2462 345.4722)" class="st4 st6">11</text>
	<text transform="matrix(1 0 0 1 368.331 335.3712)" class="st4 st6">11</text>
	<text transform="matrix(1 0 0 1 242.3392 253.805)" class="st4 st6">11</text>
	<text transform="matrix(1 0 0 1 222.5168 196.4728)" class="st4 st6">11</text>
	<text transform="matrix(1 0 0 1 261.521 126.7256)" class="st4 st6">11</text>
	<text transform="matrix(1 0 0 1 268.5678 207.4571)" class="st4 st6">11</text>
	<text transform="matrix(1 0 0 1 288.1365 265.2545)" class="st4 st6">10</text>
	<text transform="matrix(1 0 0 1 349.2352 230.5878)" class="st4 st6">10</text>
	<text transform="matrix(1 0 0 1 394.1272 266.16)" class="st4 st6">10</text>
	<text transform="matrix(1 0 0 1 362.0805 323.3368)" class="st4 st6">10</text>
	<text transform="matrix(1 0 0 1 388.8779 369.3137)" class="st4 st6">10</text>
	<text transform="matrix(1 0 0 1 215.8389 184.5475)" class="st4 st6">10</text>
	<text transform="matrix(1 0 0 1 255.4144 138.6673)" class="st4 st6">10</text>
	<text transform="matrix(1 0 0 1 269.2471 230.5878)" class="st4 st6">10</text>
	<text transform="matrix(1 0 0 1 302.0981 265.254)" class="st4 st6">12</text>
	<text transform="matrix(1 0 0 1 368.9012 288.2148)" class="st4 st6">12</text>
	<text transform="matrix(1 0 0 1 401.883 300.1487)" class="st4 st6">12</text>
	<text transform="matrix(1 0 0 1 355.1319 335.3706)" class="st4 st6">12</text>
	<text transform="matrix(1 0 0 1 235.7992 265.2548)" class="st4 st6">12</text>
	<text transform="matrix(1 0 0 1 201.8766 207.4582)" class="st4 st6">12</text>
	<text transform="matrix(1 0 0 1 241.5946 138.6674)" class="st4 st6">12</text>
	<text transform="matrix(1 0 0 1 288.137 219.9687)" class="st4 st6">12</text>
	<text transform="matrix(1 0 0 1 468.7472 369.3147)" class="st4 st6">11</text>
	<text transform="matrix(1 0 0 1 441.396 369.3146)" class="st4 st6">10</text>
	<text transform="matrix(1 0 0 1 482.2096 346.2238)" class="st4 st6">01</text>
	<text transform="matrix(1 0 0 1 382.6244 288.2143)" class="st4 st6">01</text>
	<text transform="matrix(1 0 0 1 402.7217 346.2239)" class="st4 st6">01</text>
	<text transform="matrix(1 0 0 1 255.9142 253.8054)" class="st4 st6">03</text>
	<text transform="matrix(1 0 0 1 309.4004 253.8055)" class="st4 st6">03</text>
	<text transform="matrix(1 0 0 1 282.0805 231.0212)" class="st4 st6">03</text>
	<text transform="matrix(1 0 0 1 375.287 230.5882)" class="st4 st6">03</text>
	<text transform="matrix(1 0 0 1 255.914 300.1483)" class="st4 st6">36</text>
	<text transform="matrix(1 0 0 1 282.0804 300.1487)" class="st4 st6">35</text>
	<text transform="matrix(1 0 0 1 362.0808 300.1488)" class="st4 st6">03</text>
	<text transform="matrix(1 0 0 1 322.38 184.5478)" class="st4 st6">03</text>
	<text transform="matrix(1 0 0 1 282.0808 161.8807)" class="st4 st6">03</text>
	<text transform="matrix(1 0 0 1 275.5274 127.4837)" class="st4 st6">03</text>
	<text transform="matrix(1 0 0 1 322.3806 345.4722)" class="st4 st6">03</text>
	<text transform="matrix(1 0 0 1 322.3804 323.3376)" class="st4 st6">03</text>
	<text transform="matrix(1 0 0 1 262.214 196.4736)" class="st4 st6">03</text>
	<text transform="matrix(1 0 0 1 275.5274 173.1641)" class="st4 st6">03</text>
	<text transform="matrix(1 0 0 1 482.2093 369.3144)" class="st4 st6">03</text>
	<text transform="matrix(1 0 0 1 455.3962 392.7)" class="st4 st6">12</text>
	<text transform="matrix(1 0 0 1 461.2858 381.2458)" class="st4 st6">13</text>
	<text transform="matrix(1 0 0 1 448.5212 334.3438)" class="st4 st6">03</text>
	<text transform="matrix(1 0 0 1 394.856 311.2947)" class="st4 st6">03</text>
	<text transform="matrix(1 0 0 1 376.2471 346.224)" class="st4 st6">03</text>
	<text transform="matrix(1 0 0 1 501.9735 312.3878)" class="st4 st6">03</text>
	<text transform="matrix(1 0 0 1 521.9066 300.1486)" class="st4 st6">03</text>
	<text transform="matrix(1 0 0 1 242.3372 230.5877)" class="st4 st6">02</text>
	<text transform="matrix(1 0 0 1 342.7689 288.2144)" class="st4 st6">22</text>
	<text transform="matrix(1 0 0 1 255.4142 276.6149)" class="st4 st6">22</text>
	<text transform="matrix(1 0 0 1 268.5683 276.6146)" class="st4 st6">24</text>
	<text transform="matrix(1 0 0 1 349.2359 277.2824)" class="st4 st6">20</text>
	<text transform="matrix(1 0 0 1 335.8454 253.8059)" class="st4 st6">20</text>
	<text transform="matrix(1 0 0 1 375.2871 277.2823)" class="st4 st6">30</text>
	<text transform="matrix(1 0 0 1 408.5723 334.3439)" class="st4 st6">20</text>
	<text transform="matrix(1 0 0 1 242.339 207.4579)" class="st4 st6">20</text>
	<text transform="matrix(1 0 0 1 322.3805 253.8054)" class="st4 st6">02</text>
	<text transform="matrix(1 0 0 1 315.7469 219.0261)" class="st4 st6">02</text>
	<text transform="matrix(1 0 0 1 362.0804 230.5872)" class="st4 st6">02</text>
	<text transform="matrix(1 0 0 1 309.399 207.4578)" class="st4 st6">28</text>
	<text transform="matrix(1 0 0 1 309.3997 184.5479)" class="st4 st6">02</text>
	<text transform="matrix(1 0 0 1 302.0986 173.1638)" class="st4 st6">02</text>
	<text transform="matrix(1 0 0 1 275.5276 103.5038)" class="st4 st6">02</text>
	<text transform="matrix(1 0 0 1 328.9008 334.3437)" class="st4 st6">02</text>
	<text transform="matrix(1 0 0 1 309.4008 322.3437)" class="st4 st6">02</text>
	<text transform="matrix(1 0 0 1 368.3311 311.2947)" class="st4 st6">02</text>
	<text transform="matrix(1 0 0 1 295.2987 207.4572)" class="st4 st6">02</text>
	<text transform="matrix(1 0 0 1 261.5208 173.1643)" class="st4 st6">02</text>
	<text transform="matrix(1 0 0 1 462.4076 358.4394)" class="st4 st6">02</text>
	<text transform="matrix(1 0 0 1 436.3152 334.3439)" class="st4 st6">02</text>
	<text transform="matrix(1 0 0 1 388.8777 300.1491)" class="st4 st6">02</text>
	<text transform="matrix(1 0 0 1 388.8781 346.224)" class="st4 st6">02</text>
	<text transform="matrix(1 0 0 1 262.2139 242.2232)" class="st4 st6">06</text>
	<text transform="matrix(1 0 0 1 289.194 288.2145)" class="st4 st6">06</text>
	<text transform="matrix(1 0 0 1 382.0003 242.2234)" class="st4 st6">06</text>
	<text transform="matrix(1 0 0 1 322.3803 230.588)" class="st4 st6">06</text>
	<text transform="matrix(1 0 0 1 388.8773 322.3433)" class="st4 st6">06</text>
	<text transform="matrix(1 0 0 1 349.2356 346.2226)" class="st4 st6">06</text>
	<text transform="matrix(1 0 0 1 368.9007 357.5741)" class="st4 st6">06</text>
	<text transform="matrix(1 0 0 1 275.5273 196.4732)" class="st4 st6">06</text>
	<text transform="matrix(1 0 0 1 222.2866 173.1638)" class="st4 st6">06</text>
	<text transform="matrix(1 0 0 1 282.8409 137.6642)" class="st4 st6">06</text>
	<text transform="matrix(1 0 0 1 322.3806 207.457)" class="st4 st6">06</text>
	<text transform="matrix(1 0 0 1 268.5681 161.2132)" class="st4 st6">06</text>
	<text transform="matrix(1 0 0 1 249.1017 126.7255)" class="st4 st6">06</text>
	<text transform="matrix(1 0 0 1 436.3148 358.4391)" class="st4 st6">06</text>
	<text transform="matrix(1 0 0 1 449.4398 358.4388)" class="st4 st6">09</text>
	<text transform="matrix(1 0 0 1 375.2867 369.3151)" class="st4 st6">09</text>
	<text transform="matrix(1 0 0 1 456.0648 346.2234)" class="st4 st6">06</text>
	<text transform="matrix(1 0 0 1 235.7988 242.2234)" class="st4 st6">08</text>
	<text transform="matrix(1 0 0 1 315.7474 265.2541)" class="st4 st6">08</text>
	<text transform="matrix(1 0 0 1 302.0989 242.2234)" class="st4 st6">08</text>
	<text transform="matrix(1 0 0 1 388.8783 253.8057)" class="st4 st6">08</text>
	<text transform="matrix(1 0 0 1 382.6253 358.4387)" class="st4 st6">08</text>
	<text transform="matrix(1 0 0 1 228.4004 184.548)" class="st4 st6">08</text>
	<text transform="matrix(1 0 0 1 288.137 150.5479)" class="st4 st6">08</text>
	<text transform="matrix(1 0 0 1 269.2473 115.7558)" class="st4 st6">08</text>
	<text transform="matrix(1 0 0 1 355.6314 357.5747)" class="st4 st6">08</text>
	<text transform="matrix(1 0 0 1 282.0807 207.4573)" class="st4 st6">08</text>
	<text transform="matrix(1 0 0 1 456.0644 369.3141)" class="st4 st6">08</text>
	<text transform="matrix(1 0 0 1 402.7213 323.0013)" class="st4 st6">08</text>
	<text transform="matrix(1 0 0 1 216.2061 230.5878)" class="st4 st6">04</text>
	<text transform="matrix(1 0 0 1 315.7473 288.2145)" class="st4 st6">04</text>
	<text transform="matrix(1 0 0 1 248.4139 288.2147)" class="st4 st6">40</text>
	<text transform="matrix(1 0 0 1 276.1933 242.2244)" class="st4 st6">04</text>
	<text transform="matrix(1 0 0 1 416.0557 300.149)" class="st4 st6">04</text>
	<text transform="matrix(1 0 0 1 394.8563 357.5738)" class="st4 st6">04</text>
	<text transform="matrix(1 0 0 1 235.8663 173.1639)" class="st4 st6">04</text>
	<text transform="matrix(1 0 0 1 255.4144 115.7553)" class="st4 st6">04</text>
	<text transform="matrix(1 0 0 1 328.901 357.5742)" class="st4 st6">04</text>
	<text transform="matrix(1 0 0 1 296.1372 323.3376)" class="st4 st6">04</text>
	<text transform="matrix(1 0 0 1 269.2473 184.5479)" class="st4 st6">04</text>
	<text transform="matrix(1 0 0 1 328.9015 195.714)" class="st4 st6">04</text>
	<text transform="matrix(1 0 0 1 296.1373 161.2139)" class="st4 st6">04</text>
	<text transform="matrix(1 0 0 1 289.1936 126.7257)" class="st4 st6">04</text>
	<text transform="matrix(1 0 0 1 282.081 184.5479)" class="st4 st6">04</text>
	<text transform="matrix(1 0 0 1 308.7328 299.2148)" class="st4 st6">14</text>
	<text transform="matrix(1 0 0 1 282.0814 253.8045)" class="st4 st6">14</text>
	<text transform="matrix(1 0 0 1 427.8761 345.4717)" class="st4 st6">14</text>
	<text transform="matrix(1 0 0 1 341.3458 335.3706)" class="st4 st6">14</text>
	<text transform="matrix(1 0 0 1 208.78 196.4727)" class="st4 st6">14</text>
	<text transform="matrix(1 0 0 1 302.0984 219.0251)" class="st4 st6">14</text>
	<text transform="matrix(1 0 0 1 442.7824 346.2233)" class="st4 st6">04</text>
	<text transform="matrix(1 0 0 1 394.8562 335.3708)" class="st4 st6">04</text>
	<text transform="matrix(1 0 0 1 462.4074 335.3711)" class="st4 st6">04</text>
	<text transform="matrix(1 0 0 1 495.0162 300.149)" class="st4 st6">04</text>
	<text transform="matrix(1 0 0 1 528.8768 312.388)" class="st4 st6">04</text>
	<text transform="matrix(1 0 0 1 249.1017 242.2238)" class="st4 st6">10</text>
	<text transform="matrix(1 0 0 1 222.5164 242.2238)" class="st4 st6">07</text>
	<text transform="matrix(1 0 0 1 342.7688 265.2546)" class="st4 st6">07</text>
	<text transform="matrix(1 0 0 1 289.1938 242.223)" class="st4 st6">07</text>
	<text transform="matrix(1 0 0 1 375.2875 253.8053)" class="st4 st6">07</text>
	<text transform="matrix(1 0 0 1 382.6248 311.2946)" class="st4 st6">07</text>
	<text transform="matrix(1 0 0 1 235.799 195.7138)" class="st4 st6">07</text>
	<text transform="matrix(1 0 0 1 335.8463 346.223)" class="st4 st6">07</text>
	<text transform="matrix(1 0 0 1 421.7358 358.4391)" class="st4 st6">07</text>
	<text transform="matrix(1 0 0 1 255.9141 230.0472)" class="st4 st6">07</text>
	<text transform="matrix(1 0 0 1 335.8461 207.457)" class="st4 st6">07</text>
	<text transform="matrix(1 0 0 1 295.2991 184.5478)" class="st4 st6">07</text>
	<text transform="matrix(1 0 0 1 275.5279 150.5477)" class="st4 st6">07</text>
	<text transform="matrix(1 0 0 1 282.8409 277.2831)" class="st4 st6">17</text>
	<text transform="matrix(1 0 0 1 341.8462 242.2237)" class="st4 st6">17</text>
	<text transform="matrix(1 0 0 1 415.2466 323.0015)" class="st4 st6">17</text>
	<text transform="matrix(1 0 0 1 249.1019 219.0264)" class="st4 st6">17</text>
	<text transform="matrix(1 0 0 1 322.3806 277.2831)" class="st4 st6">13</text>
	<text transform="matrix(1 0 0 1 355.6314 242.2237)" class="st4 st6">13</text>
	<text transform="matrix(1 0 0 1 408.5723 288.2141)" class="st4 st6">13</text>
	<text transform="matrix(1 0 0 1 347.6687 323.3381)" class="st4 st6">13</text>
	<text transform="matrix(1 0 0 1 215.0167 207.4576)" class="st4 st6">13</text>
	<text transform="matrix(1 0 0 1 262.2139 219.9686)" class="st4 st6">13</text>
	<text transform="matrix(1 0 0 1 302.0981 288.2147)" class="st4 st6">23</text>
	<text transform="matrix(1 0 0 1 295.2988 300.1483)" class="st4 st6">23</text>
	<text transform="matrix(1 0 0 1 349.2358 299.2151)" class="st4 st6">33</text>
	<text transform="matrix(1 0 0 1 355.6308 288.2148)" class="st4 st6">32</text>
	<text transform="matrix(1 0 0 1 362.0807 277.282)" class="st4 st6">39</text>
	<text transform="matrix(1 0 0 1 362.0801 253.8057)" class="st4 st6">38</text>
	<text transform="matrix(1 0 0 1 275.5283 288.2133)" class="st4 st6">27</text>
	<text transform="matrix(1 0 0 1 309.399 230.5883)" class="st4 st6">37</text>
	<text transform="matrix(1 0 0 1 355.1316 266.1599)" class="st4 st6">31</text>
	<text transform="matrix(1 0 0 1 328.9005 219.0261)" class="st4 st6">41</text>
	<text transform="matrix(1 0 0 1 322.3806 299.2146)" class="st4 st6">24</text>
	<text transform="matrix(1 0 0 1 269.2473 300.1481)" class="st4 st6">34</text>
	<text transform="matrix(1 0 0 1 334.1964 277.2831)" class="st4 st6">18</text>
	<text transform="matrix(1 0 0 1 276.1932 265.2538)" class="st4 st6">18</text>
	<text transform="matrix(1 0 0 1 394.8565 288.2147)" class="st4 st6">18</text>
	<text transform="matrix(1 0 0 1 195.6998 196.4732)" class="st4 st6">18</text>
	<text transform="matrix(1 0 0 1 328.9012 288.2144)" class="st4 st6">19</text>
	<text transform="matrix(1 0 0 1 295.299 253.8054)" class="st4 st6">19</text>
	<text transform="matrix(1 0 0 1 349.2354 253.8046)" class="st4 st6">29</text>
	<text transform="matrix(1 0 0 1 408.5727 311.2951)" class="st4 st6">19</text>
	<text transform="matrix(1 0 0 1 235.866 219.968)" class="st4 st6">19</text>
	<text transform="matrix(1 0 0 1 335.8461 299.214)" class="st4 st6">09</text>
	<text transform="matrix(1 0 0 1 262.2142 265.2533)" class="st4 st6">09</text>
	<text transform="matrix(1 0 0 1 382.0004 265.2545)" class="st4 st6">09</text>
	<text transform="matrix(1 0 0 1 375.287 323.0015)" class="st4 st6">09</text>
	<text transform="matrix(1 0 0 1 229.3811 253.8056)" class="st4 st6">09</text>
	<text transform="matrix(1 0 0 1 242.3394 184.548)" class="st4 st6">09</text>
	<text transform="matrix(1 0 0 1 341.8461 357.5746)" class="st4 st6">09</text>
	<text transform="matrix(1 0 0 1 289.1944 195.714)" class="st4 st6">09</text>
	<text transform="matrix(1 0 0 1 282.081 115.7554)" class="st4 st6">09</text>
	<text transform="matrix(1 0 0 1 295.2991 277.2831)" class="st4 st6">16</text>
	<text transform="matrix(1 0 0 1 262.2142 288.2147)" class="st4 st6">26</text>
	<text transform="matrix(1 0 0 1 328.901 242.2236)" class="st4 st6">16</text>
	<text transform="matrix(1 0 0 1 401.8825 277.282)" class="st4 st6">16</text>
	<text transform="matrix(1 0 0 1 228.4002 207.4567)" class="st4 st6">16</text>
	<text transform="matrix(1 0 0 1 309.4006 277.283)" class="st4 st6">15</text>
	<text transform="matrix(1 0 0 1 268.5681 253.8057)" class="st4 st6">15</text>
	<text transform="matrix(1 0 0 1 368.3315 265.2538)" class="st4 st6">25</text>
	<text transform="matrix(1 0 0 1 388.0403 277.2822)" class="st4 st6">15</text>
	<text transform="matrix(1 0 0 1 382.0006 335.371)" class="st4 st6">15</text>
	<text transform="matrix(1 0 0 1 275.5276 219.9684)" class="st4 st6">15</text>
	<text transform="matrix(1 0 0 1 249.1018 195.7136)" class="st4 st6">15</text>
	<text transform="matrix(1 0 0 1 448.5208 381.246)" class="st4 st6">07</text>
	<text transform="matrix(1 0 0 1 229.1432 230.5876)" class="st4 st6">05</text>
	<text transform="matrix(1 0 0 1 315.7474 311.2946)" class="st4 st6">05</text>
	<text transform="matrix(1 0 0 1 342.7691 219.9677)" class="st4 st6">05</text>
	<text transform="matrix(1 0 0 1 368.3312 242.2233)" class="st4 st6">05</text>
	<text transform="matrix(1 0 0 1 408.5722 358.4386)" class="st4 st6">05</text>
	<text transform="matrix(1 0 0 1 362.0807 346.2223)" class="st4 st6">05</text>
	<text transform="matrix(1 0 0 1 335.8458 323.3372)" class="st4 st6">05</text>
	<text transform="matrix(1 0 0 1 255.9141 207.4572)" class="st4 st6">05</text>
	<text transform="matrix(1 0 0 1 315.7473 195.7141)" class="st4 st6">05</text>
	<text transform="matrix(1 0 0 1 289.1943 173.1645)" class="st4 st6">05</text>
	<text transform="matrix(1 0 0 1 269.2473 137.6642)" class="st4 st6">05</text>
	<text transform="matrix(1 0 0 1 255.4141 161.2137)" class="st4 st6">05</text>
	<text transform="matrix(1 0 0 1 202.4807 184.5473)" class="st4 st6">05</text>
	<text transform="matrix(1 0 0 1 242.5982 115.7557)" class="st4 st6">05</text>
	<text transform="matrix(1 0 0 1 474.786 357.5745)" class="st4 st6">05</text>
	<text transform="matrix(1 0 0 1 474.7861 335.3708)" class="st4 st6">05</text>
	<text transform="matrix(1 0 0 1 355.6311 312.3874)" class="st4 st6">05</text>
	<text transform="matrix(1 0 0 1 488.9152 312.3877)" class="st4 st6">05</text>
	<text transform="matrix(1 0 0 1 215.0169 92.1309)" class="st4 st6">05</text>
	<text transform="matrix(1 0 0 1 96.1204 69.4509)" class="st4 st8">03</text>
	<text transform="matrix(1 0 0 1 495.016 323.3381)" class="st4 st6">01</text>
	<text transform="matrix(1 0 0 1 515.3795 312.388)" class="st4 st6">01</text>
	<text transform="matrix(1 0 0 1 509.5916 300.1489)" class="st4 st6">01</text>
	<text transform="matrix(1 0 0 1 468.7473 346.2237)" class="st4 st6">01</text>
	<text transform="matrix(1 0 0 1 315.7473 242.2237)" class="st4 st6">01</text>
	<text transform="matrix(1 0 0 1 355.6317 219.0252)" class="st4 st6">01</text>
	<text transform="matrix(1 0 0 1 376.2473 300.1486)" class="st4 st6">01</text>
	<text transform="matrix(1 0 0 1 316.414 334.3439)" class="st4 st6">01</text>
	<text transform="matrix(1 0 0 1 302.914 311.2949)" class="st4 st6">01</text>
	<text transform="matrix(1 0 0 1 302.0984 196.4737)" class="st4 st6">01</text>
	<text transform="matrix(1 0 0 1 316.4138 173.1642)" class="st4 st6">01</text>
	<text transform="matrix(1 0 0 1 309.3994 161.2138)" class="st4 st6">01</text>
	<text transform="matrix(1 0 0 1 295.2989 231.0211)" class="st4 st6">01</text>
	<text transform="matrix(1 0 0 1 269.2473 92.1322)" class="st4 st6">01</text>
	<text transform="matrix(1 0 0 1 262.2137 151.285)" class="st4 st6">01</text>
	<text transform="matrix(1 0 0 1 488.2181 334.344)" class="st4 st6">02</text>
	<text transform="matrix(1 0 0 1 508.3894 323.3384)" class="st4 st6">02</text>
	<text transform="matrix(1 0 0 1 482.2094 300.149)" class="st4 st6">02</text>
</g>
</svg>
