<?xml version="1.0" encoding="utf-8"?><svg xmlns="http://www.w3.org/2000/svg" width="1994" height="1380"><g id="Ciudad de México"><polygon points="960.1779092215162,766.6666666666667,980.6072264389952,754.8717948717949,1001.0365436564742,766.6666666666667,1001.0365436564742,790.2564102564104,980.6072264389952,802.0512820512822,960.1779092215162,790.2564102564104,960.1779092215162,766.6666666666667" fill="rgb(112, 245, 159)"/><polygon points="878.4606403515999,837.4358974358975,898.8899575690789,825.6410256410256,919.3192747865579,837.4358974358975,919.3192747865579,861.0256410256411,898.8899575690789,872.8205128205129,878.4606403515999,861.0256410256411,878.4606403515999,837.4358974358975" fill="rgb(112, 245, 159)"/><polygon points="878.4606403515999,908.2051282051282,898.8899575690789,896.4102564102564,919.3192747865579,908.2051282051282,919.3192747865579,931.7948717948718,898.8899575690789,943.5897435897436,878.4606403515999,931.7948717948718,878.4606403515999,908.2051282051282" fill="rgb(112, 245, 159)"/><polygon points="858.0313231341208,872.8205128205128,878.4606403515999,861.0256410256411,898.8899575690789,872.8205128205128,898.8899575690789,896.4102564102565,878.4606403515999,908.2051282051282,858.0313231341208,896.4102564102565,858.0313231341208,872.8205128205128" fill="rgb(112, 245, 159)"/><polygon points="919.319274786558,837.4358974358975,939.748592004037,825.6410256410256,960.1779092215161,837.4358974358975,960.1779092215161,861.0256410256411,939.748592004037,872.8205128205129,919.319274786558,861.0256410256411,919.319274786558,837.4358974358975" fill="rgb(112, 245, 159)"/><polygon points="898.889957569079,872.8205128205128,919.319274786558,861.0256410256411,939.748592004037,872.8205128205128,939.748592004037,896.4102564102565,919.319274786558,908.2051282051282,898.889957569079,896.4102564102565,898.889957569079,872.8205128205128" fill="rgb(112, 245, 159)"/><polygon points="919.319274786558,908.2051282051282,939.748592004037,896.4102564102564,960.1779092215161,908.2051282051282,960.1779092215161,931.7948717948718,939.748592004037,943.5897435897436,919.319274786558,931.7948717948718,919.319274786558,908.2051282051282" fill="rgb(112, 245, 159)"/><polygon points="939.7485920040372,802.0512820512821,960.1779092215162,790.2564102564104,980.6072264389952,802.0512820512821,980.6072264389952,825.6410256410257,960.1779092215162,837.4358974358975,939.7485920040372,825.6410256410257,939.7485920040372,802.0512820512821" fill="rgb(112, 245, 159)"/><polygon points="960.1779092215162,837.4358974358975,980.6072264389952,825.6410256410256,1001.0365436564742,837.4358974358975,1001.0365436564742,861.0256410256411,980.6072264389952,872.8205128205129,960.1779092215162,861.0256410256411,960.1779092215162,837.4358974358975" fill="rgb(112, 245, 159)"/><polygon points="939.7485920040372,872.8205128205128,960.1779092215162,861.0256410256411,980.6072264389952,872.8205128205128,980.6072264389952,896.4102564102565,960.1779092215162,908.2051282051282,939.7485920040372,896.4102564102565,939.7485920040372,872.8205128205128" fill="rgb(112, 245, 159)"/><polygon points="960.1779092215162,908.2051282051282,980.6072264389952,896.4102564102564,1001.0365436564742,908.2051282051282,1001.0365436564742,931.7948717948718,980.6072264389952,943.5897435897436,960.1779092215162,931.7948717948718,960.1779092215162,908.2051282051282" fill="rgb(112, 245, 159)"/><polygon points="939.7485920040372,943.5897435897436,960.1779092215162,931.7948717948718,980.6072264389952,943.5897435897436,980.6072264389952,967.1794871794873,960.1779092215162,978.9743589743591,939.7485920040372,967.1794871794873,939.7485920040372,943.5897435897436" fill="rgb(112, 245, 159)"/><polygon points="960.1779092215162,978.974358974359,980.6072264389952,967.1794871794873,1001.0365436564742,978.974358974359,1001.0365436564742,1002.5641025641027,980.6072264389952,1014.3589743589744,960.1779092215162,1002.5641025641027,960.1779092215162,978.974358974359" fill="rgb(112, 245, 159)"/><polygon points="980.6072264389952,802.0512820512821,1001.0365436564742,790.2564102564104,1021.4658608739533,802.0512820512821,1021.4658608739533,825.6410256410257,1001.0365436564742,837.4358974358975,980.6072264389952,825.6410256410257,980.6072264389952,802.0512820512821" fill="rgb(112, 245, 159)"/><polygon points="1001.0365436564744,837.4358974358975,1021.4658608739534,825.6410256410256,1041.8951780914324,837.4358974358975,1041.8951780914324,861.0256410256411,1021.4658608739534,872.8205128205129,1001.0365436564744,861.0256410256411,1001.0365436564744,837.4358974358975" fill="rgb(112, 245, 159)"/><polygon points="980.6072264389952,872.8205128205128,1001.0365436564742,861.0256410256411,1021.4658608739533,872.8205128205128,1021.4658608739533,896.4102564102565,1001.0365436564742,908.2051282051282,980.6072264389952,896.4102564102565,980.6072264389952,872.8205128205128" fill="rgb(112, 245, 159)"/><polygon points="1001.0365436564744,908.2051282051282,1021.4658608739534,896.4102564102564,1041.8951780914324,908.2051282051282,1041.8951780914324,931.7948717948718,1021.4658608739534,943.5897435897436,1001.0365436564744,931.7948717948718,1001.0365436564744,908.2051282051282" fill="rgb(112, 245, 159)"/><polygon points="980.6072264389952,943.5897435897436,1001.0365436564742,931.7948717948718,1021.4658608739533,943.5897435897436,1021.4658608739533,967.1794871794873,1001.0365436564742,978.9743589743591,980.6072264389952,967.1794871794873,980.6072264389952,943.5897435897436" fill="rgb(112, 245, 159)"/><polygon points="1001.0365436564744,978.974358974359,1021.4658608739534,967.1794871794873,1041.8951780914324,978.974358974359,1041.8951780914324,1002.5641025641027,1021.4658608739534,1014.3589743589744,1001.0365436564744,1002.5641025641027,1001.0365436564744,978.974358974359" fill="rgb(112, 245, 159)"/><polygon points="1041.8951780914324,837.4358974358975,1062.3244953089115,825.6410256410256,1082.7538125263907,837.4358974358975,1082.7538125263907,861.0256410256411,1062.3244953089115,872.8205128205129,1041.8951780914324,861.0256410256411,1041.8951780914324,837.4358974358975" fill="rgb(112, 245, 159)"/><polygon points="1021.4658608739534,872.8205128205128,1041.8951780914324,861.0256410256411,1062.3244953089115,872.8205128205128,1062.3244953089115,896.4102564102565,1041.8951780914324,908.2051282051282,1021.4658608739534,896.4102564102565,1021.4658608739534,872.8205128205128" fill="rgb(112, 245, 159)"/><polygon points="1021.4658608739534,943.5897435897436,1041.8951780914324,931.7948717948718,1062.3244953089115,943.5897435897436,1062.3244953089115,967.1794871794873,1041.8951780914324,978.9743589743591,1021.4658608739534,967.1794871794873,1021.4658608739534,943.5897435897436" fill="rgb(112, 245, 159)"/><polygon points="1041.8951780914324,908.2051282051282,1062.3244953089115,896.4102564102564,1082.7538125263907,908.2051282051282,1082.7538125263907,931.7948717948718,1062.3244953089115,943.5897435897436,1041.8951780914324,931.7948717948718,1041.8951780914324,908.2051282051282" fill="rgb(112, 245, 159)"/><polygon points="1062.3244953089113,872.8205128205128,1082.7538125263904,861.0256410256411,1103.1831297438696,872.8205128205128,1103.1831297438696,896.4102564102565,1082.7538125263904,908.2051282051282,1062.3244953089113,896.4102564102565,1062.3244953089113,872.8205128205128" fill="rgb(112, 245, 159)"/></g><g id="Zacatecas"><polygon points="694.5967853942883,448.2051282051282,715.0261026117673,436.4102564102564,735.4554198292464,448.2051282051282,735.4554198292464,471.7948717948718,715.0261026117673,483.5897435897436,694.5967853942883,471.7948717948718,694.5967853942883,448.2051282051282" fill="rgb(112, 245, 131)"/><polygon points="674.1674681768093,412.8205128205128,694.5967853942883,401.02564102564105,715.0261026117673,412.8205128205128,715.0261026117673,436.41025641025647,694.5967853942883,448.20512820512823,674.1674681768093,436.41025641025647,674.1674681768093,412.8205128205128" fill="rgb(112, 245, 131)"/><polygon points="694.5967853942883,377.43589743589746,715.0261026117673,365.6410256410257,735.4554198292464,377.43589743589746,735.4554198292464,401.0256410256411,715.0261026117673,412.8205128205129,694.5967853942883,401.0256410256411,694.5967853942883,377.43589743589746" fill="rgb(112, 245, 131)"/><polygon points="715.0261026117674,412.8205128205128,735.4554198292465,401.02564102564105,755.8847370467255,412.8205128205128,755.8847370467255,436.41025641025647,735.4554198292465,448.20512820512823,715.0261026117674,436.41025641025647,715.0261026117674,412.8205128205128" fill="rgb(112, 245, 131)"/></g><g id="Oaxaca"><polygon points="1184.900398613786,1155.897435897436,1205.329715831265,1144.1025641025642,1225.7590330487442,1155.897435897436,1225.7590330487442,1179.4871794871797,1205.329715831265,1191.2820512820515,1184.900398613786,1179.4871794871797,1184.900398613786,1155.897435897436" fill="rgb(112, 245, 117)"/><polygon points="1144.0417641788276,1085.128205128205,1164.4710813963068,1073.3333333333333,1184.900398613786,1085.128205128205,1184.900398613786,1108.7179487179487,1164.4710813963068,1120.5128205128206,1144.0417641788276,1108.7179487179487,1144.0417641788276,1085.128205128205" fill="rgb(112, 245, 117)"/><polygon points="1123.6124469613485,1120.5128205128206,1144.0417641788276,1108.7179487179487,1164.4710813963068,1120.5128205128206,1164.4710813963068,1144.1025641025642,1144.0417641788276,1155.897435897436,1123.6124469613485,1144.1025641025642,1123.6124469613485,1120.5128205128206" fill="rgb(112, 245, 117)"/><polygon points="1144.0417641788276,1155.897435897436,1164.4710813963068,1144.1025641025642,1184.900398613786,1155.897435897436,1184.900398613786,1179.4871794871797,1164.4710813963068,1191.2820512820515,1144.0417641788276,1179.4871794871797,1144.0417641788276,1155.897435897436" fill="rgb(112, 245, 117)"/><polygon points="1246.188350266223,1120.5128205128206,1266.6176674837022,1108.7179487179487,1287.0469847011814,1120.5128205128206,1287.0469847011814,1144.1025641025642,1266.6176674837022,1155.897435897436,1246.188350266223,1144.1025641025642,1246.188350266223,1120.5128205128206" fill="rgb(112, 245, 117)"/><polygon points="1225.759033048744,1085.128205128205,1246.188350266223,1073.3333333333333,1266.6176674837022,1085.128205128205,1266.6176674837022,1108.7179487179487,1246.188350266223,1120.5128205128206,1225.759033048744,1108.7179487179487,1225.759033048744,1085.128205128205" fill="rgb(112, 245, 117)"/><polygon points="1205.3297158312648,1120.5128205128206,1225.759033048744,1108.7179487179487,1246.188350266223,1120.5128205128206,1246.188350266223,1144.1025641025642,1225.759033048744,1155.897435897436,1205.3297158312648,1144.1025641025642,1205.3297158312648,1120.5128205128206" fill="rgb(112, 245, 117)"/><polygon points="1184.900398613786,1085.128205128205,1205.329715831265,1073.3333333333333,1225.7590330487442,1085.128205128205,1225.7590330487442,1108.7179487179487,1205.329715831265,1120.5128205128206,1184.900398613786,1108.7179487179487,1184.900398613786,1085.128205128205" fill="rgb(112, 245, 117)"/><polygon points="1164.4710813963068,1120.5128205128206,1184.900398613786,1108.7179487179487,1205.329715831265,1120.5128205128206,1205.329715831265,1144.1025641025642,1184.900398613786,1155.897435897436,1164.4710813963068,1144.1025641025642,1164.4710813963068,1120.5128205128206" fill="rgb(112, 245, 117)"/><polygon points="1287.0469847011811,1120.5128205128206,1307.4763019186603,1108.7179487179487,1327.9056191361394,1120.5128205128206,1327.9056191361394,1144.1025641025642,1307.4763019186603,1155.897435897436,1287.0469847011811,1144.1025641025642,1287.0469847011811,1120.5128205128206" fill="rgb(112, 245, 117)"/></g><g id="Sinaloa"><polygon points="572.0208820894139,377.43589743589746,592.450199306893,365.6410256410257,612.879516524372,377.43589743589746,612.879516524372,401.0256410256411,592.450199306893,412.8205128205129,572.0208820894139,401.0256410256411,572.0208820894139,377.43589743589746" fill="rgb(129, 245, 112)"/><polygon points="510.7329304369767,342.0512820512821,531.1622476544558,330.2564102564103,551.5915648719348,342.0512820512821,551.5915648719348,365.64102564102564,531.1622476544558,377.43589743589746,510.7329304369767,365.64102564102564,510.7329304369767,342.0512820512821" fill="rgb(129, 245, 112)"/><polygon points="551.5915648719348,342.0512820512821,572.0208820894138,330.2564102564103,592.4501993068928,342.0512820512821,592.4501993068928,365.64102564102564,572.0208820894138,377.43589743589746,551.5915648719348,365.64102564102564,551.5915648719348,342.0512820512821" fill="rgb(129, 245, 112)"/><polygon points="490.3036132194976,306.66666666666663,510.7329304369767,294.87179487179486,531.1622476544558,306.66666666666663,531.1622476544558,330.2564102564103,510.7329304369767,342.05128205128204,490.3036132194976,330.2564102564103,490.3036132194976,306.66666666666663" fill="rgb(129, 245, 112)"/><polygon points="531.1622476544558,306.66666666666663,551.5915648719348,294.87179487179486,572.0208820894138,306.66666666666663,572.0208820894138,330.2564102564103,551.5915648719348,342.05128205128204,531.1622476544558,330.2564102564103,531.1622476544558,306.66666666666663" fill="rgb(129, 245, 112)"/><polygon points="592.450199306893,412.8205128205128,612.879516524372,401.02564102564105,633.308833741851,412.8205128205128,633.308833741851,436.41025641025647,612.879516524372,448.20512820512823,592.450199306893,436.41025641025647,592.450199306893,412.8205128205128" fill="rgb(129, 245, 112)"/><polygon points="612.8795165243721,448.2051282051282,633.3088337418511,436.4102564102564,653.7381509593301,448.2051282051282,653.7381509593301,471.7948717948718,633.3088337418511,483.5897435897436,612.8795165243721,471.7948717948718,612.8795165243721,448.2051282051282" fill="rgb(129, 245, 112)"/></g><g id="Baja California"><polygon points="245.1518066097488,165.12820512820514,265.5811238272279,153.33333333333334,286.01044104470697,165.12820512820514,286.01044104470697,188.71794871794873,265.5811238272279,200.51282051282053,245.1518066097488,188.71794871794873,245.1518066097488,165.12820512820514" fill="rgb(171, 245, 112)"/><polygon points="224.72248939226972,200.51282051282053,245.1518066097488,188.71794871794873,265.5811238272279,200.51282051282053,265.5811238272279,224.10256410256412,245.1518066097488,235.8974358974359,224.72248939226972,224.10256410256412,224.72248939226972,200.51282051282053" fill="rgb(171, 245, 112)"/><polygon points="306.439758262186,200.51282051282053,326.86907547966507,188.71794871794873,347.29839269714415,200.51282051282053,347.29839269714415,224.10256410256412,326.86907547966507,235.8974358974359,306.439758262186,224.10256410256412,306.439758262186,200.51282051282053" fill="rgb(171, 245, 112)"/><polygon points="286.0104410447069,165.12820512820514,306.439758262186,153.33333333333334,326.86907547966507,165.12820512820514,326.86907547966507,188.71794871794873,306.439758262186,200.51282051282053,286.0104410447069,188.71794871794873,286.0104410447069,165.12820512820514" fill="rgb(171, 245, 112)"/><polygon points="265.5811238272278,200.51282051282053,286.0104410447069,188.71794871794873,306.439758262186,200.51282051282053,306.439758262186,224.10256410256412,286.0104410447069,235.8974358974359,265.5811238272278,224.10256410256412,265.5811238272278,200.51282051282053" fill="rgb(171, 245, 112)"/><polygon points="286.0104410447069,235.8974358974359,306.439758262186,224.10256410256412,326.86907547966507,235.8974358974359,326.86907547966507,259.4871794871795,306.439758262186,271.28205128205127,286.0104410447069,259.4871794871795,286.0104410447069,235.8974358974359" fill="rgb(171, 245, 112)"/><polygon points="326.86907547966507,165.12820512820514,347.29839269714415,153.33333333333334,367.72770991462323,165.12820512820514,367.72770991462323,188.71794871794873,347.29839269714415,200.51282051282053,326.86907547966507,188.71794871794873,326.86907547966507,165.12820512820514" fill="rgb(171, 245, 112)"/><polygon points="204.29317217479064,165.12820512820514,224.72248939226972,153.33333333333334,245.1518066097488,165.12820512820514,245.1518066097488,188.71794871794873,224.72248939226972,200.51282051282053,204.29317217479064,188.71794871794873,204.29317217479064,165.12820512820514" fill="rgb(171, 245, 112)"/></g><g id="Nayarit"><polygon points="674.1674681768093,483.58974358974365,694.5967853942883,471.7948717948718,715.0261026117673,483.58974358974365,715.0261026117673,507.1794871794872,694.5967853942883,518.974358974359,674.1674681768093,507.1794871794872,674.1674681768093,483.58974358974365" fill="rgb(193, 245, 112)"/><polygon points="653.7381509593301,448.2051282051282,674.1674681768092,436.4102564102564,694.5967853942882,448.2051282051282,694.5967853942882,471.7948717948718,674.1674681768092,483.5897435897436,653.7381509593301,471.7948717948718,653.7381509593301,448.2051282051282" fill="rgb(193, 245, 112)"/><polygon points="633.3088337418511,483.58974358974365,653.7381509593301,471.7948717948718,674.1674681768092,483.58974358974365,674.1674681768092,507.1794871794872,653.7381509593301,518.974358974359,633.3088337418511,507.1794871794872,633.3088337418511,483.58974358974365" fill="rgb(193, 245, 112)"/></g><g id="Querétaro"><polygon points="858.0313231341208,518.974358974359,878.4606403515999,507.17948717948724,898.8899575690789,518.974358974359,898.8899575690789,542.5641025641027,878.4606403515999,554.3589743589744,858.0313231341208,542.5641025641027,858.0313231341208,518.974358974359" fill="rgb(200, 245, 112)"/><polygon points="939.7485920040372,518.974358974359,960.1779092215162,507.17948717948724,980.6072264389952,518.974358974359,980.6072264389952,542.5641025641027,960.1779092215162,554.3589743589744,939.7485920040372,542.5641025641027,939.7485920040372,518.974358974359" fill="rgb(200, 245, 112)"/><polygon points="898.889957569079,518.974358974359,919.319274786558,507.17948717948724,939.748592004037,518.974358974359,939.748592004037,542.5641025641027,919.319274786558,554.3589743589744,898.889957569079,542.5641025641027,898.889957569079,518.974358974359" fill="rgb(200, 245, 112)"/><polygon points="878.4606403515999,554.3589743589744,898.8899575690789,542.5641025641025,919.3192747865579,554.3589743589744,919.3192747865579,577.948717948718,898.8899575690789,589.7435897435898,878.4606403515999,577.948717948718,878.4606403515999,554.3589743589744" fill="rgb(200, 245, 112)"/><polygon points="919.319274786558,554.3589743589744,939.748592004037,542.5641025641025,960.1779092215161,554.3589743589744,960.1779092215161,577.948717948718,939.748592004037,589.7435897435898,919.319274786558,577.948717948718,919.319274786558,554.3589743589744" fill="rgb(200, 245, 112)"/></g><g id="Chiapas"><polygon points="1327.9056191361392,1120.5128205128206,1348.3349363536183,1108.7179487179487,1368.7642535710975,1120.5128205128206,1368.7642535710975,1144.1025641025642,1348.3349363536183,1155.897435897436,1327.9056191361392,1144.1025641025642,1327.9056191361392,1120.5128205128206" fill="rgb(221, 245, 112)"/><polygon points="1348.3349363536183,1085.128205128205,1368.7642535710975,1073.3333333333333,1389.1935707885766,1085.128205128205,1389.1935707885766,1108.7179487179487,1368.7642535710975,1120.5128205128206,1348.3349363536183,1108.7179487179487,1348.3349363536183,1085.128205128205" fill="rgb(221, 245, 112)"/><polygon points="1368.7642535710975,1120.5128205128206,1389.1935707885766,1108.7179487179487,1409.6228880060557,1120.5128205128206,1409.6228880060557,1144.1025641025642,1389.1935707885766,1155.897435897436,1368.7642535710975,1144.1025641025642,1368.7642535710975,1120.5128205128206" fill="rgb(221, 245, 112)"/><polygon points="1348.3349363536183,1155.897435897436,1368.7642535710975,1144.1025641025642,1389.1935707885766,1155.897435897436,1389.1935707885766,1179.4871794871797,1368.7642535710975,1191.2820512820515,1348.3349363536183,1179.4871794871797,1348.3349363536183,1155.897435897436" fill="rgb(221, 245, 112)"/><polygon points="1368.7642535710975,1191.2820512820513,1389.1935707885766,1179.4871794871794,1409.6228880060557,1191.2820512820513,1409.6228880060557,1214.871794871795,1389.1935707885766,1226.6666666666667,1368.7642535710975,1214.871794871795,1368.7642535710975,1191.2820512820513" fill="rgb(221, 245, 112)"/><polygon points="1409.6228880060555,1120.5128205128206,1430.0522052235347,1108.7179487179487,1450.4815224410138,1120.5128205128206,1450.4815224410138,1144.1025641025642,1430.0522052235347,1155.897435897436,1409.6228880060555,1144.1025641025642,1409.6228880060555,1120.5128205128206" fill="rgb(221, 245, 112)"/><polygon points="1389.1935707885764,1155.897435897436,1409.6228880060555,1144.1025641025642,1430.0522052235347,1155.897435897436,1430.0522052235347,1179.4871794871797,1409.6228880060555,1191.2820512820515,1389.1935707885764,1179.4871794871797,1389.1935707885764,1155.897435897436" fill="rgb(221, 245, 112)"/><polygon points="1409.6228880060555,1191.2820512820513,1430.0522052235347,1179.4871794871794,1450.4815224410138,1191.2820512820513,1450.4815224410138,1214.871794871795,1430.0522052235347,1226.6666666666667,1409.6228880060555,1214.871794871795,1409.6228880060555,1191.2820512820513" fill="rgb(221, 245, 112)"/><polygon points="1450.4815224410138,1120.5128205128206,1470.910839658493,1108.7179487179487,1491.340156875972,1120.5128205128206,1491.340156875972,1144.1025641025642,1470.910839658493,1155.897435897436,1450.4815224410138,1144.1025641025642,1450.4815224410138,1120.5128205128206" fill="rgb(221, 245, 112)"/><polygon points="1430.0522052235347,1155.897435897436,1450.4815224410138,1144.1025641025642,1470.910839658493,1155.897435897436,1470.910839658493,1179.4871794871797,1450.4815224410138,1191.2820512820515,1430.0522052235347,1179.4871794871797,1430.0522052235347,1155.897435897436" fill="rgb(221, 245, 112)"/><polygon points="1389.1935707885764,1226.6666666666667,1409.6228880060555,1214.871794871795,1430.0522052235347,1226.6666666666667,1430.0522052235347,1250.2564102564104,1409.6228880060555,1262.0512820512822,1389.1935707885764,1250.2564102564104,1389.1935707885764,1226.6666666666667" fill="rgb(221, 245, 112)"/><polygon points="1470.9108396584927,1155.897435897436,1491.3401568759718,1144.1025641025642,1511.769474093451,1155.897435897436,1511.769474093451,1179.4871794871797,1491.3401568759718,1191.2820512820515,1470.9108396584927,1179.4871794871797,1470.9108396584927,1155.897435897436" fill="rgb(221, 245, 112)"/><polygon points="1430.0522052235347,1085.128205128205,1450.4815224410138,1073.3333333333333,1470.910839658493,1085.128205128205,1470.910839658493,1108.7179487179487,1450.4815224410138,1120.5128205128206,1430.0522052235347,1108.7179487179487,1430.0522052235347,1085.128205128205" fill="rgb(221, 245, 112)"/></g><g id="Morelos"><polygon points="919.319274786558,978.974358974359,939.748592004037,967.1794871794873,960.1779092215161,978.974358974359,960.1779092215161,1002.5641025641027,939.748592004037,1014.3589743589744,919.319274786558,1002.5641025641027,919.319274786558,978.974358974359" fill="rgb(228, 245, 112)"/><polygon points="898.889957569079,1014.3589743589744,919.319274786558,1002.5641025641025,939.748592004037,1014.3589743589744,939.748592004037,1037.948717948718,919.319274786558,1049.7435897435898,898.889957569079,1037.948717948718,898.889957569079,1014.3589743589744" fill="rgb(228, 245, 112)"/><polygon points="1021.4658608739534,1014.3589743589744,1041.8951780914324,1002.5641025641025,1062.3244953089115,1014.3589743589744,1062.3244953089115,1037.948717948718,1041.8951780914324,1049.7435897435898,1021.4658608739534,1037.948717948718,1021.4658608739534,1014.3589743589744" fill="rgb(228, 245, 112)"/><polygon points="980.6072264389952,1014.3589743589744,1001.0365436564742,1002.5641025641025,1021.4658608739533,1014.3589743589744,1021.4658608739533,1037.948717948718,1001.0365436564742,1049.7435897435898,980.6072264389952,1037.948717948718,980.6072264389952,1014.3589743589744" fill="rgb(228, 245, 112)"/><polygon points="939.7485920040372,1014.3589743589744,960.1779092215162,1002.5641025641025,980.6072264389952,1014.3589743589744,980.6072264389952,1037.948717948718,960.1779092215162,1049.7435897435898,939.7485920040372,1037.948717948718,939.7485920040372,1014.3589743589744" fill="rgb(228, 245, 112)"/></g><g id="Michoacán"><polygon points="715.0261026117674,837.4358974358975,735.4554198292465,825.6410256410256,755.8847370467255,837.4358974358975,755.8847370467255,861.0256410256411,735.4554198292465,872.8205128205129,715.0261026117674,861.0256410256411,715.0261026117674,837.4358974358975" fill="rgb(243, 245, 112)"/><polygon points="735.4554198292465,731.2820512820513,755.8847370467255,719.4871794871794,776.3140542642045,731.2820512820513,776.3140542642045,754.8717948717949,755.8847370467255,766.6666666666667,735.4554198292465,754.8717948717949,735.4554198292465,731.2820512820513" fill="rgb(243, 245, 112)"/><polygon points="694.5967853942883,731.2820512820513,715.0261026117673,719.4871794871794,735.4554198292464,731.2820512820513,735.4554198292464,754.8717948717949,715.0261026117673,766.6666666666667,694.5967853942883,754.8717948717949,694.5967853942883,731.2820512820513" fill="rgb(243, 245, 112)"/><polygon points="653.7381509593301,731.2820512820513,674.1674681768092,719.4871794871794,694.5967853942882,731.2820512820513,694.5967853942882,754.8717948717949,674.1674681768092,766.6666666666667,653.7381509593301,754.8717948717949,653.7381509593301,731.2820512820513" fill="rgb(243, 245, 112)"/><polygon points="674.1674681768093,766.6666666666667,694.5967853942883,754.8717948717949,715.0261026117673,766.6666666666667,715.0261026117673,790.2564102564104,694.5967853942883,802.0512820512822,674.1674681768093,790.2564102564104,674.1674681768093,766.6666666666667" fill="rgb(243, 245, 112)"/><polygon points="694.5967853942883,802.0512820512821,715.0261026117673,790.2564102564104,735.4554198292464,802.0512820512821,735.4554198292464,825.6410256410257,715.0261026117673,837.4358974358975,694.5967853942883,825.6410256410257,694.5967853942883,802.0512820512821" fill="rgb(243, 245, 112)"/><polygon points="715.0261026117674,766.6666666666667,735.4554198292465,754.8717948717949,755.8847370467255,766.6666666666667,755.8847370467255,790.2564102564104,735.4554198292465,802.0512820512822,715.0261026117674,790.2564102564104,715.0261026117674,766.6666666666667" fill="rgb(243, 245, 112)"/><polygon points="735.4554198292465,802.0512820512821,755.8847370467255,790.2564102564104,776.3140542642045,802.0512820512821,776.3140542642045,825.6410256410257,755.8847370467255,837.4358974358975,735.4554198292465,825.6410256410257,735.4554198292465,802.0512820512821" fill="rgb(243, 245, 112)"/><polygon points="755.8847370467255,766.6666666666667,776.3140542642045,754.8717948717949,796.7433714816835,766.6666666666667,796.7433714816835,790.2564102564104,776.3140542642045,802.0512820512822,755.8847370467255,790.2564102564104,755.8847370467255,766.6666666666667" fill="rgb(243, 245, 112)"/><polygon points="776.3140542642046,802.0512820512821,796.7433714816837,790.2564102564104,817.1726886991627,802.0512820512821,817.1726886991627,825.6410256410257,796.7433714816837,837.4358974358975,776.3140542642046,825.6410256410257,776.3140542642046,802.0512820512821" fill="rgb(243, 245, 112)"/><polygon points="755.8847370467255,837.4358974358975,776.3140542642045,825.6410256410256,796.7433714816835,837.4358974358975,796.7433714816835,861.0256410256411,776.3140542642045,872.8205128205129,755.8847370467255,861.0256410256411,755.8847370467255,837.4358974358975" fill="rgb(243, 245, 112)"/><polygon points="796.7433714816837,766.6666666666667,817.1726886991627,754.8717948717949,837.6020059166417,766.6666666666667,837.6020059166417,790.2564102564104,817.1726886991627,802.0512820512822,796.7433714816837,790.2564102564104,796.7433714816837,766.6666666666667" fill="rgb(243, 245, 112)"/></g><g id="Campeche"><polygon points="1511.769474093451,1014.3589743589744,1532.1987913109301,1002.5641025641025,1552.6281085284093,1014.3589743589744,1552.6281085284093,1037.948717948718,1532.1987913109301,1049.7435897435898,1511.769474093451,1037.948717948718,1511.769474093451,1014.3589743589744" fill="rgb(245, 240, 112)"/><polygon points="1491.3401568759718,1049.7435897435898,1511.769474093451,1037.948717948718,1532.1987913109301,1049.7435897435898,1532.1987913109301,1073.3333333333335,1511.769474093451,1085.1282051282053,1491.3401568759718,1073.3333333333335,1491.3401568759718,1049.7435897435898" fill="rgb(245, 240, 112)"/></g><g id="Guanajuato"><polygon points="817.1726886991627,731.2820512820513,837.6020059166417,719.4871794871794,858.0313231341207,731.2820512820513,858.0313231341207,754.8717948717949,837.6020059166417,766.6666666666667,817.1726886991627,754.8717948717949,817.1726886991627,731.2820512820513" fill="rgb(245, 233, 112)"/><polygon points="796.7433714816837,695.8974358974359,817.1726886991627,684.1025641025642,837.6020059166417,695.8974358974359,837.6020059166417,719.4871794871796,817.1726886991627,731.2820512820513,796.7433714816837,719.4871794871796,796.7433714816837,695.8974358974359" fill="rgb(245, 233, 112)"/><polygon points="817.1726886991627,589.7435897435897,837.6020059166417,577.948717948718,858.0313231341207,589.7435897435897,858.0313231341207,613.3333333333334,837.6020059166417,625.1282051282051,817.1726886991627,613.3333333333334,817.1726886991627,589.7435897435897" fill="rgb(245, 233, 112)"/><polygon points="796.7433714816837,625.1282051282051,817.1726886991627,613.3333333333333,837.6020059166417,625.1282051282051,837.6020059166417,648.7179487179487,817.1726886991627,660.5128205128206,796.7433714816837,648.7179487179487,796.7433714816837,625.1282051282051" fill="rgb(245, 233, 112)"/><polygon points="817.1726886991627,660.5128205128206,837.6020059166417,648.7179487179487,858.0313231341207,660.5128205128206,858.0313231341207,684.1025641025642,837.6020059166417,695.897435897436,817.1726886991627,684.1025641025642,817.1726886991627,660.5128205128206" fill="rgb(245, 233, 112)"/><polygon points="776.3140542642046,731.2820512820513,796.7433714816837,719.4871794871794,817.1726886991627,731.2820512820513,817.1726886991627,754.8717948717949,796.7433714816837,766.6666666666667,776.3140542642046,754.8717948717949,776.3140542642046,731.2820512820513" fill="rgb(245, 233, 112)"/><polygon points="837.6020059166418,625.1282051282051,858.0313231341208,613.3333333333333,878.4606403515999,625.1282051282051,878.4606403515999,648.7179487179487,858.0313231341208,660.5128205128206,837.6020059166418,648.7179487179487,837.6020059166418,625.1282051282051" fill="rgb(245, 233, 112)"/><polygon points="858.0313231341208,660.5128205128206,878.4606403515999,648.7179487179487,898.8899575690789,660.5128205128206,898.8899575690789,684.1025641025642,878.4606403515999,695.897435897436,858.0313231341208,684.1025641025642,858.0313231341208,660.5128205128206" fill="rgb(245, 233, 112)"/><polygon points="837.6020059166418,695.8974358974359,858.0313231341208,684.1025641025642,878.4606403515999,695.8974358974359,878.4606403515999,719.4871794871796,858.0313231341208,731.2820512820513,837.6020059166418,719.4871794871796,837.6020059166418,695.8974358974359" fill="rgb(245, 233, 112)"/><polygon points="919.319274786558,695.8974358974359,939.748592004037,684.1025641025642,960.1779092215161,695.8974358974359,960.1779092215161,719.4871794871796,939.748592004037,731.2820512820513,919.319274786558,719.4871794871796,919.319274786558,695.8974358974359" fill="rgb(245, 233, 112)"/><polygon points="776.3140542642046,660.5128205128206,796.7433714816837,648.7179487179487,817.1726886991627,660.5128205128206,817.1726886991627,684.1025641025642,796.7433714816837,695.897435897436,776.3140542642046,684.1025641025642,776.3140542642046,660.5128205128206" fill="rgb(245, 233, 112)"/><polygon points="878.4606403515999,625.1282051282051,898.8899575690789,613.3333333333333,919.3192747865579,625.1282051282051,919.3192747865579,648.7179487179487,898.8899575690789,660.5128205128206,878.4606403515999,648.7179487179487,878.4606403515999,625.1282051282051" fill="rgb(245, 233, 112)"/><polygon points="898.889957569079,660.5128205128206,919.319274786558,648.7179487179487,939.748592004037,660.5128205128206,939.748592004037,684.1025641025642,919.319274786558,695.897435897436,898.889957569079,684.1025641025642,898.889957569079,660.5128205128206" fill="rgb(245, 233, 112)"/><polygon points="878.4606403515999,695.8974358974359,898.8899575690789,684.1025641025642,919.3192747865579,695.8974358974359,919.3192747865579,719.4871794871796,898.8899575690789,731.2820512820513,878.4606403515999,719.4871794871796,878.4606403515999,695.8974358974359" fill="rgb(245, 233, 112)"/><polygon points="919.319274786558,625.1282051282051,939.748592004037,613.3333333333333,960.1779092215161,625.1282051282051,960.1779092215161,648.7179487179487,939.748592004037,660.5128205128206,919.319274786558,648.7179487179487,919.319274786558,625.1282051282051" fill="rgb(245, 233, 112)"/></g><g id="Coahuila"><polygon points="735.4554198292465,306.66666666666663,755.8847370467255,294.87179487179486,776.3140542642045,306.66666666666663,776.3140542642045,330.2564102564103,755.8847370467255,342.05128205128204,735.4554198292465,330.2564102564103,735.4554198292465,306.66666666666663" fill="rgb(245, 226, 112)"/><polygon points="715.0261026117674,271.28205128205127,735.4554198292465,259.4871794871795,755.8847370467255,271.28205128205127,755.8847370467255,294.8717948717949,735.4554198292465,306.6666666666667,715.0261026117674,294.8717948717949,715.0261026117674,271.28205128205127" fill="rgb(245, 226, 112)"/><polygon points="674.1674681768093,271.28205128205127,694.5967853942883,259.4871794871795,715.0261026117673,271.28205128205127,715.0261026117673,294.8717948717949,694.5967853942883,306.6666666666667,674.1674681768093,294.8717948717949,674.1674681768093,271.28205128205127" fill="rgb(245, 226, 112)"/><polygon points="694.5967853942883,235.8974358974359,715.0261026117673,224.10256410256412,735.4554198292464,235.8974358974359,735.4554198292464,259.4871794871795,715.0261026117673,271.28205128205127,694.5967853942883,259.4871794871795,694.5967853942883,235.8974358974359" fill="rgb(245, 226, 112)"/><polygon points="653.7381509593301,306.66666666666663,674.1674681768092,294.87179487179486,694.5967853942882,306.66666666666663,694.5967853942882,330.2564102564103,674.1674681768092,342.05128205128204,653.7381509593301,330.2564102564103,653.7381509593301,306.66666666666663" fill="rgb(245, 226, 112)"/><polygon points="674.1674681768093,342.0512820512821,694.5967853942883,330.2564102564103,715.0261026117673,342.0512820512821,715.0261026117673,365.64102564102564,694.5967853942883,377.43589743589746,674.1674681768093,365.64102564102564,674.1674681768093,342.0512820512821" fill="rgb(245, 226, 112)"/><polygon points="694.5967853942883,306.66666666666663,715.0261026117673,294.87179487179486,735.4554198292464,306.66666666666663,735.4554198292464,330.2564102564103,715.0261026117673,342.05128205128204,694.5967853942883,330.2564102564103,694.5967853942883,306.66666666666663" fill="rgb(245, 226, 112)"/></g><g id="Sonora"><polygon points="449.44497878453944,235.8974358974359,469.8742960020185,224.10256410256412,490.3036132194976,235.8974358974359,490.3036132194976,259.4871794871795,469.8742960020185,271.28205128205127,449.44497878453944,259.4871794871795,449.44497878453944,235.8974358974359" fill="rgb(245, 219, 112)"/><polygon points="429.01566156706036,200.51282051282053,449.44497878453944,188.71794871794873,469.8742960020185,200.51282051282053,469.8742960020185,224.10256410256412,449.44497878453944,235.8974358974359,429.01566156706036,224.10256410256412,429.01566156706036,200.51282051282053" fill="rgb(245, 219, 112)"/><polygon points="408.58634434958134,235.8974358974359,429.0156615670604,224.10256410256412,449.4449787845395,235.8974358974359,449.4449787845395,259.4871794871795,429.0156615670604,271.28205128205127,408.58634434958134,259.4871794871795,408.58634434958134,235.8974358974359" fill="rgb(245, 219, 112)"/><polygon points="388.15702713210226,200.51282051282053,408.58634434958134,188.71794871794873,429.0156615670604,200.51282051282053,429.0156615670604,224.10256410256412,408.58634434958134,235.8974358974359,388.15702713210226,224.10256410256412,388.15702713210226,200.51282051282053" fill="rgb(245, 219, 112)"/><polygon points="367.7277099146232,165.12820512820514,388.15702713210226,153.33333333333334,408.58634434958134,165.12820512820514,408.58634434958134,188.71794871794873,388.15702713210226,200.51282051282053,367.7277099146232,188.71794871794873,367.7277099146232,165.12820512820514" fill="rgb(245, 219, 112)"/><polygon points="408.58634434958134,165.12820512820514,429.0156615670604,153.33333333333334,449.4449787845395,165.12820512820514,449.4449787845395,188.71794871794873,429.0156615670604,200.51282051282053,408.58634434958134,188.71794871794873,408.58634434958134,165.12820512820514" fill="rgb(245, 219, 112)"/><polygon points="469.8742960020185,271.28205128205127,490.3036132194976,259.4871794871795,510.7329304369767,271.28205128205127,510.7329304369767,294.8717948717949,490.3036132194976,306.6666666666667,469.8742960020185,294.8717948717949,469.8742960020185,271.28205128205127" fill="rgb(245, 219, 112)"/></g><g id="Veracruz"><polygon points="1123.6124469613485,766.6666666666667,1144.0417641788276,754.8717948717949,1164.4710813963068,766.6666666666667,1164.4710813963068,790.2564102564104,1144.0417641788276,802.0512820512822,1123.6124469613485,790.2564102564104,1123.6124469613485,766.6666666666667" fill="rgb(245, 212, 112)"/><polygon points="1144.0417641788276,802.0512820512821,1164.4710813963068,790.2564102564104,1184.900398613786,802.0512820512821,1184.900398613786,825.6410256410257,1164.4710813963068,837.4358974358975,1144.0417641788276,825.6410256410257,1144.0417641788276,802.0512820512821" fill="rgb(245, 212, 112)"/><polygon points="1205.3297158312648,908.2051282051282,1225.759033048744,896.4102564102564,1246.188350266223,908.2051282051282,1246.188350266223,931.7948717948718,1225.759033048744,943.5897435897436,1205.3297158312648,931.7948717948718,1205.3297158312648,908.2051282051282" fill="rgb(245, 212, 112)"/><polygon points="1164.4710813963068,766.6666666666667,1184.900398613786,754.8717948717949,1205.329715831265,766.6666666666667,1205.329715831265,790.2564102564104,1184.900398613786,802.0512820512822,1164.4710813963068,790.2564102564104,1164.4710813963068,766.6666666666667" fill="rgb(245, 212, 112)"/><polygon points="1184.900398613786,802.0512820512821,1205.329715831265,790.2564102564104,1225.7590330487442,802.0512820512821,1225.7590330487442,825.6410256410257,1205.329715831265,837.4358974358975,1184.900398613786,825.6410256410257,1184.900398613786,802.0512820512821" fill="rgb(245, 212, 112)"/><polygon points="1164.4710813963068,837.4358974358975,1184.900398613786,825.6410256410256,1205.329715831265,837.4358974358975,1205.329715831265,861.0256410256411,1184.900398613786,872.8205128205129,1164.4710813963068,861.0256410256411,1164.4710813963068,837.4358974358975" fill="rgb(245, 212, 112)"/><polygon points="1184.900398613786,872.8205128205128,1205.329715831265,861.0256410256411,1225.7590330487442,872.8205128205128,1225.7590330487442,896.4102564102565,1205.329715831265,908.2051282051282,1184.900398613786,896.4102564102565,1184.900398613786,872.8205128205128" fill="rgb(245, 212, 112)"/><polygon points="1307.4763019186603,1085.128205128205,1327.9056191361394,1073.3333333333333,1348.3349363536186,1085.128205128205,1348.3349363536186,1108.7179487179487,1327.9056191361394,1120.5128205128206,1307.4763019186603,1108.7179487179487,1307.4763019186603,1085.128205128205" fill="rgb(245, 212, 112)"/><polygon points="1266.617667483702,943.5897435897436,1287.0469847011811,931.7948717948718,1307.4763019186603,943.5897435897436,1307.4763019186603,967.1794871794873,1287.0469847011811,978.9743589743591,1266.617667483702,967.1794871794873,1266.617667483702,943.5897435897436" fill="rgb(245, 212, 112)"/><polygon points="1205.3297158312648,837.4358974358975,1225.759033048744,825.6410256410256,1246.188350266223,837.4358974358975,1246.188350266223,861.0256410256411,1225.759033048744,872.8205128205129,1205.3297158312648,861.0256410256411,1205.3297158312648,837.4358974358975" fill="rgb(245, 212, 112)"/><polygon points="1225.759033048744,872.8205128205128,1246.188350266223,861.0256410256411,1266.6176674837022,872.8205128205128,1266.6176674837022,896.4102564102565,1246.188350266223,908.2051282051282,1225.759033048744,896.4102564102565,1225.759033048744,872.8205128205128" fill="rgb(245, 212, 112)"/><polygon points="1144.0417641788276,731.2820512820513,1164.4710813963068,719.4871794871794,1184.900398613786,731.2820512820513,1184.900398613786,754.8717948717949,1164.4710813963068,766.6666666666667,1144.0417641788276,754.8717948717949,1144.0417641788276,731.2820512820513" fill="rgb(245, 212, 112)"/><polygon points="1266.617667483702,1085.128205128205,1287.0469847011811,1073.3333333333333,1307.4763019186603,1085.128205128205,1307.4763019186603,1108.7179487179487,1287.0469847011811,1120.5128205128206,1266.617667483702,1108.7179487179487,1266.617667483702,1085.128205128205" fill="rgb(245, 212, 112)"/><polygon points="1246.188350266223,978.974358974359,1266.6176674837022,967.1794871794873,1287.0469847011814,978.974358974359,1287.0469847011814,1002.5641025641027,1266.6176674837022,1014.3589743589744,1246.188350266223,1002.5641025641027,1246.188350266223,978.974358974359" fill="rgb(245, 212, 112)"/><polygon points="1225.759033048744,943.5897435897436,1246.188350266223,931.7948717948718,1266.6176674837022,943.5897435897436,1266.6176674837022,967.1794871794873,1246.188350266223,978.9743589743591,1225.759033048744,967.1794871794873,1225.759033048744,943.5897435897436" fill="rgb(245, 212, 112)"/><polygon points="1103.1831297438696,731.2820512820513,1123.6124469613487,719.4871794871794,1144.0417641788279,731.2820512820513,1144.0417641788279,754.8717948717949,1123.6124469613487,766.6666666666667,1103.1831297438696,754.8717948717949,1103.1831297438696,731.2820512820513" fill="rgb(245, 212, 112)"/><polygon points="1082.7538125263904,695.8974358974359,1103.1831297438696,684.1025641025642,1123.6124469613487,695.8974358974359,1123.6124469613487,719.4871794871796,1103.1831297438696,731.2820512820513,1082.7538125263904,719.4871794871796,1082.7538125263904,695.8974358974359" fill="rgb(245, 212, 112)"/><polygon points="1246.188350266223,1049.7435897435898,1266.6176674837022,1037.948717948718,1287.0469847011814,1049.7435897435898,1287.0469847011814,1073.3333333333335,1266.6176674837022,1085.1282051282053,1246.188350266223,1073.3333333333335,1246.188350266223,1049.7435897435898" fill="rgb(245, 212, 112)"/><polygon points="1246.188350266223,908.2051282051282,1266.6176674837022,896.4102564102564,1287.0469847011814,908.2051282051282,1287.0469847011814,931.7948717948718,1266.6176674837022,943.5897435897436,1246.188350266223,931.7948717948718,1246.188350266223,908.2051282051282" fill="rgb(245, 212, 112)"/><polygon points="1266.617667483702,1014.3589743589744,1287.0469847011811,1002.5641025641025,1307.4763019186603,1014.3589743589744,1307.4763019186603,1037.948717948718,1287.0469847011811,1049.7435897435898,1266.617667483702,1037.948717948718,1266.617667483702,1014.3589743589744" fill="rgb(245, 212, 112)"/></g><g id="Quintana Roo"><polygon points="1573.0574257458882,978.974358974359,1593.4867429633673,967.1794871794873,1613.9160601808464,978.974358974359,1613.9160601808464,1002.5641025641027,1593.4867429633673,1014.3589743589744,1573.0574257458882,1002.5641025641027,1573.0574257458882,978.974358974359" fill="rgb(245, 198, 112)"/><polygon points="1552.628108528409,1014.3589743589744,1573.0574257458882,1002.5641025641025,1593.4867429633673,1014.3589743589744,1593.4867429633673,1037.948717948718,1573.0574257458882,1049.7435897435898,1552.628108528409,1037.948717948718,1552.628108528409,1014.3589743589744" fill="rgb(245, 198, 112)"/><polygon points="1613.9160601808462,978.974358974359,1634.3453773983254,967.1794871794873,1654.7746946158045,978.974358974359,1654.7746946158045,1002.5641025641027,1634.3453773983254,1014.3589743589744,1613.9160601808462,1002.5641025641027,1613.9160601808462,978.974358974359" fill="rgb(245, 198, 112)"/><polygon points="1593.486742963367,943.5897435897436,1613.9160601808462,931.7948717948718,1634.3453773983254,943.5897435897436,1634.3453773983254,967.1794871794873,1613.9160601808462,978.9743589743591,1593.486742963367,967.1794871794873,1593.486742963367,943.5897435897436" fill="rgb(245, 198, 112)"/></g><g id="Guerrero"><polygon points="980.6072264389952,1085.128205128205,1001.0365436564742,1073.3333333333333,1021.4658608739533,1085.128205128205,1021.4658608739533,1108.7179487179487,1001.0365436564742,1120.5128205128206,980.6072264389952,1108.7179487179487,980.6072264389952,1085.128205128205" fill="rgb(245, 190, 112)"/><polygon points="1001.0365436564744,1120.5128205128206,1021.4658608739534,1108.7179487179487,1041.8951780914324,1120.5128205128206,1041.8951780914324,1144.1025641025642,1021.4658608739534,1155.897435897436,1001.0365436564744,1144.1025641025642,1001.0365436564744,1120.5128205128206" fill="rgb(245, 190, 112)"/><polygon points="1021.4658608739534,1085.128205128205,1041.8951780914324,1073.3333333333333,1062.3244953089115,1085.128205128205,1062.3244953089115,1108.7179487179487,1041.8951780914324,1120.5128205128206,1021.4658608739534,1108.7179487179487,1021.4658608739534,1085.128205128205" fill="rgb(245, 190, 112)"/><polygon points="1041.8951780914324,1120.5128205128206,1062.3244953089115,1108.7179487179487,1082.7538125263907,1120.5128205128206,1082.7538125263907,1144.1025641025642,1062.3244953089115,1155.897435897436,1041.8951780914324,1144.1025641025642,1041.8951780914324,1120.5128205128206" fill="rgb(245, 190, 112)"/><polygon points="1001.0365436564744,1049.7435897435898,1021.4658608739534,1037.948717948718,1041.8951780914324,1049.7435897435898,1041.8951780914324,1073.3333333333335,1021.4658608739534,1085.1282051282053,1001.0365436564744,1073.3333333333335,1001.0365436564744,1049.7435897435898" fill="rgb(245, 190, 112)"/><polygon points="1062.3244953089113,1085.128205128205,1082.7538125263904,1073.3333333333333,1103.1831297438696,1085.128205128205,1103.1831297438696,1108.7179487179487,1082.7538125263904,1120.5128205128206,1062.3244953089113,1108.7179487179487,1062.3244953089113,1085.128205128205" fill="rgb(245, 190, 112)"/><polygon points="1082.7538125263904,1120.5128205128206,1103.1831297438696,1108.7179487179487,1123.6124469613487,1120.5128205128206,1123.6124469613487,1144.1025641025642,1103.1831297438696,1155.897435897436,1082.7538125263904,1144.1025641025642,1082.7538125263904,1120.5128205128206" fill="rgb(245, 190, 112)"/><polygon points="960.1779092215162,1049.7435897435898,980.6072264389952,1037.948717948718,1001.0365436564742,1049.7435897435898,1001.0365436564742,1073.3333333333335,980.6072264389952,1085.1282051282053,960.1779092215162,1073.3333333333335,960.1779092215162,1049.7435897435898" fill="rgb(245, 190, 112)"/><polygon points="1103.1831297438696,1085.128205128205,1123.6124469613487,1073.3333333333333,1144.0417641788279,1085.128205128205,1144.0417641788279,1108.7179487179487,1123.6124469613487,1120.5128205128206,1103.1831297438696,1108.7179487179487,1103.1831297438696,1085.128205128205" fill="rgb(245, 190, 112)"/></g><g id="Tlaxcala"><polygon points="1103.1831297438696,943.5897435897436,1123.6124469613487,931.7948717948718,1144.0417641788279,943.5897435897436,1144.0417641788279,967.1794871794873,1123.6124469613487,978.9743589743591,1103.1831297438696,967.1794871794873,1103.1831297438696,943.5897435897436" fill="rgb(245, 183, 112)"/><polygon points="1144.0417641788276,943.5897435897436,1164.4710813963068,931.7948717948718,1184.900398613786,943.5897435897436,1184.900398613786,967.1794871794873,1164.4710813963068,978.9743589743591,1144.0417641788276,967.1794871794873,1144.0417641788276,943.5897435897436" fill="rgb(245, 183, 112)"/><polygon points="1123.6124469613485,978.974358974359,1144.0417641788276,967.1794871794873,1164.4710813963068,978.974358974359,1164.4710813963068,1002.5641025641027,1144.0417641788276,1014.3589743589744,1123.6124469613485,1002.5641025641027,1123.6124469613485,978.974358974359" fill="rgb(245, 183, 112)"/></g><g id="Jalisco"><polygon points="653.7381509593301,660.5128205128206,674.1674681768092,648.7179487179487,694.5967853942882,660.5128205128206,694.5967853942882,684.1025641025642,674.1674681768092,695.897435897436,653.7381509593301,684.1025641025642,653.7381509593301,660.5128205128206" fill="rgb(245, 169, 112)"/><polygon points="674.1674681768093,625.1282051282051,694.5967853942883,613.3333333333333,715.0261026117673,625.1282051282051,715.0261026117673,648.7179487179487,694.5967853942883,660.5128205128206,674.1674681768093,648.7179487179487,674.1674681768093,625.1282051282051" fill="rgb(245, 169, 112)"/><polygon points="612.8795165243721,660.5128205128206,633.3088337418511,648.7179487179487,653.7381509593301,660.5128205128206,653.7381509593301,684.1025641025642,633.3088337418511,695.897435897436,612.8795165243721,684.1025641025642,612.8795165243721,660.5128205128206" fill="rgb(245, 169, 112)"/><polygon points="592.450199306893,625.1282051282051,612.879516524372,613.3333333333333,633.308833741851,625.1282051282051,633.308833741851,648.7179487179487,612.879516524372,660.5128205128206,592.450199306893,648.7179487179487,592.450199306893,625.1282051282051" fill="rgb(245, 169, 112)"/><polygon points="674.1674681768093,554.3589743589744,694.5967853942883,542.5641025641025,715.0261026117673,554.3589743589744,715.0261026117673,577.948717948718,694.5967853942883,589.7435897435898,674.1674681768093,577.948717948718,674.1674681768093,554.3589743589744" fill="rgb(245, 169, 112)"/><polygon points="694.5967853942883,589.7435897435897,715.0261026117673,577.948717948718,735.4554198292464,589.7435897435897,735.4554198292464,613.3333333333334,715.0261026117673,625.1282051282051,694.5967853942883,613.3333333333334,694.5967853942883,589.7435897435897" fill="rgb(245, 169, 112)"/><polygon points="694.5967853942883,660.5128205128206,715.0261026117673,648.7179487179487,735.4554198292464,660.5128205128206,735.4554198292464,684.1025641025642,715.0261026117673,695.897435897436,694.5967853942883,684.1025641025642,694.5967853942883,660.5128205128206" fill="rgb(245, 169, 112)"/><polygon points="633.3088337418511,625.1282051282051,653.7381509593301,613.3333333333333,674.1674681768092,625.1282051282051,674.1674681768092,648.7179487179487,653.7381509593301,660.5128205128206,633.3088337418511,648.7179487179487,633.3088337418511,625.1282051282051" fill="rgb(245, 169, 112)"/><polygon points="653.7381509593301,518.974358974359,674.1674681768092,507.17948717948724,694.5967853942882,518.974358974359,694.5967853942882,542.5641025641027,674.1674681768092,554.3589743589744,653.7381509593301,542.5641025641027,653.7381509593301,518.974358974359" fill="rgb(245, 169, 112)"/><polygon points="715.0261026117674,554.3589743589744,735.4554198292465,542.5641025641025,755.8847370467255,554.3589743589744,755.8847370467255,577.948717948718,735.4554198292465,589.7435897435898,715.0261026117674,577.948717948718,715.0261026117674,554.3589743589744" fill="rgb(245, 169, 112)"/><polygon points="735.4554198292465,589.7435897435897,755.8847370467255,577.948717948718,776.3140542642045,589.7435897435897,776.3140542642045,613.3333333333334,755.8847370467255,625.1282051282051,735.4554198292465,613.3333333333334,735.4554198292465,589.7435897435897" fill="rgb(245, 169, 112)"/><polygon points="715.0261026117674,625.1282051282051,735.4554198292465,613.3333333333333,755.8847370467255,625.1282051282051,755.8847370467255,648.7179487179487,735.4554198292465,660.5128205128206,715.0261026117674,648.7179487179487,715.0261026117674,625.1282051282051" fill="rgb(245, 169, 112)"/><polygon points="735.4554198292465,660.5128205128206,755.8847370467255,648.7179487179487,776.3140542642045,660.5128205128206,776.3140542642045,684.1025641025642,755.8847370467255,695.897435897436,735.4554198292465,684.1025641025642,735.4554198292465,660.5128205128206" fill="rgb(245, 169, 112)"/><polygon points="715.0261026117674,695.8974358974359,735.4554198292465,684.1025641025642,755.8847370467255,695.8974358974359,755.8847370467255,719.4871794871796,735.4554198292465,731.2820512820513,715.0261026117674,719.4871794871796,715.0261026117674,695.8974358974359" fill="rgb(245, 169, 112)"/><polygon points="653.7381509593301,589.7435897435897,674.1674681768092,577.948717948718,694.5967853942882,589.7435897435897,694.5967853942882,613.3333333333334,674.1674681768092,625.1282051282051,653.7381509593301,613.3333333333334,653.7381509593301,589.7435897435897" fill="rgb(245, 169, 112)"/><polygon points="755.8847370467255,554.3589743589744,776.3140542642045,542.5641025641025,796.7433714816835,554.3589743589744,796.7433714816835,577.948717948718,776.3140542642045,589.7435897435898,755.8847370467255,577.948717948718,755.8847370467255,554.3589743589744" fill="rgb(245, 169, 112)"/><polygon points="776.3140542642046,589.7435897435897,796.7433714816837,577.948717948718,817.1726886991627,589.7435897435897,817.1726886991627,613.3333333333334,796.7433714816837,625.1282051282051,776.3140542642046,613.3333333333334,776.3140542642046,589.7435897435897" fill="rgb(245, 169, 112)"/><polygon points="755.8847370467255,625.1282051282051,776.3140542642045,613.3333333333333,796.7433714816835,625.1282051282051,796.7433714816835,648.7179487179487,776.3140542642045,660.5128205128206,755.8847370467255,648.7179487179487,755.8847370467255,625.1282051282051" fill="rgb(245, 169, 112)"/><polygon points="755.8847370467255,695.8974358974359,776.3140542642045,684.1025641025642,796.7433714816835,695.8974358974359,796.7433714816835,719.4871794871796,776.3140542642045,731.2820512820513,755.8847370467255,719.4871794871796,755.8847370467255,695.8974358974359" fill="rgb(245, 169, 112)"/><polygon points="612.8795165243721,589.7435897435897,633.3088337418511,577.948717948718,653.7381509593301,589.7435897435897,653.7381509593301,613.3333333333334,633.3088337418511,625.1282051282051,612.8795165243721,613.3333333333334,612.8795165243721,589.7435897435897" fill="rgb(245, 169, 112)"/></g><g id="Durango"><polygon points="653.7381509593301,377.43589743589746,674.1674681768092,365.6410256410257,694.5967853942882,377.43589743589746,694.5967853942882,401.0256410256411,674.1674681768092,412.8205128205129,653.7381509593301,401.0256410256411,653.7381509593301,377.43589743589746" fill="rgb(245, 162, 112)"/><polygon points="633.3088337418511,412.8205128205128,653.7381509593301,401.02564102564105,674.1674681768092,412.8205128205128,674.1674681768092,436.41025641025647,653.7381509593301,448.20512820512823,633.3088337418511,436.41025641025647,633.3088337418511,412.8205128205128" fill="rgb(245, 162, 112)"/><polygon points="633.3088337418511,342.0512820512821,653.7381509593301,330.2564102564103,674.1674681768092,342.0512820512821,674.1674681768092,365.64102564102564,653.7381509593301,377.43589743589746,633.3088337418511,365.64102564102564,633.3088337418511,342.0512820512821" fill="rgb(245, 162, 112)"/><polygon points="612.8795165243721,377.43589743589746,633.3088337418511,365.6410256410257,653.7381509593301,377.43589743589746,653.7381509593301,401.0256410256411,633.3088337418511,412.8205128205129,612.8795165243721,401.0256410256411,612.8795165243721,377.43589743589746" fill="rgb(245, 162, 112)"/></g><g id="Baja California Sur"><polygon points="326.86907547966507,306.66666666666663,347.29839269714415,294.87179487179486,367.72770991462323,306.66666666666663,367.72770991462323,330.2564102564103,347.29839269714415,342.05128205128204,326.86907547966507,330.2564102564103,326.86907547966507,306.66666666666663" fill="rgb(245, 155, 112)"/><polygon points="306.439758262186,271.28205128205127,326.86907547966507,259.4871794871795,347.29839269714415,271.28205128205127,347.29839269714415,294.8717948717949,326.86907547966507,306.6666666666667,306.439758262186,294.8717948717949,306.439758262186,271.28205128205127" fill="rgb(245, 155, 112)"/></g><g id="Puebla"><polygon points="1062.3244953089113,1014.3589743589744,1082.7538125263904,1002.5641025641025,1103.1831297438696,1014.3589743589744,1103.1831297438696,1037.948717948718,1082.7538125263904,1049.7435897435898,1062.3244953089113,1037.948717948718,1062.3244953089113,1014.3589743589744" fill="rgb(245, 148, 112)"/><polygon points="1082.7538125263904,978.974358974359,1103.1831297438696,967.1794871794873,1123.6124469613487,978.974358974359,1123.6124469613487,1002.5641025641027,1103.1831297438696,1014.3589743589744,1082.7538125263904,1002.5641025641027,1082.7538125263904,978.974358974359" fill="rgb(245, 148, 112)"/><polygon points="1103.1831297438696,1014.3589743589744,1123.6124469613487,1002.5641025641025,1144.0417641788279,1014.3589743589744,1144.0417641788279,1037.948717948718,1123.6124469613487,1049.7435897435898,1103.1831297438696,1037.948717948718,1103.1831297438696,1014.3589743589744" fill="rgb(245, 148, 112)"/><polygon points="1144.0417641788276,1014.3589743589744,1164.4710813963068,1002.5641025641025,1184.900398613786,1014.3589743589744,1184.900398613786,1037.948717948718,1164.4710813963068,1049.7435897435898,1144.0417641788276,1037.948717948718,1144.0417641788276,1014.3589743589744" fill="rgb(245, 148, 112)"/><polygon points="1184.900398613786,1014.3589743589744,1205.329715831265,1002.5641025641025,1225.7590330487442,1014.3589743589744,1225.7590330487442,1037.948717948718,1205.329715831265,1049.7435897435898,1184.900398613786,1037.948717948718,1184.900398613786,1014.3589743589744" fill="rgb(245, 148, 112)"/><polygon points="1184.900398613786,943.5897435897436,1205.329715831265,931.7948717948718,1225.7590330487442,943.5897435897436,1225.7590330487442,967.1794871794873,1205.329715831265,978.9743589743591,1184.900398613786,967.1794871794873,1184.900398613786,943.5897435897436" fill="rgb(245, 148, 112)"/><polygon points="1205.3297158312648,978.974358974359,1225.759033048744,967.1794871794873,1246.188350266223,978.974358974359,1246.188350266223,1002.5641025641027,1225.759033048744,1014.3589743589744,1205.3297158312648,1002.5641025641027,1205.3297158312648,978.974358974359" fill="rgb(245, 148, 112)"/><polygon points="1225.759033048744,1014.3589743589744,1246.188350266223,1002.5641025641025,1266.6176674837022,1014.3589743589744,1266.6176674837022,1037.948717948718,1246.188350266223,1049.7435897435898,1225.759033048744,1037.948717948718,1225.759033048744,1014.3589743589744" fill="rgb(245, 148, 112)"/><polygon points="1164.4710813963068,978.974358974359,1184.900398613786,967.1794871794873,1205.329715831265,978.974358974359,1205.329715831265,1002.5641025641027,1184.900398613786,1014.3589743589744,1164.4710813963068,1002.5641025641027,1164.4710813963068,978.974358974359" fill="rgb(245, 148, 112)"/><polygon points="1205.3297158312648,1049.7435897435898,1225.759033048744,1037.948717948718,1246.188350266223,1049.7435897435898,1246.188350266223,1073.3333333333335,1225.759033048744,1085.1282051282053,1205.3297158312648,1073.3333333333335,1205.3297158312648,1049.7435897435898" fill="rgb(245, 148, 112)"/><polygon points="1082.7538125263904,1049.7435897435898,1103.1831297438696,1037.948717948718,1123.6124469613487,1049.7435897435898,1123.6124469613487,1073.3333333333335,1103.1831297438696,1085.1282051282053,1082.7538125263904,1073.3333333333335,1082.7538125263904,1049.7435897435898" fill="rgb(245, 148, 112)"/><polygon points="1164.4710813963068,1049.7435897435898,1184.900398613786,1037.948717948718,1205.329715831265,1049.7435897435898,1205.329715831265,1073.3333333333335,1184.900398613786,1085.1282051282053,1164.4710813963068,1073.3333333333335,1164.4710813963068,1049.7435897435898" fill="rgb(245, 148, 112)"/><polygon points="1123.6124469613485,1049.7435897435898,1144.0417641788276,1037.948717948718,1164.4710813963068,1049.7435897435898,1164.4710813963068,1073.3333333333335,1144.0417641788276,1085.1282051282053,1123.6124469613485,1073.3333333333335,1123.6124469613485,1049.7435897435898" fill="rgb(245, 148, 112)"/><polygon points="1041.8951780914324,1049.7435897435898,1062.3244953089115,1037.948717948718,1082.7538125263907,1049.7435897435898,1082.7538125263907,1073.3333333333335,1062.3244953089115,1085.1282051282053,1041.8951780914324,1073.3333333333335,1041.8951780914324,1049.7435897435898" fill="rgb(245, 148, 112)"/><polygon points="1164.4710813963068,908.2051282051282,1184.900398613786,896.4102564102564,1205.329715831265,908.2051282051282,1205.329715831265,931.7948717948718,1184.900398613786,943.5897435897436,1164.4710813963068,931.7948717948718,1164.4710813963068,908.2051282051282" fill="rgb(245, 148, 112)"/></g><g id="Nuevo León"><polygon points="735.4554198292465,377.43589743589746,755.8847370467255,365.6410256410257,776.3140542642045,377.43589743589746,776.3140542642045,401.0256410256411,755.8847370467255,412.8205128205129,735.4554198292465,401.0256410256411,735.4554198292465,377.43589743589746" fill="rgb(245, 133, 112)"/><polygon points="755.8847370467255,412.8205128205128,776.3140542642045,401.02564102564105,796.7433714816835,412.8205128205128,796.7433714816835,436.41025641025647,776.3140542642045,448.20512820512823,755.8847370467255,436.41025641025647,755.8847370467255,412.8205128205128" fill="rgb(245, 133, 112)"/><polygon points="735.4554198292465,448.2051282051282,755.8847370467255,436.4102564102564,776.3140542642045,448.2051282051282,776.3140542642045,471.7948717948718,755.8847370467255,483.5897435897436,735.4554198292465,471.7948717948718,735.4554198292465,448.2051282051282" fill="rgb(245, 133, 112)"/><polygon points="796.7433714816837,412.8205128205128,817.1726886991627,401.02564102564105,837.6020059166417,412.8205128205128,837.6020059166417,436.41025641025647,817.1726886991627,448.20512820512823,796.7433714816837,436.41025641025647,796.7433714816837,412.8205128205128" fill="rgb(245, 133, 112)"/><polygon points="776.3140542642046,448.2051282051282,796.7433714816837,436.4102564102564,817.1726886991627,448.2051282051282,817.1726886991627,471.7948717948718,796.7433714816837,483.5897435897436,776.3140542642046,471.7948717948718,776.3140542642046,448.2051282051282" fill="rgb(245, 133, 112)"/><polygon points="776.3140542642046,306.66666666666663,796.7433714816837,294.87179487179486,817.1726886991627,306.66666666666663,817.1726886991627,330.2564102564103,796.7433714816837,342.05128205128204,776.3140542642046,330.2564102564103,776.3140542642046,306.66666666666663" fill="rgb(245, 133, 112)"/><polygon points="715.0261026117674,342.0512820512821,735.4554198292465,330.2564102564103,755.8847370467255,342.0512820512821,755.8847370467255,365.64102564102564,735.4554198292465,377.43589743589746,715.0261026117674,365.64102564102564,715.0261026117674,342.0512820512821" fill="rgb(245, 133, 112)"/><polygon points="755.8847370467255,342.0512820512821,776.3140542642045,330.2564102564103,796.7433714816835,342.0512820512821,796.7433714816835,365.64102564102564,776.3140542642045,377.43589743589746,755.8847370467255,365.64102564102564,755.8847370467255,342.0512820512821" fill="rgb(245, 133, 112)"/><polygon points="796.7433714816837,342.0512820512821,817.1726886991627,330.2564102564103,837.6020059166417,342.0512820512821,837.6020059166417,365.64102564102564,817.1726886991627,377.43589743589746,796.7433714816837,365.64102564102564,796.7433714816837,342.0512820512821" fill="rgb(245, 133, 112)"/><polygon points="817.1726886991627,377.43589743589746,837.6020059166417,365.6410256410257,858.0313231341207,377.43589743589746,858.0313231341207,401.0256410256411,837.6020059166417,412.8205128205129,817.1726886991627,401.0256410256411,817.1726886991627,377.43589743589746" fill="rgb(245, 133, 112)"/><polygon points="776.3140542642046,377.43589743589746,796.7433714816837,365.6410256410257,817.1726886991627,377.43589743589746,817.1726886991627,401.0256410256411,796.7433714816837,412.8205128205129,776.3140542642046,401.0256410256411,776.3140542642046,377.43589743589746" fill="rgb(245, 133, 112)"/><polygon points="755.8847370467255,483.58974358974365,776.3140542642045,471.7948717948718,796.7433714816835,483.58974358974365,796.7433714816835,507.1794871794872,776.3140542642045,518.974358974359,755.8847370467255,507.1794871794872,755.8847370467255,483.58974358974365" fill="rgb(245, 133, 112)"/></g><g id="Yucatán"><polygon points="1511.769474093451,943.5897435897436,1532.1987913109301,931.7948717948718,1552.6281085284093,943.5897435897436,1552.6281085284093,967.1794871794873,1532.1987913109301,978.9743589743591,1511.769474093451,967.1794871794873,1511.769474093451,943.5897435897436" fill="rgb(245, 126, 112)"/><polygon points="1491.3401568759718,978.974358974359,1511.769474093451,967.1794871794873,1532.1987913109301,978.974358974359,1532.1987913109301,1002.5641025641027,1511.769474093451,1014.3589743589744,1491.3401568759718,1002.5641025641027,1491.3401568759718,978.974358974359" fill="rgb(245, 126, 112)"/><polygon points="1470.9108396584927,943.5897435897436,1491.3401568759718,931.7948717948718,1511.769474093451,943.5897435897436,1511.769474093451,967.1794871794873,1491.3401568759718,978.9743589743591,1470.9108396584927,967.1794871794873,1470.9108396584927,943.5897435897436" fill="rgb(245, 126, 112)"/><polygon points="1552.628108528409,943.5897435897436,1573.0574257458882,931.7948717948718,1593.4867429633673,943.5897435897436,1593.4867429633673,967.1794871794873,1573.0574257458882,978.9743589743591,1552.628108528409,967.1794871794873,1552.628108528409,943.5897435897436" fill="rgb(245, 126, 112)"/><polygon points="1532.19879131093,978.974358974359,1552.628108528409,967.1794871794873,1573.0574257458882,978.974358974359,1573.0574257458882,1002.5641025641027,1552.628108528409,1014.3589743589744,1532.19879131093,1002.5641025641027,1532.19879131093,978.974358974359" fill="rgb(245, 126, 112)"/></g><g id="Hidalgo"><polygon points="939.7485920040372,589.7435897435897,960.1779092215162,577.948717948718,980.6072264389952,589.7435897435897,980.6072264389952,613.3333333333334,960.1779092215162,625.1282051282051,939.7485920040372,613.3333333333334,939.7485920040372,589.7435897435897" fill="rgb(245, 119, 112)"/><polygon points="960.1779092215162,625.1282051282051,980.6072264389952,613.3333333333333,1001.0365436564742,625.1282051282051,1001.0365436564742,648.7179487179487,980.6072264389952,660.5128205128206,960.1779092215162,648.7179487179487,960.1779092215162,625.1282051282051" fill="rgb(245, 119, 112)"/><polygon points="980.6072264389952,589.7435897435897,1001.0365436564742,577.948717948718,1021.4658608739533,589.7435897435897,1021.4658608739533,613.3333333333334,1001.0365436564742,625.1282051282051,980.6072264389952,613.3333333333334,980.6072264389952,589.7435897435897" fill="rgb(245, 119, 112)"/><polygon points="1001.0365436564744,625.1282051282051,1021.4658608739534,613.3333333333333,1041.8951780914324,625.1282051282051,1041.8951780914324,648.7179487179487,1021.4658608739534,660.5128205128206,1001.0365436564744,648.7179487179487,1001.0365436564744,625.1282051282051" fill="rgb(245, 119, 112)"/><polygon points="980.6072264389952,660.5128205128206,1001.0365436564742,648.7179487179487,1021.4658608739533,660.5128205128206,1021.4658608739533,684.1025641025642,1001.0365436564742,695.897435897436,980.6072264389952,684.1025641025642,980.6072264389952,660.5128205128206" fill="rgb(245, 119, 112)"/><polygon points="1021.4658608739534,660.5128205128206,1041.8951780914324,648.7179487179487,1062.3244953089115,660.5128205128206,1062.3244953089115,684.1025641025642,1041.8951780914324,695.897435897436,1021.4658608739534,684.1025641025642,1021.4658608739534,660.5128205128206" fill="rgb(245, 119, 112)"/><polygon points="960.1779092215162,554.3589743589744,980.6072264389952,542.5641025641025,1001.0365436564742,554.3589743589744,1001.0365436564742,577.948717948718,980.6072264389952,589.7435897435898,960.1779092215162,577.948717948718,960.1779092215162,554.3589743589744" fill="rgb(245, 119, 112)"/></g><g id="Aguascalientes"><polygon points="735.4554198292465,518.974358974359,755.8847370467255,507.17948717948724,776.3140542642045,518.974358974359,776.3140542642045,542.5641025641027,755.8847370467255,554.3589743589744,735.4554198292465,542.5641025641027,735.4554198292465,518.974358974359" fill="rgb(112, 245, 245)"/><polygon points="715.0261026117674,483.58974358974365,735.4554198292465,471.7948717948718,755.8847370467255,483.58974358974365,755.8847370467255,507.1794871794872,735.4554198292465,518.974358974359,715.0261026117674,507.1794871794872,715.0261026117674,483.58974358974365" fill="rgb(112, 245, 245)"/><polygon points="694.5967853942883,518.974358974359,715.0261026117673,507.17948717948724,735.4554198292464,518.974358974359,735.4554198292464,542.5641025641027,715.0261026117673,554.3589743589744,694.5967853942883,542.5641025641027,694.5967853942883,518.974358974359" fill="rgb(112, 245, 245)"/></g><g id="Colima"><polygon points="633.3088337418511,695.8974358974359,653.7381509593301,684.1025641025642,674.1674681768092,695.8974358974359,674.1674681768092,719.4871794871796,653.7381509593301,731.2820512820513,633.3088337418511,719.4871794871796,633.3088337418511,695.8974358974359" fill="rgb(112, 245, 231)"/><polygon points="674.1674681768093,695.8974358974359,694.5967853942883,684.1025641025642,715.0261026117673,695.8974358974359,715.0261026117673,719.4871794871796,694.5967853942883,731.2820512820513,674.1674681768093,719.4871794871796,674.1674681768093,695.8974358974359" fill="rgb(112, 245, 231)"/></g><g id="Estado de México"><polygon points="837.6020059166418,766.6666666666667,858.0313231341208,754.8717948717949,878.4606403515999,766.6666666666667,878.4606403515999,790.2564102564104,858.0313231341208,802.0512820512822,837.6020059166418,790.2564102564104,837.6020059166418,766.6666666666667" fill="rgb(112, 245, 202)"/><polygon points="939.7485920040372,731.2820512820513,960.1779092215162,719.4871794871794,980.6072264389952,731.2820512820513,980.6072264389952,754.8717948717949,960.1779092215162,766.6666666666667,939.7485920040372,754.8717948717949,939.7485920040372,731.2820512820513" fill="rgb(112, 245, 202)"/><polygon points="980.6072264389952,731.2820512820513,1001.0365436564742,719.4871794871794,1021.4658608739533,731.2820512820513,1021.4658608739533,754.8717948717949,1001.0365436564742,766.6666666666667,980.6072264389952,754.8717948717949,980.6072264389952,731.2820512820513" fill="rgb(112, 245, 202)"/><polygon points="939.7485920040372,660.5128205128206,960.1779092215162,648.7179487179487,980.6072264389952,660.5128205128206,980.6072264389952,684.1025641025642,960.1779092215162,695.897435897436,939.7485920040372,684.1025641025642,939.7485920040372,660.5128205128206" fill="rgb(112, 245, 202)"/><polygon points="898.889957569079,731.2820512820513,919.319274786558,719.4871794871794,939.748592004037,731.2820512820513,939.748592004037,754.8717948717949,919.319274786558,766.6666666666667,898.889957569079,754.8717948717949,898.889957569079,731.2820512820513" fill="rgb(112, 245, 202)"/><polygon points="1103.1831297438696,802.0512820512821,1123.6124469613487,790.2564102564104,1144.0417641788279,802.0512820512821,1144.0417641788279,825.6410256410257,1123.6124469613487,837.4358974358975,1103.1831297438696,825.6410256410257,1103.1831297438696,802.0512820512821" fill="rgb(112, 245, 202)"/><polygon points="1103.1831297438696,872.8205128205128,1123.6124469613487,861.0256410256411,1144.0417641788279,872.8205128205128,1144.0417641788279,896.4102564102565,1123.6124469613487,908.2051282051282,1103.1831297438696,896.4102564102565,1103.1831297438696,872.8205128205128" fill="rgb(112, 245, 202)"/><polygon points="878.4606403515999,766.6666666666667,898.8899575690789,754.8717948717949,919.3192747865579,766.6666666666667,919.3192747865579,790.2564102564104,898.8899575690789,802.0512820512822,878.4606403515999,790.2564102564104,878.4606403515999,766.6666666666667" fill="rgb(112, 245, 202)"/><polygon points="858.0313231341208,731.2820512820513,878.4606403515999,719.4871794871794,898.8899575690789,731.2820512820513,898.8899575690789,754.8717948717949,878.4606403515999,766.6666666666667,858.0313231341208,754.8717948717949,858.0313231341208,731.2820512820513" fill="rgb(112, 245, 202)"/><polygon points="1001.0365436564744,695.8974358974359,1021.4658608739534,684.1025641025642,1041.8951780914324,695.8974358974359,1041.8951780914324,719.4871794871796,1021.4658608739534,731.2820512820513,1001.0365436564744,719.4871794871796,1001.0365436564744,695.8974358974359" fill="rgb(112, 245, 202)"/><polygon points="1041.8951780914324,766.6666666666667,1062.3244953089115,754.8717948717949,1082.7538125263907,766.6666666666667,1082.7538125263907,790.2564102564104,1062.3244953089115,802.0512820512822,1041.8951780914324,790.2564102564104,1041.8951780914324,766.6666666666667" fill="rgb(112, 245, 202)"/><polygon points="1062.3244953089113,802.0512820512821,1082.7538125263904,790.2564102564104,1103.1831297438696,802.0512820512821,1103.1831297438696,825.6410256410257,1082.7538125263904,837.4358974358975,1062.3244953089113,825.6410256410257,1062.3244953089113,802.0512820512821" fill="rgb(112, 245, 202)"/><polygon points="1082.7538125263904,766.6666666666667,1103.1831297438696,754.8717948717949,1123.6124469613487,766.6666666666667,1123.6124469613487,790.2564102564104,1103.1831297438696,802.0512820512822,1082.7538125263904,790.2564102564104,1082.7538125263904,766.6666666666667" fill="rgb(112, 245, 202)"/><polygon points="1082.7538125263904,837.4358974358975,1103.1831297438696,825.6410256410256,1123.6124469613487,837.4358974358975,1123.6124469613487,861.0256410256411,1103.1831297438696,872.8205128205129,1082.7538125263904,861.0256410256411,1082.7538125263904,837.4358974358975" fill="rgb(112, 245, 202)"/><polygon points="1144.0417641788276,872.8205128205128,1164.4710813963068,861.0256410256411,1184.900398613786,872.8205128205128,1184.900398613786,896.4102564102565,1164.4710813963068,908.2051282051282,1144.0417641788276,896.4102564102565,1144.0417641788276,872.8205128205128" fill="rgb(112, 245, 202)"/><polygon points="1082.7538125263904,908.2051282051282,1103.1831297438696,896.4102564102564,1123.6124469613487,908.2051282051282,1123.6124469613487,931.7948717948718,1103.1831297438696,943.5897435897436,1082.7538125263904,931.7948717948718,1082.7538125263904,908.2051282051282" fill="rgb(112, 245, 202)"/><polygon points="1123.6124469613485,908.2051282051282,1144.0417641788276,896.4102564102564,1164.4710813963068,908.2051282051282,1164.4710813963068,931.7948717948718,1144.0417641788276,943.5897435897436,1123.6124469613485,931.7948717948718,1123.6124469613485,908.2051282051282" fill="rgb(112, 245, 202)"/><polygon points="919.319274786558,766.6666666666667,939.748592004037,754.8717948717949,960.1779092215161,766.6666666666667,960.1779092215161,790.2564102564104,939.748592004037,802.0512820512822,919.319274786558,790.2564102564104,919.319274786558,766.6666666666667" fill="rgb(112, 245, 202)"/><polygon points="960.1779092215162,695.8974358974359,980.6072264389952,684.1025641025642,1001.0365436564742,695.8974358974359,1001.0365436564742,719.4871794871796,980.6072264389952,731.2820512820513,960.1779092215162,719.4871794871796,960.1779092215162,695.8974358974359" fill="rgb(112, 245, 202)"/><polygon points="1001.0365436564744,766.6666666666667,1021.4658608739534,754.8717948717949,1041.8951780914324,766.6666666666667,1041.8951780914324,790.2564102564104,1021.4658608739534,802.0512820512822,1001.0365436564744,790.2564102564104,1001.0365436564744,766.6666666666667" fill="rgb(112, 245, 202)"/><polygon points="1041.8951780914324,695.8974358974359,1062.3244953089115,684.1025641025642,1082.7538125263907,695.8974358974359,1082.7538125263907,719.4871794871796,1062.3244953089115,731.2820512820513,1041.8951780914324,719.4871794871796,1041.8951780914324,695.8974358974359" fill="rgb(112, 245, 202)"/><polygon points="1062.3244953089113,731.2820512820513,1082.7538125263904,719.4871794871794,1103.1831297438696,731.2820512820513,1103.1831297438696,754.8717948717949,1082.7538125263904,766.6666666666667,1062.3244953089113,754.8717948717949,1062.3244953089113,731.2820512820513" fill="rgb(112, 245, 202)"/><polygon points="755.8847370467255,908.2051282051282,776.3140542642045,896.4102564102564,796.7433714816835,908.2051282051282,796.7433714816835,931.7948717948718,776.3140542642045,943.5897435897436,755.8847370467255,931.7948717948718,755.8847370467255,908.2051282051282" fill="rgb(112, 245, 202)"/><polygon points="1123.6124469613485,837.4358974358975,1144.0417641788276,825.6410256410256,1164.4710813963068,837.4358974358975,1164.4710813963068,861.0256410256411,1144.0417641788276,872.8205128205129,1123.6124469613485,861.0256410256411,1123.6124469613485,837.4358974358975" fill="rgb(112, 245, 202)"/><polygon points="1041.8951780914324,978.974358974359,1062.3244953089115,967.1794871794873,1082.7538125263907,978.974358974359,1082.7538125263907,1002.5641025641027,1062.3244953089115,1014.3589743589744,1041.8951780914324,1002.5641025641027,1041.8951780914324,978.974358974359" fill="rgb(112, 245, 202)"/><polygon points="1062.3244953089113,943.5897435897436,1082.7538125263904,931.7948717948718,1103.1831297438696,943.5897435897436,1103.1831297438696,967.1794871794873,1082.7538125263904,978.9743589743591,1062.3244953089113,967.1794871794873,1062.3244953089113,943.5897435897436" fill="rgb(112, 245, 202)"/><polygon points="898.889957569079,802.0512820512821,919.319274786558,790.2564102564104,939.748592004037,802.0512820512821,939.748592004037,825.6410256410257,919.319274786558,837.4358974358975,898.889957569079,825.6410256410257,898.889957569079,802.0512820512821" fill="rgb(112, 245, 202)"/><polygon points="1021.4658608739534,731.2820512820513,1041.8951780914324,719.4871794871794,1062.3244953089115,731.2820512820513,1062.3244953089115,754.8717948717949,1041.8951780914324,766.6666666666667,1021.4658608739534,754.8717948717949,1021.4658608739534,731.2820512820513" fill="rgb(112, 245, 202)"/><polygon points="1021.4658608739534,802.0512820512821,1041.8951780914324,790.2564102564104,1062.3244953089115,802.0512820512821,1062.3244953089115,825.6410256410257,1041.8951780914324,837.4358974358975,1021.4658608739534,825.6410256410257,1021.4658608739534,802.0512820512821" fill="rgb(112, 245, 202)"/><polygon points="796.7433714816837,837.4358974358975,817.1726886991627,825.6410256410256,837.6020059166417,837.4358974358975,837.6020059166417,861.0256410256411,817.1726886991627,872.8205128205129,796.7433714816837,861.0256410256411,796.7433714816837,837.4358974358975" fill="rgb(112, 245, 202)"/><polygon points="776.3140542642046,872.8205128205128,796.7433714816837,861.0256410256411,817.1726886991627,872.8205128205128,817.1726886991627,896.4102564102565,796.7433714816837,908.2051282051282,776.3140542642046,896.4102564102565,776.3140542642046,872.8205128205128" fill="rgb(112, 245, 202)"/><polygon points="796.7433714816837,908.2051282051282,817.1726886991627,896.4102564102564,837.6020059166417,908.2051282051282,837.6020059166417,931.7948717948718,817.1726886991627,943.5897435897436,796.7433714816837,931.7948717948718,796.7433714816837,908.2051282051282" fill="rgb(112, 245, 202)"/><polygon points="776.3140542642046,943.5897435897436,796.7433714816837,931.7948717948718,817.1726886991627,943.5897435897436,817.1726886991627,967.1794871794873,796.7433714816837,978.9743589743591,776.3140542642046,967.1794871794873,776.3140542642046,943.5897435897436" fill="rgb(112, 245, 202)"/><polygon points="858.0313231341208,802.0512820512821,878.4606403515999,790.2564102564104,898.8899575690789,802.0512820512821,898.8899575690789,825.6410256410257,878.4606403515999,837.4358974358975,858.0313231341208,825.6410256410257,858.0313231341208,802.0512820512821" fill="rgb(112, 245, 202)"/><polygon points="817.1726886991627,802.0512820512821,837.6020059166417,790.2564102564104,858.0313231341207,802.0512820512821,858.0313231341207,825.6410256410257,837.6020059166417,837.4358974358975,817.1726886991627,825.6410256410257,817.1726886991627,802.0512820512821" fill="rgb(112, 245, 202)"/><polygon points="837.6020059166418,837.4358974358975,858.0313231341208,825.6410256410256,878.4606403515999,837.4358974358975,878.4606403515999,861.0256410256411,858.0313231341208,872.8205128205129,837.6020059166418,861.0256410256411,837.6020059166418,837.4358974358975" fill="rgb(112, 245, 202)"/><polygon points="817.1726886991627,872.8205128205128,837.6020059166417,861.0256410256411,858.0313231341207,872.8205128205128,858.0313231341207,896.4102564102565,837.6020059166417,908.2051282051282,817.1726886991627,896.4102564102565,817.1726886991627,872.8205128205128" fill="rgb(112, 245, 202)"/><polygon points="837.6020059166418,908.2051282051282,858.0313231341208,896.4102564102564,878.4606403515999,908.2051282051282,878.4606403515999,931.7948717948718,858.0313231341208,943.5897435897436,837.6020059166418,931.7948717948718,837.6020059166418,908.2051282051282" fill="rgb(112, 245, 202)"/><polygon points="817.1726886991627,943.5897435897436,837.6020059166417,931.7948717948718,858.0313231341207,943.5897435897436,858.0313231341207,967.1794871794873,837.6020059166417,978.9743589743591,817.1726886991627,967.1794871794873,817.1726886991627,943.5897435897436" fill="rgb(112, 245, 202)"/><polygon points="898.889957569079,943.5897435897436,919.319274786558,931.7948717948718,939.748592004037,943.5897435897436,939.748592004037,967.1794871794873,919.319274786558,978.9743589743591,898.889957569079,967.1794871794873,898.889957569079,943.5897435897436" fill="rgb(112, 245, 202)"/><polygon points="858.0313231341208,943.5897435897436,878.4606403515999,931.7948717948718,898.8899575690789,943.5897435897436,898.8899575690789,967.1794871794873,878.4606403515999,978.9743589743591,858.0313231341208,967.1794871794873,858.0313231341208,943.5897435897436" fill="rgb(112, 245, 202)"/></g><g id="Chihuahua"><polygon points="572.0208820894139,306.66666666666663,592.450199306893,294.87179487179486,612.879516524372,306.66666666666663,612.879516524372,330.2564102564103,592.450199306893,342.05128205128204,572.0208820894139,330.2564102564103,572.0208820894139,306.66666666666663" fill="rgb(112, 245, 188)"/><polygon points="551.5915648719348,271.28205128205127,572.0208820894138,259.4871794871795,592.4501993068928,271.28205128205127,592.4501993068928,294.8717948717949,572.0208820894138,306.6666666666667,551.5915648719348,294.8717948717949,551.5915648719348,271.28205128205127" fill="rgb(112, 245, 188)"/><polygon points="531.1622476544558,235.8974358974359,551.5915648719348,224.10256410256412,572.0208820894138,235.8974358974359,572.0208820894138,259.4871794871795,551.5915648719348,271.28205128205127,531.1622476544558,259.4871794871795,531.1622476544558,235.8974358974359" fill="rgb(112, 245, 188)"/><polygon points="490.3036132194976,235.8974358974359,510.7329304369767,224.10256410256412,531.1622476544558,235.8974358974359,531.1622476544558,259.4871794871795,510.7329304369767,271.28205128205127,490.3036132194976,259.4871794871795,490.3036132194976,235.8974358974359" fill="rgb(112, 245, 188)"/><polygon points="592.450199306893,271.28205128205127,612.879516524372,259.4871794871795,633.308833741851,271.28205128205127,633.308833741851,294.8717948717949,612.879516524372,306.6666666666667,592.450199306893,294.8717948717949,592.450199306893,271.28205128205127" fill="rgb(112, 245, 188)"/><polygon points="612.8795165243721,306.66666666666663,633.3088337418511,294.87179487179486,653.7381509593301,306.66666666666663,653.7381509593301,330.2564102564103,633.3088337418511,342.05128205128204,612.8795165243721,330.2564102564103,612.8795165243721,306.66666666666663" fill="rgb(112, 245, 188)"/><polygon points="592.450199306893,342.0512820512821,612.879516524372,330.2564102564103,633.308833741851,342.0512820512821,633.308833741851,365.64102564102564,612.879516524372,377.43589743589746,592.450199306893,365.64102564102564,592.450199306893,342.0512820512821" fill="rgb(112, 245, 188)"/><polygon points="572.0208820894139,235.8974358974359,592.450199306893,224.10256410256412,612.879516524372,235.8974358974359,612.879516524372,259.4871794871795,592.450199306893,271.28205128205127,572.0208820894139,259.4871794871795,572.0208820894139,235.8974358974359" fill="rgb(112, 245, 188)"/><polygon points="510.7329304369767,271.28205128205127,531.1622476544558,259.4871794871795,551.5915648719348,271.28205128205127,551.5915648719348,294.8717948717949,531.1622476544558,306.6666666666667,510.7329304369767,294.8717948717949,510.7329304369767,271.28205128205127" fill="rgb(112, 245, 188)"/></g><g id="Tabasco"><polygon points="1368.7642535710975,1049.7435897435898,1389.1935707885766,1037.948717948718,1409.6228880060557,1049.7435897435898,1409.6228880060557,1073.3333333333335,1389.1935707885766,1085.1282051282053,1368.7642535710975,1073.3333333333335,1368.7642535710975,1049.7435897435898" fill="rgb(112, 245, 209)"/><polygon points="1409.6228880060555,1049.7435897435898,1430.0522052235347,1037.948717948718,1450.4815224410138,1049.7435897435898,1450.4815224410138,1073.3333333333335,1430.0522052235347,1085.1282051282053,1409.6228880060555,1073.3333333333335,1409.6228880060555,1049.7435897435898" fill="rgb(112, 245, 209)"/><polygon points="1389.1935707885764,1085.128205128205,1409.6228880060555,1073.3333333333333,1430.0522052235347,1085.128205128205,1430.0522052235347,1108.7179487179487,1409.6228880060555,1120.5128205128206,1389.1935707885764,1108.7179487179487,1389.1935707885764,1085.128205128205" fill="rgb(112, 245, 209)"/><polygon points="1327.9056191361392,1049.7435897435898,1348.3349363536183,1037.948717948718,1368.7642535710975,1049.7435897435898,1368.7642535710975,1073.3333333333335,1348.3349363536183,1085.1282051282053,1327.9056191361392,1073.3333333333335,1327.9056191361392,1049.7435897435898" fill="rgb(112, 245, 209)"/><polygon points="1470.9108396584927,1085.128205128205,1491.3401568759718,1073.3333333333333,1511.769474093451,1085.128205128205,1511.769474093451,1108.7179487179487,1491.3401568759718,1120.5128205128206,1470.9108396584927,1108.7179487179487,1470.9108396584927,1085.128205128205" fill="rgb(112, 245, 209)"/><polygon points="1450.4815224410138,1049.7435897435898,1470.910839658493,1037.948717948718,1491.340156875972,1049.7435897435898,1491.340156875972,1073.3333333333335,1470.910839658493,1085.1282051282053,1450.4815224410138,1073.3333333333335,1450.4815224410138,1049.7435897435898" fill="rgb(112, 245, 209)"/></g><g id="Tamaulipas"><polygon points="817.1726886991627,306.66666666666663,837.6020059166417,294.87179487179486,858.0313231341207,306.66666666666663,858.0313231341207,330.2564102564103,837.6020059166417,342.05128205128204,817.1726886991627,330.2564102564103,817.1726886991627,306.66666666666663" fill="rgb(112, 245, 238)"/><polygon points="817.1726886991627,448.2051282051282,837.6020059166417,436.4102564102564,858.0313231341207,448.2051282051282,858.0313231341207,471.7948717948718,837.6020059166417,483.5897435897436,817.1726886991627,471.7948717948718,817.1726886991627,448.2051282051282" fill="rgb(112, 245, 238)"/><polygon points="837.6020059166418,483.58974358974365,858.0313231341208,471.7948717948718,878.4606403515999,483.58974358974365,878.4606403515999,507.1794871794872,858.0313231341208,518.974358974359,837.6020059166418,507.1794871794872,837.6020059166418,483.58974358974365" fill="rgb(112, 245, 238)"/><polygon points="837.6020059166418,342.0512820512821,858.0313231341208,330.2564102564103,878.4606403515999,342.0512820512821,878.4606403515999,365.64102564102564,858.0313231341208,377.43589743589746,837.6020059166418,365.64102564102564,837.6020059166418,342.0512820512821" fill="rgb(112, 245, 238)"/><polygon points="858.0313231341208,377.43589743589746,878.4606403515999,365.6410256410257,898.8899575690789,377.43589743589746,898.8899575690789,401.0256410256411,878.4606403515999,412.8205128205129,858.0313231341208,401.0256410256411,858.0313231341208,377.43589743589746" fill="rgb(112, 245, 238)"/><polygon points="837.6020059166418,412.8205128205128,858.0313231341208,401.02564102564105,878.4606403515999,412.8205128205128,878.4606403515999,436.41025641025647,858.0313231341208,448.20512820512823,837.6020059166418,436.41025641025647,837.6020059166418,412.8205128205128" fill="rgb(112, 245, 238)"/><polygon points="858.0313231341208,448.2051282051282,878.4606403515999,436.4102564102564,898.8899575690789,448.2051282051282,898.8899575690789,471.7948717948718,878.4606403515999,483.5897435897436,858.0313231341208,471.7948717948718,858.0313231341208,448.2051282051282" fill="rgb(112, 245, 238)"/><polygon points="878.4606403515999,483.58974358974365,898.8899575690789,471.7948717948718,919.3192747865579,483.58974358974365,919.3192747865579,507.1794871794872,898.8899575690789,518.974358974359,878.4606403515999,507.1794871794872,878.4606403515999,483.58974358974365" fill="rgb(112, 245, 238)"/><polygon points="878.4606403515999,412.8205128205128,898.8899575690789,401.02564102564105,919.3192747865579,412.8205128205128,919.3192747865579,436.41025641025647,898.8899575690789,448.20512820512823,878.4606403515999,436.41025641025647,878.4606403515999,412.8205128205128" fill="rgb(112, 245, 238)"/></g><g id="San Luis Potosí"><polygon points="858.0313231341208,589.7435897435897,878.4606403515999,577.948717948718,898.8899575690789,589.7435897435897,898.8899575690789,613.3333333333334,878.4606403515999,625.1282051282051,858.0313231341208,613.3333333333334,858.0313231341208,589.7435897435897" fill="rgb(112, 245, 181)"/><polygon points="796.7433714816837,554.3589743589744,817.1726886991627,542.5641025641025,837.6020059166417,554.3589743589744,837.6020059166417,577.948717948718,817.1726886991627,589.7435897435898,796.7433714816837,577.948717948718,796.7433714816837,554.3589743589744" fill="rgb(112, 245, 181)"/><polygon points="898.889957569079,589.7435897435897,919.319274786558,577.948717948718,939.748592004037,589.7435897435897,939.748592004037,613.3333333333334,919.319274786558,625.1282051282051,898.889957569079,613.3333333333334,898.889957569079,589.7435897435897" fill="rgb(112, 245, 181)"/><polygon points="817.1726886991627,518.974358974359,837.6020059166417,507.17948717948724,858.0313231341207,518.974358974359,858.0313231341207,542.5641025641027,837.6020059166417,554.3589743589744,817.1726886991627,542.5641025641027,817.1726886991627,518.974358974359" fill="rgb(112, 245, 181)"/><polygon points="796.7433714816837,483.58974358974365,817.1726886991627,471.7948717948718,837.6020059166417,483.58974358974365,837.6020059166417,507.1794871794872,817.1726886991627,518.974358974359,796.7433714816837,507.1794871794872,796.7433714816837,483.58974358974365" fill="rgb(112, 245, 181)"/><polygon points="776.3140542642046,518.974358974359,796.7433714816837,507.17948717948724,817.1726886991627,518.974358974359,817.1726886991627,542.5641025641027,796.7433714816837,554.3589743589744,776.3140542642046,542.5641025641027,776.3140542642046,518.974358974359" fill="rgb(112, 245, 181)"/><polygon points="837.6020059166418,554.3589743589744,858.0313231341208,542.5641025641025,878.4606403515999,554.3589743589744,878.4606403515999,577.948717948718,858.0313231341208,589.7435897435898,837.6020059166418,577.948717948718,837.6020059166418,554.3589743589744" fill="rgb(112, 245, 181)"/></g></svg>